999
"DXF R12 Output" (www.mydxf.blogspot.com)
 0 
SECTION
 2 
HEADER
 9 
$ACADVER
 1 
AC1009
 9 
$EXTMIN
 10 
 0 
 20 
 0 
 9 
$EXTMAX
 10 
 8.5 
 20 
 11 
 0 
ENDSEC
 0 
SECTION
 2 
ENTITIES
0
LINE
8
Layer 1
10
200.289000
20
164.048000
11
199.900945
21
156.304540
0
LINE
8
Layer 1
10
199.900945
20
156.304540
11
198.969614
21
149.337190
0
LINE
8
Layer 1
10
198.969614
20
149.337190
11
197.706674
21
143.184760
0
LINE
8
Layer 1
10
197.706674
20
143.184760
11
196.256764
21
137.893110
0
LINE
8
Layer 1
10
196.256764
20
137.893110
11
194.764514
21
133.515150
0
LINE
8
Layer 1
10
194.764514
20
133.515150
11
193.378104
21
130.100620
0
LINE
8
Layer 1
10
193.378104
20
130.100620
11
192.238634
21
127.697860
0
LINE
8
Layer 1
10
192.238634
20
127.697860
11
191.494275
21
126.357310
0
LINE
8
Layer 1
10
191.494275
20
126.357310
11
189.398775
21
122.949480
0
LINE
8
Layer 1
10
189.398775
20
122.949480
11
187.303275
21
119.541650
0
LINE
8
Layer 1
10
187.303275
20
119.541650
11
185.207775
21
116.133820
0
LINE
8
Layer 1
10
185.207775
20
116.133820
11
183.112275
21
112.726350
0
LINE
8
Layer 1
10
183.112275
20
112.726350
11
181.016775
21
109.318170
0
LINE
8
Layer 1
10
181.016775
20
109.318170
11
178.921275
21
105.910340
0
LINE
8
Layer 1
10
178.921275
20
105.910340
11
176.825775
21
102.502510
0
LINE
8
Layer 1
10
176.825775
20
102.502510
11
174.730275
21
99.112320
0
LINE
8
Layer 1
10
174.730275
20
99.112320
11
174.152988
21
98.457310
0
LINE
8
Layer 1
10
174.152988
20
98.457310
11
173.395454
21
98.087058
0
LINE
8
Layer 1
10
173.395454
20
98.087058
11
172.553915
21
98.028355
0
LINE
8
Layer 1
10
172.553915
20
98.028355
11
171.724615
21
98.307988
0
LINE
8
Layer 1
10
171.724615
20
98.307988
11
164.797722
21
102.234322
0
LINE
8
Layer 1
10
164.797722
20
102.234322
11
161.752724
21
103.817959
0
LINE
8
Layer 1
10
161.752724
20
103.817959
11
158.823373
21
105.169338
0
LINE
8
Layer 1
10
158.823373
20
105.169338
11
155.887181
21
106.304028
0
LINE
8
Layer 1
10
155.887181
20
106.304028
11
152.821660
21
107.237598
0
LINE
8
Layer 1
10
152.821660
20
107.237598
11
149.504322
21
107.985620
0
LINE
8
Layer 1
10
149.504322
20
107.985620
11
145.812678
21
108.563663
0
LINE
8
Layer 1
10
145.812678
20
108.563663
11
141.624239
21
108.987297
0
LINE
8
Layer 1
10
141.624239
20
108.987297
11
136.816518
21
109.272093
0
LINE
8
Layer 1
10
136.816518
20
109.272093
11
124.853276
21
109.487450
0
LINE
8
Layer 1
10
124.853276
20
109.487450
11
108.943044
21
109.334295
0
LINE
8
Layer 1
10
108.943044
20
109.334295
11
88.105915
21
108.937188
0
LINE
8
Layer 1
10
88.105915
20
108.937188
11
87.248502
21
109.109999
0
LINE
8
Layer 1
10
87.248502
20
109.109999
11
86.548845
21
109.581491
0
LINE
8
Layer 1
10
86.548845
20
109.581491
11
86.077391
21
110.281251
0
LINE
8
Layer 1
10
86.077391
20
110.281251
11
85.904585
21
111.138868
0
LINE
8
Layer 1
10
85.904585
20
111.138868
11
85.904600
21
121.461000
0
LINE
8
Layer 1
10
85.904600
20
121.461000
11
85.731794
21
122.318468
0
LINE
8
Layer 1
10
85.731794
20
122.318468
11
85.260341
21
123.018245
0
LINE
8
Layer 1
10
85.260341
20
123.018245
11
84.560684
21
123.489819
0
LINE
8
Layer 1
10
84.560684
20
123.489819
11
83.703270
21
123.662680
0
LINE
8
Layer 1
10
83.703270
20
123.662680
11
40.964300
21
123.662000
0
LINE
8
Layer 1
10
40.964300
20
123.662000
11
40.106887
21
123.834751
0
LINE
8
Layer 1
10
40.106887
20
123.834751
11
39.407230
21
124.306083
0
LINE
8
Layer 1
10
39.407230
20
124.306083
11
38.935776
21
125.005619
0
LINE
8
Layer 1
10
38.935776
20
125.005619
11
38.762970
21
125.862980
0
LINE
8
Layer 1
10
38.762970
20
125.862980
11
38.763000
21
216.866000
0
LINE
8
Layer 1
10
38.763000
20
216.866000
11
38.851012
21
217.355100
0
LINE
8
Layer 1
10
38.851012
20
217.355100
11
39.112223
21
217.837754
0
LINE
8
Layer 1
10
39.112223
20
217.837754
11
40.137295
21
218.781344
0
LINE
8
Layer 1
10
40.137295
20
218.781344
11
41.804321
21
219.692006
0
LINE
8
Layer 1
10
41.804321
20
219.692006
11
44.079408
21
220.564976
0
LINE
8
Layer 1
10
44.079408
20
220.564976
11
46.928660
21
221.395488
0
LINE
8
Layer 1
10
46.928660
20
221.395488
11
50.318183
21
222.178778
0
LINE
8
Layer 1
10
50.318183
20
222.178778
11
58.582462
21
223.584635
0
LINE
8
Layer 1
10
58.582462
20
223.584635
11
68.601091
21
224.744430
0
LINE
8
Layer 1
10
68.601091
20
224.744430
11
80.102911
21
225.620047
0
LINE
8
Layer 1
10
80.102911
20
225.620047
11
92.816766
21
226.173369
0
LINE
8
Layer 1
10
92.816766
20
226.173369
11
106.471500
21
226.366280
0
LINE
8
Layer 1
10
106.471500
20
226.366280
11
198.088000
21
226.366000
0
LINE
8
Layer 1
10
198.088000
20
226.366000
11
198.945413
21
226.193194
0
LINE
8
Layer 1
10
198.945413
20
226.193194
11
199.645070
21
225.721741
0
LINE
8
Layer 1
10
199.645070
20
225.721741
11
200.116524
21
225.022084
0
LINE
8
Layer 1
10
200.116524
20
225.022084
11
200.289330
21
224.164670
0
LINE
8
Layer 1
10
200.289330
20
224.164670
11
200.289000
21
164.048000
0
LINE
8
Layer 1
10
172.662000
20
104.826000
11
172.569738
21
104.369160
0
LINE
8
Layer 1
10
172.569738
20
104.369160
11
172.318131
21
103.995961
0
LINE
8
Layer 1
10
172.318131
20
103.995961
11
171.944948
21
103.744272
0
LINE
8
Layer 1
10
171.944948
20
103.744272
11
171.487960
21
103.651960
0
LINE
8
Layer 1
10
171.487960
20
103.651960
11
171.031378
21
103.744272
0
LINE
8
Layer 1
10
171.031378
20
103.744272
11
170.658403
21
103.995962
0
LINE
8
Layer 1
10
170.658403
20
103.995962
11
170.406872
21
104.369161
0
LINE
8
Layer 1
10
170.406872
20
104.369161
11
170.314620
21
104.826000
0
LINE
8
Layer 1
10
170.314620
20
104.826000
11
170.406871
21
105.283044
0
LINE
8
Layer 1
10
170.406871
20
105.283044
11
170.658402
21
105.656346
0
LINE
8
Layer 1
10
170.658402
20
105.656346
11
171.031376
21
105.908073
0
LINE
8
Layer 1
10
171.031376
20
105.908073
11
171.487960
21
106.000390
0
LINE
8
Layer 1
10
171.487960
20
106.000390
11
171.944796
21
105.907852
0
LINE
8
Layer 1
10
171.944796
20
105.907852
11
172.317995
21
105.656049
0
LINE
8
Layer 1
10
172.317995
20
105.656049
11
172.569687
21
105.282819
0
LINE
8
Layer 1
10
172.569687
20
105.282819
11
172.662000
21
104.826000
0
LINE
8
Layer 1
10
172.662000
20
104.826000
11
172.662000
21
104.826000
0
LINE
8
Layer 1
10
45.284500
20
129.146000
11
45.192238
21
128.689160
0
LINE
8
Layer 1
10
45.192238
20
128.689160
11
44.940631
21
128.315961
0
LINE
8
Layer 1
10
44.940631
20
128.315961
11
44.567448
21
128.064272
0
LINE
8
Layer 1
10
44.567448
20
128.064272
11
44.110460
21
127.971960
0
LINE
8
Layer 1
10
44.110460
20
127.971960
11
43.653878
21
128.064272
0
LINE
8
Layer 1
10
43.653878
20
128.064272
11
43.280903
21
128.315962
0
LINE
8
Layer 1
10
43.280903
20
128.315962
11
43.029372
21
128.689161
0
LINE
8
Layer 1
10
43.029372
20
128.689161
11
42.937120
21
129.146000
0
LINE
8
Layer 1
10
42.937120
20
129.146000
11
43.029371
21
129.603044
0
LINE
8
Layer 1
10
43.029371
20
129.603044
11
43.280902
21
129.976346
0
LINE
8
Layer 1
10
43.280902
20
129.976346
11
43.653876
21
130.228073
0
LINE
8
Layer 1
10
43.653876
20
130.228073
11
44.110460
21
130.320390
0
LINE
8
Layer 1
10
44.110460
20
130.320390
11
44.567464
21
130.227852
0
LINE
8
Layer 1
10
44.567464
20
130.227852
11
44.940645
21
129.976049
0
LINE
8
Layer 1
10
44.940645
20
129.976049
11
45.192243
21
129.602819
0
LINE
8
Layer 1
10
45.192243
20
129.602819
11
45.284500
21
129.146000
0
LINE
8
Layer 1
10
45.284500
20
129.146000
11
45.284500
21
129.146000
0
LINE
8
Layer 1
10
45.141100
20
214.226000
11
45.048838
21
213.769160
0
LINE
8
Layer 1
10
45.048838
20
213.769160
11
44.797231
21
213.395961
0
LINE
8
Layer 1
10
44.797231
20
213.395961
11
44.424048
21
213.144272
0
LINE
8
Layer 1
10
44.424048
20
213.144272
11
43.967060
21
213.051960
0
LINE
8
Layer 1
10
43.967060
20
213.051960
11
43.510478
21
213.144272
0
LINE
8
Layer 1
10
43.510478
20
213.144272
11
43.137503
21
213.395962
0
LINE
8
Layer 1
10
43.137503
20
213.395962
11
42.885972
21
213.769161
0
LINE
8
Layer 1
10
42.885972
20
213.769161
11
42.793720
21
214.226000
0
LINE
8
Layer 1
10
42.793720
20
214.226000
11
42.885971
21
214.683044
0
LINE
8
Layer 1
10
42.885971
20
214.683044
11
43.137502
21
215.056346
0
LINE
8
Layer 1
10
43.137502
20
215.056346
11
43.510476
21
215.308073
0
LINE
8
Layer 1
10
43.510476
20
215.308073
11
43.967060
21
215.400390
0
LINE
8
Layer 1
10
43.967060
20
215.400390
11
44.424064
21
215.307852
0
LINE
8
Layer 1
10
44.424064
20
215.307852
11
44.797245
21
215.056049
0
LINE
8
Layer 1
10
44.797245
20
215.056049
11
45.048843
21
214.682819
0
LINE
8
Layer 1
10
45.048843
20
214.682819
11
45.141100
21
214.226000
0
LINE
8
Layer 1
10
45.141100
20
214.226000
11
45.141100
21
214.226000
0
LINE
8
Layer 1
10
158.342000
20
221.573000
11
158.249738
21
221.116160
0
LINE
8
Layer 1
10
158.249738
20
221.116160
11
157.998131
21
220.742961
0
LINE
8
Layer 1
10
157.998131
20
220.742961
11
157.624948
21
220.491272
0
LINE
8
Layer 1
10
157.624948
20
220.491272
11
157.167960
21
220.398960
0
LINE
8
Layer 1
10
157.167960
20
220.398960
11
156.711378
21
220.491272
0
LINE
8
Layer 1
10
156.711378
20
220.491272
11
156.338403
21
220.742962
0
LINE
8
Layer 1
10
156.338403
20
220.742962
11
156.086872
21
221.116161
0
LINE
8
Layer 1
10
156.086872
20
221.116161
11
155.994620
21
221.573000
0
LINE
8
Layer 1
10
155.994620
20
221.573000
11
156.086871
21
222.030044
0
LINE
8
Layer 1
10
156.086871
20
222.030044
11
156.338402
21
222.403346
0
LINE
8
Layer 1
10
156.338402
20
222.403346
11
156.711376
21
222.655073
0
LINE
8
Layer 1
10
156.711376
20
222.655073
11
157.167960
21
222.747390
0
LINE
8
Layer 1
10
157.167960
20
222.747390
11
157.624796
21
222.654852
0
LINE
8
Layer 1
10
157.624796
20
222.654852
11
157.997995
21
222.403049
0
LINE
8
Layer 1
10
157.997995
20
222.403049
11
158.249687
21
222.029819
0
LINE
8
Layer 1
10
158.249687
20
222.029819
11
158.342000
21
221.573000
0
LINE
8
Layer 1
10
158.342000
20
221.573000
11
158.342000
21
221.573000
0
LINE
8
Layer 1
10
196.197000
20
221.052000
11
196.104738
21
220.595160
0
LINE
8
Layer 1
10
196.104738
20
220.595160
11
195.853131
21
220.221961
0
LINE
8
Layer 1
10
195.853131
20
220.221961
11
195.479948
21
219.970272
0
LINE
8
Layer 1
10
195.479948
20
219.970272
11
195.022960
21
219.877960
0
LINE
8
Layer 1
10
195.022960
20
219.877960
11
194.566378
21
219.970272
0
LINE
8
Layer 1
10
194.566378
20
219.970272
11
194.193403
21
220.221962
0
LINE
8
Layer 1
10
194.193403
20
220.221962
11
193.941872
21
220.595161
0
LINE
8
Layer 1
10
193.941872
20
220.595161
11
193.849620
21
221.052000
0
LINE
8
Layer 1
10
193.849620
20
221.052000
11
193.941871
21
221.509044
0
LINE
8
Layer 1
10
193.941871
20
221.509044
11
194.193402
21
221.882346
0
LINE
8
Layer 1
10
194.193402
20
221.882346
11
194.566376
21
222.134073
0
LINE
8
Layer 1
10
194.566376
20
222.134073
11
195.022960
21
222.226390
0
LINE
8
Layer 1
10
195.022960
20
222.226390
11
195.479796
21
222.133852
0
LINE
8
Layer 1
10
195.479796
20
222.133852
11
195.852995
21
221.882049
0
LINE
8
Layer 1
10
195.852995
20
221.882049
11
196.104687
21
221.508819
0
LINE
8
Layer 1
10
196.104687
20
221.508819
11
196.197000
21
221.052000
0
LINE
8
Layer 1
10
196.197000
20
221.052000
11
196.197000
21
221.052000
0
LINE
8
Layer 1
10
297.897000
20
99.431500
11
297.443772
21
98.522725
0
LINE
8
Layer 1
10
297.443772
20
98.522725
11
296.582457
21
96.442310
0
LINE
8
Layer 1
10
296.582457
20
96.442310
11
296.232379
21
95.265507
0
LINE
8
Layer 1
10
296.232379
20
95.265507
11
296.060612
21
94.159117
0
LINE
8
Layer 1
10
296.060612
20
94.159117
11
296.160601
21
93.244249
0
LINE
8
Layer 1
10
296.160601
20
93.244249
11
296.625790
21
92.642010
0
LINE
8
Layer 1
10
296.625790
20
92.642010
11
302.576380
21
89.122930
0
LINE
8
Layer 1
10
302.576380
20
89.122930
11
303.407059
21
88.847874
0
LINE
8
Layer 1
10
303.407059
20
88.847874
11
304.247659
21
88.906854
0
LINE
8
Layer 1
10
304.247659
20
88.906854
11
305.002270
21
89.276719
0
LINE
8
Layer 1
10
305.002270
20
89.276719
11
305.574980
21
89.934317
0
LINE
8
Layer 1
10
305.574980
20
89.934317
11
323.072680
21
118.544517
0
LINE
8
Layer 1
10
323.072680
20
118.544517
11
324.201570
21
120.943757
0
LINE
8
Layer 1
10
324.201570
20
120.943757
11
325.577400
21
124.365337
0
LINE
8
Layer 1
10
325.577400
20
124.365337
11
327.059060
21
128.739767
0
LINE
8
Layer 1
10
327.059060
20
128.739767
11
328.505450
21
134.031417
0
LINE
8
Layer 1
10
328.505450
20
134.031417
11
329.775450
21
140.170087
0
LINE
8
Layer 1
10
329.775450
20
140.170087
11
330.692670
21
147.119437
0
LINE
8
Layer 1
10
330.692670
20
147.119437
11
331.186558
21
154.810327
0
LINE
8
Layer 1
10
331.186558
20
154.810327
11
331.187000
21
214.923000
0
LINE
8
Layer 1
10
331.187000
20
214.923000
11
331.013919
21
215.770767
0
LINE
8
Layer 1
10
331.013919
20
215.770767
11
330.543182
21
216.466400
0
LINE
8
Layer 1
10
330.543182
20
216.466400
11
329.847549
21
216.937138
0
LINE
8
Layer 1
10
329.847549
20
216.937138
11
328.999780
21
217.110220
0
LINE
8
Layer 1
10
328.999780
20
217.110220
11
323.919000
21
217.110000
0
LINE
8
Layer 1
10
323.919000
20
217.110000
11
321.162982
21
217.055986
0
LINE
8
Layer 1
10
321.162982
20
217.055986
11
320.938813
21
217.018851
0
LINE
8
Layer 1
10
320.938813
20
217.018851
11
320.952630
21
217.001971
0
LINE
8
Layer 1
10
320.952630
20
217.001971
11
320.303020
21
208.265508
0
LINE
8
Layer 1
10
320.303020
20
208.265508
11
320.047859
21
199.863813
0
LINE
8
Layer 1
10
320.047859
20
199.863813
11
320.080010
21
191.764815
0
LINE
8
Layer 1
10
320.080010
20
191.764815
11
320.292338
21
183.936443
0
LINE
8
Layer 1
10
320.292338
20
183.936443
11
320.828981
21
168.963293
0
LINE
8
Layer 1
10
320.828981
20
168.963293
11
320.939024
21
161.754374
0
LINE
8
Layer 1
10
320.939024
20
161.754374
11
320.800701
21
154.687796
0
LINE
8
Layer 1
10
320.800701
20
154.687796
11
320.306876
21
147.731490
0
LINE
8
Layer 1
10
320.306876
20
147.731490
11
319.350413
21
140.853383
0
LINE
8
Layer 1
10
319.350413
20
140.853383
11
318.665212
21
137.433633
0
LINE
8
Layer 1
10
318.665212
20
137.433633
11
317.824175
21
134.021406
0
LINE
8
Layer 1
10
317.824175
20
134.021406
11
316.813912
21
130.612693
0
LINE
8
Layer 1
10
316.813912
20
130.612693
11
315.621029
21
127.203487
0
LINE
8
Layer 1
10
315.621029
20
127.203487
11
314.232134
21
123.789777
0
LINE
8
Layer 1
10
314.232134
20
123.789777
11
312.633836
21
120.367555
0
LINE
8
Layer 1
10
312.633836
20
120.367555
11
310.812743
21
116.932811
0
LINE
8
Layer 1
10
310.812743
20
116.932811
11
308.755463
21
113.481539
0
LINE
8
Layer 1
10
308.755463
20
113.481539
11
306.448604
21
110.009727
0
LINE
8
Layer 1
10
306.448604
20
110.009727
11
303.878773
21
106.513368
0
LINE
8
Layer 1
10
303.878773
20
106.513368
11
301.032579
21
102.988452
0
LINE
8
Layer 1
10
301.032579
20
102.988452
11
297.896630
21
99.430971
0
LINE
8
Layer 1
10
297.896630
20
99.430971
11
297.897000
21
99.431500
0
LINE
8
Layer 1
10
324.758000
20
211.796000
11
324.850262
21
212.252840
0
LINE
8
Layer 1
10
324.850262
20
212.252840
11
325.101869
21
212.626039
0
LINE
8
Layer 1
10
325.101869
20
212.626039
11
325.475052
21
212.877728
0
LINE
8
Layer 1
10
325.475052
20
212.877728
11
325.932040
21
212.970040
0
LINE
8
Layer 1
10
325.932040
20
212.970040
11
326.388622
21
212.877728
0
LINE
8
Layer 1
10
326.388622
20
212.877728
11
326.761597
21
212.626038
0
LINE
8
Layer 1
10
326.761597
20
212.626038
11
327.013128
21
212.252839
0
LINE
8
Layer 1
10
327.013128
20
212.252839
11
327.105380
21
211.796000
0
LINE
8
Layer 1
10
327.105380
20
211.796000
11
327.013129
21
211.338956
0
LINE
8
Layer 1
10
327.013129
20
211.338956
11
326.761598
21
210.965654
0
LINE
8
Layer 1
10
326.761598
20
210.965654
11
326.388624
21
210.713927
0
LINE
8
Layer 1
10
326.388624
20
210.713927
11
325.932040
21
210.621610
0
LINE
8
Layer 1
10
325.932040
20
210.621610
11
325.475204
21
210.714148
0
LINE
8
Layer 1
10
325.475204
20
210.714148
11
325.102005
21
210.965951
0
LINE
8
Layer 1
10
325.102005
20
210.965951
11
324.850313
21
211.339181
0
LINE
8
Layer 1
10
324.850313
20
211.339181
11
324.758000
21
211.796000
0
LINE
8
Layer 1
10
324.758000
20
211.796000
11
324.758000
21
211.796000
0
LINE
8
Layer 1
10
301.202000
20
95.579000
11
301.294262
21
96.035840
0
LINE
8
Layer 1
10
301.294262
20
96.035840
11
301.545869
21
96.409039
0
LINE
8
Layer 1
10
301.545869
20
96.409039
11
301.919052
21
96.660728
0
LINE
8
Layer 1
10
301.919052
20
96.660728
11
302.376040
21
96.753040
0
LINE
8
Layer 1
10
302.376040
20
96.753040
11
302.832622
21
96.660728
0
LINE
8
Layer 1
10
302.832622
20
96.660728
11
303.205597
21
96.409038
0
LINE
8
Layer 1
10
303.205597
20
96.409038
11
303.457128
21
96.035839
0
LINE
8
Layer 1
10
303.457128
20
96.035839
11
303.549380
21
95.579000
0
LINE
8
Layer 1
10
303.549380
20
95.579000
11
303.457129
21
95.121956
0
LINE
8
Layer 1
10
303.457129
20
95.121956
11
303.205598
21
94.748653
0
LINE
8
Layer 1
10
303.205598
20
94.748653
11
302.832624
21
94.496927
0
LINE
8
Layer 1
10
302.832624
20
94.496927
11
302.376040
21
94.404610
0
LINE
8
Layer 1
10
302.376040
20
94.404610
11
301.919204
21
94.496923
0
LINE
8
Layer 1
10
301.919204
20
94.496923
11
301.546005
21
94.748651
0
LINE
8
Layer 1
10
301.546005
20
94.748651
11
301.294313
21
95.121956
0
LINE
8
Layer 1
10
301.294313
20
95.121956
11
301.202000
21
95.579000
0
LINE
8
Layer 1
10
301.202000
20
95.579000
11
301.202000
21
95.579000
0
LINE
8
Layer 1
10
66.503800
20
258.595000
11
66.676551
21
257.737587
0
LINE
8
Layer 1
10
66.676551
20
257.737587
11
67.147618
21
257.037930
0
LINE
8
Layer 1
10
67.147618
20
257.037930
11
67.846227
21
256.566476
0
LINE
8
Layer 1
10
67.846227
20
256.566476
11
68.701600
21
256.393670
0
LINE
8
Layer 1
10
68.701600
20
256.393670
11
89.538762
21
256.790784
0
LINE
8
Layer 1
10
89.538762
20
256.790784
11
105.449017
21
256.943944
0
LINE
8
Layer 1
10
105.449017
20
256.943944
11
117.412274
21
256.728590
0
LINE
8
Layer 1
10
117.412274
20
256.728590
11
122.219998
21
256.443794
0
LINE
8
Layer 1
10
122.219998
20
256.443794
11
126.408438
21
256.020160
0
LINE
8
Layer 1
10
126.408438
20
256.020160
11
130.100081
21
255.442117
0
LINE
8
Layer 1
10
130.100081
20
255.442117
11
133.417415
21
254.694094
0
LINE
8
Layer 1
10
133.417415
20
254.694094
11
136.482930
21
253.760522
0
LINE
8
Layer 1
10
136.482930
20
253.760522
11
139.419114
21
252.625831
0
LINE
8
Layer 1
10
139.419114
20
252.625831
11
142.348454
21
251.274451
0
LINE
8
Layer 1
10
142.348454
20
251.274451
11
145.393440
21
249.690810
0
LINE
8
Layer 1
10
145.393440
20
249.690810
11
152.320300
21
245.764470
0
LINE
8
Layer 1
10
152.320300
20
245.764470
11
153.149600
21
245.486383
0
LINE
8
Layer 1
10
153.149600
20
245.486383
11
153.991138
21
245.545307
0
LINE
8
Layer 1
10
153.991138
20
245.545307
11
154.748672
21
245.915778
0
LINE
8
Layer 1
10
154.748672
20
245.915778
11
155.325960
21
246.572329
0
LINE
8
Layer 1
10
155.325960
20
246.572329
11
172.834260
21
275.164929
0
LINE
8
Layer 1
10
172.834260
20
275.164929
11
173.973730
21
277.567339
0
LINE
8
Layer 1
10
173.973730
20
277.567339
11
175.360140
21
280.982219
0
LINE
8
Layer 1
10
175.360140
20
280.982219
11
176.852390
21
285.360179
0
LINE
8
Layer 1
10
176.852390
20
285.360179
11
178.302300
21
290.648309
0
LINE
8
Layer 1
10
178.302300
20
290.648309
11
179.565240
21
296.804269
0
LINE
8
Layer 1
10
179.565240
20
296.804269
11
180.496571
21
303.771619
0
LINE
8
Layer 1
10
180.496571
20
303.771619
11
180.884626
21
311.515079
0
LINE
8
Layer 1
10
180.884626
20
311.515079
11
180.885000
21
371.618000
0
LINE
8
Layer 1
10
180.885000
20
371.618000
11
180.712194
21
372.475413
0
LINE
8
Layer 1
10
180.712194
20
372.475413
11
180.240741
21
373.175070
0
LINE
8
Layer 1
10
180.240741
20
373.175070
11
179.541084
21
373.646524
0
LINE
8
Layer 1
10
179.541084
20
373.646524
11
178.683670
21
373.819330
0
LINE
8
Layer 1
10
178.683670
20
373.819330
11
173.586000
21
373.819000
0
LINE
8
Layer 1
10
173.586000
20
373.819000
11
172.728587
21
373.646194
0
LINE
8
Layer 1
10
172.728587
20
373.646194
11
172.028930
21
373.174741
0
LINE
8
Layer 1
10
172.028930
20
373.174741
11
171.557476
21
372.475084
0
LINE
8
Layer 1
10
171.557476
20
372.475084
11
171.384670
21
371.617670
0
LINE
8
Layer 1
10
171.384670
20
371.617670
11
171.384000
21
324.261000
0
LINE
8
Layer 1
10
171.384000
20
324.261000
11
171.211139
21
323.403256
0
LINE
8
Layer 1
10
171.211139
20
323.403256
11
170.739299
21
322.698639
0
LINE
8
Layer 1
10
170.739299
20
322.698639
11
170.038595
21
322.211640
0
LINE
8
Layer 1
10
170.038595
20
322.211640
11
169.179140
21
322.006750
0
LINE
8
Layer 1
10
169.179140
20
322.006750
11
145.839440
21
322.063194
0
LINE
8
Layer 1
10
145.839440
20
322.063194
11
144.982027
21
322.236000
0
LINE
8
Layer 1
10
144.982027
20
322.236000
11
144.282370
21
322.707454
0
LINE
8
Layer 1
10
144.282370
20
322.707454
11
143.810916
21
323.407110
0
LINE
8
Layer 1
10
143.810916
20
323.407110
11
143.638110
21
324.264524
0
LINE
8
Layer 1
10
143.638110
20
324.264524
11
143.638000
21
371.621000
0
LINE
8
Layer 1
10
143.638000
20
371.621000
11
143.465194
21
372.478413
0
LINE
8
Layer 1
10
143.465194
20
372.478413
11
142.993741
21
373.178070
0
LINE
8
Layer 1
10
142.993741
20
373.178070
11
142.294084
21
373.649524
0
LINE
8
Layer 1
10
142.294084
20
373.649524
11
141.436670
21
373.822330
0
LINE
8
Layer 1
10
141.436670
20
373.822330
11
87.070700
21
373.823000
0
LINE
8
Layer 1
10
87.070700
20
373.823000
11
70.984950
21
373.553566
0
LINE
8
Layer 1
10
70.984950
20
373.553566
11
56.290900
21
372.789360
0
LINE
8
Layer 1
10
56.290900
20
372.789360
11
48.408213
21
372.125318
0
LINE
8
Layer 1
10
48.408213
20
372.125318
11
41.269662
21
371.322082
0
LINE
8
Layer 1
10
41.269662
20
371.322082
11
34.969837
21
370.392921
0
LINE
8
Layer 1
10
34.969837
20
370.392921
11
29.603325
21
369.351106
0
LINE
8
Layer 1
10
29.603325
20
369.351106
11
25.264716
21
368.209908
0
LINE
8
Layer 1
10
25.264716
20
368.209908
11
22.048600
21
366.982595
0
LINE
8
Layer 1
10
22.048600
20
366.982595
11
20.891035
21
366.340793
0
LINE
8
Layer 1
10
20.891035
20
366.340793
11
20.049565
21
365.682439
0
LINE
8
Layer 1
10
20.049565
20
365.682439
11
19.536012
21
365.009192
0
LINE
8
Layer 1
10
19.536012
20
365.009192
11
19.362200
21
364.322710
0
LINE
8
Layer 1
10
19.362200
20
364.322710
11
19.362200
21
273.320000
0
LINE
8
Layer 1
10
19.362200
20
273.320000
11
19.535006
21
272.462587
0
LINE
8
Layer 1
10
19.535006
20
272.462587
11
20.006459
21
271.762930
0
LINE
8
Layer 1
10
20.006459
20
271.762930
11
20.706116
21
271.291476
0
LINE
8
Layer 1
10
20.706116
20
271.291476
11
21.563530
21
271.118670
0
LINE
8
Layer 1
10
21.563530
20
271.118670
11
64.302500
21
271.119000
0
LINE
8
Layer 1
10
64.302500
20
271.119000
11
65.159917
21
270.946078
0
LINE
8
Layer 1
10
65.159917
20
270.946078
11
65.859562
21
270.474375
0
LINE
8
Layer 1
10
65.859562
20
270.474375
11
66.331002
21
269.774484
0
LINE
8
Layer 1
10
66.331002
20
269.774484
11
66.503800
21
268.917000
0
LINE
8
Layer 1
10
66.503800
20
268.917000
11
66.503800
21
258.595000
0
LINE
8
Layer 1
10
64.619800
20
356.004000
11
50.618100
21
356.004000
0
LINE
8
Layer 1
10
50.618100
20
356.004000
11
50.618100
21
342.003000
0
LINE
8
Layer 1
10
50.618100
20
342.003000
11
64.619800
21
342.003000
0
LINE
8
Layer 1
10
64.619800
20
342.003000
11
64.619800
21
356.004000
0
LINE
8
Layer 1
10
64.619800
20
298.907000
11
50.618100
21
298.907000
0
LINE
8
Layer 1
10
50.618100
20
298.907000
11
50.618100
21
284.906000
0
LINE
8
Layer 1
10
50.618100
20
284.906000
11
64.619800
21
284.906000
0
LINE
8
Layer 1
10
64.619800
20
284.906000
11
64.619800
21
298.907000
0
LINE
8
Layer 1
10
64.633900
20
317.904000
11
50.632200
21
317.904000
0
LINE
8
Layer 1
10
50.632200
20
317.904000
11
50.632200
21
303.903000
0
LINE
8
Layer 1
10
50.632200
20
303.903000
11
64.633900
21
303.903000
0
LINE
8
Layer 1
10
64.633900
20
303.903000
11
64.633900
21
317.904000
0
LINE
8
Layer 1
10
64.619800
20
337.106000
11
50.618100
21
337.106000
0
LINE
8
Layer 1
10
50.618100
20
337.106000
11
50.618100
21
323.104000
0
LINE
8
Layer 1
10
50.618100
20
323.104000
11
64.619800
21
323.104000
0
LINE
8
Layer 1
10
64.619800
20
323.104000
11
64.619800
21
337.106000
0
LINE
8
Layer 1
10
83.722700
20
303.606000
11
69.721000
21
303.606000
0
LINE
8
Layer 1
10
69.721000
20
303.606000
11
69.721000
21
289.605000
0
LINE
8
Layer 1
10
69.721000
20
289.605000
11
83.722700
21
289.605000
0
LINE
8
Layer 1
10
83.722700
20
289.605000
11
83.722700
21
303.606000
0
LINE
8
Layer 1
10
83.719200
20
322.706000
11
69.717500
21
322.706000
0
LINE
8
Layer 1
10
69.717500
20
322.706000
11
69.717500
21
308.704000
0
LINE
8
Layer 1
10
69.717500
20
308.704000
11
83.719200
21
308.704000
0
LINE
8
Layer 1
10
83.719200
20
308.704000
11
83.719200
21
322.706000
0
LINE
8
Layer 1
10
83.722700
20
341.805000
11
69.721000
21
341.805000
0
LINE
8
Layer 1
10
69.721000
20
341.805000
11
69.721000
21
327.803000
0
LINE
8
Layer 1
10
69.721000
20
327.803000
11
83.722700
21
327.803000
0
LINE
8
Layer 1
10
83.722700
20
327.803000
11
83.722700
21
341.805000
0
LINE
8
Layer 1
10
83.715700
20
360.806000
11
69.713900
21
360.806000
0
LINE
8
Layer 1
10
69.713900
20
360.806000
11
69.713900
21
346.804000
0
LINE
8
Layer 1
10
69.713900
20
346.804000
11
83.715700
21
346.804000
0
LINE
8
Layer 1
10
83.715700
20
346.804000
11
83.715700
21
360.806000
0
LINE
8
Layer 1
10
102.790000
20
362.196000
11
88.788600
21
362.196000
0
LINE
8
Layer 1
10
88.788600
20
362.196000
11
88.788600
21
348.194000
0
LINE
8
Layer 1
10
88.788600
20
348.194000
11
102.790000
21
348.194000
0
LINE
8
Layer 1
10
102.790000
20
348.194000
11
102.790000
21
362.196000
0
LINE
8
Layer 1
10
102.720000
20
343.107000
11
88.718000
21
343.107000
0
LINE
8
Layer 1
10
88.718000
20
343.107000
11
88.718000
21
329.105000
0
LINE
8
Layer 1
10
88.718000
20
329.105000
11
102.720000
21
329.105000
0
LINE
8
Layer 1
10
102.720000
20
329.105000
11
102.720000
21
343.107000
0
LINE
8
Layer 1
10
102.720000
20
324.008000
11
88.718000
21
324.008000
0
LINE
8
Layer 1
10
88.718000
20
324.008000
11
88.718000
21
310.006000
0
LINE
8
Layer 1
10
88.718000
20
310.006000
11
102.720000
21
310.006000
0
LINE
8
Layer 1
10
102.720000
20
310.006000
11
102.720000
21
324.008000
0
LINE
8
Layer 1
10
102.720000
20
305.007000
11
88.718000
21
305.007000
0
LINE
8
Layer 1
10
88.718000
20
305.007000
11
88.718000
21
291.005000
0
LINE
8
Layer 1
10
88.718000
20
291.005000
11
102.720000
21
291.005000
0
LINE
8
Layer 1
10
102.720000
20
291.005000
11
102.720000
21
305.007000
0
LINE
8
Layer 1
10
112.322000
20
284.655000
11
98.320600
21
284.655000
0
LINE
8
Layer 1
10
98.320600
20
284.655000
11
98.320600
21
270.653000
0
LINE
8
Layer 1
10
98.320600
20
270.653000
11
112.322000
21
270.653000
0
LINE
8
Layer 1
10
112.322000
20
270.653000
11
112.322000
21
284.655000
0
LINE
8
Layer 1
10
131.323000
20
282.404000
11
117.321000
21
282.404000
0
LINE
8
Layer 1
10
117.321000
20
282.404000
11
117.321000
21
268.403000
0
LINE
8
Layer 1
10
117.321000
20
268.403000
11
131.323000
21
268.403000
0
LINE
8
Layer 1
10
131.323000
20
268.403000
11
131.323000
21
282.404000
0
LINE
8
Layer 1
10
121.819000
20
303.606000
11
107.817000
21
303.606000
0
LINE
8
Layer 1
10
107.817000
20
303.606000
11
107.817000
21
289.605000
0
LINE
8
Layer 1
10
107.817000
20
289.605000
11
121.819000
21
289.605000
0
LINE
8
Layer 1
10
121.819000
20
289.605000
11
121.819000
21
303.606000
0
LINE
8
Layer 1
10
121.819000
20
322.706000
11
107.817000
21
322.706000
0
LINE
8
Layer 1
10
107.817000
20
322.706000
11
107.817000
21
308.704000
0
LINE
8
Layer 1
10
107.817000
20
308.704000
11
121.819000
21
308.704000
0
LINE
8
Layer 1
10
121.819000
20
308.704000
11
121.819000
21
322.706000
0
LINE
8
Layer 1
10
121.823000
20
341.706000
11
107.821000
21
341.706000
0
LINE
8
Layer 1
10
107.821000
20
341.706000
11
107.821000
21
327.705000
0
LINE
8
Layer 1
10
107.821000
20
327.705000
11
121.823000
21
327.705000
0
LINE
8
Layer 1
10
121.823000
20
327.705000
11
121.823000
21
341.706000
0
LINE
8
Layer 1
10
121.823000
20
360.806000
11
107.821000
21
360.806000
0
LINE
8
Layer 1
10
107.821000
20
360.806000
11
107.821000
21
346.804000
0
LINE
8
Layer 1
10
107.821000
20
346.804000
11
121.823000
21
346.804000
0
LINE
8
Layer 1
10
121.823000
20
346.804000
11
121.823000
21
360.806000
0
LINE
8
Layer 1
10
140.820000
20
358.407000
11
126.818000
21
358.407000
0
LINE
8
Layer 1
10
126.818000
20
358.407000
11
126.818000
21
344.405000
0
LINE
8
Layer 1
10
126.818000
20
344.405000
11
140.820000
21
344.405000
0
LINE
8
Layer 1
10
140.820000
20
344.405000
11
140.820000
21
358.407000
0
LINE
8
Layer 1
10
140.820000
20
339.304000
11
126.818000
21
339.304000
0
LINE
8
Layer 1
10
126.818000
20
339.304000
11
126.818000
21
325.302000
0
LINE
8
Layer 1
10
126.818000
20
325.302000
11
140.820000
21
325.302000
0
LINE
8
Layer 1
10
140.820000
20
325.302000
11
140.820000
21
339.304000
0
LINE
8
Layer 1
10
140.820000
20
320.307000
11
126.818000
21
320.307000
0
LINE
8
Layer 1
10
126.818000
20
320.307000
11
126.818000
21
306.305000
0
LINE
8
Layer 1
10
126.818000
20
306.305000
11
140.820000
21
306.305000
0
LINE
8
Layer 1
10
140.820000
20
306.305000
11
140.820000
21
320.307000
0
LINE
8
Layer 1
10
140.820000
20
301.306000
11
126.818000
21
301.306000
0
LINE
8
Layer 1
10
126.818000
20
301.306000
11
126.818000
21
287.305000
0
LINE
8
Layer 1
10
126.818000
20
287.305000
11
140.820000
21
287.305000
0
LINE
8
Layer 1
10
140.820000
20
287.305000
11
140.820000
21
301.306000
0
LINE
8
Layer 1
10
158.884000
20
276.970000
11
146.758300
21
283.970860
0
LINE
8
Layer 1
10
146.758300
20
283.970860
11
139.757440
21
271.845160
0
LINE
8
Layer 1
10
139.757440
20
271.845160
11
151.883140
21
264.844300
0
LINE
8
Layer 1
10
151.883140
20
264.844300
11
158.884000
21
276.970000
0
LINE
8
Layer 1
10
93.219600
20
284.655000
11
79.217900
21
284.655000
0
LINE
8
Layer 1
10
79.221500
20
284.655000
11
79.221500
21
270.653000
0
LINE
8
Layer 1
10
79.221500
20
270.653000
11
93.219700
21
270.653000
0
LINE
8
Layer 1
10
93.219600
20
275.084000
11
93.219600
21
284.658000
0
LINE
8
Layer 1
10
93.219600
20
270.653000
11
93.219600
21
275.080000
0
LINE
8
Layer 1
10
45.622900
20
354.505000
11
31.621200
21
354.505000
0
LINE
8
Layer 1
10
31.621100
20
354.505000
11
31.621100
21
340.503000
0
LINE
8
Layer 1
10
31.621100
20
340.506000
11
45.622800
21
340.506000
0
LINE
8
Layer 1
10
45.622900
20
340.506000
11
45.622900
21
354.504000
0
LINE
8
Layer 1
10
45.622900
20
335.606000
11
31.621200
21
335.606000
0
LINE
8
Layer 1
10
31.621100
20
335.606000
11
31.621100
21
321.608000
0
LINE
8
Layer 1
10
31.621100
20
321.608000
11
45.622800
21
321.608000
0
LINE
8
Layer 1
10
45.622900
20
321.608000
11
45.622900
21
335.606000
0
LINE
8
Layer 1
10
45.569800
20
297.405000
11
31.568100
21
297.405000
0
LINE
8
Layer 1
10
31.568100
20
297.405000
11
31.568100
21
283.403000
0
LINE
8
Layer 1
10
31.568100
20
283.403000
11
45.569800
21
283.403000
0
LINE
8
Layer 1
10
45.569800
20
283.403000
11
45.569800
21
297.405000
0
LINE
8
Layer 1
10
45.619200
20
316.405000
11
31.617500
21
316.405000
0
LINE
8
Layer 1
10
31.617500
20
316.405000
11
31.617500
21
302.403000
0
LINE
8
Layer 1
10
31.617500
20
302.403000
11
45.619200
21
302.403000
0
LINE
8
Layer 1
10
45.619200
20
302.403000
11
45.619200
21
316.405000
0
LINE
8
Layer 1
10
23.376800
20
361.699000
11
23.469062
21
362.155840
0
LINE
8
Layer 1
10
23.469062
20
362.155840
11
23.720669
21
362.529039
0
LINE
8
Layer 1
10
23.720669
20
362.529039
11
24.093852
21
362.780728
0
LINE
8
Layer 1
10
24.093852
20
362.780728
11
24.550840
21
362.873040
0
LINE
8
Layer 1
10
24.550840
20
362.873040
11
25.007422
21
362.780728
0
LINE
8
Layer 1
10
25.007422
20
362.780728
11
25.380397
21
362.529038
0
LINE
8
Layer 1
10
25.380397
20
362.529038
11
25.631928
21
362.155839
0
LINE
8
Layer 1
10
25.631928
20
362.155839
11
25.724180
21
361.699000
0
LINE
8
Layer 1
10
25.724180
20
361.699000
11
25.631929
21
361.241956
0
LINE
8
Layer 1
10
25.631929
20
361.241956
11
25.380398
21
360.868653
0
LINE
8
Layer 1
10
25.380398
20
360.868653
11
25.007424
21
360.616927
0
LINE
8
Layer 1
10
25.007424
20
360.616927
11
24.550840
21
360.524610
0
LINE
8
Layer 1
10
24.550840
20
360.524610
11
24.093836
21
360.617148
0
LINE
8
Layer 1
10
24.093836
20
360.617148
11
23.720655
21
360.868951
0
LINE
8
Layer 1
10
23.720655
20
360.868951
11
23.469057
21
361.242181
0
LINE
8
Layer 1
10
23.469057
20
361.242181
11
23.376800
21
361.699000
0
LINE
8
Layer 1
10
23.376800
20
361.699000
11
23.376800
21
361.699000
0
LINE
8
Layer 1
10
23.549300
20
276.615000
11
23.641562
21
277.071840
0
LINE
8
Layer 1
10
23.641562
20
277.071840
11
23.893169
21
277.445039
0
LINE
8
Layer 1
10
23.893169
20
277.445039
11
24.266352
21
277.696728
0
LINE
8
Layer 1
10
24.266352
20
277.696728
11
24.723340
21
277.789040
0
LINE
8
Layer 1
10
24.723340
20
277.789040
11
25.179922
21
277.696728
0
LINE
8
Layer 1
10
25.179922
20
277.696728
11
25.552897
21
277.445038
0
LINE
8
Layer 1
10
25.552897
20
277.445038
11
25.804428
21
277.071839
0
LINE
8
Layer 1
10
25.804428
20
277.071839
11
25.896680
21
276.615000
0
LINE
8
Layer 1
10
25.896680
20
276.615000
11
25.804429
21
276.157956
0
LINE
8
Layer 1
10
25.804429
20
276.157956
11
25.552898
21
275.784653
0
LINE
8
Layer 1
10
25.552898
20
275.784653
11
25.179924
21
275.532927
0
LINE
8
Layer 1
10
25.179924
20
275.532927
11
24.723340
21
275.440610
0
LINE
8
Layer 1
10
24.723340
20
275.440610
11
24.266336
21
275.533148
0
LINE
8
Layer 1
10
24.266336
20
275.533148
11
23.893155
21
275.784951
0
LINE
8
Layer 1
10
23.893155
20
275.784951
11
23.641557
21
276.158181
0
LINE
8
Layer 1
10
23.641557
20
276.158181
11
23.549300
21
276.615000
0
LINE
8
Layer 1
10
23.549300
20
276.615000
11
23.549300
21
276.615000
0
LINE
8
Layer 1
10
150.912000
20
252.275000
11
151.004262
21
252.731840
0
LINE
8
Layer 1
10
151.004262
20
252.731840
11
151.255870
21
253.105039
0
LINE
8
Layer 1
10
151.255870
20
253.105039
11
151.629052
21
253.356728
0
LINE
8
Layer 1
10
151.629052
20
253.356728
11
152.086040
21
253.449040
0
LINE
8
Layer 1
10
152.086040
20
253.449040
11
152.542622
21
253.356728
0
LINE
8
Layer 1
10
152.542622
20
253.356728
11
152.915597
21
253.105038
0
LINE
8
Layer 1
10
152.915597
20
253.105038
11
153.167128
21
252.731839
0
LINE
8
Layer 1
10
153.167128
20
252.731839
11
153.259380
21
252.275000
0
LINE
8
Layer 1
10
153.259380
20
252.275000
11
153.167129
21
251.817954
0
LINE
8
Layer 1
10
153.167129
20
251.817954
11
152.915598
21
251.444648
0
LINE
8
Layer 1
10
152.915598
20
251.444648
11
152.542623
21
251.192918
0
LINE
8
Layer 1
10
152.542623
20
251.192918
11
152.086040
21
251.100600
0
LINE
8
Layer 1
10
152.086040
20
251.100600
11
151.629051
21
251.192917
0
LINE
8
Layer 1
10
151.629051
20
251.192917
11
151.255869
21
251.444647
0
LINE
8
Layer 1
10
151.255869
20
251.444647
11
151.004262
21
251.817952
0
LINE
8
Layer 1
10
151.004262
20
251.817952
11
150.912000
21
252.275000
0
LINE
8
Layer 1
10
150.912000
20
252.275000
11
150.912000
21
252.275000
0
LINE
8
Layer 1
10
174.430000
20
368.531000
11
174.522262
21
368.987840
0
LINE
8
Layer 1
10
174.522262
20
368.987840
11
174.773869
21
369.361039
0
LINE
8
Layer 1
10
174.773869
20
369.361039
11
175.147052
21
369.612728
0
LINE
8
Layer 1
10
175.147052
20
369.612728
11
175.604040
21
369.705040
0
LINE
8
Layer 1
10
175.604040
20
369.705040
11
176.060622
21
369.612728
0
LINE
8
Layer 1
10
176.060622
20
369.612728
11
176.433597
21
369.361038
0
LINE
8
Layer 1
10
176.433597
20
369.361038
11
176.685128
21
368.987839
0
LINE
8
Layer 1
10
176.685128
20
368.987839
11
176.777380
21
368.531000
0
LINE
8
Layer 1
10
176.777380
20
368.531000
11
176.685129
21
368.073956
0
LINE
8
Layer 1
10
176.685129
20
368.073956
11
176.433598
21
367.700653
0
LINE
8
Layer 1
10
176.433598
20
367.700653
11
176.060624
21
367.448927
0
LINE
8
Layer 1
10
176.060624
20
367.448927
11
175.604040
21
367.356610
0
LINE
8
Layer 1
10
175.604040
20
367.356610
11
175.147204
21
367.449148
0
LINE
8
Layer 1
10
175.147204
20
367.449148
11
174.774005
21
367.700951
0
LINE
8
Layer 1
10
174.774005
20
367.700951
11
174.522313
21
368.074181
0
LINE
8
Layer 1
10
174.522313
20
368.074181
11
174.430000
21
368.531000
0
LINE
8
Layer 1
10
174.430000
20
368.531000
11
174.430000
21
368.531000
0
LINE
8
Layer 1
10
136.587000
20
369.035000
11
136.679262
21
369.491840
0
LINE
8
Layer 1
10
136.679262
20
369.491840
11
136.930869
21
369.865039
0
LINE
8
Layer 1
10
136.930869
20
369.865039
11
137.304052
21
370.116728
0
LINE
8
Layer 1
10
137.304052
20
370.116728
11
137.761040
21
370.209040
0
LINE
8
Layer 1
10
137.761040
20
370.209040
11
138.217622
21
370.116728
0
LINE
8
Layer 1
10
138.217622
20
370.116728
11
138.590597
21
369.865038
0
LINE
8
Layer 1
10
138.590597
20
369.865038
11
138.842128
21
369.491839
0
LINE
8
Layer 1
10
138.842128
20
369.491839
11
138.934380
21
369.035000
0
LINE
8
Layer 1
10
138.934380
20
369.035000
11
138.842129
21
368.577956
0
LINE
8
Layer 1
10
138.842129
20
368.577956
11
138.590598
21
368.204654
0
LINE
8
Layer 1
10
138.590598
20
368.204654
11
138.217624
21
367.952927
0
LINE
8
Layer 1
10
138.217624
20
367.952927
11
137.761040
21
367.860610
0
LINE
8
Layer 1
10
137.761040
20
367.860610
11
137.304204
21
367.953148
0
LINE
8
Layer 1
10
137.304204
20
367.953148
11
136.931005
21
368.204951
0
LINE
8
Layer 1
10
136.931005
20
368.204951
11
136.679313
21
368.578181
0
LINE
8
Layer 1
10
136.679313
20
368.578181
11
136.587000
21
369.035000
0
LINE
8
Layer 1
10
136.587000
20
369.035000
11
136.587000
21
369.035000
0
LINE
8
Layer 1
10
160.958000
20
296.935000
11
145.083000
21
296.935000
0
LINE
8
Layer 1
10
145.083000
20
296.935000
11
145.083000
21
310.935000
0
LINE
8
Layer 1
10
145.083000
20
310.935000
11
160.958000
21
310.935000
0
LINE
8
Layer 1
10
160.958000
20
310.935000
11
160.958000
21
296.935000
0
LINE
8
Layer 1
10
144.776000
20
316.487000
11
144.907580
21
317.138230
0
LINE
8
Layer 1
10
144.907580
20
317.138230
11
145.266408
21
317.670227
0
LINE
8
Layer 1
10
145.266408
20
317.670227
11
145.798620
21
318.029010
0
LINE
8
Layer 1
10
145.798620
20
318.029010
11
146.450350
21
318.160600
0
LINE
8
Layer 1
10
146.450350
20
318.160600
11
147.101501
21
318.029010
0
LINE
8
Layer 1
10
147.101501
20
318.029010
11
147.633416
21
317.670227
0
LINE
8
Layer 1
10
147.633416
20
317.670227
11
147.992136
21
317.138230
0
LINE
8
Layer 1
10
147.992136
20
317.138230
11
148.123700
21
316.487000
0
LINE
8
Layer 1
10
148.123700
20
316.487000
11
147.992136
21
315.835482
0
LINE
8
Layer 1
10
147.992136
20
315.835482
11
147.633417
21
315.303337
0
LINE
8
Layer 1
10
147.633417
20
315.303337
11
147.101502
21
314.944498
0
LINE
8
Layer 1
10
147.101502
20
314.944498
11
146.450350
21
314.812900
0
LINE
8
Layer 1
10
146.450350
20
314.812900
11
145.798619
21
314.944498
0
LINE
8
Layer 1
10
145.798619
20
314.944498
11
145.266407
21
315.303337
0
LINE
8
Layer 1
10
145.266407
20
315.303337
11
144.907579
21
315.835482
0
LINE
8
Layer 1
10
144.907579
20
315.835482
11
144.776000
21
316.487000
0
LINE
8
Layer 1
10
144.776000
20
316.487000
11
144.776000
21
316.487000
0
LINE
8
Layer 1
10
166.749000
20
316.487000
11
166.880580
21
317.138230
0
LINE
8
Layer 1
10
166.880580
20
317.138230
11
167.239408
21
317.670227
0
LINE
8
Layer 1
10
167.239408
20
317.670227
11
167.771620
21
318.029010
0
LINE
8
Layer 1
10
167.771620
20
318.029010
11
168.423350
21
318.160600
0
LINE
8
Layer 1
10
168.423350
20
318.160600
11
169.074501
21
318.029010
0
LINE
8
Layer 1
10
169.074501
20
318.029010
11
169.606416
21
317.670227
0
LINE
8
Layer 1
10
169.606416
20
317.670227
11
169.965136
21
317.138230
0
LINE
8
Layer 1
10
169.965136
20
317.138230
11
170.096700
21
316.487000
0
LINE
8
Layer 1
10
170.096700
20
316.487000
11
169.965136
21
315.835482
0
LINE
8
Layer 1
10
169.965136
20
315.835482
11
169.606417
21
315.303337
0
LINE
8
Layer 1
10
169.606417
20
315.303337
11
169.074502
21
314.944498
0
LINE
8
Layer 1
10
169.074502
20
314.944498
11
168.423350
21
314.812900
0
LINE
8
Layer 1
10
168.423350
20
314.812900
11
167.771619
21
314.944498
0
LINE
8
Layer 1
10
167.771619
20
314.944498
11
167.239407
21
315.303337
0
LINE
8
Layer 1
10
167.239407
20
315.303337
11
166.880579
21
315.835482
0
LINE
8
Layer 1
10
166.880579
20
315.835482
11
166.749000
21
316.487000
0
LINE
8
Layer 1
10
166.749000
20
316.487000
11
166.749000
21
316.487000
0
LINE
8
Layer 1
10
212.585000
20
341.155000
11
212.585000
21
271.058000
0
LINE
8
Layer 1
10
212.585000
20
271.058000
11
212.758081
21
270.195406
0
LINE
8
Layer 1
10
212.758081
20
270.195406
11
213.228819
21
269.501550
0
LINE
8
Layer 1
10
213.228819
20
269.501550
11
213.924451
21
269.039204
0
LINE
8
Layer 1
10
213.924451
20
269.039204
11
214.772220
21
268.871140
0
LINE
8
Layer 1
10
214.772220
20
268.871140
11
257.529000
21
268.871000
0
LINE
8
Layer 1
10
257.529000
20
268.871000
11
258.391651
21
268.697864
0
LINE
8
Layer 1
10
258.391651
20
268.697864
11
259.085630
21
268.227006
0
LINE
8
Layer 1
10
259.085630
20
268.227006
11
259.548099
21
267.531252
0
LINE
8
Layer 1
10
259.548099
20
267.531252
11
259.716220
21
266.683430
0
LINE
8
Layer 1
10
259.716220
20
266.683430
11
259.716000
21
256.383000
0
LINE
8
Layer 1
10
259.716000
20
256.383000
11
259.889081
21
255.520349
0
LINE
8
Layer 1
10
259.889081
20
255.520349
11
260.359818
21
254.826370
0
LINE
8
Layer 1
10
260.359818
20
254.826370
11
261.055451
21
254.363901
0
LINE
8
Layer 1
10
261.055451
20
254.363901
11
261.903220
21
254.195780
0
LINE
8
Layer 1
10
261.903220
20
254.195780
11
282.740361
21
254.591874
0
LINE
8
Layer 1
10
282.740361
20
254.591874
11
298.650472
21
254.744436
0
LINE
8
Layer 1
10
298.650472
20
254.744436
11
310.613335
21
254.529030
0
LINE
8
Layer 1
10
310.613335
20
254.529030
11
315.420730
21
254.244452
0
LINE
8
Layer 1
10
315.420730
20
254.244452
11
319.608733
21
253.821217
0
LINE
8
Layer 1
10
319.608733
20
253.821217
11
323.299814
21
253.243773
0
LINE
8
Layer 1
10
323.299814
20
253.243773
11
326.616448
21
252.496563
0
LINE
8
Layer 1
10
326.616448
20
252.496563
11
329.681106
21
251.564034
0
LINE
8
Layer 1
10
329.681106
20
251.564034
11
332.616262
21
250.430630
0
LINE
8
Layer 1
10
332.616262
20
250.430630
11
335.544389
21
249.080797
0
LINE
8
Layer 1
10
335.544389
20
249.080797
11
338.587959
21
247.498981
0
LINE
8
Layer 1
10
338.587959
20
247.498981
11
345.511320
21
243.577180
0
LINE
8
Layer 1
10
345.511320
20
243.577180
11
346.341999
21
243.302124
0
LINE
8
Layer 1
10
346.341999
20
243.302124
11
347.182599
21
243.361104
0
LINE
8
Layer 1
10
347.182599
20
243.361104
11
347.937210
21
243.730969
0
LINE
8
Layer 1
10
347.937210
20
243.730969
11
348.509920
21
244.388567
0
LINE
8
Layer 1
10
348.509920
20
244.388567
11
366.007620
21
272.998767
0
LINE
8
Layer 1
10
366.007620
20
272.998767
11
367.136510
21
275.398007
0
LINE
8
Layer 1
10
367.136510
20
275.398007
11
368.512340
21
278.819587
0
LINE
8
Layer 1
10
368.512340
20
278.819587
11
369.994000
21
283.194017
0
LINE
8
Layer 1
10
369.994000
20
283.194017
11
371.440390
21
288.485667
0
LINE
8
Layer 1
10
371.440390
20
288.485667
11
372.710390
21
294.624337
0
LINE
8
Layer 1
10
372.710390
20
294.624337
11
373.627610
21
301.573687
0
LINE
8
Layer 1
10
373.627610
20
301.573687
11
374.121498
21
309.264577
0
LINE
8
Layer 1
10
374.121498
20
309.264577
11
374.122000
21
369.377000
0
LINE
8
Layer 1
10
374.122000
20
369.377000
11
373.948919
21
370.224767
0
LINE
8
Layer 1
10
373.948919
20
370.224767
11
373.478182
21
370.920400
0
LINE
8
Layer 1
10
373.478182
20
370.920400
11
372.782549
21
371.391138
0
LINE
8
Layer 1
10
372.782549
20
371.391138
11
371.934780
21
371.564220
0
LINE
8
Layer 1
10
371.934780
20
371.564220
11
366.854000
21
371.564000
0
LINE
8
Layer 1
10
366.854000
20
371.564000
11
365.991349
21
371.390919
0
LINE
8
Layer 1
10
365.991349
20
371.390919
11
365.297370
21
370.920182
0
LINE
8
Layer 1
10
365.297370
20
370.920182
11
364.834901
21
370.224549
0
LINE
8
Layer 1
10
364.834901
20
370.224549
11
364.666780
21
369.376780
0
LINE
8
Layer 1
10
364.666780
20
369.376780
11
364.772613
21
314.026380
0
LINE
8
Layer 1
10
364.772613
20
314.026380
11
364.666780
21
310.568810
0
LINE
8
Layer 1
10
364.666780
20
310.568810
11
364.349281
21
304.077710
0
LINE
8
Layer 1
10
364.349281
20
304.077710
11
363.608449
21
298.221610
0
LINE
8
Layer 1
10
363.608449
20
298.221610
11
362.585399
21
293.071070
0
LINE
8
Layer 1
10
362.585399
20
293.071070
11
361.421239
21
288.626430
0
LINE
8
Layer 1
10
361.421239
20
288.626430
11
360.221799
21
284.957200
0
LINE
8
Layer 1
10
360.221799
20
284.957200
11
359.092909
21
282.100060
0
LINE
8
Layer 1
10
359.092909
20
282.100060
11
358.175689
21
280.088880
0
LINE
8
Layer 1
10
358.175689
20
280.088880
11
357.575968
21
278.959990
0
LINE
8
Layer 1
10
357.575968
20
278.959990
11
343.817668
21
255.535590
0
LINE
8
Layer 1
10
343.817668
20
255.535590
11
329.706568
21
263.684740
0
LINE
8
Layer 1
10
329.706568
20
263.684740
11
270.758000
21
263.685000
0
LINE
8
Layer 1
10
270.758000
20
263.685000
11
270.169304
21
263.802414
0
LINE
8
Layer 1
10
270.169304
20
263.802414
11
269.699671
21
264.121606
0
LINE
8
Layer 1
10
269.699671
20
264.121606
11
269.388787
21
264.593000
0
LINE
8
Layer 1
10
269.388787
20
264.593000
11
269.276340
21
265.167020
0
LINE
8
Layer 1
10
269.276340
20
265.167020
11
269.276000
21
274.903000
0
LINE
8
Layer 1
10
269.276000
20
274.903000
11
269.003149
21
276.267309
0
LINE
8
Layer 1
10
269.003149
20
276.267309
11
268.257356
21
277.377026
0
LINE
8
Layer 1
10
268.257356
20
277.377026
11
267.147763
21
278.122943
0
LINE
8
Layer 1
10
267.147763
20
278.122943
11
265.783510
21
278.395850
0
LINE
8
Layer 1
10
265.783510
20
278.395850
11
223.662000
21
278.396000
0
LINE
8
Layer 1
10
223.662000
20
278.396000
11
223.073304
21
278.513354
0
LINE
8
Layer 1
10
223.073304
20
278.513354
11
222.603671
21
278.832385
0
LINE
8
Layer 1
10
222.603671
20
278.832385
11
222.292787
21
279.303552
0
LINE
8
Layer 1
10
222.292787
20
279.303552
11
222.180340
21
279.877310
0
LINE
8
Layer 1
10
222.180340
20
279.877310
11
222.181000
21
355.725000
0
LINE
8
Layer 1
10
222.181000
20
355.725000
11
222.481239
21
356.377672
0
LINE
8
Layer 1
10
222.481239
20
356.377672
11
223.362526
21
357.010707
0
LINE
8
Layer 1
10
223.362526
20
357.010707
11
224.795715
21
357.621004
0
LINE
8
Layer 1
10
224.795715
20
357.621004
11
226.751661
21
358.205464
0
LINE
8
Layer 1
10
226.751661
20
358.205464
11
232.115244
21
359.284466
0
LINE
8
Layer 1
10
232.115244
20
359.284466
11
239.220112
21
360.222909
0
LINE
8
Layer 1
10
239.220112
20
360.222909
11
247.833104
21
360.995987
0
LINE
8
Layer 1
10
247.833104
20
360.995987
11
257.721058
21
361.578897
0
LINE
8
Layer 1
10
257.721058
20
361.578897
11
268.650810
21
361.946833
0
LINE
8
Layer 1
10
268.650810
20
361.946833
11
280.389200
21
362.074990
0
LINE
8
Layer 1
10
280.389200
20
362.074990
11
336.868000
21
362.075000
0
LINE
8
Layer 1
10
336.868000
20
362.075000
11
336.868000
21
369.377000
0
LINE
8
Layer 1
10
336.868000
20
369.377000
11
336.694919
21
370.239651
0
LINE
8
Layer 1
10
336.694919
20
370.239651
11
336.224181
21
370.933630
0
LINE
8
Layer 1
10
336.224181
20
370.933630
11
335.528549
21
371.396099
0
LINE
8
Layer 1
10
335.528549
20
371.396099
11
334.680780
21
371.564220
0
LINE
8
Layer 1
10
334.680780
20
371.564220
11
280.318000
21
371.564000
0
LINE
8
Layer 1
10
280.318000
20
371.564000
11
264.235762
21
371.290598
0
LINE
8
Layer 1
10
264.235762
20
371.290598
11
249.555800
21
370.540950
0
LINE
8
Layer 1
10
249.555800
20
370.540950
11
241.668731
21
369.873472
0
LINE
8
Layer 1
10
241.668731
20
369.873472
11
234.527462
21
369.069526
0
LINE
8
Layer 1
10
234.527462
20
369.069526
11
228.226250
21
368.141521
0
LINE
8
Layer 1
10
228.226250
20
368.141521
11
222.859350
21
367.101869
0
LINE
8
Layer 1
10
222.859350
20
367.101869
11
218.521019
21
365.962980
0
LINE
8
Layer 1
10
218.521019
20
365.962980
11
215.305513
21
364.737265
0
LINE
8
Layer 1
10
215.305513
20
364.737265
11
214.148274
21
364.095726
0
LINE
8
Layer 1
10
214.148274
20
364.095726
11
213.307088
21
363.437135
0
LINE
8
Layer 1
10
213.307088
20
363.437135
11
212.793736
21
362.763042
0
LINE
8
Layer 1
10
212.793736
20
362.763042
11
212.620000
21
362.075000
0
LINE
8
Layer 1
10
212.620000
20
362.075000
11
212.585000
21
341.155000
0
LINE
8
Layer 1
10
212.585000
20
341.155000
11
212.585000
21
341.155000
0
LINE
8
Layer 1
10
216.188000
20
274.470000
11
216.319580
21
275.121230
0
LINE
8
Layer 1
10
216.319580
20
275.121230
11
216.678408
21
275.653227
0
LINE
8
Layer 1
10
216.678408
20
275.653227
11
217.210620
21
276.012010
0
LINE
8
Layer 1
10
217.210620
20
276.012010
11
217.862350
21
276.143600
0
LINE
8
Layer 1
10
217.862350
20
276.143600
11
218.513501
21
276.012010
0
LINE
8
Layer 1
10
218.513501
20
276.012010
11
219.045416
21
275.653227
0
LINE
8
Layer 1
10
219.045416
20
275.653227
11
219.404136
21
275.121230
0
LINE
8
Layer 1
10
219.404136
20
275.121230
11
219.535700
21
274.470000
0
LINE
8
Layer 1
10
219.535700
20
274.470000
11
219.404136
21
273.818482
0
LINE
8
Layer 1
10
219.404136
20
273.818482
11
219.045417
21
273.286337
0
LINE
8
Layer 1
10
219.045417
20
273.286337
11
218.513502
21
272.927498
0
LINE
8
Layer 1
10
218.513502
20
272.927498
11
217.862350
21
272.795900
0
LINE
8
Layer 1
10
217.862350
20
272.795900
11
217.210619
21
272.927498
0
LINE
8
Layer 1
10
217.210619
20
272.927498
11
216.678407
21
273.286337
0
LINE
8
Layer 1
10
216.678407
20
273.286337
11
216.319579
21
273.818482
0
LINE
8
Layer 1
10
216.319579
20
273.818482
11
216.188000
21
274.470000
0
LINE
8
Layer 1
10
216.188000
20
274.470000
11
216.188000
21
274.470000
0
LINE
8
Layer 1
10
343.549000
20
250.119000
11
343.680580
21
250.770230
0
LINE
8
Layer 1
10
343.680580
20
250.770230
11
344.039411
21
251.302227
0
LINE
8
Layer 1
10
344.039411
20
251.302227
11
344.571626
21
251.661010
0
LINE
8
Layer 1
10
344.571626
20
251.661010
11
345.223360
21
251.792600
0
LINE
8
Layer 1
10
345.223360
20
251.792600
11
345.874509
21
251.661010
0
LINE
8
Layer 1
10
345.874509
20
251.661010
11
346.406417
21
251.302226
0
LINE
8
Layer 1
10
346.406417
20
251.302226
11
346.765129
21
250.770230
0
LINE
8
Layer 1
10
346.765129
20
250.770230
11
346.896690
21
250.119000
0
LINE
8
Layer 1
10
346.896690
20
250.119000
11
346.765129
21
249.467482
0
LINE
8
Layer 1
10
346.765129
20
249.467482
11
346.406417
21
248.935337
0
LINE
8
Layer 1
10
346.406417
20
248.935337
11
345.874509
21
248.576498
0
LINE
8
Layer 1
10
345.874509
20
248.576498
11
345.223360
21
248.444900
0
LINE
8
Layer 1
10
345.223360
20
248.444900
11
344.571626
21
248.576498
0
LINE
8
Layer 1
10
344.571626
20
248.576498
11
344.039411
21
248.935337
0
LINE
8
Layer 1
10
344.039411
20
248.935337
11
343.680580
21
249.467482
0
LINE
8
Layer 1
10
343.680580
20
249.467482
11
343.549000
21
250.119000
0
LINE
8
Layer 1
10
343.549000
20
250.119000
11
343.549000
21
250.119000
0
LINE
8
Layer 1
10
367.088000
20
366.345000
11
367.219580
21
366.996230
0
LINE
8
Layer 1
10
367.219580
20
366.996230
11
367.578411
21
367.528227
0
LINE
8
Layer 1
10
367.578411
20
367.528227
11
368.110626
21
367.887010
0
LINE
8
Layer 1
10
368.110626
20
367.887010
11
368.762360
21
368.018600
0
LINE
8
Layer 1
10
368.762360
20
368.018600
11
369.413509
21
367.887010
0
LINE
8
Layer 1
10
369.413509
20
367.887010
11
369.945417
21
367.528227
0
LINE
8
Layer 1
10
369.945417
20
367.528227
11
370.304129
21
366.996230
0
LINE
8
Layer 1
10
370.304129
20
366.996230
11
370.435690
21
366.345000
0
LINE
8
Layer 1
10
370.435690
20
366.345000
11
370.304129
21
365.693482
0
LINE
8
Layer 1
10
370.304129
20
365.693482
11
369.945417
21
365.161337
0
LINE
8
Layer 1
10
369.945417
20
365.161337
11
369.413509
21
364.802498
0
LINE
8
Layer 1
10
369.413509
20
364.802498
11
368.762360
21
364.670900
0
LINE
8
Layer 1
10
368.762360
20
364.670900
11
368.110626
21
364.802498
0
LINE
8
Layer 1
10
368.110626
20
364.802498
11
367.578411
21
365.161337
0
LINE
8
Layer 1
10
367.578411
20
365.161337
11
367.219580
21
365.693482
0
LINE
8
Layer 1
10
367.219580
20
365.693482
11
367.088000
21
366.345000
0
LINE
8
Layer 1
10
367.088000
20
366.345000
11
367.088000
21
366.345000
0
LINE
8
Layer 1
10
329.225000
20
366.859000
11
329.356580
21
367.510230
0
LINE
8
Layer 1
10
329.356580
20
367.510230
11
329.715411
21
368.042227
0
LINE
8
Layer 1
10
329.715411
20
368.042227
11
330.247626
21
368.401010
0
LINE
8
Layer 1
10
330.247626
20
368.401010
11
330.899360
21
368.532600
0
LINE
8
Layer 1
10
330.899360
20
368.532600
11
331.550509
21
368.401010
0
LINE
8
Layer 1
10
331.550509
20
368.401010
11
332.082417
21
368.042226
0
LINE
8
Layer 1
10
332.082417
20
368.042226
11
332.441129
21
367.510230
0
LINE
8
Layer 1
10
332.441129
20
367.510230
11
332.572690
21
366.859000
0
LINE
8
Layer 1
10
332.572690
20
366.859000
11
332.441129
21
366.207482
0
LINE
8
Layer 1
10
332.441129
20
366.207482
11
332.082417
21
365.675337
0
LINE
8
Layer 1
10
332.082417
20
365.675337
11
331.550509
21
365.316498
0
LINE
8
Layer 1
10
331.550509
20
365.316498
11
330.899360
21
365.184900
0
LINE
8
Layer 1
10
330.899360
20
365.184900
11
330.247626
21
365.316498
0
LINE
8
Layer 1
10
330.247626
20
365.316498
11
329.715411
21
365.675337
0
LINE
8
Layer 1
10
329.715411
20
365.675337
11
329.356580
21
366.207482
0
LINE
8
Layer 1
10
329.356580
20
366.207482
11
329.225000
21
366.859000
0
LINE
8
Layer 1
10
329.225000
20
366.859000
11
329.225000
21
366.859000
0
LINE
8
Layer 1
10
216.022000
20
359.555000
11
216.153580
21
360.206230
0
LINE
8
Layer 1
10
216.153580
20
360.206230
11
216.512411
21
360.738227
0
LINE
8
Layer 1
10
216.512411
20
360.738227
11
217.044626
21
361.097010
0
LINE
8
Layer 1
10
217.044626
20
361.097010
11
217.696360
21
361.228600
0
LINE
8
Layer 1
10
217.696360
20
361.228600
11
218.347509
21
361.097010
0
LINE
8
Layer 1
10
218.347509
20
361.097010
11
218.879417
21
360.738226
0
LINE
8
Layer 1
10
218.879417
20
360.738226
11
219.238129
21
360.206230
0
LINE
8
Layer 1
10
219.238129
20
360.206230
11
219.369690
21
359.555000
0
LINE
8
Layer 1
10
219.369690
20
359.555000
11
219.238129
21
358.903482
0
LINE
8
Layer 1
10
219.238129
20
358.903482
11
218.879417
21
358.371337
0
LINE
8
Layer 1
10
218.879417
20
358.371337
11
218.347509
21
358.012498
0
LINE
8
Layer 1
10
218.347509
20
358.012498
11
217.696360
21
357.880900
0
LINE
8
Layer 1
10
217.696360
20
357.880900
11
217.044626
21
358.012498
0
LINE
8
Layer 1
10
217.044626
20
358.012498
11
216.512411
21
358.371337
0
LINE
8
Layer 1
10
216.512411
20
358.371337
11
216.153580
21
358.903482
0
LINE
8
Layer 1
10
216.153580
20
358.903482
11
216.022000
21
359.555000
0
LINE
8
Layer 1
10
216.022000
20
359.555000
11
216.022000
21
359.555000
0
LINE
8
Layer 1
10
252.071000
20
158.338000
11
251.978837
21
158.794692
0
LINE
8
Layer 1
10
251.978837
20
158.794692
11
251.727396
21
159.167907
0
LINE
8
Layer 1
10
251.727396
20
159.167907
11
251.354246
21
159.419679
0
LINE
8
Layer 1
10
251.354246
20
159.419679
11
250.896960
21
159.512040
0
LINE
8
Layer 1
10
250.896960
20
159.512040
11
250.440489
21
159.419679
0
LINE
8
Layer 1
10
250.440489
20
159.419679
11
250.067758
21
159.167906
0
LINE
8
Layer 1
10
250.067758
20
159.167906
11
249.816471
21
158.794691
0
LINE
8
Layer 1
10
249.816471
20
158.794691
11
249.724330
21
158.338000
0
LINE
8
Layer 1
10
249.724330
20
158.338000
11
249.816471
21
157.880713
0
LINE
8
Layer 1
10
249.816471
20
157.880713
11
250.067758
21
157.507564
0
LINE
8
Layer 1
10
250.067758
20
157.507564
11
250.440489
21
157.256123
0
LINE
8
Layer 1
10
250.440489
20
157.256123
11
250.896960
21
157.163960
0
LINE
8
Layer 1
10
250.896960
20
157.163960
11
251.354247
21
157.256123
0
LINE
8
Layer 1
10
251.354247
20
157.256123
11
251.727396
21
157.507565
0
LINE
8
Layer 1
10
251.727396
20
157.507565
11
251.978837
21
157.880714
0
LINE
8
Layer 1
10
251.978837
20
157.880714
11
252.071000
21
158.338000
0
LINE
8
Layer 1
10
252.071000
20
158.338000
11
252.071000
21
158.338000
0
LINE
8
Layer 1
10
230.072000
20
158.338000
11
229.979584
21
158.794692
0
LINE
8
Layer 1
10
229.979584
20
158.794692
11
229.727690
21
159.167907
0
LINE
8
Layer 1
10
229.727690
20
159.167907
11
229.354354
21
159.419679
0
LINE
8
Layer 1
10
229.354354
20
159.419679
11
228.897610
21
159.512040
0
LINE
8
Layer 1
10
228.897610
20
159.512040
11
228.440472
21
159.419679
0
LINE
8
Layer 1
10
228.440472
20
159.419679
11
228.067306
21
159.167906
0
LINE
8
Layer 1
10
228.067306
20
159.167906
11
227.815782
21
158.794691
0
LINE
8
Layer 1
10
227.815782
20
158.794691
11
227.723570
21
158.338000
0
LINE
8
Layer 1
10
227.723570
20
158.338000
11
227.815783
21
157.880713
0
LINE
8
Layer 1
10
227.815783
20
157.880713
11
228.067307
21
157.507564
0
LINE
8
Layer 1
10
228.067307
20
157.507564
11
228.440473
21
157.256123
0
LINE
8
Layer 1
10
228.440473
20
157.256123
11
228.897610
21
157.163960
0
LINE
8
Layer 1
10
228.897610
20
157.163960
11
229.354356
21
157.256123
0
LINE
8
Layer 1
10
229.354356
20
157.256123
11
229.727692
21
157.507565
0
LINE
8
Layer 1
10
229.727692
20
157.507565
11
229.979584
21
157.880714
0
LINE
8
Layer 1
10
229.979584
20
157.880714
11
230.072000
21
158.338000
0
LINE
8
Layer 1
10
230.072000
20
158.338000
11
230.072000
21
158.338000
0
LINE
8
Layer 1
10
253.300000
20
213.345000
11
253.127255
21
214.201542
0
LINE
8
Layer 1
10
253.127255
20
214.201542
11
252.655962
21
214.900656
0
LINE
8
Layer 1
10
252.655962
20
214.900656
11
251.956533
21
215.371832
0
LINE
8
Layer 1
10
251.956533
20
215.371832
11
251.099380
21
215.544560
0
LINE
8
Layer 1
10
251.099380
20
215.544560
11
227.754000
21
215.545000
0
LINE
8
Layer 1
10
227.754000
20
215.545000
11
226.897660
21
215.372255
0
LINE
8
Layer 1
10
226.897660
20
215.372255
11
226.198650
21
214.900962
0
LINE
8
Layer 1
10
226.198650
20
214.900962
11
225.727512
21
214.201533
0
LINE
8
Layer 1
10
225.727512
20
214.201533
11
225.554790
21
213.344380
0
LINE
8
Layer 1
10
225.554790
20
213.344380
11
225.555000
21
158.123000
0
LINE
8
Layer 1
10
225.555000
20
158.123000
11
225.727745
21
157.266660
0
LINE
8
Layer 1
10
225.727745
20
157.266660
11
226.199038
21
156.567650
0
LINE
8
Layer 1
10
226.199038
20
156.567650
11
226.898467
21
156.096512
0
LINE
8
Layer 1
10
226.898467
20
156.096512
11
227.755620
21
155.923790
0
LINE
8
Layer 1
10
227.755620
20
155.923790
11
251.100000
21
155.924000
0
LINE
8
Layer 1
10
251.100000
20
155.924000
11
251.956957
21
156.096855
0
LINE
8
Layer 1
10
251.956957
20
156.096855
11
252.656055
21
156.568921
0
LINE
8
Layer 1
10
252.656055
20
156.568921
11
253.127281
21
157.270446
0
LINE
8
Layer 1
10
253.127281
20
157.270446
11
253.300620
21
158.131680
0
LINE
8
Layer 1
10
253.300620
20
158.131680
11
253.300000
21
213.345000
 0 
ENDSEC
 0 
EOF