999
dxflib 3.26.4.0
  0
SECTION
  2
HEADER
  9
$ACADVER
  1
AC1015
  9
$HANDSEED
  5
FFFF
  9
$DIMADEC
 70
0
  9
$DIMASZ
 40
0.18
  9
$DIMATFIT
 70
0
  9
$DIMAUNIT
 70
0
  9
$DIMAZIN
 70
0
  9
$DIMBLK
  1
0
  9
$DIMBLK1
  1
0
  9
$DIMBLK2
  1
0
  9
$DIMDEC
 70
4
  9
$DIMDLI
 40
0.36
  9
$DIMDSEP
 70
0
  9
$DIMEXE
 40
0.18
  9
$DIMEXO
 40
0.0625
  9
$DIMGAP
 40
0.09
  9
$DIMLFAC
 40
0.0
  9
$DIMLUNIT
 70
2
  9
$DIMSCALE
 40
0.0
  9
$DIMTAD
 70
0
  9
$DIMTIH
 70
0
  9
$DIMTSZ
 40
0.0
  9
$DIMTXT
 40
0.18
  9
$DIMZIN
 70
0
  9
$DWGCODEPAGE
  3
ANSI_1252
  9
$EXTMAX
 10
8.5
 20
11.0
 30
0.0
  9
$EXTMIN
 10
0.0
 20
0.0
 30
0.0
  9
$INSUNITS
 70
0
  9
$LTSCALE
 40
1.0
  9
$MAXACTVP
 70
64
  9
$MEASUREMENT
 70
0
  9
$MIRRTEXT
 70
0
  9
$PDMODE
 70
0
  9
$PDSIZE
 40
0.0
  0
ENDSEC
  0
SECTION
  2
TABLES
  0
TABLE
  2
VPORT
  5
8
100
AcDbSymbolTable
 70
1
  0
VPORT
  5
30
100
AcDbSymbolTableRecord
100
AcDbViewportTableRecord
  2
*Active
 70
0
 10
0.0
 20
0.0
 11
1.0
 21
1.0
 12
286.3055555555554861
 22
148.5
 13
0.0
 23
0.0
 14
10.0
 24
10.0
 15
10.0
 25
10.0
 16
0.0
 26
0.0
 36
1.0
 17
0.0
 27
0.0
 37
0.0
 40
297.0
 41
1.92798353909465
 42
50.0
 43
0.0
 44
0.0
 50
0.0
 51
0.0
 71
0
 72
100
 73
1
 74
3
 75
1
 76
1
 77
0
 78
0
281
0
 65
1
110
0.0
120
0.0
130
0.0
111
1.0
121
0.0
131
0.0
112
0.0
122
1.0
132
0.0
 79
0
146
0.0
  0
ENDTAB
  0
TABLE
  2
LTYPE
  5
5
100
AcDbSymbolTable
 70
41
  0
LTYPE
  5
16
100
AcDbSymbolTableRecord
100
AcDbLinetypeTableRecord
  2
Continuous
 70
0
  3
Solid line
 72
65
 73
0
 40
0.0
  0
LTYPE
  5
31
100
AcDbSymbolTableRecord
100
AcDbLinetypeTableRecord
  2
DASHDOT
 70
0
  3
Dash dot __ . __ . __ . __ . __ . __ . __ . __
 72
65
 73
4
 40
1.0
 49
0.5
 74
0
 49
-0.25
 74
0
 49
0.0
 74
0
 49
-0.25
 74
0
  0
LTYPE
  5
32
100
AcDbSymbolTableRecord
100
AcDbLinetypeTableRecord
  2
BORDERX2
 70
0
  3
Border (2x) ____  ____  .  ____  ____  .  ___
 72
65
 73
6
 40
3.5
 49
1.0
 74
0
 49
-0.5
 74
0
 49
1.0
 74
0
 49
-0.5
 74
0
 49
0.0
 74
0
 49
-0.5
 74
0
  0
LTYPE
  5
33
100
AcDbSymbolTableRecord
100
AcDbLinetypeTableRecord
  2
BORDER2
 70
0
  3
Border (.5x) __.__.__.__.__.__.__.__.__.__.__.
 72
65
 73
6
 40
0.875
 49
0.25
 74
0
 49
-0.125
 74
0
 49
0.25
 74
0
 49
-0.125
 74
0
 49
0.0
 74
0
 49
-0.125
 74
0
  0
LTYPE
  5
34
100
AcDbSymbolTableRecord
100
AcDbLinetypeTableRecord
  2
DOTX2
 70
0
  3
Dot (2x) .  .  .  .  .  .  .  .  .  .  .  .  .  .
 72
65
 73
2
 40
0.5
 49
0.0
 74
0
 49
-0.5
 74
0
  0
LTYPE
  5
35
100
AcDbSymbolTableRecord
100
AcDbLinetypeTableRecord
  2
ACAD_ISO06W100
 70
0
  3
ISO long-dash triple-dot ____ ... ____ ... ____
 72
65
 73
8
 40
36.0
 49
24.0
 74
0
 49
-3.0
 74
0
 49
0.0
 74
0
 49
-3.0
 74
0
 49
0.0
 74
0
 49
-3.0
 74
0
 49
0.0
 74
0
 49
-3.0
 74
0
  0
LTYPE
  5
36
100
AcDbSymbolTableRecord
100
AcDbLinetypeTableRecord
  2
HIDDEN
 70
0
  3
Hidden __ __ __ __ __ __ __ __ __ __ __ __ __ __
 72
65
 73
2
 40
0.375
 49
0.25
 74
0
 49
-0.125
 74
0
  0
LTYPE
  5
37
100
AcDbSymbolTableRecord
100
AcDbLinetypeTableRecord
  2
DASHDOTX2
 70
0
  3
Dash dot (2x) ____  .  ____  .  ____  .  ___
 72
65
 73
4
 40
2.0
 49
1.0
 74
0
 49
-0.5
 74
0
 49
0.0
 74
0
 49
-0.5
 74
0
  0
LTYPE
  5
38
100
AcDbSymbolTableRecord
100
AcDbLinetypeTableRecord
  2
ACAD_ISO10W100
 70
0
  3
ISO dash dot __ . __ . __ . __ . __ . __ . __ . 
 72
65
 73
4
 40
18.0
 49
12.0
 74
0
 49
-3.0
 74
0
 49
0.0
 74
0
 49
-3.0
 74
0
  0
LTYPE
  5
39
100
AcDbSymbolTableRecord
100
AcDbLinetypeTableRecord
  2
HIDDENX2
 70
0
  3
Hidden (2x) ____ ____ ____ ____ ____ ____ ____ 
 72
65
 73
2
 40
0.75
 49
0.5
 74
0
 49
-0.25
 74
0
  0
LTYPE
  5
3A
100
AcDbSymbolTableRecord
100
AcDbLinetypeTableRecord
  2
DOT
 70
0
  3
Dot . . . . . . . . . . . . . . . . . . . . . . . .
 72
65
 73
2
 40
0.25
 49
0.0
 74
0
 49
-0.25
 74
0
  0
LTYPE
  5
3B
100
AcDbSymbolTableRecord
100
AcDbLinetypeTableRecord
  2
BORDER
 70
0
  3
Border __ __ . __ __ . __ __ . __ __ . __ __ .
 72
65
 73
6
 40
1.75
 49
0.5
 74
0
 49
-0.25
 74
0
 49
0.5
 74
0
 49
-0.25
 74
0
 49
0.0
 74
0
 49
-0.25
 74
0
  0
LTYPE
  5
3C
100
AcDbSymbolTableRecord
100
AcDbLinetypeTableRecord
  2
CENTERX2
 70
0
  3
Center (2x) ________  __  ________  __  _____
 72
65
 73
4
 40
4.0
 49
2.5
 74
0
 49
-0.5
 74
0
 49
0.5
 74
0
 49
-0.5
 74
0
  0
LTYPE
  5
3D
100
AcDbSymbolTableRecord
100
AcDbLinetypeTableRecord
  2
CENTER
 70
0
  3
Center ____ _ ____ _ ____ _ ____ _ ____ _ ____
 72
65
 73
4
 40
2.0
 49
1.25
 74
0
 49
-0.25
 74
0
 49
0.25
 74
0
 49
-0.25
 74
0
  0
LTYPE
  5
15
100
AcDbSymbolTableRecord
100
AcDbLinetypeTableRecord
  2
BYLAYER
 70
0
  3

 72
65
 73
0
 40
0.0
  0
LTYPE
  5
3E
100
AcDbSymbolTableRecord
100
AcDbLinetypeTableRecord
  2
DASHEDX2
 70
0
  3
Dashed (2x) ____  ____  ____  ____  ____  ___
 72
65
 73
2
 40
1.5
 49
1.0
 74
0
 49
-0.5
 74
0
  0
LTYPE
  5
3F
100
AcDbSymbolTableRecord
100
AcDbLinetypeTableRecord
  2
DASHDOT2
 70
0
  3
Dash dot (.5x) _._._._._._._._._._._._._._._.
 72
65
 73
4
 40
0.5
 49
0.25
 74
0
 49
-0.125
 74
0
 49
0.0
 74
0
 49
-0.125
 74
0
  0
LTYPE
  5
40
100
AcDbSymbolTableRecord
100
AcDbLinetypeTableRecord
  2
DIVIDEX2
 70
0
  3
Divide (2x) ________  .  .  ________  .  .  _
 72
65
 73
6
 40
2.5
 49
1.0
 74
0
 49
-0.5
 74
0
 49
0.0
 74
0
 49
-0.5
 74
0
 49
0.0
 74
0
 49
-0.5
 74
0
  0
LTYPE
  5
41
100
AcDbSymbolTableRecord
100
AcDbLinetypeTableRecord
  2
ACAD_ISO09W100
 70
0
  3
ISO long-dash double-short-dash ____ __ __ ____
 72
65
 73
6
 40
45.0
 49
24.0
 74
0
 49
-3.0
 74
0
 49
6.0
 74
0
 49
-3.0
 74
0
 49
6.0
 74
0
 49
-3.0
 74
0
  0
LTYPE
  5
42
100
AcDbSymbolTableRecord
100
AcDbLinetypeTableRecord
  2
ACAD_ISO05W100
 70
0
  3
ISO long-dash double-dot ____ .. ____ .. ____ . 
 72
65
 73
6
 40
33.0
 49
24.0
 74
0
 49
-3.0
 74
0
 49
0.0
 74
0
 49
-3.0
 74
0
 49
0.0
 74
0
 49
-3.0
 74
0
  0
LTYPE
  5
43
100
AcDbSymbolTableRecord
100
AcDbLinetypeTableRecord
  2
HIDDEN2
 70
0
  3
Hidden (.5x) _ _ _ _ _ _ _ _ _ _ _ _ _ _ _ _ _ 
 72
65
 73
2
 40
0.1875
 49
0.125
 74
0
 49
-0.0625
 74
0
  0
LTYPE
  5
44
100
AcDbSymbolTableRecord
100
AcDbLinetypeTableRecord
  2
ACAD_ISO11W100
 70
0
  3
ISO double-dash dot __ __ . __ __ . __ __ . __ _
 72
65
 73
6
 40
33.0
 49
12.0
 74
0
 49
-3.0
 74
0
 49
12.0
 74
0
 49
-3.0
 74
0
 49
0.0
 74
0
 49
-3.0
 74
0
  0
LTYPE
  5
45
100
AcDbSymbolTableRecord
100
AcDbLinetypeTableRecord
  2
DASHED2
 70
0
  3
Dashed (.5x) _ _ _ _ _ _ _ _ _ _ _ _ _ _ _ _ _ 
 72
65
 73
2
 40
0.375
 49
0.25
 74
0
 49
-0.125
 74
0
  0
LTYPE
  5
46
100
AcDbSymbolTableRecord
100
AcDbLinetypeTableRecord
  2
ACAD_ISO15W100
 70
0
  3
ISO double-dash triple-dot __ __ . . . __ __ . .
 72
65
 73
10
 40
39.0
 49
12.0
 74
0
 49
-3.0
 74
0
 49
12.0
 74
0
 49
-3.0
 74
0
 49
0.0
 74
0
 49
-3.0
 74
0
 49
0.0
 74
0
 49
-3.0
 74
0
 49
0.0
 74
0
 49
-3.0
 74
0
  0
LTYPE
  5
47
100
AcDbSymbolTableRecord
100
AcDbLinetypeTableRecord
  2
DASHED
 70
0
  3
Dashed __ __ __ __ __ __ __ __ __ __ __ __ __ _
 72
65
 73
2
 40
0.75
 49
0.5
 74
0
 49
-0.25
 74
0
  0
LTYPE
  5
48
100
AcDbSymbolTableRecord
100
AcDbLinetypeTableRecord
  2
ACAD_ISO13W100
 70
0
  3
ISO double-dash double-dot __ __ . . __ __ . . _
 72
65
 73
8
 40
36.0
 49
12.0
 74
0
 49
-3.0
 74
0
 49
12.0
 74
0
 49
-3.0
 74
0
 49
0.0
 74
0
 49
-3.0
 74
0
 49
0.0
 74
0
 49
-3.0
 74
0
  0
LTYPE
  5
49
100
AcDbSymbolTableRecord
100
AcDbLinetypeTableRecord
  2
ACAD_ISO03W100
 70
0
  3
ISO dash space __    __    __    __    __    __
 72
65
 73
2
 40
30.0
 49
12.0
 74
0
 49
-18.0
 74
0
  0
LTYPE
  5
4A
100
AcDbSymbolTableRecord
100
AcDbLinetypeTableRecord
  2
DIVIDE2
 70
0
  3
Divide (.5x) __..__..__..__..__..__..__..__.._
 72
65
 73
6
 40
0.625
 49
0.25
 74
0
 49
-0.125
 74
0
 49
0.0
 74
0
 49
-0.125
 74
0
 49
0.0
 74
0
 49
-0.125
 74
0
  0
LTYPE
  5
4B
100
AcDbSymbolTableRecord
100
AcDbLinetypeTableRecord
  2
ACAD_ISO14W100
 70
0
  3
ISO dash triple-dot __ . . . __ . . . __ . . . _
 72
65
 73
8
 40
24.0
 49
12.0
 74
0
 49
-3.0
 74
0
 49
0.0
 74
0
 49
-3.0
 74
0
 49
0.0
 74
0
 49
-3.0
 74
0
 49
0.0
 74
0
 49
-3.0
 74
0
  0
LTYPE
  5
4C
100
AcDbSymbolTableRecord
100
AcDbLinetypeTableRecord
  2
ACAD_ISO02W100
 70
0
  3
ISO dash __ __ __ __ __ __ __ __ __ __ __ __ __
 72
65
 73
2
 40
15.0
 49
12.0
 74
0
 49
-3.0
 74
0
  0
LTYPE
  5
14
100
AcDbSymbolTableRecord
100
AcDbLinetypeTableRecord
  2
BYBLOCK
 70
0
  3

 72
65
 73
0
 40
0.0
  0
LTYPE
  5
4D
100
AcDbSymbolTableRecord
100
AcDbLinetypeTableRecord
  2
PHANTOM
 70
0
  3
Phantom ______  __  __  ______  __  __  ______ 
 72
65
 73
6
 40
2.5
 49
1.25
 74
0
 49
-0.25
 74
0
 49
0.25
 74
0
 49
-0.25
 74
0
 49
0.25
 74
0
 49
-0.25
 74
0
  0
LTYPE
  5
4E
100
AcDbSymbolTableRecord
100
AcDbLinetypeTableRecord
  2
DOT2
 70
0
  3
Dot (.5x) ........................................
 72
65
 73
2
 40
0.125
 49
0.0
 74
0
 49
-0.125
 74
0
  0
LTYPE
  5
4F
100
AcDbSymbolTableRecord
100
AcDbLinetypeTableRecord
  2
DIVIDE
 70
0
  3
Divide ____ . . ____ . . ____ . . ____ . . ____
 72
65
 73
6
 40
1.25
 49
0.5
 74
0
 49
-0.25
 74
0
 49
0.0
 74
0
 49
-0.25
 74
0
 49
0.0
 74
0
 49
-0.25
 74
0
  0
LTYPE
  5
50
100
AcDbSymbolTableRecord
100
AcDbLinetypeTableRecord
  2
CENTER2
 70
0
  3
Center (.5x) ___ _ ___ _ ___ _ ___ _ ___ _ ___
 72
65
 73
4
 40
1.125
 49
0.75
 74
0
 49
-0.125
 74
0
 49
0.125
 74
0
 49
-0.125
 74
0
  0
LTYPE
  5
51
100
AcDbSymbolTableRecord
100
AcDbLinetypeTableRecord
  2
ACAD_ISO12W100
 70
0
  3
ISO dash double-dot __ . . __ . . __ . . __ . . 
 72
65
 73
6
 40
21.0
 49
12.0
 74
0
 49
-3.0
 74
0
 49
0.0
 74
0
 49
-3.0
 74
0
 49
0.0
 74
0
 49
-3.0
 74
0
  0
LTYPE
  5
52
100
AcDbSymbolTableRecord
100
AcDbLinetypeTableRecord
  2
ACAD_ISO07W100
 70
0
  3
ISO dot . . . . . . . . . . . . . . . . . . . . 
 72
65
 73
2
 40
3.0
 49
0.0
 74
0
 49
-3.0
 74
0
  0
LTYPE
  5
53
100
AcDbSymbolTableRecord
100
AcDbLinetypeTableRecord
  2
ACAD_ISO04W100
 70
0
  3
ISO long-dash dot ____ . ____ . ____ . ____ . _
 72
65
 73
4
 40
30.0
 49
24.0
 74
0
 49
-3.0
 74
0
 49
0.0
 74
0
 49
-3.0
 74
0
  0
LTYPE
  5
54
100
AcDbSymbolTableRecord
100
AcDbLinetypeTableRecord
  2
ACAD_ISO08W100
 70
0
  3
ISO long-dash short-dash ____ __ ____ __ ____ _
 72
65
 73
4
 40
36.0
 49
24.0
 74
0
 49
-3.0
 74
0
 49
6.0
 74
0
 49
-3.0
 74
0
  0
LTYPE
  5
55
100
AcDbSymbolTableRecord
100
AcDbLinetypeTableRecord
  2
PHANTOM2
 70
0
  3
Phantom (.5x) ___ _ _ ___ _ _ ___ _ _ ___ _ _
 72
65
 73
6
 40
1.25
 49
0.625
 74
0
 49
-0.125
 74
0
 49
0.125
 74
0
 49
-0.125
 74
0
 49
0.125
 74
0
 49
-0.125
 74
0
  0
LTYPE
  5
56
100
AcDbSymbolTableRecord
100
AcDbLinetypeTableRecord
  2
PHANTOMX2
 70
0
  3
Phantom (2x) ____________    ____    ____   _
 72
65
 73
6
 40
5.0
 49
2.5
 74
0
 49
-0.5
 74
0
 49
0.5
 74
0
 49
-0.5
 74
0
 49
0.5
 74
0
 49
-0.5
 74
0
  0
ENDTAB
  0
TABLE
  2
LAYER
  5
2
100
AcDbSymbolTable
 70
4
  0
LAYER
  5
57
100
AcDbSymbolTableRecord
100
AcDbLayerTableRecord
  2
Layer 2
 70
0
 62
7
  6
BYLAYER
370
5
390
F
  0
LAYER
  5
58
100
AcDbSymbolTableRecord
100
AcDbLayerTableRecord
  2
Edge.Cuts 1
 70
0
 62
7
  6
BYLAYER
370
5
390
F
  0
LAYER
  5
10
100
AcDbSymbolTableRecord
100
AcDbLayerTableRecord
  2
0
 70
0
 62
7
420
16777215
  6
Continuous
370
25
390
F
  0
LAYER
  5
59
100
AcDbSymbolTableRecord
100
AcDbLayerTableRecord
  2
Layer 1
 70
0
 62
7
  6
BYLAYER
370
5
390
F
  0
ENDTAB
  0
TABLE
  2
STYLE
  5
3
100
AcDbSymbolTable
 70
1
  0
STYLE
  5
5A
100
AcDbSymbolTableRecord
100
AcDbTextStyleTableRecord
  2
Standard
 70
0
 40
0.0
 41
1.0
 50
0.0
 71
0
 42
2.5
  3

  4

1001
ACAD
1000
txt
1071
0
  0
ENDTAB
  0
TABLE
  2
VIEW
  5
6
100
AcDbSymbolTable
 70
0
  0
ENDTAB
  0
TABLE
  2
UCS
  5
7
100
AcDbSymbolTable
 70
0
  0
ENDTAB
  0
TABLE
  2
APPID
  5
9
100
AcDbSymbolTable
 70
1
  0
APPID
  5
12
100
AcDbSymbolTableRecord
100
AcDbRegAppTableRecord
  2
ACAD
 70
0
  0
APPID
  5
5B
100
AcDbSymbolTableRecord
100
AcDbRegAppTableRecord
  2
QCAD
 70
0
  0
ENDTAB
  0
TABLE
  2
DIMSTYLE
  5
A
100
AcDbSymbolTable
 70
1
100
AcDbDimStyleTable
 71
0
  0
DIMSTYLE
105
27
100
AcDbSymbolTableRecord
100
AcDbDimStyleTableRecord
  2
Standard
 41
0.18
 42
0.0625
 43
3.75
 44
0.18
 70
0
 73
0
 74
0
 77
0
 78
8
140
0.18
141
2.5
143
0.03937007874016
147
0.09
171
3
172
1
271
2
272
2
274
3
278
44
283
0
284
8
340
5A
  0
ENDTAB
  0
TABLE
  2
BLOCK_RECORD
  5
1
100
AcDbSymbolTable
 70
1
  0
BLOCK_RECORD
  5
1F
100
AcDbSymbolTableRecord
100
AcDbBlockTableRecord
  2
*Model_Space
340
22
  0
BLOCK_RECORD
  5
1B
100
AcDbSymbolTableRecord
100
AcDbBlockTableRecord
  2
*Paper_Space
340
1E
  0
BLOCK_RECORD
  5
23
100
AcDbSymbolTableRecord
100
AcDbBlockTableRecord
  2
*Paper_Space0
340
26
  0
ENDTAB
  0
ENDSEC
  0
SECTION
  2
BLOCKS
  0
BLOCK
  5
20
100
AcDbEntity
  8
0
100
AcDbBlockBegin
  2
*Model_Space
 70
0
 10
0.0
 20
0.0
 30
0.0
  3
*Model_Space
  1

  0
ENDBLK
  5
21
100
AcDbEntity
  8
0
100
AcDbBlockEnd
  0
BLOCK
  5
1C
100
AcDbEntity
 67
1
  8
0
100
AcDbBlockBegin
  2
*Paper_Space
 70
0
 10
0.0
 20
0.0
 30
0.0
  3
*Paper_Space
  1

  0
ENDBLK
  5
1D
100
AcDbEntity
 67
1
  8
0
100
AcDbBlockEnd
  0
BLOCK
  5
24
100
AcDbEntity
  8
0
100
AcDbBlockBegin
  2
*Paper_Space0
 70
0
 10
0.0
 20
0.0
 30
0.0
  3
*Paper_Space0
  1

  0
ENDBLK
  5
25
100
AcDbEntity
  8
0
100
AcDbBlockEnd
  0
ENDSEC
  0
SECTION
  2
ENTITIES
  0
LINE
  5
5C
100
AcDbEntity
  8
Layer 1
 62
256
370
-1
 48
1.0
  6
BYLAYER
100
AcDbLine
 10
24.4707000000000008
 20
201.3930000000000007
 30
0.0
 11
24.3725120000000004
 21
201.8787399999999934
 31
0.0
  0
LINE
  5
5D
100
AcDbEntity
  8
Layer 1
 62
256
370
-1
 48
1.0
  6
BYLAYER
100
AcDbLine
 10
13.6377869115799797
 20
194.5032192180638333
 30
0.0
 11
13.5199613115799764
 21
195.0861072180638303
 31
0.0
  0
LINE
  5
5E
100
AcDbEntity
  8
Layer 1
 62
256
370
-1
 48
1.0
  6
BYLAYER
100
AcDbLine
 10
-295.5292999999999779
 20
201.3930000000000007
 30
0.0
 11
-295.6274879999999712
 21
201.8787399999999934
 31
0.0
  0
LINE
  5
5F
100
AcDbEntity
  8
Layer 1
 62
256
370
-1
 48
1.0
  6
BYLAYER
100
AcDbLine
 10
-306.3622130884200487
 20
194.5032192180638333
 30
0.0
 11
-306.4800386884199952
 21
195.0861072180638303
 31
0.0
  0
LINE
  5
60
100
AcDbEntity
  8
Layer 1
 62
256
370
-1
 48
1.0
  6
BYLAYER
100
AcDbLine
 10
24.3725120000000004
 20
201.8787399999999934
 30
0.0
 11
24.1048250000000017
 21
202.2756129999999928
 31
0.0
  0
LINE
  5
61
100
AcDbEntity
  8
Layer 1
 62
256
370
-1
 48
1.0
  6
BYLAYER
100
AcDbLine
 10
13.5199613115799764
 20
195.0861072180638303
 30
0.0
 11
13.1987369115799851
 21
195.5623548180638238
 31
0.0
  0
LINE
  5
62
100
AcDbEntity
  8
Layer 1
 62
256
370
-1
 48
1.0
  6
BYLAYER
100
AcDbLine
 10
-295.6274879999999712
 20
201.8787399999999934
 30
0.0
 11
-295.8951749999999947
 21
202.2756129999999928
 31
0.0
  0
LINE
  5
63
100
AcDbEntity
  8
Layer 1
 62
256
370
-1
 48
1.0
  6
BYLAYER
100
AcDbLine
 10
-306.4800386884199952
 20
195.0861072180638303
 30
0.0
 11
-306.8012630884200007
 21
195.5623548180638238
 31
0.0
  0
LINE
  5
64
100
AcDbEntity
  8
Layer 1
 62
256
370
-1
 48
1.0
  6
BYLAYER
100
AcDbLine
 10
24.1048250000000017
 20
202.2756129999999928
 30
0.0
 11
23.7079559999999994
 21
202.5433010000000138
 31
0.0
  0
LINE
  5
65
100
AcDbEntity
  8
Layer 1
 62
256
370
-1
 48
1.0
  6
BYLAYER
100
AcDbLine
 10
13.1987369115799851
 20
195.5623548180638238
 30
0.0
 11
12.7224941115799624
 21
195.8835804180638434
 31
0.0
  0
LINE
  5
66
100
AcDbEntity
  8
Layer 1
 62
256
370
-1
 48
1.0
  6
BYLAYER
100
AcDbLine
 10
-295.8951749999999947
 20
202.2756129999999928
 30
0.0
 11
-296.2920439999999758
 21
202.5433010000000138
 31
0.0
  0
LINE
  5
67
100
AcDbEntity
  8
Layer 1
 62
256
370
-1
 48
1.0
  6
BYLAYER
100
AcDbLine
 10
-306.8012630884200007
 20
195.5623548180638238
 30
0.0
 11
-307.2775058884200234
 21
195.8835804180638434
 31
0.0
  0
LINE
  5
68
100
AcDbEntity
  8
Layer 1
 62
256
370
-1
 48
1.0
  6
BYLAYER
100
AcDbLine
 10
23.7079559999999994
 20
202.5433010000000138
 30
0.0
 11
23.2222200000000001
 21
202.6414900000000046
 31
0.0
  0
LINE
  5
69
100
AcDbEntity
  8
Layer 1
 62
256
370
-1
 48
1.0
  6
BYLAYER
100
AcDbLine
 10
12.7224941115799624
 20
195.8835804180638434
 30
0.0
 11
12.1396109115799788
 21
196.0014072180638323
 31
0.0
  0
LINE
  5
6A
100
AcDbEntity
  8
Layer 1
 62
256
370
-1
 48
1.0
  6
BYLAYER
100
AcDbLine
 10
-296.2920439999999758
 20
202.5433010000000138
 30
0.0
 11
-296.777780000000007
 21
202.6414900000000046
 31
0.0
  0
LINE
  5
6B
100
AcDbEntity
  8
Layer 1
 62
256
370
-1
 48
1.0
  6
BYLAYER
100
AcDbLine
 10
-307.2775058884200234
 20
195.8835804180638434
 30
0.0
 11
-307.8603890884199927
 21
196.0014072180638323
 31
0.0
  0
LINE
  5
6C
100
AcDbEntity
  8
Layer 1
 62
256
370
-1
 48
1.0
  6
BYLAYER
100
AcDbLine
 10
23.2222200000000001
 20
202.6414900000000046
 30
0.0
 11
22.7365379999999995
 21
202.5433010000000138
 31
0.0
  0
LINE
  5
6D
100
AcDbEntity
  8
Layer 1
 62
256
370
-1
 48
1.0
  6
BYLAYER
100
AcDbLine
 10
12.1396109115799788
 20
196.0014072180638323
 30
0.0
 11
11.556792511579971
 21
195.8835804180638434
 31
0.0
  0
LINE
  5
6E
100
AcDbEntity
  8
Layer 1
 62
256
370
-1
 48
1.0
  6
BYLAYER
100
AcDbLine
 10
-296.777780000000007
 20
202.6414900000000046
 30
0.0
 11
-297.2634620000000041
 21
202.5433010000000138
 31
0.0
  0
LINE
  5
6F
100
AcDbEntity
  8
Layer 1
 62
256
370
-1
 48
1.0
  6
BYLAYER
100
AcDbLine
 10
-307.8603890884199927
 20
196.0014072180638323
 30
0.0
 11
-308.4432074884200574
 21
195.8835804180638434
 31
0.0
  0
LINE
  5
70
100
AcDbEntity
  8
Layer 1
 62
256
370
-1
 48
1.0
  6
BYLAYER
100
AcDbLine
 10
22.7365379999999995
 20
202.5433010000000138
 30
0.0
 11
22.3397889999999997
 21
202.2756129999999928
 31
0.0
  0
LINE
  5
71
100
AcDbEntity
  8
Layer 1
 62
256
370
-1
 48
1.0
  6
BYLAYER
100
AcDbLine
 10
11.556792511579971
 20
195.8835804180638434
 30
0.0
 11
11.0806937115799684
 21
195.5623548180638238
 31
0.0
  0
LINE
  5
72
100
AcDbEntity
  8
Layer 1
 62
256
370
-1
 48
1.0
  6
BYLAYER
100
AcDbLine
 10
-297.2634620000000041
 20
202.5433010000000138
 30
0.0
 11
-297.6602110000000039
 21
202.2756129999999928
 31
0.0
  0
LINE
  5
73
100
AcDbEntity
  8
Layer 1
 62
256
370
-1
 48
1.0
  6
BYLAYER
100
AcDbLine
 10
-308.4432074884200574
 20
195.8835804180638434
 30
0.0
 11
-308.9193062884200458
 21
195.5623548180638238
 31
0.0
  0
LINE
  5
74
100
AcDbEntity
  8
Layer 1
 62
256
370
-1
 48
1.0
  6
BYLAYER
100
AcDbLine
 10
22.3397889999999997
 20
202.2756129999999928
 30
0.0
 11
22.072223000000001
 21
201.8787399999999934
 31
0.0
  0
LINE
  5
75
100
AcDbEntity
  8
Layer 1
 62
256
370
-1
 48
1.0
  6
BYLAYER
100
AcDbLine
 10
11.0806937115799684
 20
195.5623548180638238
 30
0.0
 11
10.7596145115799686
 21
195.0861072180638303
 31
0.0
  0
LINE
  5
76
100
AcDbEntity
  8
Layer 1
 62
256
370
-1
 48
1.0
  6
BYLAYER
100
AcDbLine
 10
-297.6602110000000039
 20
202.2756129999999928
 30
0.0
 11
-297.9277769999999919
 21
201.8787399999999934
 31
0.0
  0
LINE
  5
77
100
AcDbEntity
  8
Layer 1
 62
256
370
-1
 48
1.0
  6
BYLAYER
100
AcDbLine
 10
-308.9193062884200458
 20
195.5623548180638238
 30
0.0
 11
-309.2403854884200314
 21
195.0861072180638303
 31
0.0
  0
LINE
  5
78
100
AcDbEntity
  8
Layer 1
 62
256
370
-1
 48
1.0
  6
BYLAYER
100
AcDbLine
 10
22.072223000000001
 20
201.8787399999999934
 30
0.0
 11
21.9740900000000003
 21
201.3930000000000007
 31
0.0
  0
LINE
  5
79
100
AcDbEntity
  8
Layer 1
 62
256
370
-1
 48
1.0
  6
BYLAYER
100
AcDbLine
 10
10.7596145115799686
 20
195.0861072180638303
 30
0.0
 11
10.6418549115799834
 21
194.5032192180638333
 31
0.0
  0
LINE
  5
7A
100
AcDbEntity
  8
Layer 1
 62
256
370
-1
 48
1.0
  6
BYLAYER
100
AcDbLine
 10
-297.9277769999999919
 20
201.8787399999999934
 30
0.0
 11
-298.0259100000000103
 21
201.3930000000000007
 31
0.0
  0
LINE
  5
7B
100
AcDbEntity
  8
Layer 1
 62
256
370
-1
 48
1.0
  6
BYLAYER
100
AcDbLine
 10
-309.2403854884200314
 20
195.0861072180638303
 30
0.0
 11
-309.3581450884200308
 21
194.5032192180638333
 31
0.0
  0
LINE
  5
7C
100
AcDbEntity
  8
Layer 1
 62
256
370
-1
 48
1.0
  6
BYLAYER
100
AcDbLine
 10
21.9740900000000003
 20
201.3930000000000007
 30
0.0
 11
22.072223000000001
 21
200.9072659999999928
 31
0.0
  0
LINE
  5
7D
100
AcDbEntity
  8
Layer 1
 62
256
370
-1
 48
1.0
  6
BYLAYER
100
AcDbLine
 10
10.6418549115799834
 20
194.5032192180638333
 30
0.0
 11
10.7596145115799686
 21
193.9203384180638068
 31
0.0
  0
LINE
  5
7E
100
AcDbEntity
  8
Layer 1
 62
256
370
-1
 48
1.0
  6
BYLAYER
100
AcDbLine
 10
-298.0259100000000103
 20
201.3930000000000007
 30
0.0
 11
-297.9277769999999919
 21
200.9072659999999928
 31
0.0
  0
LINE
  5
7F
100
AcDbEntity
  8
Layer 1
 62
256
370
-1
 48
1.0
  6
BYLAYER
100
AcDbLine
 10
-309.3581450884200308
 20
194.5032192180638333
 30
0.0
 11
-309.2403854884200314
 21
193.9203384180638068
 31
0.0
  0
LINE
  5
80
100
AcDbEntity
  8
Layer 1
 62
256
370
-1
 48
1.0
  6
BYLAYER
100
AcDbLine
 10
22.072223000000001
 20
200.9072659999999928
 30
0.0
 11
22.3397889999999997
 21
200.5103959999999859
 31
0.0
  0
LINE
  5
81
100
AcDbEntity
  8
Layer 1
 62
256
370
-1
 48
1.0
  6
BYLAYER
100
AcDbLine
 10
10.7596145115799686
 20
193.9203384180638068
 30
0.0
 11
11.0806937115799684
 21
193.4440944180637985
 31
0.0
  0
LINE
  5
82
100
AcDbEntity
  8
Layer 1
 62
256
370
-1
 48
1.0
  6
BYLAYER
100
AcDbLine
 10
-297.9277769999999919
 20
200.9072659999999928
 30
0.0
 11
-297.6602110000000039
 21
200.5103959999999859
 31
0.0
  0
LINE
  5
83
100
AcDbEntity
  8
Layer 1
 62
256
370
-1
 48
1.0
  6
BYLAYER
100
AcDbLine
 10
-309.2403854884200314
 20
193.9203384180638068
 30
0.0
 11
-308.9193062884200458
 21
193.4440944180637985
 31
0.0
  0
LINE
  5
84
100
AcDbEntity
  8
Layer 1
 62
256
370
-1
 48
1.0
  6
BYLAYER
100
AcDbLine
 10
22.3397889999999997
 20
200.5103959999999859
 30
0.0
 11
22.7365379999999995
 21
200.2427089999999907
 31
0.0
  0
LINE
  5
85
100
AcDbEntity
  8
Layer 1
 62
256
370
-1
 48
1.0
  6
BYLAYER
100
AcDbLine
 10
11.0806937115799684
 20
193.4440944180637985
 30
0.0
 11
11.556792511579971
 21
193.1228700180638214
 31
0.0
  0
LINE
  5
86
100
AcDbEntity
  8
Layer 1
 62
256
370
-1
 48
1.0
  6
BYLAYER
100
AcDbLine
 10
-297.6602110000000039
 20
200.5103959999999859
 30
0.0
 11
-297.2634620000000041
 21
200.2427089999999907
 31
0.0
  0
LINE
  5
87
100
AcDbEntity
  8
Layer 1
 62
256
370
-1
 48
1.0
  6
BYLAYER
100
AcDbLine
 10
-308.9193062884200458
 20
193.4440944180637985
 30
0.0
 11
-308.4432074884200574
 21
193.1228700180638214
 31
0.0
  0
LINE
  5
88
100
AcDbEntity
  8
Layer 1
 62
256
370
-1
 48
1.0
  6
BYLAYER
100
AcDbLine
 10
22.7365379999999995
 20
200.2427089999999907
 30
0.0
 11
23.2222200000000001
 21
200.14452
 31
0.0
  0
LINE
  5
89
100
AcDbEntity
  8
Layer 1
 62
256
370
-1
 48
1.0
  6
BYLAYER
100
AcDbLine
 10
11.556792511579971
 20
193.1228700180638214
 30
0.0
 11
12.1396109115799788
 21
193.0050432180638325
 31
0.0
  0
LINE
  5
8A
100
AcDbEntity
  8
Layer 1
 62
256
370
-1
 48
1.0
  6
BYLAYER
100
AcDbLine
 10
-297.2634620000000041
 20
200.2427089999999907
 30
0.0
 11
-296.777780000000007
 21
200.14452
 31
0.0
  0
LINE
  5
8B
100
AcDbEntity
  8
Layer 1
 62
256
370
-1
 48
1.0
  6
BYLAYER
100
AcDbLine
 10
-308.4432074884200574
 20
193.1228700180638214
 30
0.0
 11
-307.8603890884199927
 21
193.0050432180638325
 31
0.0
  0
LINE
  5
8C
100
AcDbEntity
  8
Layer 1
 62
256
370
-1
 48
1.0
  6
BYLAYER
100
AcDbLine
 10
23.2222200000000001
 20
200.14452
 30
0.0
 11
23.7079559999999994
 21
200.2427089999999907
 31
0.0
  0
LINE
  5
8D
100
AcDbEntity
  8
Layer 1
 62
256
370
-1
 48
1.0
  6
BYLAYER
100
AcDbLine
 10
12.1396109115799788
 20
193.0050432180638325
 30
0.0
 11
12.7224941115799624
 21
193.1228700180638214
 31
0.0
  0
LINE
  5
8E
100
AcDbEntity
  8
Layer 1
 62
256
370
-1
 48
1.0
  6
BYLAYER
100
AcDbLine
 10
-296.777780000000007
 20
200.14452
 30
0.0
 11
-296.2920439999999758
 21
200.2427089999999907
 31
0.0
  0
LINE
  5
8F
100
AcDbEntity
  8
Layer 1
 62
256
370
-1
 48
1.0
  6
BYLAYER
100
AcDbLine
 10
-307.8603890884199927
 20
193.0050432180638325
 30
0.0
 11
-307.2775058884200234
 21
193.1228700180638214
 31
0.0
  0
LINE
  5
90
100
AcDbEntity
  8
Layer 1
 62
256
370
-1
 48
1.0
  6
BYLAYER
100
AcDbLine
 10
23.7079559999999994
 20
200.2427089999999907
 30
0.0
 11
24.1048259999999992
 21
200.5103959999999859
 31
0.0
  0
LINE
  5
91
100
AcDbEntity
  8
Layer 1
 62
256
370
-1
 48
1.0
  6
BYLAYER
100
AcDbLine
 10
12.7224941115799624
 20
193.1228700180638214
 30
0.0
 11
13.1987381115799707
 21
193.4440944180637985
 31
0.0
  0
LINE
  5
92
100
AcDbEntity
  8
Layer 1
 62
256
370
-1
 48
1.0
  6
BYLAYER
100
AcDbLine
 10
-296.2920439999999758
 20
200.2427089999999907
 30
0.0
 11
-295.8951739999999972
 21
200.5103959999999859
 31
0.0
  0
LINE
  5
93
100
AcDbEntity
  8
Layer 1
 62
256
370
-1
 48
1.0
  6
BYLAYER
100
AcDbLine
 10
-307.2775058884200234
 20
193.1228700180638214
 30
0.0
 11
-306.8012618884200151
 21
193.4440944180637985
 31
0.0
  0
LINE
  5
94
100
AcDbEntity
  8
Layer 1
 62
256
370
-1
 48
1.0
  6
BYLAYER
100
AcDbLine
 10
24.1048259999999992
 20
200.5103959999999859
 30
0.0
 11
24.3725120000000004
 21
200.9072659999999928
 31
0.0
  0
LINE
  5
95
100
AcDbEntity
  8
Layer 1
 62
256
370
-1
 48
1.0
  6
BYLAYER
100
AcDbLine
 10
13.1987381115799707
 20
193.4440944180637985
 30
0.0
 11
13.5199613115799764
 21
193.9203384180638068
 31
0.0
  0
LINE
  5
96
100
AcDbEntity
  8
Layer 1
 62
256
370
-1
 48
1.0
  6
BYLAYER
100
AcDbLine
 10
-295.8951739999999972
 20
200.5103959999999859
 30
0.0
 11
-295.6274879999999712
 21
200.9072659999999928
 31
0.0
  0
LINE
  5
97
100
AcDbEntity
  8
Layer 1
 62
256
370
-1
 48
1.0
  6
BYLAYER
100
AcDbLine
 10
-306.8012618884200151
 20
193.4440944180637985
 30
0.0
 11
-306.4800386884199952
 21
193.9203384180638068
 31
0.0
  0
LINE
  5
98
100
AcDbEntity
  8
Layer 1
 62
256
370
-1
 48
1.0
  6
BYLAYER
100
AcDbLine
 10
24.3725120000000004
 20
200.9072659999999928
 30
0.0
 11
24.4707000000000008
 21
201.3930000000000007
 31
0.0
  0
LINE
  5
99
100
AcDbEntity
  8
Layer 1
 62
256
370
-1
 48
1.0
  6
BYLAYER
100
AcDbLine
 10
13.5199613115799764
 20
193.9203384180638068
 30
0.0
 11
13.6377869115799797
 21
194.5032192180638333
 31
0.0
  0
LINE
  5
9A
100
AcDbEntity
  8
Layer 1
 62
256
370
-1
 48
1.0
  6
BYLAYER
100
AcDbLine
 10
-295.6274879999999712
 20
200.9072659999999928
 30
0.0
 11
-295.5292999999999779
 21
201.3930000000000007
 31
0.0
  0
LINE
  5
9B
100
AcDbEntity
  8
Layer 1
 62
256
370
-1
 48
1.0
  6
BYLAYER
100
AcDbLine
 10
-306.4800386884199952
 20
193.9203384180638068
 30
0.0
 11
-306.3622130884200487
 21
194.5032192180638333
 31
0.0
  0
LINE
  5
9C
100
AcDbEntity
  8
Layer 1
 62
256
370
-1
 48
1.0
  6
BYLAYER
100
AcDbLine
 10
24.4707000000000008
 20
201.3930000000000007
 30
0.0
 11
24.4707000000000008
 21
201.3930000000000007
 31
0.0
  0
LINE
  5
9D
100
AcDbEntity
  8
Layer 1
 62
256
370
-1
 48
1.0
  6
BYLAYER
100
AcDbLine
 10
13.6377869115799797
 20
194.5032192180638333
 30
0.0
 11
13.6377869115799797
 21
194.5032192180638333
 31
0.0
  0
LINE
  5
9E
100
AcDbEntity
  8
Layer 1
 62
256
370
-1
 48
1.0
  6
BYLAYER
100
AcDbLine
 10
-295.5292999999999779
 20
201.3930000000000007
 30
0.0
 11
-295.5292999999999779
 21
201.3930000000000007
 31
0.0
  0
LINE
  5
9F
100
AcDbEntity
  8
Layer 1
 62
256
370
-1
 48
1.0
  6
BYLAYER
100
AcDbLine
 10
-306.3622130884200487
 20
194.5032192180638333
 30
0.0
 11
-306.3622130884200487
 21
194.5032192180638333
 31
0.0
  0
LINE
  5
A0
100
AcDbEntity
  8
Layer 1
 62
256
370
-1
 48
1.0
  6
BYLAYER
100
AcDbLine
 10
50.2177000000000007
 20
262.7669999999999959
 30
0.0
 11
50.1195120000000003
 21
263.2527339999999754
 31
0.0
  0
LINE
  5
A1
100
AcDbEntity
  8
Layer 1
 62
256
370
-1
 48
1.0
  6
BYLAYER
100
AcDbLine
 10
44.5341869115799724
 20
268.1520192180637991
 30
0.0
 11
44.4163613115799691
 21
268.7349000180637972
 31
0.0
  0
LINE
  5
A2
100
AcDbEntity
  8
Layer 1
 62
256
370
-1
 48
1.0
  6
BYLAYER
100
AcDbLine
 10
-269.7823000000000206
 20
262.7669999999999959
 30
0.0
 11
-269.8804880000000139
 21
263.2527339999999754
 31
0.0
  0
LINE
  5
A3
100
AcDbEntity
  8
Layer 1
 62
256
370
-1
 48
1.0
  6
BYLAYER
100
AcDbLine
 10
-275.4658130884200204
 20
268.1520192180637991
 30
0.0
 11
-275.5836386884200238
 21
268.7349000180637972
 31
0.0
  0
LINE
  5
A4
100
AcDbEntity
  8
Layer 1
 62
256
370
-1
 48
1.0
  6
BYLAYER
100
AcDbLine
 10
50.1195120000000003
 20
263.2527339999999754
 30
0.0
 11
49.8518249999999981
 21
263.6496040000000107
 31
0.0
  0
LINE
  5
A5
100
AcDbEntity
  8
Layer 1
 62
256
370
-1
 48
1.0
  6
BYLAYER
100
AcDbLine
 10
44.4163613115799691
 20
268.7349000180637972
 30
0.0
 11
44.0951369115799707
 21
269.2111440180638624
 31
0.0
  0
LINE
  5
A6
100
AcDbEntity
  8
Layer 1
 62
256
370
-1
 48
1.0
  6
BYLAYER
100
AcDbLine
 10
-269.8804880000000139
 20
263.2527339999999754
 30
0.0
 11
-270.1481749999999806
 21
263.6496040000000107
 31
0.0
  0
LINE
  5
A7
100
AcDbEntity
  8
Layer 1
 62
256
370
-1
 48
1.0
  6
BYLAYER
100
AcDbLine
 10
-275.5836386884200238
 20
268.7349000180637972
 30
0.0
 11
-275.9048630884200293
 21
269.2111440180638624
 31
0.0
  0
LINE
  5
A8
100
AcDbEntity
  8
Layer 1
 62
256
370
-1
 48
1.0
  6
BYLAYER
100
AcDbLine
 10
49.8518249999999981
 20
263.6496040000000107
 30
0.0
 11
49.4549560000000028
 21
263.9172909999999774
 31
0.0
  0
LINE
  5
A9
100
AcDbEntity
  8
Layer 1
 62
256
370
-1
 48
1.0
  6
BYLAYER
100
AcDbLine
 10
44.0951369115799707
 20
269.2111440180638624
 30
0.0
 11
43.6188941115799764
 21
269.5323684180638111
 31
0.0
  0
LINE
  5
AA
100
AcDbEntity
  8
Layer 1
 62
256
370
-1
 48
1.0
  6
BYLAYER
100
AcDbLine
 10
-270.1481749999999806
 20
263.6496040000000107
 30
0.0
 11
-270.5450440000000185
 21
263.9172909999999774
 31
0.0
  0
LINE
  5
AB
100
AcDbEntity
  8
Layer 1
 62
256
370
-1
 48
1.0
  6
BYLAYER
100
AcDbLine
 10
-275.9048630884200293
 20
269.2111440180638624
 30
0.0
 11
-276.381105888420052
 21
269.5323684180638111
 31
0.0
  0
LINE
  5
AC
100
AcDbEntity
  8
Layer 1
 62
256
370
-1
 48
1.0
  6
BYLAYER
100
AcDbLine
 10
49.4549560000000028
 20
263.9172909999999774
 30
0.0
 11
48.96922
 21
264.015480000000025
 31
0.0
  0
LINE
  5
AD
100
AcDbEntity
  8
Layer 1
 62
256
370
-1
 48
1.0
  6
BYLAYER
100
AcDbLine
 10
43.6188941115799764
 20
269.5323684180638111
 30
0.0
 11
43.0360109115799716
 21
269.6501952180638568
 31
0.0
  0
LINE
  5
AE
100
AcDbEntity
  8
Layer 1
 62
256
370
-1
 48
1.0
  6
BYLAYER
100
AcDbLine
 10
-270.5450440000000185
 20
263.9172909999999774
 30
0.0
 11
-271.0307799999999929
 21
264.015480000000025
 31
0.0
  0
LINE
  5
AF
100
AcDbEntity
  8
Layer 1
 62
256
370
-1
 48
1.0
  6
BYLAYER
100
AcDbLine
 10
-276.381105888420052
 20
269.5323684180638111
 30
0.0
 11
-276.9639890884200213
 21
269.6501952180638568
 31
0.0
  0
LINE
  5
B0
100
AcDbEntity
  8
Layer 1
 62
256
370
-1
 48
1.0
  6
BYLAYER
100
AcDbLine
 10
48.96922
 20
264.015480000000025
 30
0.0
 11
48.4835380000000029
 21
263.9172909999999774
 31
0.0
  0
LINE
  5
B1
100
AcDbEntity
  8
Layer 1
 62
256
370
-1
 48
1.0
  6
BYLAYER
100
AcDbLine
 10
43.0360109115799716
 20
269.6501952180638568
 30
0.0
 11
42.453192511579978
 21
269.5323684180638111
 31
0.0
  0
LINE
  5
B2
100
AcDbEntity
  8
Layer 1
 62
256
370
-1
 48
1.0
  6
BYLAYER
100
AcDbLine
 10
-271.0307799999999929
 20
264.015480000000025
 30
0.0
 11
-271.51646199999999
 21
263.9172909999999774
 31
0.0
  0
LINE
  5
B3
100
AcDbEntity
  8
Layer 1
 62
256
370
-1
 48
1.0
  6
BYLAYER
100
AcDbLine
 10
-276.9639890884200213
 20
269.6501952180638568
 30
0.0
 11
-277.5468074884200291
 21
269.5323684180638111
 31
0.0
  0
LINE
  5
B4
100
AcDbEntity
  8
Layer 1
 62
256
370
-1
 48
1.0
  6
BYLAYER
100
AcDbLine
 10
48.4835380000000029
 20
263.9172909999999774
 30
0.0
 11
48.0867890000000031
 21
263.6496040000000107
 31
0.0
  0
LINE
  5
B5
100
AcDbEntity
  8
Layer 1
 62
256
370
-1
 48
1.0
  6
BYLAYER
100
AcDbLine
 10
42.453192511579978
 20
269.5323684180638111
 30
0.0
 11
41.9770937115799754
 21
269.2111440180638624
 31
0.0
  0
LINE
  5
B6
100
AcDbEntity
  8
Layer 1
 62
256
370
-1
 48
1.0
  6
BYLAYER
100
AcDbLine
 10
-271.51646199999999
 20
263.9172909999999774
 30
0.0
 11
-271.9132109999999898
 21
263.6496040000000107
 31
0.0
  0
LINE
  5
B7
100
AcDbEntity
  8
Layer 1
 62
256
370
-1
 48
1.0
  6
BYLAYER
100
AcDbLine
 10
-277.5468074884200291
 20
269.5323684180638111
 30
0.0
 11
-278.0229062884200175
 21
269.2111440180638624
 31
0.0
  0
LINE
  5
B8
100
AcDbEntity
  8
Layer 1
 62
256
370
-1
 48
1.0
  6
BYLAYER
100
AcDbLine
 10
48.0867890000000031
 20
263.6496040000000107
 30
0.0
 11
47.8192230000000009
 21
263.2527339999999754
 31
0.0
  0
LINE
  5
B9
100
AcDbEntity
  8
Layer 1
 62
256
370
-1
 48
1.0
  6
BYLAYER
100
AcDbLine
 10
41.9770937115799754
 20
269.2111440180638624
 30
0.0
 11
41.6560145115799756
 21
268.7349000180637972
 31
0.0
  0
LINE
  5
BA
100
AcDbEntity
  8
Layer 1
 62
256
370
-1
 48
1.0
  6
BYLAYER
100
AcDbLine
 10
-271.9132109999999898
 20
263.6496040000000107
 30
0.0
 11
-272.1807769999999778
 21
263.2527339999999754
 31
0.0
  0
LINE
  5
BB
100
AcDbEntity
  8
Layer 1
 62
256
370
-1
 48
1.0
  6
BYLAYER
100
AcDbLine
 10
-278.0229062884200175
 20
269.2111440180638624
 30
0.0
 11
-278.3439854884200031
 21
268.7349000180637972
 31
0.0
  0
LINE
  5
BC
100
AcDbEntity
  8
Layer 1
 62
256
370
-1
 48
1.0
  6
BYLAYER
100
AcDbLine
 10
47.8192230000000009
 20
263.2527339999999754
 30
0.0
 11
47.7210899999999967
 21
262.7669999999999959
 31
0.0
  0
LINE
  5
BD
100
AcDbEntity
  8
Layer 1
 62
256
370
-1
 48
1.0
  6
BYLAYER
100
AcDbLine
 10
41.6560145115799756
 20
268.7349000180637972
 30
0.0
 11
41.5382549115799691
 21
268.1520192180637991
 31
0.0
  0
LINE
  5
BE
100
AcDbEntity
  8
Layer 1
 62
256
370
-1
 48
1.0
  6
BYLAYER
100
AcDbLine
 10
-272.1807769999999778
 20
263.2527339999999754
 30
0.0
 11
-272.2789099999999962
 21
262.7669999999999959
 31
0.0
  0
LINE
  5
BF
100
AcDbEntity
  8
Layer 1
 62
256
370
-1
 48
1.0
  6
BYLAYER
100
AcDbLine
 10
-278.3439854884200031
 20
268.7349000180637972
 30
0.0
 11
-278.4617450884200025
 21
268.1520192180637991
 31
0.0
  0
LINE
  5
C0
100
AcDbEntity
  8
Layer 1
 62
256
370
-1
 48
1.0
  6
BYLAYER
100
AcDbLine
 10
47.7210899999999967
 20
262.7669999999999959
 30
0.0
 11
47.8192230000000009
 21
262.2812620000000265
 31
0.0
  0
LINE
  5
C1
100
AcDbEntity
  8
Layer 1
 62
256
370
-1
 48
1.0
  6
BYLAYER
100
AcDbLine
 10
41.5382549115799691
 20
268.1520192180637991
 30
0.0
 11
41.6560145115799756
 21
267.5691336180638586
 31
0.0
  0
LINE
  5
C2
100
AcDbEntity
  8
Layer 1
 62
256
370
-1
 48
1.0
  6
BYLAYER
100
AcDbLine
 10
-272.2789099999999962
 20
262.7669999999999959
 30
0.0
 11
-272.1807769999999778
 21
262.2812620000000265
 31
0.0
  0
LINE
  5
C3
100
AcDbEntity
  8
Layer 1
 62
256
370
-1
 48
1.0
  6
BYLAYER
100
AcDbLine
 10
-278.4617450884200025
 20
268.1520192180637991
 30
0.0
 11
-278.3439854884200031
 21
267.5691336180638586
 31
0.0
  0
LINE
  5
C4
100
AcDbEntity
  8
Layer 1
 62
256
370
-1
 48
1.0
  6
BYLAYER
100
AcDbLine
 10
47.8192230000000009
 20
262.2812620000000265
 30
0.0
 11
48.0867890000000031
 21
261.8843919999999912
 31
0.0
  0
LINE
  5
C5
100
AcDbEntity
  8
Layer 1
 62
256
370
-1
 48
1.0
  6
BYLAYER
100
AcDbLine
 10
41.6560145115799756
 20
267.5691336180638586
 30
0.0
 11
41.9770937115799754
 21
267.0928896180637935
 31
0.0
  0
LINE
  5
C6
100
AcDbEntity
  8
Layer 1
 62
256
370
-1
 48
1.0
  6
BYLAYER
100
AcDbLine
 10
-272.1807769999999778
 20
262.2812620000000265
 30
0.0
 11
-271.9132109999999898
 21
261.8843919999999912
 31
0.0
  0
LINE
  5
C7
100
AcDbEntity
  8
Layer 1
 62
256
370
-1
 48
1.0
  6
BYLAYER
100
AcDbLine
 10
-278.3439854884200031
 20
267.5691336180638586
 30
0.0
 11
-278.0229062884200175
 21
267.0928896180637935
 31
0.0
  0
LINE
  5
C8
100
AcDbEntity
  8
Layer 1
 62
256
370
-1
 48
1.0
  6
BYLAYER
100
AcDbLine
 10
48.0867890000000031
 20
261.8843919999999912
 30
0.0
 11
48.4835380000000029
 21
261.6167070000000194
 31
0.0
  0
LINE
  5
C9
100
AcDbEntity
  8
Layer 1
 62
256
370
-1
 48
1.0
  6
BYLAYER
100
AcDbLine
 10
41.9770937115799754
 20
267.0928896180637935
 30
0.0
 11
42.453192511579978
 21
266.7716676180638729
 31
0.0
  0
LINE
  5
CA
100
AcDbEntity
  8
Layer 1
 62
256
370
-1
 48
1.0
  6
BYLAYER
100
AcDbLine
 10
-271.9132109999999898
 20
261.8843919999999912
 30
0.0
 11
-271.51646199999999
 21
261.6167070000000194
 31
0.0
  0
LINE
  5
CB
100
AcDbEntity
  8
Layer 1
 62
256
370
-1
 48
1.0
  6
BYLAYER
100
AcDbLine
 10
-278.0229062884200175
 20
267.0928896180637935
 30
0.0
 11
-277.5468074884200291
 21
266.7716676180638729
 31
0.0
  0
LINE
  5
CC
100
AcDbEntity
  8
Layer 1
 62
256
370
-1
 48
1.0
  6
BYLAYER
100
AcDbLine
 10
48.4835380000000029
 20
261.6167070000000194
 30
0.0
 11
48.96922
 21
261.5185200000000236
 31
0.0
  0
LINE
  5
CD
100
AcDbEntity
  8
Layer 1
 62
256
370
-1
 48
1.0
  6
BYLAYER
100
AcDbLine
 10
42.453192511579978
 20
266.7716676180638729
 30
0.0
 11
43.0360109115799716
 21
266.6538432180638551
 31
0.0
  0
LINE
  5
CE
100
AcDbEntity
  8
Layer 1
 62
256
370
-1
 48
1.0
  6
BYLAYER
100
AcDbLine
 10
-271.51646199999999
 20
261.6167070000000194
 30
0.0
 11
-271.0307799999999929
 21
261.5185200000000236
 31
0.0
  0
LINE
  5
CF
100
AcDbEntity
  8
Layer 1
 62
256
370
-1
 48
1.0
  6
BYLAYER
100
AcDbLine
 10
-277.5468074884200291
 20
266.7716676180638729
 30
0.0
 11
-276.9639890884200213
 21
266.6538432180638551
 31
0.0
  0
LINE
  5
D0
100
AcDbEntity
  8
Layer 1
 62
256
370
-1
 48
1.0
  6
BYLAYER
100
AcDbLine
 10
48.96922
 20
261.5185200000000236
 30
0.0
 11
49.4549560000000028
 21
261.6167070000000194
 31
0.0
  0
LINE
  5
D1
100
AcDbEntity
  8
Layer 1
 62
256
370
-1
 48
1.0
  6
BYLAYER
100
AcDbLine
 10
43.0360109115799716
 20
266.6538432180638551
 30
0.0
 11
43.6188941115799764
 21
266.7716676180638729
 31
0.0
  0
LINE
  5
D2
100
AcDbEntity
  8
Layer 1
 62
256
370
-1
 48
1.0
  6
BYLAYER
100
AcDbLine
 10
-271.0307799999999929
 20
261.5185200000000236
 30
0.0
 11
-270.5450440000000185
 21
261.6167070000000194
 31
0.0
  0
LINE
  5
D3
100
AcDbEntity
  8
Layer 1
 62
256
370
-1
 48
1.0
  6
BYLAYER
100
AcDbLine
 10
-276.9639890884200213
 20
266.6538432180638551
 30
0.0
 11
-276.381105888420052
 21
266.7716676180638729
 31
0.0
  0
LINE
  5
D4
100
AcDbEntity
  8
Layer 1
 62
256
370
-1
 48
1.0
  6
BYLAYER
100
AcDbLine
 10
49.4549560000000028
 20
261.6167070000000194
 30
0.0
 11
49.8518260000000026
 21
261.8843919999999912
 31
0.0
  0
LINE
  5
D5
100
AcDbEntity
  8
Layer 1
 62
256
370
-1
 48
1.0
  6
BYLAYER
100
AcDbLine
 10
43.6188941115799764
 20
266.7716676180638729
 30
0.0
 11
44.0951381115799776
 21
267.0928896180637935
 31
0.0
  0
LINE
  5
D6
100
AcDbEntity
  8
Layer 1
 62
256
370
-1
 48
1.0
  6
BYLAYER
100
AcDbLine
 10
-270.5450440000000185
 20
261.6167070000000194
 30
0.0
 11
-270.1481739999999832
 21
261.8843919999999912
 31
0.0
  0
LINE
  5
D7
100
AcDbEntity
  8
Layer 1
 62
256
370
-1
 48
1.0
  6
BYLAYER
100
AcDbLine
 10
-276.381105888420052
 20
266.7716676180638729
 30
0.0
 11
-275.9048618884200437
 21
267.0928896180637935
 31
0.0
  0
LINE
  5
D8
100
AcDbEntity
  8
Layer 1
 62
256
370
-1
 48
1.0
  6
BYLAYER
100
AcDbLine
 10
49.8518260000000026
 20
261.8843919999999912
 30
0.0
 11
50.1195120000000003
 21
262.2812620000000265
 31
0.0
  0
LINE
  5
D9
100
AcDbEntity
  8
Layer 1
 62
256
370
-1
 48
1.0
  6
BYLAYER
100
AcDbLine
 10
44.0951381115799776
 20
267.0928896180637935
 30
0.0
 11
44.4163613115799691
 21
267.5691336180638586
 31
0.0
  0
LINE
  5
DA
100
AcDbEntity
  8
Layer 1
 62
256
370
-1
 48
1.0
  6
BYLAYER
100
AcDbLine
 10
-270.1481739999999832
 20
261.8843919999999912
 30
0.0
 11
-269.8804880000000139
 21
262.2812620000000265
 31
0.0
  0
LINE
  5
DB
100
AcDbEntity
  8
Layer 1
 62
256
370
-1
 48
1.0
  6
BYLAYER
100
AcDbLine
 10
-275.9048618884200437
 20
267.0928896180637935
 30
0.0
 11
-275.5836386884200238
 21
267.5691336180638586
 31
0.0
  0
LINE
  5
DC
100
AcDbEntity
  8
Layer 1
 62
256
370
-1
 48
1.0
  6
BYLAYER
100
AcDbLine
 10
50.1195120000000003
 20
262.2812620000000265
 30
0.0
 11
50.2177000000000007
 21
262.7669999999999959
 31
0.0
  0
LINE
  5
DD
100
AcDbEntity
  8
Layer 1
 62
256
370
-1
 48
1.0
  6
BYLAYER
100
AcDbLine
 10
44.4163613115799691
 20
267.5691336180638586
 30
0.0
 11
44.5341869115799724
 21
268.1520192180637991
 31
0.0
  0
LINE
  5
DE
100
AcDbEntity
  8
Layer 1
 62
256
370
-1
 48
1.0
  6
BYLAYER
100
AcDbLine
 10
-269.8804880000000139
 20
262.2812620000000265
 30
0.0
 11
-269.7823000000000206
 21
262.7669999999999959
 31
0.0
  0
LINE
  5
DF
100
AcDbEntity
  8
Layer 1
 62
256
370
-1
 48
1.0
  6
BYLAYER
100
AcDbLine
 10
-275.5836386884200238
 20
267.5691336180638586
 30
0.0
 11
-275.4658130884200204
 21
268.1520192180637991
 31
0.0
  0
LINE
  5
E0
100
AcDbEntity
  8
Layer 1
 62
256
370
-1
 48
1.0
  6
BYLAYER
100
AcDbLine
 10
50.2177000000000007
 20
262.7669999999999959
 30
0.0
 11
50.2177000000000007
 21
262.7669999999999959
 31
0.0
  0
LINE
  5
E1
100
AcDbEntity
  8
Layer 1
 62
256
370
-1
 48
1.0
  6
BYLAYER
100
AcDbLine
 10
44.5341869115799724
 20
268.1520192180637991
 30
0.0
 11
44.5341869115799724
 21
268.1520192180637991
 31
0.0
  0
LINE
  5
E2
100
AcDbEntity
  8
Layer 1
 62
256
370
-1
 48
1.0
  6
BYLAYER
100
AcDbLine
 10
-269.7823000000000206
 20
262.7669999999999959
 30
0.0
 11
-269.7823000000000206
 21
262.7669999999999959
 31
0.0
  0
LINE
  5
E3
100
AcDbEntity
  8
Layer 1
 62
256
370
-1
 48
1.0
  6
BYLAYER
100
AcDbLine
 10
-275.4658130884200204
 20
268.1520192180637991
 30
0.0
 11
-275.4658130884200204
 21
268.1520192180637991
 31
0.0
  0
LINE
  5
E4
100
AcDbEntity
  8
Layer 1
 62
256
370
-1
 48
1.0
  6
BYLAYER
100
AcDbLine
 10
50.2190000000000012
 20
224.8549999999999898
 30
0.0
 11
50.1208120000000008
 21
225.3407339999999976
 31
0.0
  0
LINE
  5
E5
100
AcDbEntity
  8
Layer 1
 62
256
370
-1
 48
1.0
  6
BYLAYER
100
AcDbLine
 10
44.5357469115799702
 20
222.6576192180638145
 30
0.0
 11
44.417921311579974
 21
223.2405000180638126
 31
0.0
  0
LINE
  5
E6
100
AcDbEntity
  8
Layer 1
 62
256
370
-1
 48
1.0
  6
BYLAYER
100
AcDbLine
 10
-269.7810000000000059
 20
224.8549999999999898
 30
0.0
 11
-269.8791879999999992
 21
225.3407339999999976
 31
0.0
  0
LINE
  5
E7
100
AcDbEntity
  8
Layer 1
 62
256
370
-1
 48
1.0
  6
BYLAYER
100
AcDbLine
 10
-275.4642530884200369
 20
222.6576192180638145
 30
0.0
 11
-275.5820786884200402
 21
223.2405000180638126
 31
0.0
  0
LINE
  5
E8
100
AcDbEntity
  8
Layer 1
 62
256
370
-1
 48
1.0
  6
BYLAYER
100
AcDbLine
 10
50.1208120000000008
 20
225.3407339999999976
 30
0.0
 11
49.8531249999999986
 21
225.7376040000000046
 31
0.0
  0
LINE
  5
E9
100
AcDbEntity
  8
Layer 1
 62
256
370
-1
 48
1.0
  6
BYLAYER
100
AcDbLine
 10
44.417921311579974
 20
223.2405000180638126
 30
0.0
 11
44.0966969115799685
 21
223.7167440180638209
 31
0.0
  0
LINE
  5
EA
100
AcDbEntity
  8
Layer 1
 62
256
370
-1
 48
1.0
  6
BYLAYER
100
AcDbLine
 10
-269.8791879999999992
 20
225.3407339999999976
 30
0.0
 11
-270.1468750000000227
 21
225.7376040000000046
 31
0.0
  0
LINE
  5
EB
100
AcDbEntity
  8
Layer 1
 62
256
370
-1
 48
1.0
  6
BYLAYER
100
AcDbLine
 10
-275.5820786884200402
 20
223.2405000180638126
 30
0.0
 11
-275.9033030884200457
 21
223.7167440180638209
 31
0.0
  0
LINE
  5
EC
100
AcDbEntity
  8
Layer 1
 62
256
370
-1
 48
1.0
  6
BYLAYER
100
AcDbLine
 10
49.8531249999999986
 20
225.7376040000000046
 30
0.0
 11
49.4562560000000033
 21
226.0052909999999997
 31
0.0
  0
LINE
  5
ED
100
AcDbEntity
  8
Layer 1
 62
256
370
-1
 48
1.0
  6
BYLAYER
100
AcDbLine
 10
44.0966969115799685
 20
223.7167440180638209
 30
0.0
 11
43.6204541115799742
 21
224.0379684180638264
 31
0.0
  0
LINE
  5
EE
100
AcDbEntity
  8
Layer 1
 62
256
370
-1
 48
1.0
  6
BYLAYER
100
AcDbLine
 10
-270.1468750000000227
 20
225.7376040000000046
 30
0.0
 11
-270.5437440000000038
 21
226.0052909999999997
 31
0.0
  0
LINE
  5
EF
100
AcDbEntity
  8
Layer 1
 62
256
370
-1
 48
1.0
  6
BYLAYER
100
AcDbLine
 10
-275.9033030884200457
 20
223.7167440180638209
 30
0.0
 11
-276.3795458884200116
 21
224.0379684180638264
 31
0.0
  0
LINE
  5
F0
100
AcDbEntity
  8
Layer 1
 62
256
370
-1
 48
1.0
  6
BYLAYER
100
AcDbLine
 10
49.4562560000000033
 20
226.0052909999999997
 30
0.0
 11
48.9705200000000005
 21
226.1034799999999905
 31
0.0
  0
LINE
  5
F1
100
AcDbEntity
  8
Layer 1
 62
256
370
-1
 48
1.0
  6
BYLAYER
100
AcDbLine
 10
43.6204541115799742
 20
224.0379684180638264
 30
0.0
 11
43.0375709115799694
 21
224.1557952180638154
 31
0.0
  0
LINE
  5
F2
100
AcDbEntity
  8
Layer 1
 62
256
370
-1
 48
1.0
  6
BYLAYER
100
AcDbLine
 10
-270.5437440000000038
 20
226.0052909999999997
 30
0.0
 11
-271.0294799999999782
 21
226.1034799999999905
 31
0.0
  0
LINE
  5
F3
100
AcDbEntity
  8
Layer 1
 62
256
370
-1
 48
1.0
  6
BYLAYER
100
AcDbLine
 10
-276.3795458884200116
 20
224.0379684180638264
 30
0.0
 11
-276.9624290884200377
 21
224.1557952180638154
 31
0.0
  0
LINE
  5
F4
100
AcDbEntity
  8
Layer 1
 62
256
370
-1
 48
1.0
  6
BYLAYER
100
AcDbLine
 10
48.9705200000000005
 20
226.1034799999999905
 30
0.0
 11
48.4848380000000034
 21
226.0052909999999997
 31
0.0
  0
LINE
  5
F5
100
AcDbEntity
  8
Layer 1
 62
256
370
-1
 48
1.0
  6
BYLAYER
100
AcDbLine
 10
43.0375709115799694
 20
224.1557952180638154
 30
0.0
 11
42.4547525115799758
 21
224.0379684180638264
 31
0.0
  0
LINE
  5
F6
100
AcDbEntity
  8
Layer 1
 62
256
370
-1
 48
1.0
  6
BYLAYER
100
AcDbLine
 10
-271.0294799999999782
 20
226.1034799999999905
 30
0.0
 11
-271.5151619999999753
 21
226.0052909999999997
 31
0.0
  0
LINE
  5
F7
100
AcDbEntity
  8
Layer 1
 62
256
370
-1
 48
1.0
  6
BYLAYER
100
AcDbLine
 10
-276.9624290884200377
 20
224.1557952180638154
 30
0.0
 11
-277.5452474884200456
 21
224.0379684180638264
 31
0.0
  0
LINE
  5
F8
100
AcDbEntity
  8
Layer 1
 62
256
370
-1
 48
1.0
  6
BYLAYER
100
AcDbLine
 10
48.4848380000000034
 20
226.0052909999999997
 30
0.0
 11
48.0880889999999965
 21
225.7376040000000046
 31
0.0
  0
LINE
  5
F9
100
AcDbEntity
  8
Layer 1
 62
256
370
-1
 48
1.0
  6
BYLAYER
100
AcDbLine
 10
42.4547525115799758
 20
224.0379684180638264
 30
0.0
 11
41.9786537115799661
 21
223.7167440180638209
 31
0.0
  0
LINE
  5
FA
100
AcDbEntity
  8
Layer 1
 62
256
370
-1
 48
1.0
  6
BYLAYER
100
AcDbLine
 10
-271.5151619999999753
 20
226.0052909999999997
 30
0.0
 11
-271.9119110000000319
 21
225.7376040000000046
 31
0.0
  0
LINE
  5
FB
100
AcDbEntity
  8
Layer 1
 62
256
370
-1
 48
1.0
  6
BYLAYER
100
AcDbLine
 10
-277.5452474884200456
 20
224.0379684180638264
 30
0.0
 11
-278.0213462884200339
 21
223.7167440180638209
 31
0.0
  0
LINE
  5
FC
100
AcDbEntity
  8
Layer 1
 62
256
370
-1
 48
1.0
  6
BYLAYER
100
AcDbLine
 10
48.0880889999999965
 20
225.7376040000000046
 30
0.0
 11
47.8205230000000014
 21
225.3407339999999976
 31
0.0
  0
LINE
  5
FD
100
AcDbEntity
  8
Layer 1
 62
256
370
-1
 48
1.0
  6
BYLAYER
100
AcDbLine
 10
41.9786537115799661
 20
223.7167440180638209
 30
0.0
 11
41.6575745115799734
 21
223.2405000180638126
 31
0.0
  0
LINE
  5
FE
100
AcDbEntity
  8
Layer 1
 62
256
370
-1
 48
1.0
  6
BYLAYER
100
AcDbLine
 10
-271.9119110000000319
 20
225.7376040000000046
 30
0.0
 11
-272.1794770000000199
 21
225.3407339999999976
 31
0.0
  0
LINE
  5
FF
100
AcDbEntity
  8
Layer 1
 62
256
370
-1
 48
1.0
  6
BYLAYER
100
AcDbLine
 10
-278.0213462884200339
 20
223.7167440180638209
 30
0.0
 11
-278.3424254884200195
 21
223.2405000180638126
 31
0.0
  0
LINE
  5
100
100
AcDbEntity
  8
Layer 1
 62
256
370
-1
 48
1.0
  6
BYLAYER
100
AcDbLine
 10
47.8205230000000014
 20
225.3407339999999976
 30
0.0
 11
47.7223899999999972
 21
224.8549999999999898
 31
0.0
  0
LINE
  5
101
100
AcDbEntity
  8
Layer 1
 62
256
370
-1
 48
1.0
  6
BYLAYER
100
AcDbLine
 10
41.6575745115799734
 20
223.2405000180638126
 30
0.0
 11
41.5398149115799669
 21
222.6576192180638145
 31
0.0
  0
LINE
  5
102
100
AcDbEntity
  8
Layer 1
 62
256
370
-1
 48
1.0
  6
BYLAYER
100
AcDbLine
 10
-272.1794770000000199
 20
225.3407339999999976
 30
0.0
 11
-272.2776099999999815
 21
224.8549999999999898
 31
0.0
  0
LINE
  5
103
100
AcDbEntity
  8
Layer 1
 62
256
370
-1
 48
1.0
  6
BYLAYER
100
AcDbLine
 10
-278.3424254884200195
 20
223.2405000180638126
 30
0.0
 11
-278.4601850884200189
 21
222.6576192180638145
 31
0.0
  0
LINE
  5
104
100
AcDbEntity
  8
Layer 1
 62
256
370
-1
 48
1.0
  6
BYLAYER
100
AcDbLine
 10
47.7223899999999972
 20
224.8549999999999898
 30
0.0
 11
47.8205230000000014
 21
224.369261999999992
 31
0.0
  0
LINE
  5
105
100
AcDbEntity
  8
Layer 1
 62
256
370
-1
 48
1.0
  6
BYLAYER
100
AcDbLine
 10
41.5398149115799669
 20
222.6576192180638145
 30
0.0
 11
41.6575745115799734
 21
222.0747336180638172
 31
0.0
  0
LINE
  5
106
100
AcDbEntity
  8
Layer 1
 62
256
370
-1
 48
1.0
  6
BYLAYER
100
AcDbLine
 10
-272.2776099999999815
 20
224.8549999999999898
 30
0.0
 11
-272.1794770000000199
 21
224.369261999999992
 31
0.0
  0
LINE
  5
107
100
AcDbEntity
  8
Layer 1
 62
256
370
-1
 48
1.0
  6
BYLAYER
100
AcDbLine
 10
-278.4601850884200189
 20
222.6576192180638145
 30
0.0
 11
-278.3424254884200195
 21
222.0747336180638172
 31
0.0
  0
LINE
  5
108
100
AcDbEntity
  8
Layer 1
 62
256
370
-1
 48
1.0
  6
BYLAYER
100
AcDbLine
 10
47.8205230000000014
 20
224.369261999999992
 30
0.0
 11
48.0880889999999965
 21
223.9723930000000109
 31
0.0
  0
LINE
  5
109
100
AcDbEntity
  8
Layer 1
 62
256
370
-1
 48
1.0
  6
BYLAYER
100
AcDbLine
 10
41.6575745115799734
 20
222.0747336180638172
 30
0.0
 11
41.9786537115799661
 21
221.5984908180638513
 31
0.0
  0
LINE
  5
10A
100
AcDbEntity
  8
Layer 1
 62
256
370
-1
 48
1.0
  6
BYLAYER
100
AcDbLine
 10
-272.1794770000000199
 20
224.369261999999992
 30
0.0
 11
-271.9119110000000319
 21
223.9723930000000109
 31
0.0
  0
LINE
  5
10B
100
AcDbEntity
  8
Layer 1
 62
256
370
-1
 48
1.0
  6
BYLAYER
100
AcDbLine
 10
-278.3424254884200195
 20
222.0747336180638172
 30
0.0
 11
-278.0213462884200339
 21
221.5984908180638513
 31
0.0
  0
LINE
  5
10C
100
AcDbEntity
  8
Layer 1
 62
256
370
-1
 48
1.0
  6
BYLAYER
100
AcDbLine
 10
48.0880889999999965
 20
223.9723930000000109
 30
0.0
 11
48.4848380000000034
 21
223.7047070000000133
 31
0.0
  0
LINE
  5
10D
100
AcDbEntity
  8
Layer 1
 62
256
370
-1
 48
1.0
  6
BYLAYER
100
AcDbLine
 10
41.9786537115799661
 20
221.5984908180638513
 30
0.0
 11
42.4547525115799758
 21
221.2772676180638314
 31
0.0
  0
LINE
  5
10E
100
AcDbEntity
  8
Layer 1
 62
256
370
-1
 48
1.0
  6
BYLAYER
100
AcDbLine
 10
-271.9119110000000319
 20
223.9723930000000109
 30
0.0
 11
-271.5151619999999753
 21
223.7047070000000133
 31
0.0
  0
LINE
  5
10F
100
AcDbEntity
  8
Layer 1
 62
256
370
-1
 48
1.0
  6
BYLAYER
100
AcDbLine
 10
-278.0213462884200339
 20
221.5984908180638513
 30
0.0
 11
-277.5452474884200456
 21
221.2772676180638314
 31
0.0
  0
LINE
  5
110
100
AcDbEntity
  8
Layer 1
 62
256
370
-1
 48
1.0
  6
BYLAYER
100
AcDbLine
 10
48.4848380000000034
 20
223.7047070000000133
 30
0.0
 11
48.9705200000000005
 21
223.6065199999999891
 31
0.0
  0
LINE
  5
111
100
AcDbEntity
  8
Layer 1
 62
256
370
-1
 48
1.0
  6
BYLAYER
100
AcDbLine
 10
42.4547525115799758
 20
221.2772676180638314
 30
0.0
 11
43.0375709115799694
 21
221.1594432180638137
 31
0.0
  0
LINE
  5
112
100
AcDbEntity
  8
Layer 1
 62
256
370
-1
 48
1.0
  6
BYLAYER
100
AcDbLine
 10
-271.5151619999999753
 20
223.7047070000000133
 30
0.0
 11
-271.0294799999999782
 21
223.6065199999999891
 31
0.0
  0
LINE
  5
113
100
AcDbEntity
  8
Layer 1
 62
256
370
-1
 48
1.0
  6
BYLAYER
100
AcDbLine
 10
-277.5452474884200456
 20
221.2772676180638314
 30
0.0
 11
-276.9624290884200377
 21
221.1594432180638137
 31
0.0
  0
LINE
  5
114
100
AcDbEntity
  8
Layer 1
 62
256
370
-1
 48
1.0
  6
BYLAYER
100
AcDbLine
 10
48.9705200000000005
 20
223.6065199999999891
 30
0.0
 11
49.4562560000000033
 21
223.7047070000000133
 31
0.0
  0
LINE
  5
115
100
AcDbEntity
  8
Layer 1
 62
256
370
-1
 48
1.0
  6
BYLAYER
100
AcDbLine
 10
43.0375709115799694
 20
221.1594432180638137
 30
0.0
 11
43.6204541115799742
 21
221.2772676180638314
 31
0.0
  0
LINE
  5
116
100
AcDbEntity
  8
Layer 1
 62
256
370
-1
 48
1.0
  6
BYLAYER
100
AcDbLine
 10
-271.0294799999999782
 20
223.6065199999999891
 30
0.0
 11
-270.5437440000000038
 21
223.7047070000000133
 31
0.0
  0
LINE
  5
117
100
AcDbEntity
  8
Layer 1
 62
256
370
-1
 48
1.0
  6
BYLAYER
100
AcDbLine
 10
-276.9624290884200377
 20
221.1594432180638137
 30
0.0
 11
-276.3795458884200116
 21
221.2772676180638314
 31
0.0
  0
LINE
  5
118
100
AcDbEntity
  8
Layer 1
 62
256
370
-1
 48
1.0
  6
BYLAYER
100
AcDbLine
 10
49.4562560000000033
 20
223.7047070000000133
 30
0.0
 11
49.8531260000000032
 21
223.9723930000000109
 31
0.0
  0
LINE
  5
119
100
AcDbEntity
  8
Layer 1
 62
256
370
-1
 48
1.0
  6
BYLAYER
100
AcDbLine
 10
43.6204541115799742
 20
221.2772676180638314
 30
0.0
 11
44.0966981115799754
 21
221.5984908180638513
 31
0.0
  0
LINE
  5
11A
100
AcDbEntity
  8
Layer 1
 62
256
370
-1
 48
1.0
  6
BYLAYER
100
AcDbLine
 10
-270.5437440000000038
 20
223.7047070000000133
 30
0.0
 11
-270.1468740000000253
 21
223.9723930000000109
 31
0.0
  0
LINE
  5
11B
100
AcDbEntity
  8
Layer 1
 62
256
370
-1
 48
1.0
  6
BYLAYER
100
AcDbLine
 10
-276.3795458884200116
 20
221.2772676180638314
 30
0.0
 11
-275.9033018884200033
 21
221.5984908180638513
 31
0.0
  0
LINE
  5
11C
100
AcDbEntity
  8
Layer 1
 62
256
370
-1
 48
1.0
  6
BYLAYER
100
AcDbLine
 10
49.8531260000000032
 20
223.9723930000000109
 30
0.0
 11
50.1208120000000008
 21
224.369261999999992
 31
0.0
  0
LINE
  5
11D
100
AcDbEntity
  8
Layer 1
 62
256
370
-1
 48
1.0
  6
BYLAYER
100
AcDbLine
 10
44.0966981115799754
 20
221.5984908180638513
 30
0.0
 11
44.417921311579974
 21
222.0747336180638172
 31
0.0
  0
LINE
  5
11E
100
AcDbEntity
  8
Layer 1
 62
256
370
-1
 48
1.0
  6
BYLAYER
100
AcDbLine
 10
-270.1468740000000253
 20
223.9723930000000109
 30
0.0
 11
-269.8791879999999992
 21
224.369261999999992
 31
0.0
  0
LINE
  5
11F
100
AcDbEntity
  8
Layer 1
 62
256
370
-1
 48
1.0
  6
BYLAYER
100
AcDbLine
 10
-275.9033018884200033
 20
221.5984908180638513
 30
0.0
 11
-275.5820786884200402
 21
222.0747336180638172
 31
0.0
  0
LINE
  5
120
100
AcDbEntity
  8
Layer 1
 62
256
370
-1
 48
1.0
  6
BYLAYER
100
AcDbLine
 10
50.1208120000000008
 20
224.369261999999992
 30
0.0
 11
50.2190000000000012
 21
224.8549999999999898
 31
0.0
  0
LINE
  5
121
100
AcDbEntity
  8
Layer 1
 62
256
370
-1
 48
1.0
  6
BYLAYER
100
AcDbLine
 10
44.417921311579974
 20
222.0747336180638172
 30
0.0
 11
44.5357469115799702
 21
222.6576192180638145
 31
0.0
  0
LINE
  5
122
100
AcDbEntity
  8
Layer 1
 62
256
370
-1
 48
1.0
  6
BYLAYER
100
AcDbLine
 10
-269.8791879999999992
 20
224.369261999999992
 30
0.0
 11
-269.7810000000000059
 21
224.8549999999999898
 31
0.0
  0
LINE
  5
123
100
AcDbEntity
  8
Layer 1
 62
256
370
-1
 48
1.0
  6
BYLAYER
100
AcDbLine
 10
-275.5820786884200402
 20
222.0747336180638172
 30
0.0
 11
-275.4642530884200369
 21
222.6576192180638145
 31
0.0
  0
LINE
  5
124
100
AcDbEntity
  8
Layer 1
 62
256
370
-1
 48
1.0
  6
BYLAYER
100
AcDbLine
 10
50.2190000000000012
 20
224.8549999999999898
 30
0.0
 11
50.2190000000000012
 21
224.8549999999999898
 31
0.0
  0
LINE
  5
125
100
AcDbEntity
  8
Layer 1
 62
256
370
-1
 48
1.0
  6
BYLAYER
100
AcDbLine
 10
44.5357469115799702
 20
222.6576192180638145
 30
0.0
 11
44.5357469115799702
 21
222.6576192180638145
 31
0.0
  0
LINE
  5
126
100
AcDbEntity
  8
Layer 1
 62
256
370
-1
 48
1.0
  6
BYLAYER
100
AcDbLine
 10
-269.7810000000000059
 20
224.8549999999999898
 30
0.0
 11
-269.7810000000000059
 21
224.8549999999999898
 31
0.0
  0
LINE
  5
127
100
AcDbEntity
  8
Layer 1
 62
256
370
-1
 48
1.0
  6
BYLAYER
100
AcDbLine
 10
-275.4642530884200369
 20
222.6576192180638145
 30
0.0
 11
-275.4642530884200369
 21
222.6576192180638145
 31
0.0
  0
LINE
  5
128
100
AcDbEntity
  8
Layer 1
 62
256
370
-1
 48
1.0
  6
BYLAYER
100
AcDbLine
 10
126.7279999999999944
 20
217.8460000000000036
 30
0.0
 11
126.6298110000000037
 21
218.3317380000000014
 31
0.0
  0
LINE
  5
129
100
AcDbEntity
  8
Layer 1
 62
256
370
-1
 48
1.0
  6
BYLAYER
100
AcDbLine
 10
136.3465469115799635
 20
214.2468192180638198
 30
0.0
 11
136.2287201115799746
 21
214.8297048180638171
 31
0.0
  0
LINE
  5
12A
100
AcDbEntity
  8
Layer 1
 62
256
370
-1
 48
1.0
  6
BYLAYER
100
AcDbLine
 10
-193.2719999999999914
 20
217.8460000000000036
 30
0.0
 11
-193.3701889999999821
 21
218.3317380000000014
 31
0.0
  0
LINE
  5
12B
100
AcDbEntity
  8
Layer 1
 62
256
370
-1
 48
1.0
  6
BYLAYER
100
AcDbLine
 10
-183.6534530884200365
 20
214.2468192180638198
 30
0.0
 11
-183.7712798884200254
 21
214.8297048180638171
 31
0.0
  0
LINE
  5
12C
100
AcDbEntity
  8
Layer 1
 62
256
370
-1
 48
1.0
  6
BYLAYER
100
AcDbLine
 10
126.6298110000000037
 20
218.3317380000000014
 30
0.0
 11
126.3621239999999943
 21
218.7286080000000084
 31
0.0
  0
LINE
  5
12D
100
AcDbEntity
  8
Layer 1
 62
256
370
-1
 48
1.0
  6
BYLAYER
100
AcDbLine
 10
136.2287201115799746
 20
214.8297048180638171
 30
0.0
 11
135.9074957115799691
 21
215.3059488180638255
 31
0.0
  0
LINE
  5
12E
100
AcDbEntity
  8
Layer 1
 62
256
370
-1
 48
1.0
  6
BYLAYER
100
AcDbLine
 10
-193.3701889999999821
 20
218.3317380000000014
 30
0.0
 11
-193.6378760000000057
 21
218.7286080000000084
 31
0.0
  0
LINE
  5
12F
100
AcDbEntity
  8
Layer 1
 62
256
370
-1
 48
1.0
  6
BYLAYER
100
AcDbLine
 10
-183.7712798884200254
 20
214.8297048180638171
 30
0.0
 11
-184.0925042884200309
 21
215.3059488180638255
 31
0.0
  0
LINE
  5
130
100
AcDbEntity
  8
Layer 1
 62
256
370
-1
 48
1.0
  6
BYLAYER
100
AcDbLine
 10
126.3621239999999943
 20
218.7286080000000084
 30
0.0
 11
125.9652540000000016
 21
218.9962930000000085
 31
0.0
  0
LINE
  5
131
100
AcDbEntity
  8
Layer 1
 62
256
370
-1
 48
1.0
  6
BYLAYER
100
AcDbLine
 10
135.9074957115799691
 20
215.3059488180638255
 30
0.0
 11
135.4312517115799608
 21
215.6271708180638313
 31
0.0
  0
LINE
  5
132
100
AcDbEntity
  8
Layer 1
 62
256
370
-1
 48
1.0
  6
BYLAYER
100
AcDbLine
 10
-193.6378760000000057
 20
218.7286080000000084
 30
0.0
 11
-194.0347459999999842
 21
218.9962930000000085
 31
0.0
  0
LINE
  5
133
100
AcDbEntity
  8
Layer 1
 62
256
370
-1
 48
1.0
  6
BYLAYER
100
AcDbLine
 10
-184.0925042884200309
 20
215.3059488180638255
 30
0.0
 11
-184.5687482884200392
 21
215.6271708180638313
 31
0.0
  0
LINE
  5
134
100
AcDbEntity
  8
Layer 1
 62
256
370
-1
 48
1.0
  6
BYLAYER
100
AcDbLine
 10
125.9652540000000016
 20
218.9962930000000085
 30
0.0
 11
125.4795199999999937
 21
219.0944800000000043
 31
0.0
  0
LINE
  5
135
100
AcDbEntity
  8
Layer 1
 62
256
370
-1
 48
1.0
  6
BYLAYER
100
AcDbLine
 10
135.4312517115799608
 20
215.6271708180638313
 30
0.0
 11
134.8483709115799627
 21
215.7449952180638206
 31
0.0
  0
LINE
  5
136
100
AcDbEntity
  8
Layer 1
 62
256
370
-1
 48
1.0
  6
BYLAYER
100
AcDbLine
 10
-194.0347459999999842
 20
218.9962930000000085
 30
0.0
 11
-194.5204800000000205
 21
219.0944800000000043
 31
0.0
  0
LINE
  5
137
100
AcDbEntity
  8
Layer 1
 62
256
370
-1
 48
1.0
  6
BYLAYER
100
AcDbLine
 10
-184.5687482884200392
 20
215.6271708180638313
 30
0.0
 11
-185.1516290884200373
 21
215.7449952180638206
 31
0.0
  0
LINE
  5
138
100
AcDbEntity
  8
Layer 1
 62
256
370
-1
 48
1.0
  6
BYLAYER
100
AcDbLine
 10
125.4795199999999937
 20
219.0944800000000043
 30
0.0
 11
124.9938360000000017
 21
218.9962930000000085
 31
0.0
  0
LINE
  5
139
100
AcDbEntity
  8
Layer 1
 62
256
370
-1
 48
1.0
  6
BYLAYER
100
AcDbLine
 10
134.8483709115799627
 20
215.7449952180638206
 30
0.0
 11
134.2655501115799552
 21
215.6271708180638313
 31
0.0
  0
LINE
  5
13A
100
AcDbEntity
  8
Layer 1
 62
256
370
-1
 48
1.0
  6
BYLAYER
100
AcDbLine
 10
-194.5204800000000205
 20
219.0944800000000043
 30
0.0
 11
-195.0061640000000125
 21
218.9962930000000085
 31
0.0
  0
LINE
  5
13B
100
AcDbEntity
  8
Layer 1
 62
256
370
-1
 48
1.0
  6
BYLAYER
100
AcDbLine
 10
-185.1516290884200373
 20
215.7449952180638206
 30
0.0
 11
-185.7344498884200448
 21
215.6271708180638313
 31
0.0
  0
LINE
  5
13C
100
AcDbEntity
  8
Layer 1
 62
256
370
-1
 48
1.0
  6
BYLAYER
100
AcDbLine
 10
124.9938360000000017
 20
218.9962930000000085
 30
0.0
 11
124.5970870000000019
 21
218.7286080000000084
 31
0.0
  0
LINE
  5
13D
100
AcDbEntity
  8
Layer 1
 62
256
370
-1
 48
1.0
  6
BYLAYER
100
AcDbLine
 10
134.2655501115799552
 20
215.6271708180638313
 30
0.0
 11
133.7894513115799668
 21
215.3059488180638255
 31
0.0
  0
LINE
  5
13E
100
AcDbEntity
  8
Layer 1
 62
256
370
-1
 48
1.0
  6
BYLAYER
100
AcDbLine
 10
-195.0061640000000125
 20
218.9962930000000085
 30
0.0
 11
-195.4029130000000123
 21
218.7286080000000084
 31
0.0
  0
LINE
  5
13F
100
AcDbEntity
  8
Layer 1
 62
256
370
-1
 48
1.0
  6
BYLAYER
100
AcDbLine
 10
-185.7344498884200448
 20
215.6271708180638313
 30
0.0
 11
-186.2105486884200332
 21
215.3059488180638255
 31
0.0
  0
LINE
  5
140
100
AcDbEntity
  8
Layer 1
 62
256
370
-1
 48
1.0
  6
BYLAYER
100
AcDbLine
 10
124.5970870000000019
 20
218.7286080000000084
 30
0.0
 11
124.3295219999999972
 21
218.3317380000000014
 31
0.0
  0
LINE
  5
141
100
AcDbEntity
  8
Layer 1
 62
256
370
-1
 48
1.0
  6
BYLAYER
100
AcDbLine
 10
133.7894513115799668
 20
215.3059488180638255
 30
0.0
 11
133.4683733115799669
 21
214.8297048180638171
 31
0.0
  0
LINE
  5
142
100
AcDbEntity
  8
Layer 1
 62
256
370
-1
 48
1.0
  6
BYLAYER
100
AcDbLine
 10
-195.4029130000000123
 20
218.7286080000000084
 30
0.0
 11
-195.6704780000000028
 21
218.3317380000000014
 31
0.0
  0
LINE
  5
143
100
AcDbEntity
  8
Layer 1
 62
256
370
-1
 48
1.0
  6
BYLAYER
100
AcDbLine
 10
-186.2105486884200332
 20
215.3059488180638255
 30
0.0
 11
-186.5316266884200331
 21
214.8297048180638171
 31
0.0
  0
LINE
  5
144
100
AcDbEntity
  8
Layer 1
 62
256
370
-1
 48
1.0
  6
BYLAYER
100
AcDbLine
 10
124.3295219999999972
 20
218.3317380000000014
 30
0.0
 11
124.2313900000000046
 21
217.8460000000000036
 31
0.0
  0
LINE
  5
145
100
AcDbEntity
  8
Layer 1
 62
256
370
-1
 48
1.0
  6
BYLAYER
100
AcDbLine
 10
133.4683733115799669
 20
214.8297048180638171
 30
0.0
 11
133.3506149115799815
 21
214.2468192180638198
 31
0.0
  0
LINE
  5
146
100
AcDbEntity
  8
Layer 1
 62
256
370
-1
 48
1.0
  6
BYLAYER
100
AcDbLine
 10
-195.6704780000000028
 20
218.3317380000000014
 30
0.0
 11
-195.7686099999999954
 21
217.8460000000000036
 31
0.0
  0
LINE
  5
147
100
AcDbEntity
  8
Layer 1
 62
256
370
-1
 48
1.0
  6
BYLAYER
100
AcDbLine
 10
-186.5316266884200331
 20
214.8297048180638171
 30
0.0
 11
-186.6493850884200185
 21
214.2468192180638198
 31
0.0
  0
LINE
  5
148
100
AcDbEntity
  8
Layer 1
 62
256
370
-1
 48
1.0
  6
BYLAYER
100
AcDbLine
 10
124.2313900000000046
 20
217.8460000000000036
 30
0.0
 11
124.3295219999999972
 21
217.3602659999999958
 31
0.0
  0
LINE
  5
149
100
AcDbEntity
  8
Layer 1
 62
256
370
-1
 48
1.0
  6
BYLAYER
100
AcDbLine
 10
133.3506149115799815
 20
214.2468192180638198
 30
0.0
 11
133.4683733115799669
 21
213.6639384180638217
 31
0.0
  0
LINE
  5
14A
100
AcDbEntity
  8
Layer 1
 62
256
370
-1
 48
1.0
  6
BYLAYER
100
AcDbLine
 10
-195.7686099999999954
 20
217.8460000000000036
 30
0.0
 11
-195.6704780000000028
 21
217.3602659999999958
 31
0.0
  0
LINE
  5
14B
100
AcDbEntity
  8
Layer 1
 62
256
370
-1
 48
1.0
  6
BYLAYER
100
AcDbLine
 10
-186.6493850884200185
 20
214.2468192180638198
 30
0.0
 11
-186.5316266884200331
 21
213.6639384180638217
 31
0.0
  0
LINE
  5
14C
100
AcDbEntity
  8
Layer 1
 62
256
370
-1
 48
1.0
  6
BYLAYER
100
AcDbLine
 10
124.3295219999999972
 20
217.3602659999999958
 30
0.0
 11
124.5970870000000019
 21
216.9633959999999888
 31
0.0
  0
LINE
  5
14D
100
AcDbEntity
  8
Layer 1
 62
256
370
-1
 48
1.0
  6
BYLAYER
100
AcDbLine
 10
133.4683733115799669
 20
213.6639384180638217
 30
0.0
 11
133.7894513115799668
 21
213.1876944180638134
 31
0.0
  0
LINE
  5
14E
100
AcDbEntity
  8
Layer 1
 62
256
370
-1
 48
1.0
  6
BYLAYER
100
AcDbLine
 10
-195.6704780000000028
 20
217.3602659999999958
 30
0.0
 11
-195.4029130000000123
 21
216.9633959999999888
 31
0.0
  0
LINE
  5
14F
100
AcDbEntity
  8
Layer 1
 62
256
370
-1
 48
1.0
  6
BYLAYER
100
AcDbLine
 10
-186.5316266884200331
 20
213.6639384180638217
 30
0.0
 11
-186.2105486884200332
 21
213.1876944180638134
 31
0.0
  0
LINE
  5
150
100
AcDbEntity
  8
Layer 1
 62
256
370
-1
 48
1.0
  6
BYLAYER
100
AcDbLine
 10
124.5970870000000019
 20
216.9633959999999888
 30
0.0
 11
124.9938360000000017
 21
216.6957089999999937
 31
0.0
  0
LINE
  5
151
100
AcDbEntity
  8
Layer 1
 62
256
370
-1
 48
1.0
  6
BYLAYER
100
AcDbLine
 10
133.7894513115799668
 20
213.1876944180638134
 30
0.0
 11
134.2655501115799552
 21
212.8664700180638079
 31
0.0
  0
LINE
  5
152
100
AcDbEntity
  8
Layer 1
 62
256
370
-1
 48
1.0
  6
BYLAYER
100
AcDbLine
 10
-195.4029130000000123
 20
216.9633959999999888
 30
0.0
 11
-195.0061640000000125
 21
216.6957089999999937
 31
0.0
  0
LINE
  5
153
100
AcDbEntity
  8
Layer 1
 62
256
370
-1
 48
1.0
  6
BYLAYER
100
AcDbLine
 10
-186.2105486884200332
 20
213.1876944180638134
 30
0.0
 11
-185.7344498884200448
 21
212.8664700180638079
 31
0.0
  0
LINE
  5
154
100
AcDbEntity
  8
Layer 1
 62
256
370
-1
 48
1.0
  6
BYLAYER
100
AcDbLine
 10
124.9938360000000017
 20
216.6957089999999937
 30
0.0
 11
125.4795199999999937
 21
216.5975200000000029
 31
0.0
  0
LINE
  5
155
100
AcDbEntity
  8
Layer 1
 62
256
370
-1
 48
1.0
  6
BYLAYER
100
AcDbLine
 10
134.2655501115799552
 20
212.8664700180638079
 30
0.0
 11
134.8483709115799627
 21
212.7486432180638189
 31
0.0
  0
LINE
  5
156
100
AcDbEntity
  8
Layer 1
 62
256
370
-1
 48
1.0
  6
BYLAYER
100
AcDbLine
 10
-195.0061640000000125
 20
216.6957089999999937
 30
0.0
 11
-194.5204800000000205
 21
216.5975200000000029
 31
0.0
  0
LINE
  5
157
100
AcDbEntity
  8
Layer 1
 62
256
370
-1
 48
1.0
  6
BYLAYER
100
AcDbLine
 10
-185.7344498884200448
 20
212.8664700180638079
 30
0.0
 11
-185.1516290884200373
 21
212.7486432180638189
 31
0.0
  0
LINE
  5
158
100
AcDbEntity
  8
Layer 1
 62
256
370
-1
 48
1.0
  6
BYLAYER
100
AcDbLine
 10
125.4795199999999937
 20
216.5975200000000029
 30
0.0
 11
125.9652540000000016
 21
216.6957089999999937
 31
0.0
  0
LINE
  5
159
100
AcDbEntity
  8
Layer 1
 62
256
370
-1
 48
1.0
  6
BYLAYER
100
AcDbLine
 10
134.8483709115799627
 20
212.7486432180638189
 30
0.0
 11
135.4312517115799608
 21
212.8664700180638079
 31
0.0
  0
LINE
  5
15A
100
AcDbEntity
  8
Layer 1
 62
256
370
-1
 48
1.0
  6
BYLAYER
100
AcDbLine
 10
-194.5204800000000205
 20
216.5975200000000029
 30
0.0
 11
-194.0347459999999842
 21
216.6957089999999937
 31
0.0
  0
LINE
  5
15B
100
AcDbEntity
  8
Layer 1
 62
256
370
-1
 48
1.0
  6
BYLAYER
100
AcDbLine
 10
-185.1516290884200373
 20
212.7486432180638189
 30
0.0
 11
-184.5687482884200392
 21
212.8664700180638079
 31
0.0
  0
LINE
  5
15C
100
AcDbEntity
  8
Layer 1
 62
256
370
-1
 48
1.0
  6
BYLAYER
100
AcDbLine
 10
125.9652540000000016
 20
216.6957089999999937
 30
0.0
 11
126.3621239999999943
 21
216.9633959999999888
 31
0.0
  0
LINE
  5
15D
100
AcDbEntity
  8
Layer 1
 62
256
370
-1
 48
1.0
  6
BYLAYER
100
AcDbLine
 10
135.4312517115799608
 20
212.8664700180638079
 30
0.0
 11
135.9074957115799691
 21
213.1876944180638134
 31
0.0
  0
LINE
  5
15E
100
AcDbEntity
  8
Layer 1
 62
256
370
-1
 48
1.0
  6
BYLAYER
100
AcDbLine
 10
-194.0347459999999842
 20
216.6957089999999937
 30
0.0
 11
-193.6378760000000057
 21
216.9633959999999888
 31
0.0
  0
LINE
  5
15F
100
AcDbEntity
  8
Layer 1
 62
256
370
-1
 48
1.0
  6
BYLAYER
100
AcDbLine
 10
-184.5687482884200392
 20
212.8664700180638079
 30
0.0
 11
-184.0925042884200309
 21
213.1876944180638134
 31
0.0
  0
LINE
  5
160
100
AcDbEntity
  8
Layer 1
 62
256
370
-1
 48
1.0
  6
BYLAYER
100
AcDbLine
 10
126.3621239999999943
 20
216.9633959999999888
 30
0.0
 11
126.6298110000000037
 21
217.3602659999999958
 31
0.0
  0
LINE
  5
161
100
AcDbEntity
  8
Layer 1
 62
256
370
-1
 48
1.0
  6
BYLAYER
100
AcDbLine
 10
135.9074957115799691
 20
213.1876944180638134
 30
0.0
 11
136.2287201115799746
 21
213.6639384180638217
 31
0.0
  0
LINE
  5
162
100
AcDbEntity
  8
Layer 1
 62
256
370
-1
 48
1.0
  6
BYLAYER
100
AcDbLine
 10
-193.6378760000000057
 20
216.9633959999999888
 30
0.0
 11
-193.3701889999999821
 21
217.3602659999999958
 31
0.0
  0
LINE
  5
163
100
AcDbEntity
  8
Layer 1
 62
256
370
-1
 48
1.0
  6
BYLAYER
100
AcDbLine
 10
-184.0925042884200309
 20
213.1876944180638134
 30
0.0
 11
-183.7712798884200254
 21
213.6639384180638217
 31
0.0
  0
LINE
  5
164
100
AcDbEntity
  8
Layer 1
 62
256
370
-1
 48
1.0
  6
BYLAYER
100
AcDbLine
 10
126.6298110000000037
 20
217.3602659999999958
 30
0.0
 11
126.7279999999999944
 21
217.8460000000000036
 31
0.0
  0
LINE
  5
165
100
AcDbEntity
  8
Layer 1
 62
256
370
-1
 48
1.0
  6
BYLAYER
100
AcDbLine
 10
136.2287201115799746
 20
213.6639384180638217
 30
0.0
 11
136.3465469115799635
 21
214.2468192180638198
 31
0.0
  0
LINE
  5
166
100
AcDbEntity
  8
Layer 1
 62
256
370
-1
 48
1.0
  6
BYLAYER
100
AcDbLine
 10
-193.3701889999999821
 20
217.3602659999999958
 30
0.0
 11
-193.2719999999999914
 21
217.8460000000000036
 31
0.0
  0
LINE
  5
167
100
AcDbEntity
  8
Layer 1
 62
256
370
-1
 48
1.0
  6
BYLAYER
100
AcDbLine
 10
-183.7712798884200254
 20
213.6639384180638217
 30
0.0
 11
-183.6534530884200365
 21
214.2468192180638198
 31
0.0
  0
LINE
  5
168
100
AcDbEntity
  8
Layer 1
 62
256
370
-1
 48
1.0
  6
BYLAYER
100
AcDbLine
 10
126.7279999999999944
 20
217.8460000000000036
 30
0.0
 11
126.7279999999999944
 21
217.8460000000000036
 31
0.0
  0
LINE
  5
169
100
AcDbEntity
  8
Layer 1
 62
256
370
-1
 48
1.0
  6
BYLAYER
100
AcDbLine
 10
136.3465469115799635
 20
214.2468192180638198
 30
0.0
 11
136.3465469115799635
 21
214.2468192180638198
 31
0.0
  0
LINE
  5
16A
100
AcDbEntity
  8
Layer 1
 62
256
370
-1
 48
1.0
  6
BYLAYER
100
AcDbLine
 10
-193.2719999999999914
 20
217.8460000000000036
 30
0.0
 11
-193.2719999999999914
 21
217.8460000000000036
 31
0.0
  0
LINE
  5
16B
100
AcDbEntity
  8
Layer 1
 62
256
370
-1
 48
1.0
  6
BYLAYER
100
AcDbLine
 10
-183.6534530884200365
 20
214.2468192180638198
 30
0.0
 11
-183.6534530884200365
 21
214.2468192180638198
 31
0.0
  0
LINE
  5
16C
100
AcDbEntity
  8
Layer 1
 62
256
370
-1
 48
1.0
  6
BYLAYER
100
AcDbLine
 10
126.7169999999999987
 20
256.1569999999999823
 30
0.0
 11
126.6188109999999938
 21
256.6427340000000186
 31
0.0
  0
LINE
  5
16D
100
AcDbEntity
  8
Layer 1
 62
256
370
-1
 48
1.0
  6
BYLAYER
100
AcDbLine
 10
136.3333469115799517
 20
260.2200192180637828
 30
0.0
 11
136.2155201115799628
 21
260.8029000180638377
 31
0.0
  0
LINE
  5
16E
100
AcDbEntity
  8
Layer 1
 62
256
370
-1
 48
1.0
  6
BYLAYER
100
AcDbLine
 10
-193.2830000000000155
 20
256.1569999999999823
 30
0.0
 11
-193.3811890000000062
 21
256.6427340000000186
 31
0.0
  0
LINE
  5
16F
100
AcDbEntity
  8
Layer 1
 62
256
370
-1
 48
1.0
  6
BYLAYER
100
AcDbLine
 10
-183.6666530884200483
 20
260.2200192180637828
 30
0.0
 11
-183.7844798884200372
 21
260.8029000180638377
 31
0.0
  0
LINE
  5
170
100
AcDbEntity
  8
Layer 1
 62
256
370
-1
 48
1.0
  6
BYLAYER
100
AcDbLine
 10
126.6188109999999938
 20
256.6427340000000186
 30
0.0
 11
126.3511239999999987
 21
257.0396039999999971
 31
0.0
  0
LINE
  5
171
100
AcDbEntity
  8
Layer 1
 62
256
370
-1
 48
1.0
  6
BYLAYER
100
AcDbLine
 10
136.2155201115799628
 20
260.8029000180638377
 30
0.0
 11
135.8942957115799572
 21
261.279144018063846
 31
0.0
  0
LINE
  5
172
100
AcDbEntity
  8
Layer 1
 62
256
370
-1
 48
1.0
  6
BYLAYER
100
AcDbLine
 10
-193.3811890000000062
 20
256.6427340000000186
 30
0.0
 11
-193.6488760000000013
 21
257.0396039999999971
 31
0.0
  0
LINE
  5
173
100
AcDbEntity
  8
Layer 1
 62
256
370
-1
 48
1.0
  6
BYLAYER
100
AcDbLine
 10
-183.7844798884200372
 20
260.8029000180638377
 30
0.0
 11
-184.1057042884200428
 21
261.279144018063846
 31
0.0
  0
LINE
  5
174
100
AcDbEntity
  8
Layer 1
 62
256
370
-1
 48
1.0
  6
BYLAYER
100
AcDbLine
 10
126.3511239999999987
 20
257.0396039999999971
 30
0.0
 11
125.9542540000000059
 21
257.3072910000000206
 31
0.0
  0
LINE
  5
175
100
AcDbEntity
  8
Layer 1
 62
256
370
-1
 48
1.0
  6
BYLAYER
100
AcDbLine
 10
135.8942957115799572
 20
261.279144018063846
 30
0.0
 11
135.4180517115799773
 21
261.6003684180638515
 31
0.0
  0
LINE
  5
176
100
AcDbEntity
  8
Layer 1
 62
256
370
-1
 48
1.0
  6
BYLAYER
100
AcDbLine
 10
-193.6488760000000013
 20
257.0396039999999971
 30
0.0
 11
-194.0457460000000083
 21
257.3072910000000206
 31
0.0
  0
LINE
  5
177
100
AcDbEntity
  8
Layer 1
 62
256
370
-1
 48
1.0
  6
BYLAYER
100
AcDbLine
 10
-184.1057042884200428
 20
261.279144018063846
 30
0.0
 11
-184.5819482884200227
 21
261.6003684180638515
 31
0.0
  0
LINE
  5
178
100
AcDbEntity
  8
Layer 1
 62
256
370
-1
 48
1.0
  6
BYLAYER
100
AcDbLine
 10
125.9542540000000059
 20
257.3072910000000206
 30
0.0
 11
125.468519999999998
 21
257.4054800000000114
 31
0.0
  0
LINE
  5
179
100
AcDbEntity
  8
Layer 1
 62
256
370
-1
 48
1.0
  6
BYLAYER
100
AcDbLine
 10
135.4180517115799773
 20
261.6003684180638515
 30
0.0
 11
134.8351709115799508
 21
261.7181952180638405
 31
0.0
  0
LINE
  5
17A
100
AcDbEntity
  8
Layer 1
 62
256
370
-1
 48
1.0
  6
BYLAYER
100
AcDbLine
 10
-194.0457460000000083
 20
257.3072910000000206
 30
0.0
 11
-194.5314799999999877
 21
257.4054800000000114
 31
0.0
  0
LINE
  5
17B
100
AcDbEntity
  8
Layer 1
 62
256
370
-1
 48
1.0
  6
BYLAYER
100
AcDbLine
 10
-184.5819482884200227
 20
261.6003684180638515
 30
0.0
 11
-185.1648290884200492
 21
261.7181952180638405
 31
0.0
  0
LINE
  5
17C
100
AcDbEntity
  8
Layer 1
 62
256
370
-1
 48
1.0
  6
BYLAYER
100
AcDbLine
 10
125.468519999999998
 20
257.4054800000000114
 30
0.0
 11
124.982836000000006
 21
257.3072910000000206
 31
0.0
  0
LINE
  5
17D
100
AcDbEntity
  8
Layer 1
 62
256
370
-1
 48
1.0
  6
BYLAYER
100
AcDbLine
 10
134.8351709115799508
 20
261.7181952180638405
 30
0.0
 11
134.2523501115799718
 21
261.6003684180638515
 31
0.0
  0
LINE
  5
17E
100
AcDbEntity
  8
Layer 1
 62
256
370
-1
 48
1.0
  6
BYLAYER
100
AcDbLine
 10
-194.5314799999999877
 20
257.4054800000000114
 30
0.0
 11
-195.0171639999999798
 21
257.3072910000000206
 31
0.0
  0
LINE
  5
17F
100
AcDbEntity
  8
Layer 1
 62
256
370
-1
 48
1.0
  6
BYLAYER
100
AcDbLine
 10
-185.1648290884200492
 20
261.7181952180638405
 30
0.0
 11
-185.7476498884200282
 21
261.6003684180638515
 31
0.0
  0
LINE
  5
180
100
AcDbEntity
  8
Layer 1
 62
256
370
-1
 48
1.0
  6
BYLAYER
100
AcDbLine
 10
124.982836000000006
 20
257.3072910000000206
 30
0.0
 11
124.5860870000000062
 21
257.0396039999999971
 31
0.0
  0
LINE
  5
181
100
AcDbEntity
  8
Layer 1
 62
256
370
-1
 48
1.0
  6
BYLAYER
100
AcDbLine
 10
134.2523501115799718
 20
261.6003684180638515
 30
0.0
 11
133.7762513115799834
 21
261.279144018063846
 31
0.0
  0
LINE
  5
182
100
AcDbEntity
  8
Layer 1
 62
256
370
-1
 48
1.0
  6
BYLAYER
100
AcDbLine
 10
-195.0171639999999798
 20
257.3072910000000206
 30
0.0
 11
-195.4139129999999795
 21
257.0396039999999971
 31
0.0
  0
LINE
  5
183
100
AcDbEntity
  8
Layer 1
 62
256
370
-1
 48
1.0
  6
BYLAYER
100
AcDbLine
 10
-185.7476498884200282
 20
261.6003684180638515
 30
0.0
 11
-186.2237486884200166
 21
261.279144018063846
 31
0.0
  0
LINE
  5
184
100
AcDbEntity
  8
Layer 1
 62
256
370
-1
 48
1.0
  6
BYLAYER
100
AcDbLine
 10
124.5860870000000062
 20
257.0396039999999971
 30
0.0
 11
124.3185220000000015
 21
256.6427340000000186
 31
0.0
  0
LINE
  5
185
100
AcDbEntity
  8
Layer 1
 62
256
370
-1
 48
1.0
  6
BYLAYER
100
AcDbLine
 10
133.7762513115799834
 20
261.279144018063846
 30
0.0
 11
133.4551733115799834
 21
260.8029000180638377
 31
0.0
  0
LINE
  5
186
100
AcDbEntity
  8
Layer 1
 62
256
370
-1
 48
1.0
  6
BYLAYER
100
AcDbLine
 10
-195.4139129999999795
 20
257.0396039999999971
 30
0.0
 11
-195.6814779999999985
 21
256.6427340000000186
 31
0.0
  0
LINE
  5
187
100
AcDbEntity
  8
Layer 1
 62
256
370
-1
 48
1.0
  6
BYLAYER
100
AcDbLine
 10
-186.2237486884200166
 20
261.279144018063846
 30
0.0
 11
-186.5448266884200166
 21
260.8029000180638377
 31
0.0
  0
LINE
  5
188
100
AcDbEntity
  8
Layer 1
 62
256
370
-1
 48
1.0
  6
BYLAYER
100
AcDbLine
 10
124.3185220000000015
 20
256.6427340000000186
 30
0.0
 11
124.2203899999999948
 21
256.1569999999999823
 31
0.0
  0
LINE
  5
189
100
AcDbEntity
  8
Layer 1
 62
256
370
-1
 48
1.0
  6
BYLAYER
100
AcDbLine
 10
133.4551733115799834
 20
260.8029000180638377
 30
0.0
 11
133.3374149115799696
 21
260.2200192180637828
 31
0.0
  0
LINE
  5
18A
100
AcDbEntity
  8
Layer 1
 62
256
370
-1
 48
1.0
  6
BYLAYER
100
AcDbLine
 10
-195.6814779999999985
 20
256.6427340000000186
 30
0.0
 11
-195.779609999999991
 21
256.1569999999999823
 31
0.0
  0
LINE
  5
18B
100
AcDbEntity
  8
Layer 1
 62
256
370
-1
 48
1.0
  6
BYLAYER
100
AcDbLine
 10
-186.5448266884200166
 20
260.8029000180638377
 30
0.0
 11
-186.6625850884200304
 21
260.2200192180637828
 31
0.0
  0
LINE
  5
18C
100
AcDbEntity
  8
Layer 1
 62
256
370
-1
 48
1.0
  6
BYLAYER
100
AcDbLine
 10
124.2203899999999948
 20
256.1569999999999823
 30
0.0
 11
124.3185220000000015
 21
255.6712620000000129
 31
0.0
  0
LINE
  5
18D
100
AcDbEntity
  8
Layer 1
 62
256
370
-1
 48
1.0
  6
BYLAYER
100
AcDbLine
 10
133.3374149115799696
 20
260.2200192180637828
 30
0.0
 11
133.4551733115799834
 21
259.6371336180638423
 31
0.0
  0
LINE
  5
18E
100
AcDbEntity
  8
Layer 1
 62
256
370
-1
 48
1.0
  6
BYLAYER
100
AcDbLine
 10
-195.779609999999991
 20
256.1569999999999823
 30
0.0
 11
-195.6814779999999985
 21
255.6712620000000129
 31
0.0
  0
LINE
  5
18F
100
AcDbEntity
  8
Layer 1
 62
256
370
-1
 48
1.0
  6
BYLAYER
100
AcDbLine
 10
-186.6625850884200304
 20
260.2200192180637828
 30
0.0
 11
-186.5448266884200166
 21
259.6371336180638423
 31
0.0
  0
LINE
  5
190
100
AcDbEntity
  8
Layer 1
 62
256
370
-1
 48
1.0
  6
BYLAYER
100
AcDbLine
 10
124.3185220000000015
 20
255.6712620000000129
 30
0.0
 11
124.5860870000000062
 21
255.274392000000006
 31
0.0
  0
LINE
  5
191
100
AcDbEntity
  8
Layer 1
 62
256
370
-1
 48
1.0
  6
BYLAYER
100
AcDbLine
 10
133.4551733115799834
 20
259.6371336180638423
 30
0.0
 11
133.7762513115799834
 21
259.160889618063834
 31
0.0
  0
LINE
  5
192
100
AcDbEntity
  8
Layer 1
 62
256
370
-1
 48
1.0
  6
BYLAYER
100
AcDbLine
 10
-195.6814779999999985
 20
255.6712620000000129
 30
0.0
 11
-195.4139129999999795
 21
255.274392000000006
 31
0.0
  0
LINE
  5
193
100
AcDbEntity
  8
Layer 1
 62
256
370
-1
 48
1.0
  6
BYLAYER
100
AcDbLine
 10
-186.5448266884200166
 20
259.6371336180638423
 30
0.0
 11
-186.2237486884200166
 21
259.160889618063834
 31
0.0
  0
LINE
  5
194
100
AcDbEntity
  8
Layer 1
 62
256
370
-1
 48
1.0
  6
BYLAYER
100
AcDbLine
 10
124.5860870000000062
 20
255.274392000000006
 30
0.0
 11
124.982836000000006
 21
255.0067070000000058
 31
0.0
  0
LINE
  5
195
100
AcDbEntity
  8
Layer 1
 62
256
370
-1
 48
1.0
  6
BYLAYER
100
AcDbLine
 10
133.7762513115799834
 20
259.160889618063834
 30
0.0
 11
134.2523501115799718
 21
258.8396676180638565
 31
0.0
  0
LINE
  5
196
100
AcDbEntity
  8
Layer 1
 62
256
370
-1
 48
1.0
  6
BYLAYER
100
AcDbLine
 10
-195.4139129999999795
 20
255.274392000000006
 30
0.0
 11
-195.0171639999999798
 21
255.0067070000000058
 31
0.0
  0
LINE
  5
197
100
AcDbEntity
  8
Layer 1
 62
256
370
-1
 48
1.0
  6
BYLAYER
100
AcDbLine
 10
-186.2237486884200166
 20
259.160889618063834
 30
0.0
 11
-185.7476498884200282
 21
258.8396676180638565
 31
0.0
  0
LINE
  5
198
100
AcDbEntity
  8
Layer 1
 62
256
370
-1
 48
1.0
  6
BYLAYER
100
AcDbLine
 10
124.982836000000006
 20
255.0067070000000058
 30
0.0
 11
125.468519999999998
 21
254.90852000000001
 31
0.0
  0
LINE
  5
199
100
AcDbEntity
  8
Layer 1
 62
256
370
-1
 48
1.0
  6
BYLAYER
100
AcDbLine
 10
134.2523501115799718
 20
258.8396676180638565
 30
0.0
 11
134.8351709115799508
 21
258.7218432180638388
 31
0.0
  0
LINE
  5
19A
100
AcDbEntity
  8
Layer 1
 62
256
370
-1
 48
1.0
  6
BYLAYER
100
AcDbLine
 10
-195.0171639999999798
 20
255.0067070000000058
 30
0.0
 11
-194.5314799999999877
 21
254.90852000000001
 31
0.0
  0
LINE
  5
19B
100
AcDbEntity
  8
Layer 1
 62
256
370
-1
 48
1.0
  6
BYLAYER
100
AcDbLine
 10
-185.7476498884200282
 20
258.8396676180638565
 30
0.0
 11
-185.1648290884200492
 21
258.7218432180638388
 31
0.0
  0
LINE
  5
19C
100
AcDbEntity
  8
Layer 1
 62
256
370
-1
 48
1.0
  6
BYLAYER
100
AcDbLine
 10
125.468519999999998
 20
254.90852000000001
 30
0.0
 11
125.9542540000000059
 21
255.0067070000000058
 31
0.0
  0
LINE
  5
19D
100
AcDbEntity
  8
Layer 1
 62
256
370
-1
 48
1.0
  6
BYLAYER
100
AcDbLine
 10
134.8351709115799508
 20
258.7218432180638388
 30
0.0
 11
135.4180517115799773
 21
258.8396676180638565
 31
0.0
  0
LINE
  5
19E
100
AcDbEntity
  8
Layer 1
 62
256
370
-1
 48
1.0
  6
BYLAYER
100
AcDbLine
 10
-194.5314799999999877
 20
254.90852000000001
 30
0.0
 11
-194.0457460000000083
 21
255.0067070000000058
 31
0.0
  0
LINE
  5
19F
100
AcDbEntity
  8
Layer 1
 62
256
370
-1
 48
1.0
  6
BYLAYER
100
AcDbLine
 10
-185.1648290884200492
 20
258.7218432180638388
 30
0.0
 11
-184.5819482884200227
 21
258.8396676180638565
 31
0.0
  0
LINE
  5
1A0
100
AcDbEntity
  8
Layer 1
 62
256
370
-1
 48
1.0
  6
BYLAYER
100
AcDbLine
 10
125.9542540000000059
 20
255.0067070000000058
 30
0.0
 11
126.3511239999999987
 21
255.274392000000006
 31
0.0
  0
LINE
  5
1A1
100
AcDbEntity
  8
Layer 1
 62
256
370
-1
 48
1.0
  6
BYLAYER
100
AcDbLine
 10
135.4180517115799773
 20
258.8396676180638565
 30
0.0
 11
135.8942957115799572
 21
259.160889618063834
 31
0.0
  0
LINE
  5
1A2
100
AcDbEntity
  8
Layer 1
 62
256
370
-1
 48
1.0
  6
BYLAYER
100
AcDbLine
 10
-194.0457460000000083
 20
255.0067070000000058
 30
0.0
 11
-193.6488760000000013
 21
255.274392000000006
 31
0.0
  0
LINE
  5
1A3
100
AcDbEntity
  8
Layer 1
 62
256
370
-1
 48
1.0
  6
BYLAYER
100
AcDbLine
 10
-184.5819482884200227
 20
258.8396676180638565
 30
0.0
 11
-184.1057042884200428
 21
259.160889618063834
 31
0.0
  0
LINE
  5
1A4
100
AcDbEntity
  8
Layer 1
 62
256
370
-1
 48
1.0
  6
BYLAYER
100
AcDbLine
 10
126.3511239999999987
 20
255.274392000000006
 30
0.0
 11
126.6188109999999938
 21
255.6712620000000129
 31
0.0
  0
LINE
  5
1A5
100
AcDbEntity
  8
Layer 1
 62
256
370
-1
 48
1.0
  6
BYLAYER
100
AcDbLine
 10
135.8942957115799572
 20
259.160889618063834
 30
0.0
 11
136.2155201115799628
 21
259.6371336180638423
 31
0.0
  0
LINE
  5
1A6
100
AcDbEntity
  8
Layer 1
 62
256
370
-1
 48
1.0
  6
BYLAYER
100
AcDbLine
 10
-193.6488760000000013
 20
255.274392000000006
 30
0.0
 11
-193.3811890000000062
 21
255.6712620000000129
 31
0.0
  0
LINE
  5
1A7
100
AcDbEntity
  8
Layer 1
 62
256
370
-1
 48
1.0
  6
BYLAYER
100
AcDbLine
 10
-184.1057042884200428
 20
259.160889618063834
 30
0.0
 11
-183.7844798884200372
 21
259.6371336180638423
 31
0.0
  0
LINE
  5
1A8
100
AcDbEntity
  8
Layer 1
 62
256
370
-1
 48
1.0
  6
BYLAYER
100
AcDbLine
 10
126.6188109999999938
 20
255.6712620000000129
 30
0.0
 11
126.7169999999999987
 21
256.1569999999999823
 31
0.0
  0
LINE
  5
1A9
100
AcDbEntity
  8
Layer 1
 62
256
370
-1
 48
1.0
  6
BYLAYER
100
AcDbLine
 10
136.2155201115799628
 20
259.6371336180638423
 30
0.0
 11
136.3333469115799517
 21
260.2200192180637828
 31
0.0
  0
LINE
  5
1AA
100
AcDbEntity
  8
Layer 1
 62
256
370
-1
 48
1.0
  6
BYLAYER
100
AcDbLine
 10
-193.3811890000000062
 20
255.6712620000000129
 30
0.0
 11
-193.2830000000000155
 21
256.1569999999999823
 31
0.0
  0
LINE
  5
1AB
100
AcDbEntity
  8
Layer 1
 62
256
370
-1
 48
1.0
  6
BYLAYER
100
AcDbLine
 10
-183.7844798884200372
 20
259.6371336180638423
 30
0.0
 11
-183.6666530884200483
 21
260.2200192180637828
 31
0.0
  0
LINE
  5
1AC
100
AcDbEntity
  8
Layer 1
 62
256
370
-1
 48
1.0
  6
BYLAYER
100
AcDbLine
 10
126.7169999999999987
 20
256.1569999999999823
 30
0.0
 11
126.7169999999999987
 21
256.1569999999999823
 31
0.0
  0
LINE
  5
1AD
100
AcDbEntity
  8
Layer 1
 62
256
370
-1
 48
1.0
  6
BYLAYER
100
AcDbLine
 10
136.3333469115799517
 20
260.2200192180637828
 30
0.0
 11
136.3333469115799517
 21
260.2200192180637828
 31
0.0
  0
LINE
  5
1AE
100
AcDbEntity
  8
Layer 1
 62
256
370
-1
 48
1.0
  6
BYLAYER
100
AcDbLine
 10
-193.2830000000000155
 20
256.1569999999999823
 30
0.0
 11
-193.2830000000000155
 21
256.1569999999999823
 31
0.0
  0
LINE
  5
1AF
100
AcDbEntity
  8
Layer 1
 62
256
370
-1
 48
1.0
  6
BYLAYER
100
AcDbLine
 10
-183.6666530884200483
 20
260.2200192180637828
 30
0.0
 11
-183.6666530884200483
 21
260.2200192180637828
 31
0.0
  0
LINE
  5
1B0
100
AcDbEntity
  8
Layer 1
 62
256
370
-1
 48
1.0
  6
BYLAYER
100
AcDbLine
 10
30.6651999999999987
 20
281.6259999999999764
 30
0.0
 11
50.7715999999999994
 21
281.6279999999999859
 31
0.0
  0
LINE
  5
1B1
100
AcDbEntity
  8
Layer 1
 62
256
370
-1
 48
1.0
  6
BYLAYER
100
AcDbLine
 10
21.0711869115799715
 20
290.7828192180638212
 30
0.0
 11
45.1988669115799695
 21
290.7852192180637871
 31
0.0
  0
LINE
  5
1B2
100
AcDbEntity
  8
Layer 1
 62
256
370
-1
 48
1.0
  6
BYLAYER
100
AcDbLine
 10
-289.3347999999999729
 20
281.6259999999999764
 30
0.0
 11
-269.2284000000000219
 21
281.6279999999999859
 31
0.0
  0
LINE
  5
1B3
100
AcDbEntity
  8
Layer 1
 62
256
370
-1
 48
1.0
  6
BYLAYER
100
AcDbLine
 10
-298.9288130884200427
 20
290.7828192180638212
 30
0.0
 11
-274.8011330884200447
 21
290.7852192180637871
 31
0.0
  0
LINE
  5
1B4
100
AcDbEntity
  8
Layer 1
 62
256
370
-1
 48
1.0
  6
BYLAYER
100
AcDbLine
 10
50.7715999999999994
 20
281.6279999999999859
 30
0.0
 11
50.7713350000000005
 21
284.1251399999999876
 31
0.0
  0
LINE
  5
1B5
100
AcDbEntity
  8
Layer 1
 62
256
370
-1
 48
1.0
  6
BYLAYER
100
AcDbLine
 10
45.1988669115799695
 20
290.7852192180637871
 30
0.0
 11
45.1985489115799695
 21
293.7817872180638119
 31
0.0
  0
LINE
  5
1B6
100
AcDbEntity
  8
Layer 1
 62
256
370
-1
 48
1.0
  6
BYLAYER
100
AcDbLine
 10
-269.2284000000000219
 20
281.6279999999999859
 30
0.0
 11
-269.2286649999999781
 21
284.1251399999999876
 31
0.0
  0
LINE
  5
1B7
100
AcDbEntity
  8
Layer 1
 62
256
370
-1
 48
1.0
  6
BYLAYER
100
AcDbLine
 10
-274.8011330884200447
 20
290.7852192180637871
 30
0.0
 11
-274.8014510884200376
 21
293.7817872180638119
 31
0.0
  0
LINE
  5
1B8
100
AcDbEntity
  8
Layer 1
 62
256
370
-1
 48
1.0
  6
BYLAYER
100
AcDbLine
 10
50.7713350000000005
 20
284.1251399999999876
 30
0.0
 11
69.7708350000000053
 21
284.1271399999999971
 31
0.0
  0
LINE
  5
1B9
100
AcDbEntity
  8
Layer 1
 62
256
370
-1
 48
1.0
  6
BYLAYER
100
AcDbLine
 10
45.1985489115799695
 20
293.7817872180638119
 30
0.0
 11
67.9979489115799822
 21
293.7841872180638347
 31
0.0
  0
LINE
  5
1BA
100
AcDbEntity
  8
Layer 1
 62
256
370
-1
 48
1.0
  6
BYLAYER
100
AcDbLine
 10
-269.2286649999999781
 20
284.1251399999999876
 30
0.0
 11
-250.2291649999999947
 21
284.1271399999999971
 31
0.0
  0
LINE
  5
1BB
100
AcDbEntity
  8
Layer 1
 62
256
370
-1
 48
1.0
  6
BYLAYER
100
AcDbLine
 10
-274.8014510884200376
 20
293.7817872180638119
 30
0.0
 11
-252.0020510884200178
 21
293.7841872180638347
 31
0.0
  0
LINE
  5
1BC
100
AcDbEntity
  8
Layer 1
 62
256
370
-1
 48
1.0
  6
BYLAYER
100
AcDbLine
 10
69.7708350000000053
 20
284.1271399999999971
 30
0.0
 11
69.7705700000000064
 21
286.6268400000000156
 31
0.0
  0
LINE
  5
1BD
100
AcDbEntity
  8
Layer 1
 62
256
370
-1
 48
1.0
  6
BYLAYER
100
AcDbLine
 10
67.9979489115799822
 20
293.7841872180638347
 30
0.0
 11
67.9976309115799751
 21
296.7838272180638342
 31
0.0
  0
LINE
  5
1BE
100
AcDbEntity
  8
Layer 1
 62
256
370
-1
 48
1.0
  6
BYLAYER
100
AcDbLine
 10
-250.2291649999999947
 20
284.1271399999999971
 30
0.0
 11
-250.2294299999999794
 21
286.6268400000000156
 31
0.0
  0
LINE
  5
1BF
100
AcDbEntity
  8
Layer 1
 62
256
370
-1
 48
1.0
  6
BYLAYER
100
AcDbLine
 10
-252.0020510884200178
 20
293.7841872180638347
 30
0.0
 11
-252.0023690884200391
 21
296.7838272180638342
 31
0.0
  0
LINE
  5
1C0
100
AcDbEntity
  8
Layer 1
 62
256
370
-1
 48
1.0
  6
BYLAYER
100
AcDbLine
 10
69.7705700000000064
 20
286.6268400000000156
 30
0.0
 11
87.7715000000000032
 21
286.6270000000000095
 31
0.0
  0
LINE
  5
1C1
100
AcDbEntity
  8
Layer 1
 62
256
370
-1
 48
1.0
  6
BYLAYER
100
AcDbLine
 10
67.9976309115799751
 20
296.7838272180638342
 30
0.0
 11
89.5987469115799797
 21
296.7840192180638041
 31
0.0
  0
LINE
  5
1C2
100
AcDbEntity
  8
Layer 1
 62
256
370
-1
 48
1.0
  6
BYLAYER
100
AcDbLine
 10
-250.2294299999999794
 20
286.6268400000000156
 30
0.0
 11
-232.2284999999999968
 21
286.6270000000000095
 31
0.0
  0
LINE
  5
1C3
100
AcDbEntity
  8
Layer 1
 62
256
370
-1
 48
1.0
  6
BYLAYER
100
AcDbLine
 10
-252.0023690884200391
 20
296.7838272180638342
 30
0.0
 11
-230.4012530884200203
 21
296.7840192180638041
 31
0.0
  0
LINE
  5
1C4
100
AcDbEntity
  8
Layer 1
 62
256
370
-1
 48
1.0
  6
BYLAYER
100
AcDbLine
 10
87.7715000000000032
 20
286.6270000000000095
 30
0.0
 11
87.7715000000000032
 21
284.125
 31
0.0
  0
LINE
  5
1C5
100
AcDbEntity
  8
Layer 1
 62
256
370
-1
 48
1.0
  6
BYLAYER
100
AcDbLine
 10
89.5987469115799797
 20
296.7840192180638041
 30
0.0
 11
89.5987469115799797
 21
293.7816192180638382
 31
0.0
  0
LINE
  5
1C6
100
AcDbEntity
  8
Layer 1
 62
256
370
-1
 48
1.0
  6
BYLAYER
100
AcDbLine
 10
-232.2284999999999968
 20
286.6270000000000095
 30
0.0
 11
-232.2284999999999968
 21
284.125
 31
0.0
  0
LINE
  5
1C7
100
AcDbEntity
  8
Layer 1
 62
256
370
-1
 48
1.0
  6
BYLAYER
100
AcDbLine
 10
-230.4012530884200203
 20
296.7840192180638041
 30
0.0
 11
-230.4012530884200203
 21
293.7816192180638382
 31
0.0
  0
LINE
  5
1C8
100
AcDbEntity
  8
Layer 1
 62
256
370
-1
 48
1.0
  6
BYLAYER
100
AcDbLine
 10
87.7715000000000032
 20
284.125
 30
0.0
 11
106.7710000000000008
 21
284.125
 31
0.0
  0
LINE
  5
1C9
100
AcDbEntity
  8
Layer 1
 62
256
370
-1
 48
1.0
  6
BYLAYER
100
AcDbLine
 10
89.5987469115799797
 20
293.7816192180638382
 30
0.0
 11
112.3981469115799712
 21
293.7816192180638382
 31
0.0
  0
LINE
  5
1CA
100
AcDbEntity
  8
Layer 1
 62
256
370
-1
 48
1.0
  6
BYLAYER
100
AcDbLine
 10
-232.2284999999999968
 20
284.125
 30
0.0
 11
-213.228999999999985
 21
284.125
 31
0.0
  0
LINE
  5
1CB
100
AcDbEntity
  8
Layer 1
 62
256
370
-1
 48
1.0
  6
BYLAYER
100
AcDbLine
 10
-230.4012530884200203
 20
293.7816192180638382
 30
0.0
 11
-207.6018530884200288
 21
293.7816192180638382
 31
0.0
  0
LINE
  5
1CC
100
AcDbEntity
  8
Layer 1
 62
256
370
-1
 48
1.0
  6
BYLAYER
100
AcDbLine
 10
106.7710000000000008
 20
284.125
 30
0.0
 11
106.7711500000000058
 21
275.1254799999999818
 31
0.0
  0
LINE
  5
1CD
100
AcDbEntity
  8
Layer 1
 62
256
370
-1
 48
1.0
  6
BYLAYER
100
AcDbLine
 10
112.3981469115799712
 20
293.7816192180638382
 30
0.0
 11
112.3983269115799715
 21
282.9821952180637936
 31
0.0
  0
LINE
  5
1CE
100
AcDbEntity
  8
Layer 1
 62
256
370
-1
 48
1.0
  6
BYLAYER
100
AcDbLine
 10
-213.228999999999985
 20
284.125
 30
0.0
 11
-213.2288499999999942
 21
275.1254799999999818
 31
0.0
  0
LINE
  5
1CF
100
AcDbEntity
  8
Layer 1
 62
256
370
-1
 48
1.0
  6
BYLAYER
100
AcDbLine
 10
-207.6018530884200288
 20
293.7816192180638382
 30
0.0
 11
-207.6016730884200285
 21
282.9821952180637936
 31
0.0
  0
LINE
  5
1D0
100
AcDbEntity
  8
Layer 1
 62
256
370
-1
 48
1.0
  6
BYLAYER
100
AcDbLine
 10
106.7711500000000058
 20
275.1254799999999818
 30
0.0
 11
144.7719999999999914
 21
275.125
 31
0.0
  0
LINE
  5
1D1
100
AcDbEntity
  8
Layer 1
 62
256
370
-1
 48
1.0
  6
BYLAYER
100
AcDbLine
 10
112.3983269115799715
 20
282.9821952180637936
 30
0.0
 11
157.9993469115799485
 21
282.9816192180638268
 31
0.0
  0
LINE
  5
1D2
100
AcDbEntity
  8
Layer 1
 62
256
370
-1
 48
1.0
  6
BYLAYER
100
AcDbLine
 10
-213.2288499999999942
 20
275.1254799999999818
 30
0.0
 11
-175.2280000000000086
 21
275.125
 31
0.0
  0
LINE
  5
1D3
100
AcDbEntity
  8
Layer 1
 62
256
370
-1
 48
1.0
  6
BYLAYER
100
AcDbLine
 10
-207.6016730884200285
 20
282.9821952180637936
 30
0.0
 11
-162.0006530884200515
 21
282.9816192180638268
 31
0.0
  0
LINE
  5
1D4
100
AcDbEntity
  8
Layer 1
 62
256
370
-1
 48
1.0
  6
BYLAYER
100
AcDbLine
 10
144.7719999999999914
 20
275.125
 30
0.0
 11
144.7719999999999914
 21
199.1260000000000048
 31
0.0
  0
LINE
  5
1D5
100
AcDbEntity
  8
Layer 1
 62
256
370
-1
 48
1.0
  6
BYLAYER
100
AcDbLine
 10
157.9993469115799485
 20
282.9816192180638268
 30
0.0
 11
157.9993469115799485
 21
191.7828192180638212
 31
0.0
  0
LINE
  5
1D6
100
AcDbEntity
  8
Layer 1
 62
256
370
-1
 48
1.0
  6
BYLAYER
100
AcDbLine
 10
-175.2280000000000086
 20
275.125
 30
0.0
 11
-175.2280000000000086
 21
199.1260000000000048
 31
0.0
  0
LINE
  5
1D7
100
AcDbEntity
  8
Layer 1
 62
256
370
-1
 48
1.0
  6
BYLAYER
100
AcDbLine
 10
-162.0006530884200515
 20
282.9816192180638268
 30
0.0
 11
-162.0006530884200515
 21
191.7828192180638212
 31
0.0
  0
LINE
  5
1D8
100
AcDbEntity
  8
Layer 1
 62
256
370
-1
 48
1.0
  6
BYLAYER
100
AcDbLine
 10
144.7719999999999914
 20
199.1260000000000048
 30
0.0
 11
106.7711000000000041
 21
189.1260200000000111
 31
0.0
  0
LINE
  5
1D9
100
AcDbEntity
  8
Layer 1
 62
256
370
-1
 48
1.0
  6
BYLAYER
100
AcDbLine
 10
157.9993469115799485
 20
191.7828192180638212
 30
0.0
 11
112.5887801405573043
 21
179.9693088158683452
 31
0.0
  0
LINE
  5
1DA
100
AcDbEntity
  8
Layer 1
 62
256
370
-1
 48
1.0
  6
BYLAYER
100
AcDbLine
 10
-175.2280000000000086
 20
199.1260000000000048
 30
0.0
 11
-213.2289000000000101
 21
189.1260200000000111
 31
0.0
  0
LINE
  5
1DB
100
AcDbEntity
  8
Layer 1
 62
256
370
-1
 48
1.0
  6
BYLAYER
100
AcDbLine
 10
-162.0006530884200515
 20
191.7828192180638212
 30
0.0
 11
-207.4112198594426957
 21
179.9693088158683452
 31
0.0
  0
LINE
  5
1DC
100
AcDbEntity
  8
Layer 1
 62
256
370
-1
 48
1.0
  6
BYLAYER
100
AcDbLine
 10
106.7711000000000041
 20
189.1260200000000111
 30
0.0
 11
50.2708000000000013
 21
189.1260000000000048
 31
0.0
  0
LINE
  5
1DD
100
AcDbEntity
  8
Layer 1
 62
256
370
-1
 48
1.0
  6
BYLAYER
100
AcDbLine
 10
112.5887801405573043
 20
179.9693088158683452
 30
0.0
 11
56.0884801405573086
 21
179.9692888158683388
 31
0.0
  0
LINE
  5
1DE
100
AcDbEntity
  8
Layer 1
 62
256
370
-1
 48
1.0
  6
BYLAYER
100
AcDbLine
 10
-213.2289000000000101
 20
189.1260200000000111
 30
0.0
 11
-269.7291999999999916
 21
189.1260000000000048
 31
0.0
  0
LINE
  5
1DF
100
AcDbEntity
  8
Layer 1
 62
256
370
-1
 48
1.0
  6
BYLAYER
100
AcDbLine
 10
-207.4112198594426957
 20
179.9693088158683452
 30
0.0
 11
-263.9115198594427056
 21
179.9692888158683388
 31
0.0
  0
LINE
  5
1E0
100
AcDbEntity
  8
Layer 1
 62
256
370
-1
 48
1.0
  6
BYLAYER
100
AcDbLine
 10
50.2708000000000013
 20
189.1260000000000048
 30
0.0
 11
32.6272999999999982
 21
181.1250699999999938
 31
0.0
  0
LINE
  5
1E1
100
AcDbEntity
  8
Layer 1
 62
256
370
-1
 48
1.0
  6
BYLAYER
100
AcDbLine
 10
56.0884801405573086
 20
179.9692888158683388
 30
0.0
 11
38.3962078849080299
 21
171.9718398657264515
 31
0.0
  0
LINE
  5
1E2
100
AcDbEntity
  8
Layer 1
 62
256
370
-1
 48
1.0
  6
BYLAYER
100
AcDbLine
 10
-269.7291999999999916
 20
189.1260000000000048
 30
0.0
 11
-287.3727000000000089
 21
181.1250699999999938
 31
0.0
  0
LINE
  5
1E3
100
AcDbEntity
  8
Layer 1
 62
256
370
-1
 48
1.0
  6
BYLAYER
100
AcDbLine
 10
-263.9115198594427056
 20
179.9692888158683388
 30
0.0
 11
-281.6037921150919487
 21
171.9718398657264515
 31
0.0
  0
LINE
  5
1E4
100
AcDbEntity
  8
Layer 1
 62
256
370
-1
 48
1.0
  6
BYLAYER
100
AcDbLine
 10
32.6272999999999982
 20
181.1250699999999938
 30
0.0
 11
15.6275999999999993
 21
171.1277399999999886
 31
0.0
  0
LINE
  5
1E5
100
AcDbEntity
  8
Layer 1
 62
256
370
-1
 48
1.0
  6
BYLAYER
100
AcDbLine
 10
38.3962078849080299
 20
171.9718398657264515
 30
0.0
 11
11.371675755266196
 21
156.6423393012916563
 31
0.0
  0
LINE
  5
1E6
100
AcDbEntity
  8
Layer 1
 62
256
370
-1
 48
1.0
  6
BYLAYER
100
AcDbLine
 10
-287.3727000000000089
 20
181.1250699999999938
 30
0.0
 11
-304.3724000000000274
 21
171.1277399999999886
 31
0.0
  0
LINE
  5
1E7
100
AcDbEntity
  8
Layer 1
 62
256
370
-1
 48
1.0
  6
BYLAYER
100
AcDbLine
 10
-281.6037921150919487
 20
171.9718398657264515
 30
0.0
 11
-308.6283242447337898
 21
156.6423393012916563
 31
0.0
  0
LINE
  5
1E8
100
AcDbEntity
  8
Layer 1
 62
256
370
-1
 48
1.0
  6
BYLAYER
100
AcDbLine
 10
15.6275999999999993
 20
171.1277399999999886
 30
0.0
 11
1.1293
 21
196.126339999999999
 31
0.0
  0
LINE
  5
1E9
100
AcDbEntity
  8
Layer 1
 62
256
370
-1
 48
1.0
  6
BYLAYER
100
AcDbLine
 10
11.371675755266196
 20
156.6423393012916563
 30
0.0
 11
-13.5507810510009961
 21
198.9945357107476127
 31
0.0
  0
LINE
  5
1EA
100
AcDbEntity
  8
Layer 1
 62
256
370
-1
 48
1.0
  6
BYLAYER
100
AcDbLine
 10
-304.3724000000000274
 20
171.1277399999999886
 30
0.0
 11
-318.8706999999999994
 21
196.126339999999999
 31
0.0
  0
LINE
  5
1EB
100
AcDbEntity
  8
Layer 1
 62
256
370
-1
 48
1.0
  6
BYLAYER
100
AcDbLine
 10
-308.6283242447337898
 20
156.6423393012916563
 30
0.0
 11
-333.5507810510009676
 21
198.9945357107476127
 31
0.0
  0
LINE
  5
1EC
100
AcDbEntity
  8
Layer 1
 62
256
370
-1
 48
1.0
  6
BYLAYER
100
AcDbLine
 10
1.1293
 20
196.126339999999999
 30
0.0
 11
9.6281099999999995
 21
201.1275799999999947
 31
0.0
  0
LINE
  5
1ED
100
AcDbEntity
  8
Layer 1
 62
256
370
-1
 48
1.0
  6
BYLAYER
100
AcDbLine
 10
-13.5507810510009961
 20
198.9945357107476127
 30
0.0
 11
-1.3337904151369528
 21
206.2669095853677277
 31
0.0
  0
LINE
  5
1EE
100
AcDbEntity
  8
Layer 1
 62
256
370
-1
 48
1.0
  6
BYLAYER
100
AcDbLine
 10
-318.8706999999999994
 20
196.126339999999999
 30
0.0
 11
-310.3718900000000076
 21
201.1275799999999947
 31
0.0
  0
LINE
  5
1EF
100
AcDbEntity
  8
Layer 1
 62
256
370
-1
 48
1.0
  6
BYLAYER
100
AcDbLine
 10
-333.5507810510009676
 20
198.9945357107476127
 30
0.0
 11
-321.3337904151369457
 21
206.2669095853677277
 31
0.0
  0
LINE
  5
1F0
100
AcDbEntity
  8
Layer 1
 62
256
370
-1
 48
1.0
  6
BYLAYER
100
AcDbLine
 10
9.6281099999999995
 20
201.1275799999999947
 30
0.0
 11
9.6275790000000008
 21
224.1728799999999922
 31
0.0
  0
LINE
  5
1F1
100
AcDbEntity
  8
Layer 1
 62
256
370
-1
 48
1.0
  6
BYLAYER
100
AcDbLine
 10
-1.3337904151369528
 20
206.2669095853677277
 30
0.0
 11
-0.981122249229756
 21
290.6572824829123078
 31
0.0
  0
LINE
  5
1F2
100
AcDbEntity
  8
Layer 1
 62
256
370
-1
 48
1.0
  6
BYLAYER
100
AcDbLine
 10
-310.3718900000000076
 20
201.1275799999999947
 30
0.0
 11
-310.3724209999999744
 21
224.1728799999999922
 31
0.0
  0
LINE
  5
1F3
100
AcDbEntity
  8
Layer 1
 62
256
370
-1
 48
1.0
  6
BYLAYER
100
AcDbLine
 10
-321.3337904151369457
 20
206.2669095853677277
 30
0.0
 11
-320.9811222492297702
 21
290.6572824829123078
 31
0.0
  0
LINE
  5
1F4
100
AcDbEntity
  8
Layer 1
 62
256
370
-1
 48
1.0
  6
BYLAYER
100
AcDbLine
 10
9.6275790000000008
 20
224.1728799999999922
 30
0.0
 11
9.816611
 21
281.5975799999999936
 31
0.0
  0
LINE
  5
1F5
100
AcDbEntity
  8
Layer 1
 62
256
370
-1
 48
1.0
  6
BYLAYER
100
AcDbLine
 10
-310.3724209999999744
 20
224.1728799999999922
 30
0.0
 11
-310.1833889999999769
 21
281.5975799999999936
 31
0.0
  0
LINE
  5
1F6
100
AcDbEntity
  8
Layer 1
 62
256
370
-1
 48
1.0
  6
BYLAYER
100
AcDbLine
 10
9.816611
 20
281.5975799999999936
 30
0.0
 11
30.6651999999999987
 21
281.6259999999999764
 31
0.0
  0
LINE
  5
1F7
100
AcDbEntity
  8
Layer 1
 62
256
370
-1
 48
1.0
  6
BYLAYER
100
AcDbLine
 10
-0.981122249229756
 20
290.6572824829123078
 30
0.0
 11
21.0711869115799715
 21
290.7828192180638212
 31
0.0
  0
LINE
  5
1F8
100
AcDbEntity
  8
Layer 1
 62
256
370
-1
 48
1.0
  6
BYLAYER
100
AcDbLine
 10
-310.1833889999999769
 20
281.5975799999999936
 30
0.0
 11
-289.3347999999999729
 21
281.6259999999999764
 31
0.0
  0
LINE
  5
1F9
100
AcDbEntity
  8
Layer 1
 62
256
370
-1
 48
1.0
  6
BYLAYER
100
AcDbLine
 10
-320.9811222492297702
 20
290.6572824829123078
 30
0.0
 11
-298.9288130884200427
 21
290.7828192180638212
 31
0.0
  0
LINE
  5
1FA
100
AcDbEntity
  8
Layer 2
 62
256
370
-1
 48
1.0
  6
BYLAYER
100
AcDbLine
 10
50.2177000000000007
 20
262.7669999999999959
 30
0.0
 11
50.1195120000000003
 21
263.2527380000000221
 31
0.0
  0
LINE
  5
1FB
100
AcDbEntity
  8
Layer 2
 62
256
370
-1
 48
1.0
  6
BYLAYER
100
AcDbLine
 10
44.5341869115799724
 20
268.1520192180637991
 30
0.0
 11
44.4163613115799691
 21
268.7349048180638533
 31
0.0
  0
LINE
  5
1FC
100
AcDbEntity
  8
Layer 2
 62
256
370
-1
 48
1.0
  6
BYLAYER
100
AcDbLine
 10
-269.7823000000000206
 20
262.7669999999999959
 30
0.0
 11
-269.8804880000000139
 21
263.2527380000000221
 31
0.0
  0
LINE
  5
1FD
100
AcDbEntity
  8
Layer 2
 62
256
370
-1
 48
1.0
  6
BYLAYER
100
AcDbLine
 10
-275.4658130884200204
 20
268.1520192180637991
 30
0.0
 11
-275.5836386884200238
 21
268.7349048180638533
 31
0.0
  0
LINE
  5
1FE
100
AcDbEntity
  8
Layer 2
 62
256
370
-1
 48
1.0
  6
BYLAYER
100
AcDbLine
 10
50.1195120000000003
 20
263.2527380000000221
 30
0.0
 11
49.8518249999999981
 21
263.6496080000000006
 31
0.0
  0
LINE
  5
1FF
100
AcDbEntity
  8
Layer 2
 62
256
370
-1
 48
1.0
  6
BYLAYER
100
AcDbLine
 10
44.4163613115799691
 20
268.7349048180638533
 30
0.0
 11
44.0951369115799707
 21
269.2111488180638048
 31
0.0
  0
LINE
  5
200
100
AcDbEntity
  8
Layer 2
 62
256
370
-1
 48
1.0
  6
BYLAYER
100
AcDbLine
 10
-269.8804880000000139
 20
263.2527380000000221
 30
0.0
 11
-270.1481749999999806
 21
263.6496080000000006
 31
0.0
  0
LINE
  5
201
100
AcDbEntity
  8
Layer 2
 62
256
370
-1
 48
1.0
  6
BYLAYER
100
AcDbLine
 10
-275.5836386884200238
 20
268.7349048180638533
 30
0.0
 11
-275.9048630884200293
 21
269.2111488180638048
 31
0.0
  0
LINE
  5
202
100
AcDbEntity
  8
Layer 2
 62
256
370
-1
 48
1.0
  6
BYLAYER
100
AcDbLine
 10
49.8518249999999981
 20
263.6496080000000006
 30
0.0
 11
49.4549560000000028
 21
263.9172929999999724
 31
0.0
  0
LINE
  5
203
100
AcDbEntity
  8
Layer 2
 62
256
370
-1
 48
1.0
  6
BYLAYER
100
AcDbLine
 10
44.0951369115799707
 20
269.2111488180638048
 30
0.0
 11
43.6188941115799764
 21
269.5323708180637823
 31
0.0
  0
LINE
  5
204
100
AcDbEntity
  8
Layer 2
 62
256
370
-1
 48
1.0
  6
BYLAYER
100
AcDbLine
 10
-270.1481749999999806
 20
263.6496080000000006
 30
0.0
 11
-270.5450440000000185
 21
263.9172929999999724
 31
0.0
  0
LINE
  5
205
100
AcDbEntity
  8
Layer 2
 62
256
370
-1
 48
1.0
  6
BYLAYER
100
AcDbLine
 10
-275.9048630884200293
 20
269.2111488180638048
 30
0.0
 11
-276.381105888420052
 21
269.5323708180637823
 31
0.0
  0
LINE
  5
206
100
AcDbEntity
  8
Layer 2
 62
256
370
-1
 48
1.0
  6
BYLAYER
100
AcDbLine
 10
49.4549560000000028
 20
263.9172929999999724
 30
0.0
 11
48.96922
 21
264.015480000000025
 31
0.0
  0
LINE
  5
207
100
AcDbEntity
  8
Layer 2
 62
256
370
-1
 48
1.0
  6
BYLAYER
100
AcDbLine
 10
43.6188941115799764
 20
269.5323708180637823
 30
0.0
 11
43.0360109115799716
 21
269.6501952180638568
 31
0.0
  0
LINE
  5
208
100
AcDbEntity
  8
Layer 2
 62
256
370
-1
 48
1.0
  6
BYLAYER
100
AcDbLine
 10
-270.5450440000000185
 20
263.9172929999999724
 30
0.0
 11
-271.0307799999999929
 21
264.015480000000025
 31
0.0
  0
LINE
  5
209
100
AcDbEntity
  8
Layer 2
 62
256
370
-1
 48
1.0
  6
BYLAYER
100
AcDbLine
 10
-276.381105888420052
 20
269.5323708180637823
 30
0.0
 11
-276.9639890884200213
 21
269.6501952180638568
 31
0.0
  0
LINE
  5
20A
100
AcDbEntity
  8
Layer 2
 62
256
370
-1
 48
1.0
  6
BYLAYER
100
AcDbLine
 10
48.96922
 20
264.015480000000025
 30
0.0
 11
48.4835380000000029
 21
263.9172929999999724
 31
0.0
  0
LINE
  5
20B
100
AcDbEntity
  8
Layer 2
 62
256
370
-1
 48
1.0
  6
BYLAYER
100
AcDbLine
 10
43.0360109115799716
 20
269.6501952180638568
 30
0.0
 11
42.453192511579978
 21
269.5323708180637823
 31
0.0
  0
LINE
  5
20C
100
AcDbEntity
  8
Layer 2
 62
256
370
-1
 48
1.0
  6
BYLAYER
100
AcDbLine
 10
-271.0307799999999929
 20
264.015480000000025
 30
0.0
 11
-271.51646199999999
 21
263.9172929999999724
 31
0.0
  0
LINE
  5
20D
100
AcDbEntity
  8
Layer 2
 62
256
370
-1
 48
1.0
  6
BYLAYER
100
AcDbLine
 10
-276.9639890884200213
 20
269.6501952180638568
 30
0.0
 11
-277.5468074884200291
 21
269.5323708180637823
 31
0.0
  0
LINE
  5
20E
100
AcDbEntity
  8
Layer 2
 62
256
370
-1
 48
1.0
  6
BYLAYER
100
AcDbLine
 10
48.4835380000000029
 20
263.9172929999999724
 30
0.0
 11
48.0867890000000031
 21
263.6496080000000006
 31
0.0
  0
LINE
  5
20F
100
AcDbEntity
  8
Layer 2
 62
256
370
-1
 48
1.0
  6
BYLAYER
100
AcDbLine
 10
42.453192511579978
 20
269.5323708180637823
 30
0.0
 11
41.9770937115799754
 21
269.2111488180638048
 31
0.0
  0
LINE
  5
210
100
AcDbEntity
  8
Layer 2
 62
256
370
-1
 48
1.0
  6
BYLAYER
100
AcDbLine
 10
-271.51646199999999
 20
263.9172929999999724
 30
0.0
 11
-271.9132109999999898
 21
263.6496080000000006
 31
0.0
  0
LINE
  5
211
100
AcDbEntity
  8
Layer 2
 62
256
370
-1
 48
1.0
  6
BYLAYER
100
AcDbLine
 10
-277.5468074884200291
 20
269.5323708180637823
 30
0.0
 11
-278.0229062884200175
 21
269.2111488180638048
 31
0.0
  0
LINE
  5
212
100
AcDbEntity
  8
Layer 2
 62
256
370
-1
 48
1.0
  6
BYLAYER
100
AcDbLine
 10
48.0867890000000031
 20
263.6496080000000006
 30
0.0
 11
47.8192230000000009
 21
263.2527380000000221
 31
0.0
  0
LINE
  5
213
100
AcDbEntity
  8
Layer 2
 62
256
370
-1
 48
1.0
  6
BYLAYER
100
AcDbLine
 10
41.9770937115799754
 20
269.2111488180638048
 30
0.0
 11
41.6560145115799756
 21
268.7349048180638533
 31
0.0
  0
LINE
  5
214
100
AcDbEntity
  8
Layer 2
 62
256
370
-1
 48
1.0
  6
BYLAYER
100
AcDbLine
 10
-271.9132109999999898
 20
263.6496080000000006
 30
0.0
 11
-272.1807769999999778
 21
263.2527380000000221
 31
0.0
  0
LINE
  5
215
100
AcDbEntity
  8
Layer 2
 62
256
370
-1
 48
1.0
  6
BYLAYER
100
AcDbLine
 10
-278.0229062884200175
 20
269.2111488180638048
 30
0.0
 11
-278.3439854884200031
 21
268.7349048180638533
 31
0.0
  0
LINE
  5
216
100
AcDbEntity
  8
Layer 2
 62
256
370
-1
 48
1.0
  6
BYLAYER
100
AcDbLine
 10
47.8192230000000009
 20
263.2527380000000221
 30
0.0
 11
47.7210899999999967
 21
262.7669999999999959
 31
0.0
  0
LINE
  5
217
100
AcDbEntity
  8
Layer 2
 62
256
370
-1
 48
1.0
  6
BYLAYER
100
AcDbLine
 10
41.6560145115799756
 20
268.7349048180638533
 30
0.0
 11
41.5382549115799691
 21
268.1520192180637991
 31
0.0
  0
LINE
  5
218
100
AcDbEntity
  8
Layer 2
 62
256
370
-1
 48
1.0
  6
BYLAYER
100
AcDbLine
 10
-272.1807769999999778
 20
263.2527380000000221
 30
0.0
 11
-272.2789099999999962
 21
262.7669999999999959
 31
0.0
  0
LINE
  5
219
100
AcDbEntity
  8
Layer 2
 62
256
370
-1
 48
1.0
  6
BYLAYER
100
AcDbLine
 10
-278.3439854884200031
 20
268.7349048180638533
 30
0.0
 11
-278.4617450884200025
 21
268.1520192180637991
 31
0.0
  0
LINE
  5
21A
100
AcDbEntity
  8
Layer 2
 62
256
370
-1
 48
1.0
  6
BYLAYER
100
AcDbLine
 10
47.7210899999999967
 20
262.7669999999999959
 30
0.0
 11
47.8192230000000009
 21
262.2812660000000164
 31
0.0
  0
LINE
  5
21B
100
AcDbEntity
  8
Layer 2
 62
256
370
-1
 48
1.0
  6
BYLAYER
100
AcDbLine
 10
41.5382549115799691
 20
268.1520192180637991
 30
0.0
 11
41.6560145115799756
 21
267.5691384180638579
 31
0.0
  0
LINE
  5
21C
100
AcDbEntity
  8
Layer 2
 62
256
370
-1
 48
1.0
  6
BYLAYER
100
AcDbLine
 10
-272.2789099999999962
 20
262.7669999999999959
 30
0.0
 11
-272.1807769999999778
 21
262.2812660000000164
 31
0.0
  0
LINE
  5
21D
100
AcDbEntity
  8
Layer 2
 62
256
370
-1
 48
1.0
  6
BYLAYER
100
AcDbLine
 10
-278.4617450884200025
 20
268.1520192180637991
 30
0.0
 11
-278.3439854884200031
 21
267.5691384180638579
 31
0.0
  0
LINE
  5
21E
100
AcDbEntity
  8
Layer 2
 62
256
370
-1
 48
1.0
  6
BYLAYER
100
AcDbLine
 10
47.8192230000000009
 20
262.2812660000000164
 30
0.0
 11
48.0867890000000031
 21
261.8843959999999811
 31
0.0
  0
LINE
  5
21F
100
AcDbEntity
  8
Layer 2
 62
256
370
-1
 48
1.0
  6
BYLAYER
100
AcDbLine
 10
41.6560145115799756
 20
267.5691384180638579
 30
0.0
 11
41.9770937115799754
 21
267.0928944180637927
 31
0.0
  0
LINE
  5
220
100
AcDbEntity
  8
Layer 2
 62
256
370
-1
 48
1.0
  6
BYLAYER
100
AcDbLine
 10
-272.1807769999999778
 20
262.2812660000000164
 30
0.0
 11
-271.9132109999999898
 21
261.8843959999999811
 31
0.0
  0
LINE
  5
221
100
AcDbEntity
  8
Layer 2
 62
256
370
-1
 48
1.0
  6
BYLAYER
100
AcDbLine
 10
-278.3439854884200031
 20
267.5691384180638579
 30
0.0
 11
-278.0229062884200175
 21
267.0928944180637927
 31
0.0
  0
LINE
  5
222
100
AcDbEntity
  8
Layer 2
 62
256
370
-1
 48
1.0
  6
BYLAYER
100
AcDbLine
 10
48.0867890000000031
 20
261.8843959999999811
 30
0.0
 11
48.4835380000000029
 21
261.6167090000000144
 31
0.0
  0
LINE
  5
223
100
AcDbEntity
  8
Layer 2
 62
256
370
-1
 48
1.0
  6
BYLAYER
100
AcDbLine
 10
41.9770937115799754
 20
267.0928944180637927
 30
0.0
 11
42.453192511579978
 21
266.7716700180638441
 31
0.0
  0
LINE
  5
224
100
AcDbEntity
  8
Layer 2
 62
256
370
-1
 48
1.0
  6
BYLAYER
100
AcDbLine
 10
-271.9132109999999898
 20
261.8843959999999811
 30
0.0
 11
-271.51646199999999
 21
261.6167090000000144
 31
0.0
  0
LINE
  5
225
100
AcDbEntity
  8
Layer 2
 62
256
370
-1
 48
1.0
  6
BYLAYER
100
AcDbLine
 10
-278.0229062884200175
 20
267.0928944180637927
 30
0.0
 11
-277.5468074884200291
 21
266.7716700180638441
 31
0.0
  0
LINE
  5
226
100
AcDbEntity
  8
Layer 2
 62
256
370
-1
 48
1.0
  6
BYLAYER
100
AcDbLine
 10
48.4835380000000029
 20
261.6167090000000144
 30
0.0
 11
48.96922
 21
261.5185200000000236
 31
0.0
  0
LINE
  5
227
100
AcDbEntity
  8
Layer 2
 62
256
370
-1
 48
1.0
  6
BYLAYER
100
AcDbLine
 10
42.453192511579978
 20
266.7716700180638441
 30
0.0
 11
43.0360109115799716
 21
266.6538432180638551
 31
0.0
  0
LINE
  5
228
100
AcDbEntity
  8
Layer 2
 62
256
370
-1
 48
1.0
  6
BYLAYER
100
AcDbLine
 10
-271.51646199999999
 20
261.6167090000000144
 30
0.0
 11
-271.0307799999999929
 21
261.5185200000000236
 31
0.0
  0
LINE
  5
229
100
AcDbEntity
  8
Layer 2
 62
256
370
-1
 48
1.0
  6
BYLAYER
100
AcDbLine
 10
-277.5468074884200291
 20
266.7716700180638441
 30
0.0
 11
-276.9639890884200213
 21
266.6538432180638551
 31
0.0
  0
LINE
  5
22A
100
AcDbEntity
  8
Layer 2
 62
256
370
-1
 48
1.0
  6
BYLAYER
100
AcDbLine
 10
48.96922
 20
261.5185200000000236
 30
0.0
 11
49.4549560000000028
 21
261.6167090000000144
 31
0.0
  0
LINE
  5
22B
100
AcDbEntity
  8
Layer 2
 62
256
370
-1
 48
1.0
  6
BYLAYER
100
AcDbLine
 10
43.0360109115799716
 20
266.6538432180638551
 30
0.0
 11
43.6188941115799764
 21
266.7716700180638441
 31
0.0
  0
LINE
  5
22C
100
AcDbEntity
  8
Layer 2
 62
256
370
-1
 48
1.0
  6
BYLAYER
100
AcDbLine
 10
-271.0307799999999929
 20
261.5185200000000236
 30
0.0
 11
-270.5450440000000185
 21
261.6167090000000144
 31
0.0
  0
LINE
  5
22D
100
AcDbEntity
  8
Layer 2
 62
256
370
-1
 48
1.0
  6
BYLAYER
100
AcDbLine
 10
-276.9639890884200213
 20
266.6538432180638551
 30
0.0
 11
-276.381105888420052
 21
266.7716700180638441
 31
0.0
  0
LINE
  5
22E
100
AcDbEntity
  8
Layer 2
 62
256
370
-1
 48
1.0
  6
BYLAYER
100
AcDbLine
 10
49.4549560000000028
 20
261.6167090000000144
 30
0.0
 11
49.8518260000000026
 21
261.8843959999999811
 31
0.0
  0
LINE
  5
22F
100
AcDbEntity
  8
Layer 2
 62
256
370
-1
 48
1.0
  6
BYLAYER
100
AcDbLine
 10
43.6188941115799764
 20
266.7716700180638441
 30
0.0
 11
44.0951381115799776
 21
267.0928944180637927
 31
0.0
  0
LINE
  5
230
100
AcDbEntity
  8
Layer 2
 62
256
370
-1
 48
1.0
  6
BYLAYER
100
AcDbLine
 10
-270.5450440000000185
 20
261.6167090000000144
 30
0.0
 11
-270.1481739999999832
 21
261.8843959999999811
 31
0.0
  0
LINE
  5
231
100
AcDbEntity
  8
Layer 2
 62
256
370
-1
 48
1.0
  6
BYLAYER
100
AcDbLine
 10
-276.381105888420052
 20
266.7716700180638441
 30
0.0
 11
-275.9048618884200437
 21
267.0928944180637927
 31
0.0
  0
LINE
  5
232
100
AcDbEntity
  8
Layer 2
 62
256
370
-1
 48
1.0
  6
BYLAYER
100
AcDbLine
 10
49.8518260000000026
 20
261.8843959999999811
 30
0.0
 11
50.1195120000000003
 21
262.2812660000000164
 31
0.0
  0
LINE
  5
233
100
AcDbEntity
  8
Layer 2
 62
256
370
-1
 48
1.0
  6
BYLAYER
100
AcDbLine
 10
44.0951381115799776
 20
267.0928944180637927
 30
0.0
 11
44.4163613115799691
 21
267.5691384180638579
 31
0.0
  0
LINE
  5
234
100
AcDbEntity
  8
Layer 2
 62
256
370
-1
 48
1.0
  6
BYLAYER
100
AcDbLine
 10
-270.1481739999999832
 20
261.8843959999999811
 30
0.0
 11
-269.8804880000000139
 21
262.2812660000000164
 31
0.0
  0
LINE
  5
235
100
AcDbEntity
  8
Layer 2
 62
256
370
-1
 48
1.0
  6
BYLAYER
100
AcDbLine
 10
-275.9048618884200437
 20
267.0928944180637927
 30
0.0
 11
-275.5836386884200238
 21
267.5691384180638579
 31
0.0
  0
LINE
  5
236
100
AcDbEntity
  8
Layer 2
 62
256
370
-1
 48
1.0
  6
BYLAYER
100
AcDbLine
 10
50.1195120000000003
 20
262.2812660000000164
 30
0.0
 11
50.2177000000000007
 21
262.7669999999999959
 31
0.0
  0
LINE
  5
237
100
AcDbEntity
  8
Layer 2
 62
256
370
-1
 48
1.0
  6
BYLAYER
100
AcDbLine
 10
44.4163613115799691
 20
267.5691384180638579
 30
0.0
 11
44.5341869115799724
 21
268.1520192180637991
 31
0.0
  0
LINE
  5
238
100
AcDbEntity
  8
Layer 2
 62
256
370
-1
 48
1.0
  6
BYLAYER
100
AcDbLine
 10
-269.8804880000000139
 20
262.2812660000000164
 30
0.0
 11
-269.7823000000000206
 21
262.7669999999999959
 31
0.0
  0
LINE
  5
239
100
AcDbEntity
  8
Layer 2
 62
256
370
-1
 48
1.0
  6
BYLAYER
100
AcDbLine
 10
-275.5836386884200238
 20
267.5691384180638579
 30
0.0
 11
-275.4658130884200204
 21
268.1520192180637991
 31
0.0
  0
LINE
  5
23A
100
AcDbEntity
  8
Layer 2
 62
256
370
-1
 48
1.0
  6
BYLAYER
100
AcDbLine
 10
50.2177000000000007
 20
262.7669999999999959
 30
0.0
 11
50.2177000000000007
 21
262.7669999999999959
 31
0.0
  0
LINE
  5
23B
100
AcDbEntity
  8
Layer 2
 62
256
370
-1
 48
1.0
  6
BYLAYER
100
AcDbLine
 10
44.5341869115799724
 20
268.1520192180637991
 30
0.0
 11
44.5341869115799724
 21
268.1520192180637991
 31
0.0
  0
LINE
  5
23C
100
AcDbEntity
  8
Layer 2
 62
256
370
-1
 48
1.0
  6
BYLAYER
100
AcDbLine
 10
-269.7823000000000206
 20
262.7669999999999959
 30
0.0
 11
-269.7823000000000206
 21
262.7669999999999959
 31
0.0
  0
LINE
  5
23D
100
AcDbEntity
  8
Layer 2
 62
256
370
-1
 48
1.0
  6
BYLAYER
100
AcDbLine
 10
-275.4658130884200204
 20
268.1520192180637991
 30
0.0
 11
-275.4658130884200204
 21
268.1520192180637991
 31
0.0
  0
LINE
  5
23E
100
AcDbEntity
  8
Edge.Cuts 1
 62
256
370
-1
 48
1.0
  6
BYLAYER
100
AcDbLine
 10
310.2638678217821848
 20
223.7106851485148411
 30
0.0
 11
310.2638678217821848
 21
165.484685148514842
 31
0.0
  0
LINE
  5
23F
100
AcDbEntity
  8
Edge.Cuts 1
 62
256
370
-1
 48
1.0
  6
BYLAYER
100
AcDbLine
 10
310.2638678217821848
 20
165.484685148514842
 30
0.0
 11
331.2340678217822187
 21
165.484685148514842
 31
0.0
  0
LINE
  5
240
100
AcDbEntity
  8
Edge.Cuts 1
 62
256
370
-1
 48
1.0
  6
BYLAYER
100
AcDbLine
 10
331.2340678217822187
 20
165.484685148514842
 30
0.0
 11
331.2340678217822187
 21
223.7116851485148459
 31
0.0
  0
LINE
  5
241
100
AcDbEntity
  8
Edge.Cuts 1
 62
256
370
-1
 48
1.0
  6
BYLAYER
100
AcDbLine
 10
331.2340678217822187
 20
223.7116851485148459
 30
0.0
 11
310.2638678217821848
 21
223.7106851485148411
 31
0.0
  0
LINE
  5
242
100
AcDbEntity
  8
Layer 1
 62
256
370
-1
 48
1.0
  6
BYLAYER
100
AcDbLine
 10
316.9142678217822322
 20
168.9906851485148422
 30
0.0
 11
316.8160798217821821
 21
169.4764211485148451
 31
0.0
  0
LINE
  5
243
100
AcDbEntity
  8
Layer 1
 62
256
370
-1
 48
1.0
  6
BYLAYER
100
AcDbLine
 10
316.8160798217821821
 20
169.4764211485148451
 30
0.0
 11
316.5483938217822129
 21
169.873291148514852
 31
0.0
  0
LINE
  5
244
100
AcDbEntity
  8
Layer 1
 62
256
370
-1
 48
1.0
  6
BYLAYER
100
AcDbLine
 10
316.5483938217822129
 20
169.873291148514852
 30
0.0
 11
316.1515238217822343
 21
170.1409771485148497
 31
0.0
  0
LINE
  5
245
100
AcDbEntity
  8
Layer 1
 62
256
370
-1
 48
1.0
  6
BYLAYER
100
AcDbLine
 10
316.1515238217822343
 20
170.1409771485148497
 30
0.0
 11
315.6657878217822031
 21
170.2391651485148429
 31
0.0
  0
LINE
  5
246
100
AcDbEntity
  8
Layer 1
 62
256
370
-1
 48
1.0
  6
BYLAYER
100
AcDbLine
 10
315.6657878217822031
 20
170.2391651485148429
 30
0.0
 11
315.180105821782206
 21
170.1409771485148497
 31
0.0
  0
LINE
  5
247
100
AcDbEntity
  8
Layer 1
 62
256
370
-1
 48
1.0
  6
BYLAYER
100
AcDbLine
 10
315.180105821782206
 20
170.1409771485148497
 30
0.0
 11
314.7833568217822062
 21
169.8732901485148545
 31
0.0
  0
LINE
  5
248
100
AcDbEntity
  8
Layer 1
 62
256
370
-1
 48
1.0
  6
BYLAYER
100
AcDbLine
 10
314.7833568217822062
 20
169.8732901485148545
 30
0.0
 11
314.5157908217822182
 21
169.4764211485148451
 31
0.0
  0
LINE
  5
249
100
AcDbEntity
  8
Layer 1
 62
256
370
-1
 48
1.0
  6
BYLAYER
100
AcDbLine
 10
314.5157908217822182
 20
169.4764211485148451
 30
0.0
 11
314.4176578217821998
 21
168.9906851485148422
 31
0.0
  0
LINE
  5
24A
100
AcDbEntity
  8
Layer 1
 62
256
370
-1
 48
1.0
  6
BYLAYER
100
AcDbLine
 10
314.4176578217821998
 20
168.9906851485148422
 30
0.0
 11
314.5157908217822182
 21
168.5049491485148678
 31
0.0
  0
LINE
  5
24B
100
AcDbEntity
  8
Layer 1
 62
256
370
-1
 48
1.0
  6
BYLAYER
100
AcDbLine
 10
314.5157908217822182
 20
168.5049491485148678
 30
0.0
 11
314.7833568217822062
 21
168.1080791485148325
 31
0.0
  0
LINE
  5
24C
100
AcDbEntity
  8
Layer 1
 62
256
370
-1
 48
1.0
  6
BYLAYER
100
AcDbLine
 10
314.7833568217822062
 20
168.1080791485148325
 30
0.0
 11
315.180105821782206
 21
167.8403931485148632
 31
0.0
  0
LINE
  5
24D
100
AcDbEntity
  8
Layer 1
 62
256
370
-1
 48
1.0
  6
BYLAYER
100
AcDbLine
 10
315.180105821782206
 20
167.8403931485148632
 30
0.0
 11
315.6657878217822031
 21
167.74220514851487
 31
0.0
  0
LINE
  5
24E
100
AcDbEntity
  8
Layer 1
 62
256
370
-1
 48
1.0
  6
BYLAYER
100
AcDbLine
 10
315.6657878217822031
 20
167.74220514851487
 30
0.0
 11
316.1515238217822343
 21
167.8403931485148632
 31
0.0
  0
LINE
  5
24F
100
AcDbEntity
  8
Layer 1
 62
256
370
-1
 48
1.0
  6
BYLAYER
100
AcDbLine
 10
316.1515238217822343
 20
167.8403931485148632
 30
0.0
 11
316.5483938217822129
 21
168.1080791485148325
 31
0.0
  0
LINE
  5
250
100
AcDbEntity
  8
Layer 1
 62
256
370
-1
 48
1.0
  6
BYLAYER
100
AcDbLine
 10
316.5483938217822129
 20
168.1080791485148325
 30
0.0
 11
316.8160798217821821
 21
168.5049491485148678
 31
0.0
  0
LINE
  5
251
100
AcDbEntity
  8
Layer 1
 62
256
370
-1
 48
1.0
  6
BYLAYER
100
AcDbLine
 10
316.8160798217821821
 20
168.5049491485148678
 30
0.0
 11
316.9142678217822322
 21
168.9906851485148422
 31
0.0
  0
LINE
  5
252
100
AcDbEntity
  8
Layer 1
 62
256
370
-1
 48
1.0
  6
BYLAYER
100
AcDbLine
 10
316.9142678217822322
 20
168.9906851485148422
 30
0.0
 11
316.9142678217822322
 21
168.9906851485148422
 31
0.0
  0
LINE
  5
253
100
AcDbEntity
  8
Layer 1
 62
256
370
-1
 48
1.0
  6
BYLAYER
100
AcDbLine
 10
326.9142678217822322
 20
169.0066851485148618
 30
0.0
 11
326.8160798217821821
 21
169.4924211485148362
 31
0.0
  0
LINE
  5
254
100
AcDbEntity
  8
Layer 1
 62
256
370
-1
 48
1.0
  6
BYLAYER
100
AcDbLine
 10
326.8160798217821821
 20
169.4924211485148362
 30
0.0
 11
326.5483938217822129
 21
169.8892911485148431
 31
0.0
  0
LINE
  5
255
100
AcDbEntity
  8
Layer 1
 62
256
370
-1
 48
1.0
  6
BYLAYER
100
AcDbLine
 10
326.5483938217822129
 20
169.8892911485148431
 30
0.0
 11
326.1515238217822343
 21
170.1569771485148408
 31
0.0
  0
LINE
  5
256
100
AcDbEntity
  8
Layer 1
 62
256
370
-1
 48
1.0
  6
BYLAYER
100
AcDbLine
 10
326.1515238217822343
 20
170.1569771485148408
 30
0.0
 11
325.6657878217822031
 21
170.2551651485148341
 31
0.0
  0
LINE
  5
257
100
AcDbEntity
  8
Layer 1
 62
256
370
-1
 48
1.0
  6
BYLAYER
100
AcDbLine
 10
325.6657878217822031
 20
170.2551651485148341
 30
0.0
 11
325.180105821782206
 21
170.1569771485148408
 31
0.0
  0
LINE
  5
258
100
AcDbEntity
  8
Layer 1
 62
256
370
-1
 48
1.0
  6
BYLAYER
100
AcDbLine
 10
325.180105821782206
 20
170.1569771485148408
 30
0.0
 11
324.7833568217822062
 21
169.8892901485148457
 31
0.0
  0
LINE
  5
259
100
AcDbEntity
  8
Layer 1
 62
256
370
-1
 48
1.0
  6
BYLAYER
100
AcDbLine
 10
324.7833568217822062
 20
169.8892901485148457
 30
0.0
 11
324.5157908217822182
 21
169.4924211485148362
 31
0.0
  0
LINE
  5
25A
100
AcDbEntity
  8
Layer 1
 62
256
370
-1
 48
1.0
  6
BYLAYER
100
AcDbLine
 10
324.5157908217822182
 20
169.4924211485148362
 30
0.0
 11
324.4176578217821998
 21
169.0066851485148618
 31
0.0
  0
LINE
  5
25B
100
AcDbEntity
  8
Layer 1
 62
256
370
-1
 48
1.0
  6
BYLAYER
100
AcDbLine
 10
324.4176578217821998
 20
169.0066851485148618
 30
0.0
 11
324.5157908217822182
 21
168.5209491485148305
 31
0.0
  0
LINE
  5
25C
100
AcDbEntity
  8
Layer 1
 62
256
370
-1
 48
1.0
  6
BYLAYER
100
AcDbLine
 10
324.5157908217822182
 20
168.5209491485148305
 30
0.0
 11
324.7833568217822062
 21
168.124079148514852
 31
0.0
  0
LINE
  5
25D
100
AcDbEntity
  8
Layer 1
 62
256
370
-1
 48
1.0
  6
BYLAYER
100
AcDbLine
 10
324.7833568217822062
 20
168.124079148514852
 30
0.0
 11
325.180105821782206
 21
167.8563931485148544
 31
0.0
  0
LINE
  5
25E
100
AcDbEntity
  8
Layer 1
 62
256
370
-1
 48
1.0
  6
BYLAYER
100
AcDbLine
 10
325.180105821782206
 20
167.8563931485148544
 30
0.0
 11
325.6657878217822031
 21
167.7582051485148327
 31
0.0
  0
LINE
  5
25F
100
AcDbEntity
  8
Layer 1
 62
256
370
-1
 48
1.0
  6
BYLAYER
100
AcDbLine
 10
325.6657878217822031
 20
167.7582051485148327
 30
0.0
 11
326.1515238217822343
 21
167.8563931485148544
 31
0.0
  0
LINE
  5
260
100
AcDbEntity
  8
Layer 1
 62
256
370
-1
 48
1.0
  6
BYLAYER
100
AcDbLine
 10
326.1515238217822343
 20
167.8563931485148544
 30
0.0
 11
326.5483938217822129
 21
168.124079148514852
 31
0.0
  0
LINE
  5
261
100
AcDbEntity
  8
Layer 1
 62
256
370
-1
 48
1.0
  6
BYLAYER
100
AcDbLine
 10
326.5483938217822129
 20
168.124079148514852
 30
0.0
 11
326.8160798217821821
 21
168.5209491485148305
 31
0.0
  0
LINE
  5
262
100
AcDbEntity
  8
Layer 1
 62
256
370
-1
 48
1.0
  6
BYLAYER
100
AcDbLine
 10
326.8160798217821821
 20
168.5209491485148305
 30
0.0
 11
326.9142678217822322
 21
169.0066851485148618
 31
0.0
  0
LINE
  5
263
100
AcDbEntity
  8
Layer 1
 62
256
370
-1
 48
1.0
  6
BYLAYER
100
AcDbLine
 10
326.9142678217822322
 20
169.0066851485148618
 30
0.0
 11
326.9142678217822322
 21
169.0066851485148618
 31
0.0
  0
LINE
  5
264
100
AcDbEntity
  8
Layer 1
 62
256
370
-1
 48
1.0
  6
BYLAYER
100
AcDbLine
 10
31.6478000000000002
 20
156.4190000000000111
 30
0.0
 11
51.7541999999999973
 21
156.4211999999999989
 31
0.0
  0
LINE
  5
265
100
AcDbEntity
  8
Layer 1
 62
256
370
-1
 48
1.0
  6
BYLAYER
100
AcDbLine
 10
51.7541999999999973
 20
156.4211999999999989
 30
0.0
 11
51.7539349999999985
 21
158.9183500000000038
 31
0.0
  0
LINE
  5
266
100
AcDbEntity
  8
Layer 1
 62
256
370
-1
 48
1.0
  6
BYLAYER
100
AcDbLine
 10
51.7539349999999985
 20
158.9183500000000038
 30
0.0
 11
70.7534349999999961
 21
158.9205499999999915
 31
0.0
  0
LINE
  5
267
100
AcDbEntity
  8
Layer 1
 62
256
370
-1
 48
1.0
  6
BYLAYER
100
AcDbLine
 10
70.7534349999999961
 20
158.9205499999999915
 30
0.0
 11
70.7531699999999972
 21
161.42025000000001
 31
0.0
  0
LINE
  5
268
100
AcDbEntity
  8
Layer 1
 62
256
370
-1
 48
1.0
  6
BYLAYER
100
AcDbLine
 10
70.7531699999999972
 20
161.42025000000001
 30
0.0
 11
88.754099999999994
 21
161.4199999999999875
 31
0.0
  0
LINE
  5
269
100
AcDbEntity
  8
Layer 1
 62
256
370
-1
 48
1.0
  6
BYLAYER
100
AcDbLine
 10
88.754099999999994
 20
161.4199999999999875
 30
0.0
 11
88.754099999999994
 21
158.9180000000000064
 31
0.0
  0
LINE
  5
26A
100
AcDbEntity
  8
Layer 1
 62
256
370
-1
 48
1.0
  6
BYLAYER
100
AcDbLine
 10
88.754099999999994
 20
158.9180000000000064
 30
0.0
 11
107.7530000000000001
 21
158.9180000000000064
 31
0.0
  0
LINE
  5
26B
100
AcDbEntity
  8
Layer 1
 62
256
370
-1
 48
1.0
  6
BYLAYER
100
AcDbLine
 10
107.7530000000000001
 20
158.9180000000000064
 30
0.0
 11
107.7531500000000051
 21
149.9184799999999882
 31
0.0
  0
LINE
  5
26C
100
AcDbEntity
  8
Layer 1
 62
256
370
-1
 48
1.0
  6
BYLAYER
100
AcDbLine
 10
107.7531500000000051
 20
149.9184799999999882
 30
0.0
 11
145.7539999999999907
 21
149.9190000000000111
 31
0.0
  0
LINE
  5
26D
100
AcDbEntity
  8
Layer 1
 62
256
370
-1
 48
1.0
  6
BYLAYER
100
AcDbLine
 10
145.7539999999999907
 20
149.9190000000000111
 30
0.0
 11
145.7539999999999907
 21
73.9194999999999993
 31
0.0
  0
LINE
  5
26E
100
AcDbEntity
  8
Layer 1
 62
256
370
-1
 48
1.0
  6
BYLAYER
100
AcDbLine
 10
145.7539999999999907
 20
73.9194999999999993
 30
0.0
 11
107.7531000000000034
 21
63.9195199999999986
 31
0.0
  0
LINE
  5
26F
100
AcDbEntity
  8
Layer 1
 62
256
370
-1
 48
1.0
  6
BYLAYER
100
AcDbLine
 10
107.7531000000000034
 20
63.9195199999999986
 30
0.0
 11
51.2533999999999992
 21
63.9194999999999993
 31
0.0
  0
LINE
  5
270
100
AcDbEntity
  8
Layer 1
 62
256
370
-1
 48
1.0
  6
BYLAYER
100
AcDbLine
 10
51.2533999999999992
 20
63.9194999999999993
 30
0.0
 11
33.7528000000000006
 21
55.9185000000000016
 31
0.0
  0
LINE
  5
271
100
AcDbEntity
  8
Layer 1
 62
256
370
-1
 48
1.0
  6
BYLAYER
100
AcDbLine
 10
33.7528000000000006
 20
55.9185000000000016
 30
0.0
 11
16.7530999999999999
 21
45.9211699999999965
 31
0.0
  0
LINE
  5
272
100
AcDbEntity
  8
Layer 1
 62
256
370
-1
 48
1.0
  6
BYLAYER
100
AcDbLine
 10
16.7530999999999999
 20
45.9211699999999965
 30
0.0
 11
2.2548400000000002
 21
70.9197999999999951
 31
0.0
  0
LINE
  5
273
100
AcDbEntity
  8
Layer 1
 62
256
370
-1
 48
1.0
  6
BYLAYER
100
AcDbLine
 10
2.2548400000000002
 20
70.9197999999999951
 30
0.0
 11
10.7536000000000005
 21
75.9210000000000065
 31
0.0
  0
LINE
  5
274
100
AcDbEntity
  8
Layer 1
 62
256
370
-1
 48
1.0
  6
BYLAYER
100
AcDbLine
 10
10.7536000000000005
 20
75.9210000000000065
 30
0.0
 11
10.7530999999999999
 21
98.9663000000000039
 31
0.0
  0
LINE
  5
275
100
AcDbEntity
  8
Layer 1
 62
256
370
-1
 48
1.0
  6
BYLAYER
100
AcDbLine
 10
10.7530999999999999
 20
98.9663000000000039
 30
0.0
 11
31.6524000000000001
 21
98.9663000000000039
 31
0.0
  0
LINE
  5
276
100
AcDbEntity
  8
Layer 1
 62
256
370
-1
 48
1.0
  6
BYLAYER
100
AcDbLine
 10
-310.1112678260701614
 20
224.1255195874062451
 30
0.0
 11
-289.2119678260701221
 21
224.1255195874062451
 31
0.0
  0
LINE
  5
277
100
AcDbEntity
  8
Layer 1
 62
256
370
-1
 48
1.0
  6
BYLAYER
100
AcDbLine
 10
31.6524000000000001
 20
98.9663000000000039
 30
0.0
 11
31.6478000000000002
 21
156.4190000000000111
 31
0.0
  0
LINE
  5
278
100
AcDbEntity
  8
Layer 1
 62
256
370
-1
 48
1.0
  6
BYLAYER
100
AcDbLine
 10
-289.2119678260701221
 20
224.1255195874062451
 30
0.0
 11
-289.2165678260701611
 21
281.5782195874062381
 31
0.0
  0
LINE
  5
279
100
AcDbEntity
  8
Layer 1
 62
256
370
-1
 48
1.0
  6
BYLAYER
100
AcDbLine
 10
34.5253999999999976
 20
153.9720000000000084
 30
0.0
 11
48.523299999999999
 21
153.9720000000000084
 31
0.0
  0
LINE
  5
27A
100
AcDbEntity
  8
Layer 1
 62
256
370
-1
 48
1.0
  6
BYLAYER
100
AcDbLine
 10
48.523299999999999
 20
153.9720000000000084
 30
0.0
 11
48.523299999999999
 21
139.9720000000000084
 31
0.0
  0
LINE
  5
27B
100
AcDbEntity
  8
Layer 1
 62
256
370
-1
 48
1.0
  6
BYLAYER
100
AcDbLine
 10
48.523299999999999
 20
139.9720000000000084
 30
0.0
 11
34.5253999999999976
 21
139.9720000000000084
 31
0.0
  0
LINE
  5
27C
100
AcDbEntity
  8
Layer 1
 62
256
370
-1
 48
1.0
  6
BYLAYER
100
AcDbLine
 10
34.5253999999999976
 20
139.9720000000000084
 30
0.0
 11
34.5253999999999976
 21
153.9720000000000084
 31
0.0
  0
LINE
  5
27D
100
AcDbEntity
  8
Layer 1
 62
256
370
-1
 48
1.0
  6
BYLAYER
100
AcDbLine
 10
53.5270999999999972
 20
156.4720000000000084
 30
0.0
 11
67.5249000000000024
 21
156.4720000000000084
 31
0.0
  0
LINE
  5
27E
100
AcDbEntity
  8
Layer 1
 62
256
370
-1
 48
1.0
  6
BYLAYER
100
AcDbLine
 10
67.5249000000000024
 20
156.4720000000000084
 30
0.0
 11
67.5249000000000024
 21
142.4710000000000036
 31
0.0
  0
LINE
  5
27F
100
AcDbEntity
  8
Layer 1
 62
256
370
-1
 48
1.0
  6
BYLAYER
100
AcDbLine
 10
67.5249000000000024
 20
142.4710000000000036
 30
0.0
 11
53.5270999999999972
 21
142.4710000000000036
 31
0.0
  0
LINE
  5
280
100
AcDbEntity
  8
Layer 1
 62
256
370
-1
 48
1.0
  6
BYLAYER
100
AcDbLine
 10
53.5270999999999972
 20
142.4710000000000036
 30
0.0
 11
53.5270999999999972
 21
156.4720000000000084
 31
0.0
  0
LINE
  5
281
100
AcDbEntity
  8
Layer 1
 62
256
370
-1
 48
1.0
  6
BYLAYER
100
AcDbLine
 10
72.5236000000000018
 20
158.9610000000000127
 30
0.0
 11
86.5215000000000032
 21
158.9610000000000127
 31
0.0
  0
LINE
  5
282
100
AcDbEntity
  8
Layer 1
 62
256
370
-1
 48
1.0
  6
BYLAYER
100
AcDbLine
 10
86.5215000000000032
 20
158.9610000000000127
 30
0.0
 11
86.5215000000000032
 21
144.960000000000008
 31
0.0
  0
LINE
  5
283
100
AcDbEntity
  8
Layer 1
 62
256
370
-1
 48
1.0
  6
BYLAYER
100
AcDbLine
 10
86.5215000000000032
 20
144.960000000000008
 30
0.0
 11
72.5236000000000018
 21
144.960000000000008
 31
0.0
  0
LINE
  5
284
100
AcDbEntity
  8
Layer 1
 62
256
370
-1
 48
1.0
  6
BYLAYER
100
AcDbLine
 10
72.5236000000000018
 20
144.960000000000008
 30
0.0
 11
72.5236000000000018
 21
158.9610000000000127
 31
0.0
  0
LINE
  5
285
100
AcDbEntity
  8
Layer 1
 62
256
370
-1
 48
1.0
  6
BYLAYER
100
AcDbLine
 10
91.5228000000000037
 20
156.4720000000000084
 30
0.0
 11
105.5210000000000008
 21
156.4720000000000084
 31
0.0
  0
LINE
  5
286
100
AcDbEntity
  8
Layer 1
 62
256
370
-1
 48
1.0
  6
BYLAYER
100
AcDbLine
 10
105.5210000000000008
 20
156.4720000000000084
 30
0.0
 11
105.5210000000000008
 21
142.4710000000000036
 31
0.0
  0
LINE
  5
287
100
AcDbEntity
  8
Layer 1
 62
256
370
-1
 48
1.0
  6
BYLAYER
100
AcDbLine
 10
105.5210000000000008
 20
142.4710000000000036
 30
0.0
 11
91.5228000000000037
 21
142.4710000000000036
 31
0.0
  0
LINE
  5
288
100
AcDbEntity
  8
Layer 1
 62
256
370
-1
 48
1.0
  6
BYLAYER
100
AcDbLine
 10
91.5228000000000037
 20
142.4710000000000036
 30
0.0
 11
91.5228000000000037
 21
156.4720000000000084
 31
0.0
  0
LINE
  5
289
100
AcDbEntity
  8
Layer 1
 62
256
370
-1
 48
1.0
  6
BYLAYER
100
AcDbLine
 10
110.527000000000001
 20
147.4730000000000132
 30
0.0
 11
124.5250000000000057
 21
147.4730000000000132
 31
0.0
  0
LINE
  5
28A
100
AcDbEntity
  8
Layer 1
 62
256
370
-1
 48
1.0
  6
BYLAYER
100
AcDbLine
 10
124.5250000000000057
 20
147.4730000000000132
 30
0.0
 11
124.5250000000000057
 21
133.4720000000000084
 31
0.0
  0
LINE
  5
28B
100
AcDbEntity
  8
Layer 1
 62
256
370
-1
 48
1.0
  6
BYLAYER
100
AcDbLine
 10
124.5250000000000057
 20
133.4720000000000084
 30
0.0
 11
110.527000000000001
 21
133.4720000000000084
 31
0.0
  0
LINE
  5
28C
100
AcDbEntity
  8
Layer 1
 62
256
370
-1
 48
1.0
  6
BYLAYER
100
AcDbLine
 10
110.527000000000001
 20
133.4720000000000084
 30
0.0
 11
110.527000000000001
 21
147.4730000000000132
 31
0.0
  0
LINE
  5
28D
100
AcDbEntity
  8
Layer 1
 62
256
370
-1
 48
1.0
  6
BYLAYER
100
AcDbLine
 10
129.5240000000000009
 20
147.4730000000000132
 30
0.0
 11
143.5209999999999866
 21
147.4730000000000132
 31
0.0
  0
LINE
  5
28E
100
AcDbEntity
  8
Layer 1
 62
256
370
-1
 48
1.0
  6
BYLAYER
100
AcDbLine
 10
143.5209999999999866
 20
147.4730000000000132
 30
0.0
 11
143.5209999999999866
 21
133.4720000000000084
 31
0.0
  0
LINE
  5
28F
100
AcDbEntity
  8
Layer 1
 62
256
370
-1
 48
1.0
  6
BYLAYER
100
AcDbLine
 10
143.5209999999999866
 20
133.4720000000000084
 30
0.0
 11
129.5240000000000009
 21
133.4720000000000084
 31
0.0
  0
LINE
  5
290
100
AcDbEntity
  8
Layer 1
 62
256
370
-1
 48
1.0
  6
BYLAYER
100
AcDbLine
 10
129.5240000000000009
 20
133.4720000000000084
 30
0.0
 11
129.5240000000000009
 21
147.4730000000000132
 31
0.0
  0
LINE
  5
291
100
AcDbEntity
  8
Layer 1
 62
256
370
-1
 48
1.0
  6
BYLAYER
100
AcDbLine
 10
129.5240000000000009
 20
128.5720000000000027
 30
0.0
 11
143.5209999999999866
 21
128.5720000000000027
 31
0.0
  0
LINE
  5
292
100
AcDbEntity
  8
Layer 1
 62
256
370
-1
 48
1.0
  6
BYLAYER
100
AcDbLine
 10
143.5209999999999866
 20
128.5720000000000027
 30
0.0
 11
143.5209999999999866
 21
114.5720000000000027
 31
0.0
  0
LINE
  5
293
100
AcDbEntity
  8
Layer 1
 62
256
370
-1
 48
1.0
  6
BYLAYER
100
AcDbLine
 10
143.5209999999999866
 20
114.5720000000000027
 30
0.0
 11
129.5240000000000009
 21
114.5720000000000027
 31
0.0
  0
LINE
  5
294
100
AcDbEntity
  8
Layer 1
 62
256
370
-1
 48
1.0
  6
BYLAYER
100
AcDbLine
 10
129.5240000000000009
 20
114.5720000000000027
 30
0.0
 11
129.5240000000000009
 21
128.5720000000000027
 31
0.0
  0
LINE
  5
295
100
AcDbEntity
  8
Layer 1
 62
256
370
-1
 48
1.0
  6
BYLAYER
100
AcDbLine
 10
110.5240000000000009
 20
128.5720000000000027
 30
0.0
 11
124.5220000000000056
 21
128.5720000000000027
 31
0.0
  0
LINE
  5
296
100
AcDbEntity
  8
Layer 1
 62
256
370
-1
 48
1.0
  6
BYLAYER
100
AcDbLine
 10
124.5220000000000056
 20
128.5720000000000027
 30
0.0
 11
124.5220000000000056
 21
114.5720000000000027
 31
0.0
  0
LINE
  5
297
100
AcDbEntity
  8
Layer 1
 62
256
370
-1
 48
1.0
  6
BYLAYER
100
AcDbLine
 10
124.5220000000000056
 20
114.5720000000000027
 30
0.0
 11
110.5240000000000009
 21
114.5720000000000027
 31
0.0
  0
LINE
  5
298
100
AcDbEntity
  8
Layer 1
 62
256
370
-1
 48
1.0
  6
BYLAYER
100
AcDbLine
 10
110.5240000000000009
 20
114.5720000000000027
 30
0.0
 11
110.5240000000000009
 21
128.5720000000000027
 31
0.0
  0
LINE
  5
299
100
AcDbEntity
  8
Layer 1
 62
256
370
-1
 48
1.0
  6
BYLAYER
100
AcDbLine
 10
129.5240000000000009
 20
109.3730000000000047
 30
0.0
 11
143.5209999999999866
 21
109.3730000000000047
 31
0.0
  0
LINE
  5
29A
100
AcDbEntity
  8
Layer 1
 62
256
370
-1
 48
1.0
  6
BYLAYER
100
AcDbLine
 10
143.5209999999999866
 20
109.3730000000000047
 30
0.0
 11
143.5209999999999866
 21
95.3722000000000065
 31
0.0
  0
LINE
  5
29B
100
AcDbEntity
  8
Layer 1
 62
256
370
-1
 48
1.0
  6
BYLAYER
100
AcDbLine
 10
143.5209999999999866
 20
95.3722000000000065
 30
0.0
 11
129.5240000000000009
 21
95.3722000000000065
 31
0.0
  0
LINE
  5
29C
100
AcDbEntity
  8
Layer 1
 62
256
370
-1
 48
1.0
  6
BYLAYER
100
AcDbLine
 10
129.5240000000000009
 20
95.3722000000000065
 30
0.0
 11
129.5240000000000009
 21
109.3730000000000047
 31
0.0
  0
LINE
  5
29D
100
AcDbEntity
  8
Layer 1
 62
256
370
-1
 48
1.0
  6
BYLAYER
100
AcDbLine
 10
110.5240000000000009
 20
109.3730000000000047
 30
0.0
 11
124.5220000000000056
 21
109.3730000000000047
 31
0.0
  0
LINE
  5
29E
100
AcDbEntity
  8
Layer 1
 62
256
370
-1
 48
1.0
  6
BYLAYER
100
AcDbLine
 10
124.5220000000000056
 20
109.3730000000000047
 30
0.0
 11
124.5220000000000056
 21
95.3722000000000065
 31
0.0
  0
LINE
  5
29F
100
AcDbEntity
  8
Layer 1
 62
256
370
-1
 48
1.0
  6
BYLAYER
100
AcDbLine
 10
124.5220000000000056
 20
95.3722000000000065
 30
0.0
 11
110.5240000000000009
 21
95.3722000000000065
 31
0.0
  0
LINE
  5
2A0
100
AcDbEntity
  8
Layer 1
 62
256
370
-1
 48
1.0
  6
BYLAYER
100
AcDbLine
 10
110.5240000000000009
 20
95.3722000000000065
 30
0.0
 11
110.5240000000000009
 21
109.3730000000000047
 31
0.0
  0
LINE
  5
2A1
100
AcDbEntity
  8
Layer 1
 62
256
370
-1
 48
1.0
  6
BYLAYER
100
AcDbLine
 10
129.5740000000000123
 20
90.3709999999999951
 30
0.0
 11
143.5720000000000027
 21
90.3709999999999951
 31
0.0
  0
LINE
  5
2A2
100
AcDbEntity
  8
Layer 1
 62
256
370
-1
 48
1.0
  6
BYLAYER
100
AcDbLine
 10
143.5720000000000027
 20
90.3709999999999951
 30
0.0
 11
143.5720000000000027
 21
76.370599999999996
 31
0.0
  0
LINE
  5
2A3
100
AcDbEntity
  8
Layer 1
 62
256
370
-1
 48
1.0
  6
BYLAYER
100
AcDbLine
 10
143.5720000000000027
 20
76.370599999999996
 30
0.0
 11
129.5740000000000123
 21
76.370599999999996
 31
0.0
  0
LINE
  5
2A4
100
AcDbEntity
  8
Layer 1
 62
256
370
-1
 48
1.0
  6
BYLAYER
100
AcDbLine
 10
129.5740000000000123
 20
76.370599999999996
 30
0.0
 11
129.5740000000000123
 21
90.3709999999999951
 31
0.0
  0
LINE
  5
2A5
100
AcDbEntity
  8
Layer 1
 62
256
370
-1
 48
1.0
  6
BYLAYER
100
AcDbLine
 10
110.5240000000000009
 20
90.3709999999999951
 30
0.0
 11
124.5220000000000056
 21
90.3709999999999951
 31
0.0
  0
LINE
  5
2A6
100
AcDbEntity
  8
Layer 1
 62
256
370
-1
 48
1.0
  6
BYLAYER
100
AcDbLine
 10
124.5220000000000056
 20
90.3709999999999951
 30
0.0
 11
124.5220000000000056
 21
76.370599999999996
 31
0.0
  0
LINE
  5
2A7
100
AcDbEntity
  8
Layer 1
 62
256
370
-1
 48
1.0
  6
BYLAYER
100
AcDbLine
 10
124.5220000000000056
 20
76.370599999999996
 30
0.0
 11
110.5240000000000009
 21
76.370599999999996
 31
0.0
  0
LINE
  5
2A8
100
AcDbEntity
  8
Layer 1
 62
256
370
-1
 48
1.0
  6
BYLAYER
100
AcDbLine
 10
110.5240000000000009
 20
76.370599999999996
 30
0.0
 11
110.5240000000000009
 21
90.3709999999999951
 31
0.0
  0
LINE
  5
2A9
100
AcDbEntity
  8
Layer 1
 62
256
370
-1
 48
1.0
  6
BYLAYER
100
AcDbLine
 10
91.5228000000000037
 20
80.2720000000000056
 30
0.0
 11
105.5210000000000008
 21
80.2720000000000056
 31
0.0
  0
LINE
  5
2AA
100
AcDbEntity
  8
Layer 1
 62
256
370
-1
 48
1.0
  6
BYLAYER
100
AcDbLine
 10
105.5210000000000008
 20
80.2720000000000056
 30
0.0
 11
105.5210000000000008
 21
66.2716000000000065
 31
0.0
  0
LINE
  5
2AB
100
AcDbEntity
  8
Layer 1
 62
256
370
-1
 48
1.0
  6
BYLAYER
100
AcDbLine
 10
105.5210000000000008
 20
66.2716000000000065
 30
0.0
 11
91.5228000000000037
 21
66.2716000000000065
 31
0.0
  0
LINE
  5
2AC
100
AcDbEntity
  8
Layer 1
 62
256
370
-1
 48
1.0
  6
BYLAYER
100
AcDbLine
 10
91.5228000000000037
 20
66.2716000000000065
 30
0.0
 11
91.5228000000000037
 21
80.2720000000000056
 31
0.0
  0
LINE
  5
2AD
100
AcDbEntity
  8
Layer 1
 62
256
370
-1
 48
1.0
  6
BYLAYER
100
AcDbLine
 10
91.5228000000000037
 20
99.2711000000000041
 30
0.0
 11
105.5210000000000008
 21
99.2711000000000041
 31
0.0
  0
LINE
  5
2AE
100
AcDbEntity
  8
Layer 1
 62
256
370
-1
 48
1.0
  6
BYLAYER
100
AcDbLine
 10
105.5210000000000008
 20
99.2711000000000041
 30
0.0
 11
105.5210000000000008
 21
85.270700000000005
 31
0.0
  0
LINE
  5
2AF
100
AcDbEntity
  8
Layer 1
 62
256
370
-1
 48
1.0
  6
BYLAYER
100
AcDbLine
 10
105.5210000000000008
 20
85.270700000000005
 30
0.0
 11
91.5228000000000037
 21
85.270700000000005
 31
0.0
  0
LINE
  5
2B0
100
AcDbEntity
  8
Layer 1
 62
256
370
-1
 48
1.0
  6
BYLAYER
100
AcDbLine
 10
91.5228000000000037
 20
85.270700000000005
 30
0.0
 11
91.5228000000000037
 21
99.2711000000000041
 31
0.0
  0
LINE
  5
2B1
100
AcDbEntity
  8
Layer 1
 62
256
370
-1
 48
1.0
  6
BYLAYER
100
AcDbLine
 10
72.5236000000000018
 20
101.7729999999999961
 30
0.0
 11
86.5215000000000032
 21
101.7729999999999961
 31
0.0
  0
LINE
  5
2B2
100
AcDbEntity
  8
Layer 1
 62
256
370
-1
 48
1.0
  6
BYLAYER
100
AcDbLine
 10
86.5215000000000032
 20
101.7729999999999961
 30
0.0
 11
86.5215000000000032
 21
87.7725999999999971
 31
0.0
  0
LINE
  5
2B3
100
AcDbEntity
  8
Layer 1
 62
256
370
-1
 48
1.0
  6
BYLAYER
100
AcDbLine
 10
86.5215000000000032
 20
87.7725999999999971
 30
0.0
 11
72.5236000000000018
 21
87.7725999999999971
 31
0.0
  0
LINE
  5
2B4
100
AcDbEntity
  8
Layer 1
 62
256
370
-1
 48
1.0
  6
BYLAYER
100
AcDbLine
 10
72.5236000000000018
 20
87.7725999999999971
 30
0.0
 11
72.5236000000000018
 21
101.7729999999999961
 31
0.0
  0
LINE
  5
2B5
100
AcDbEntity
  8
Layer 1
 62
256
370
-1
 48
1.0
  6
BYLAYER
100
AcDbLine
 10
72.5236000000000018
 20
82.7713999999999999
 30
0.0
 11
86.5215000000000032
 21
82.7713999999999999
 31
0.0
  0
LINE
  5
2B6
100
AcDbEntity
  8
Layer 1
 62
256
370
-1
 48
1.0
  6
BYLAYER
100
AcDbLine
 10
86.5215000000000032
 20
82.7713999999999999
 30
0.0
 11
86.5215000000000032
 21
68.7708999999999975
 31
0.0
  0
LINE
  5
2B7
100
AcDbEntity
  8
Layer 1
 62
256
370
-1
 48
1.0
  6
BYLAYER
100
AcDbLine
 10
86.5215000000000032
 20
68.7708999999999975
 30
0.0
 11
72.5236000000000018
 21
68.7708999999999975
 31
0.0
  0
LINE
  5
2B8
100
AcDbEntity
  8
Layer 1
 62
256
370
-1
 48
1.0
  6
BYLAYER
100
AcDbLine
 10
72.5236000000000018
 20
68.7708999999999975
 30
0.0
 11
72.5236000000000018
 21
82.7713999999999999
 31
0.0
  0
LINE
  5
2B9
100
AcDbEntity
  8
Layer 1
 62
256
370
-1
 48
1.0
  6
BYLAYER
100
AcDbLine
 10
53.5245000000000033
 20
99.2711000000000041
 30
0.0
 11
67.5224000000000046
 21
99.2711000000000041
 31
0.0
  0
LINE
  5
2BA
100
AcDbEntity
  8
Layer 1
 62
256
370
-1
 48
1.0
  6
BYLAYER
100
AcDbLine
 10
67.5224000000000046
 20
99.2711000000000041
 30
0.0
 11
67.5224000000000046
 21
85.270700000000005
 31
0.0
  0
LINE
  5
2BB
100
AcDbEntity
  8
Layer 1
 62
256
370
-1
 48
1.0
  6
BYLAYER
100
AcDbLine
 10
67.5224000000000046
 20
85.270700000000005
 30
0.0
 11
53.5245000000000033
 21
85.270700000000005
 31
0.0
  0
LINE
  5
2BC
100
AcDbEntity
  8
Layer 1
 62
256
370
-1
 48
1.0
  6
BYLAYER
100
AcDbLine
 10
53.5245000000000033
 20
85.270700000000005
 30
0.0
 11
53.5245000000000033
 21
99.2711000000000041
 31
0.0
  0
LINE
  5
2BD
100
AcDbEntity
  8
Layer 1
 62
256
370
-1
 48
1.0
  6
BYLAYER
100
AcDbLine
 10
53.5245000000000033
 20
80.1728999999999985
 30
0.0
 11
67.5224000000000046
 21
80.1728999999999985
 31
0.0
  0
LINE
  5
2BE
100
AcDbEntity
  8
Layer 1
 62
256
370
-1
 48
1.0
  6
BYLAYER
100
AcDbLine
 10
67.5224000000000046
 20
80.1728999999999985
 30
0.0
 11
67.5224000000000046
 21
66.1724999999999994
 31
0.0
  0
LINE
  5
2BF
100
AcDbEntity
  8
Layer 1
 62
256
370
-1
 48
1.0
  6
BYLAYER
100
AcDbLine
 10
67.5224000000000046
 20
66.1724999999999994
 30
0.0
 11
53.5245000000000033
 21
66.1724999999999994
 31
0.0
  0
LINE
  5
2C0
100
AcDbEntity
  8
Layer 1
 62
256
370
-1
 48
1.0
  6
BYLAYER
100
AcDbLine
 10
53.5245000000000033
 20
66.1724999999999994
 30
0.0
 11
53.5245000000000033
 21
80.1728999999999985
 31
0.0
  0
LINE
  5
2C1
100
AcDbEntity
  8
Layer 1
 62
256
370
-1
 48
1.0
  6
BYLAYER
100
AcDbLine
 10
34.5253999999999976
 20
96.8708000000000027
 30
0.0
 11
48.523299999999999
 21
96.8708000000000027
 31
0.0
  0
LINE
  5
2C2
100
AcDbEntity
  8
Layer 1
 62
256
370
-1
 48
1.0
  6
BYLAYER
100
AcDbLine
 10
48.523299999999999
 20
96.8708000000000027
 30
0.0
 11
48.523299999999999
 21
82.8704000000000036
 31
0.0
  0
LINE
  5
2C3
100
AcDbEntity
  8
Layer 1
 62
256
370
-1
 48
1.0
  6
BYLAYER
100
AcDbLine
 10
48.523299999999999
 20
82.8704000000000036
 30
0.0
 11
34.5253999999999976
 21
82.8704000000000036
 31
0.0
  0
LINE
  5
2C4
100
AcDbEntity
  8
Layer 1
 62
256
370
-1
 48
1.0
  6
BYLAYER
100
AcDbLine
 10
34.5253999999999976
 20
82.8704000000000036
 30
0.0
 11
34.5253999999999976
 21
96.8708000000000027
 31
0.0
  0
LINE
  5
2C5
100
AcDbEntity
  8
Layer 1
 62
256
370
-1
 48
1.0
  6
BYLAYER
100
AcDbLine
 10
34.5253999999999976
 20
115.8730000000000047
 30
0.0
 11
48.523299999999999
 21
115.8730000000000047
 31
0.0
  0
LINE
  5
2C6
100
AcDbEntity
  8
Layer 1
 62
256
370
-1
 48
1.0
  6
BYLAYER
100
AcDbLine
 10
48.523299999999999
 20
115.8730000000000047
 30
0.0
 11
48.523299999999999
 21
101.8719999999999999
 31
0.0
  0
LINE
  5
2C7
100
AcDbEntity
  8
Layer 1
 62
256
370
-1
 48
1.0
  6
BYLAYER
100
AcDbLine
 10
48.523299999999999
 20
101.8719999999999999
 30
0.0
 11
34.5253999999999976
 21
101.8719999999999999
 31
0.0
  0
LINE
  5
2C8
100
AcDbEntity
  8
Layer 1
 62
256
370
-1
 48
1.0
  6
BYLAYER
100
AcDbLine
 10
34.5253999999999976
 20
101.8719999999999999
 30
0.0
 11
34.5253999999999976
 21
115.8730000000000047
 31
0.0
  0
LINE
  5
2C9
100
AcDbEntity
  8
Layer 1
 62
256
370
-1
 48
1.0
  6
BYLAYER
100
AcDbLine
 10
53.5245000000000033
 20
118.3719999999999999
 30
0.0
 11
67.5224000000000046
 21
118.3719999999999999
 31
0.0
  0
LINE
  5
2CA
100
AcDbEntity
  8
Layer 1
 62
256
370
-1
 48
1.0
  6
BYLAYER
100
AcDbLine
 10
67.5224000000000046
 20
118.3719999999999999
 30
0.0
 11
67.5224000000000046
 21
104.3709999999999951
 31
0.0
  0
LINE
  5
2CB
100
AcDbEntity
  8
Layer 1
 62
256
370
-1
 48
1.0
  6
BYLAYER
100
AcDbLine
 10
67.5224000000000046
 20
104.3709999999999951
 30
0.0
 11
53.5245000000000033
 21
104.3709999999999951
 31
0.0
  0
LINE
  5
2CC
100
AcDbEntity
  8
Layer 1
 62
256
370
-1
 48
1.0
  6
BYLAYER
100
AcDbLine
 10
53.5245000000000033
 20
104.3709999999999951
 30
0.0
 11
53.5245000000000033
 21
118.3719999999999999
 31
0.0
  0
LINE
  5
2CD
100
AcDbEntity
  8
Layer 1
 62
256
370
-1
 48
1.0
  6
BYLAYER
100
AcDbLine
 10
53.5270999999999972
 20
137.3710000000000093
 30
0.0
 11
67.5249000000000024
 21
137.3710000000000093
 31
0.0
  0
LINE
  5
2CE
100
AcDbEntity
  8
Layer 1
 62
256
370
-1
 48
1.0
  6
BYLAYER
100
AcDbLine
 10
67.5249000000000024
 20
137.3710000000000093
 30
0.0
 11
67.5249000000000024
 21
123.3709999999999951
 31
0.0
  0
LINE
  5
2CF
100
AcDbEntity
  8
Layer 1
 62
256
370
-1
 48
1.0
  6
BYLAYER
100
AcDbLine
 10
67.5249000000000024
 20
123.3709999999999951
 30
0.0
 11
53.5270999999999972
 21
123.3709999999999951
 31
0.0
  0
LINE
  5
2D0
100
AcDbEntity
  8
Layer 1
 62
256
370
-1
 48
1.0
  6
BYLAYER
100
AcDbLine
 10
53.5270999999999972
 20
123.3709999999999951
 30
0.0
 11
53.5270999999999972
 21
137.3710000000000093
 31
0.0
  0
LINE
  5
2D1
100
AcDbEntity
  8
Layer 1
 62
256
370
-1
 48
1.0
  6
BYLAYER
100
AcDbLine
 10
34.5253999999999976
 20
134.8720000000000141
 30
0.0
 11
48.523299999999999
 21
134.8720000000000141
 31
0.0
  0
LINE
  5
2D2
100
AcDbEntity
  8
Layer 1
 62
256
370
-1
 48
1.0
  6
BYLAYER
100
AcDbLine
 10
48.523299999999999
 20
134.8720000000000141
 30
0.0
 11
48.523299999999999
 21
120.8709999999999951
 31
0.0
  0
LINE
  5
2D3
100
AcDbEntity
  8
Layer 1
 62
256
370
-1
 48
1.0
  6
BYLAYER
100
AcDbLine
 10
48.523299999999999
 20
120.8709999999999951
 30
0.0
 11
34.5253999999999976
 21
120.8709999999999951
 31
0.0
  0
LINE
  5
2D4
100
AcDbEntity
  8
Layer 1
 62
256
370
-1
 48
1.0
  6
BYLAYER
100
AcDbLine
 10
34.5253999999999976
 20
120.8709999999999951
 30
0.0
 11
34.5253999999999976
 21
134.8720000000000141
 31
0.0
  0
LINE
  5
2D5
100
AcDbEntity
  8
Layer 1
 62
256
370
-1
 48
1.0
  6
BYLAYER
100
AcDbLine
 10
72.5236000000000018
 20
139.8729999999999905
 30
0.0
 11
86.5215000000000032
 21
139.8729999999999905
 31
0.0
  0
LINE
  5
2D6
100
AcDbEntity
  8
Layer 1
 62
256
370
-1
 48
1.0
  6
BYLAYER
100
AcDbLine
 10
86.5215000000000032
 20
139.8729999999999905
 30
0.0
 11
86.5215000000000032
 21
125.8719999999999999
 31
0.0
  0
LINE
  5
2D7
100
AcDbEntity
  8
Layer 1
 62
256
370
-1
 48
1.0
  6
BYLAYER
100
AcDbLine
 10
86.5215000000000032
 20
125.8719999999999999
 30
0.0
 11
72.5236000000000018
 21
125.8719999999999999
 31
0.0
  0
LINE
  5
2D8
100
AcDbEntity
  8
Layer 1
 62
256
370
-1
 48
1.0
  6
BYLAYER
100
AcDbLine
 10
72.5236000000000018
 20
125.8719999999999999
 30
0.0
 11
72.5236000000000018
 21
139.8729999999999905
 31
0.0
  0
LINE
  5
2D9
100
AcDbEntity
  8
Layer 1
 62
256
370
-1
 48
1.0
  6
BYLAYER
100
AcDbLine
 10
91.5228000000000037
 20
137.4730000000000132
 30
0.0
 11
105.5210000000000008
 21
137.4730000000000132
 31
0.0
  0
LINE
  5
2DA
100
AcDbEntity
  8
Layer 1
 62
256
370
-1
 48
1.0
  6
BYLAYER
100
AcDbLine
 10
105.5210000000000008
 20
137.4730000000000132
 30
0.0
 11
105.5210000000000008
 21
123.4719999999999942
 31
0.0
  0
LINE
  5
2DB
100
AcDbEntity
  8
Layer 1
 62
256
370
-1
 48
1.0
  6
BYLAYER
100
AcDbLine
 10
105.5210000000000008
 20
123.4719999999999942
 30
0.0
 11
91.5228000000000037
 21
123.4719999999999942
 31
0.0
  0
LINE
  5
2DC
100
AcDbEntity
  8
Layer 1
 62
256
370
-1
 48
1.0
  6
BYLAYER
100
AcDbLine
 10
91.5228000000000037
 20
123.4719999999999942
 30
0.0
 11
91.5228000000000037
 21
137.4730000000000132
 31
0.0
  0
LINE
  5
2DD
100
AcDbEntity
  8
Layer 1
 62
256
370
-1
 48
1.0
  6
BYLAYER
100
AcDbLine
 10
91.5228000000000037
 20
118.3719999999999999
 30
0.0
 11
105.5210000000000008
 21
118.3719999999999999
 31
0.0
  0
LINE
  5
2DE
100
AcDbEntity
  8
Layer 1
 62
256
370
-1
 48
1.0
  6
BYLAYER
100
AcDbLine
 10
105.5210000000000008
 20
118.3719999999999999
 30
0.0
 11
105.5210000000000008
 21
104.3709999999999951
 31
0.0
  0
LINE
  5
2DF
100
AcDbEntity
  8
Layer 1
 62
256
370
-1
 48
1.0
  6
BYLAYER
100
AcDbLine
 10
105.5210000000000008
 20
104.3709999999999951
 30
0.0
 11
91.5228000000000037
 21
104.3709999999999951
 31
0.0
  0
LINE
  5
2E0
100
AcDbEntity
  8
Layer 1
 62
256
370
-1
 48
1.0
  6
BYLAYER
100
AcDbLine
 10
91.5228000000000037
 20
104.3709999999999951
 30
0.0
 11
91.5228000000000037
 21
118.3719999999999999
 31
0.0
  0
LINE
  5
2E1
100
AcDbEntity
  8
Layer 1
 62
256
370
-1
 48
1.0
  6
BYLAYER
100
AcDbLine
 10
72.5236000000000018
 20
120.7720000000000056
 30
0.0
 11
86.5215000000000032
 21
120.7720000000000056
 31
0.0
  0
LINE
  5
2E2
100
AcDbEntity
  8
Layer 1
 62
256
370
-1
 48
1.0
  6
BYLAYER
100
AcDbLine
 10
86.5215000000000032
 20
120.7720000000000056
 30
0.0
 11
86.5215000000000032
 21
106.7720000000000056
 31
0.0
  0
LINE
  5
2E3
100
AcDbEntity
  8
Layer 1
 62
256
370
-1
 48
1.0
  6
BYLAYER
100
AcDbLine
 10
86.5215000000000032
 20
106.7720000000000056
 30
0.0
 11
72.5236000000000018
 21
106.7720000000000056
 31
0.0
  0
LINE
  5
2E4
100
AcDbEntity
  8
Layer 1
 62
256
370
-1
 48
1.0
  6
BYLAYER
100
AcDbLine
 10
72.5236000000000018
 20
106.7720000000000056
 30
0.0
 11
72.5236000000000018
 21
120.7720000000000056
 31
0.0
  0
LINE
  5
2E5
100
AcDbEntity
  8
Layer 1
 62
256
370
-1
 48
1.0
  6
BYLAYER
100
AcDbLine
 10
8.1628399999999992
 20
66.1243000000000052
 30
0.0
 11
15.1631
 21
54.0009000000000015
 31
0.0
  0
LINE
  5
2E6
100
AcDbEntity
  8
Layer 1
 62
256
370
-1
 48
1.0
  6
BYLAYER
100
AcDbLine
 10
15.1631
 20
54.0009000000000015
 30
0.0
 11
27.2864000000000004
 21
61.001100000000001
 31
0.0
  0
LINE
  5
2E7
100
AcDbEntity
  8
Layer 1
 62
256
370
-1
 48
1.0
  6
BYLAYER
100
AcDbLine
 10
27.2864000000000004
 20
61.001100000000001
 30
0.0
 11
20.2862000000000009
 21
73.1244999999999976
 31
0.0
  0
LINE
  5
2E8
100
AcDbEntity
  8
Layer 1
 62
256
370
-1
 48
1.0
  6
BYLAYER
100
AcDbLine
 10
20.2862000000000009
 20
73.1244999999999976
 30
0.0
 11
8.1628399999999992
 21
66.1243000000000052
 31
0.0
  0
LINE
  5
2E9
100
AcDbEntity
  8
Layer 1
 62
256
370
-1
 48
1.0
  6
BYLAYER
100
AcDbLine
 10
29.4453999999999994
 20
72.2811999999999983
 30
0.0
 11
42.3333000000000013
 21
77.7497999999999934
 31
0.0
  0
LINE
  5
2EA
100
AcDbEntity
  8
Layer 1
 62
256
370
-1
 48
1.0
  6
BYLAYER
100
AcDbLine
 10
42.3333000000000013
 20
77.7497999999999934
 30
0.0
 11
47.8019000000000034
 21
64.8644000000000034
 31
0.0
  0
LINE
  5
2EB
100
AcDbEntity
  8
Layer 1
 62
256
370
-1
 48
1.0
  6
BYLAYER
100
AcDbLine
 10
47.8019000000000034
 20
64.8644000000000034
 30
0.0
 11
34.9164999999999992
 21
59.3932599999999979
 31
0.0
  0
LINE
  5
2EC
100
AcDbEntity
  8
Layer 1
 62
256
370
-1
 48
1.0
  6
BYLAYER
100
AcDbLine
 10
34.9164999999999992
 20
59.3932599999999979
 30
0.0
 11
29.4453999999999994
 21
72.2811999999999983
 31
0.0
  0
LINE
  5
2ED
100
AcDbEntity
  8
Layer 1
 62
256
370
-1
 48
1.0
  6
BYLAYER
100
AcDbLine
 10
12.5559999999999992
 20
96.8267000000000024
 30
0.0
 11
28.5371999999999986
 21
96.8267000000000024
 31
0.0
  0
LINE
  5
2EE
100
AcDbEntity
  8
Layer 1
 62
256
370
-1
 48
1.0
  6
BYLAYER
100
AcDbLine
 10
28.5371999999999986
 20
96.8267000000000024
 30
0.0
 11
28.5371999999999986
 21
84.2189999999999941
 31
0.0
  0
LINE
  5
2EF
100
AcDbEntity
  8
Layer 1
 62
256
370
-1
 48
1.0
  6
BYLAYER
100
AcDbLine
 10
28.5371999999999986
 20
84.2189999999999941
 30
0.0
 11
12.5207999999999995
 21
84.2189999999999941
 31
0.0
  0
LINE
  5
2F0
100
AcDbEntity
  8
Layer 1
 62
256
370
-1
 48
1.0
  6
BYLAYER
100
AcDbLine
 10
12.5207999999999995
 20
84.2189999999999941
 30
0.0
 11
12.5559999999999992
 21
96.8267000000000024
 31
0.0
  0
LINE
  5
2F1
100
AcDbEntity
  8
Layer 1
 62
256
370
-1
 48
1.0
  6
BYLAYER
100
AcDbLine
 10
127.804000000000002
 20
92.6935000000000002
 30
0.0
 11
127.7058109999999971
 21
93.1792360000000031
 31
0.0
  0
LINE
  5
2F2
100
AcDbEntity
  8
Layer 1
 62
256
370
-1
 48
1.0
  6
BYLAYER
100
AcDbLine
 10
127.7058109999999971
 20
93.1792360000000031
 30
0.0
 11
127.438124000000002
 21
93.5761059999999958
 31
0.0
  0
LINE
  5
2F3
100
AcDbEntity
  8
Layer 1
 62
256
370
-1
 48
1.0
  6
BYLAYER
100
AcDbLine
 10
127.438124000000002
 20
93.5761059999999958
 30
0.0
 11
127.041253999999995
 21
93.8437919999999934
 31
0.0
  0
LINE
  5
2F4
100
AcDbEntity
  8
Layer 1
 62
256
370
-1
 48
1.0
  6
BYLAYER
100
AcDbLine
 10
127.041253999999995
 20
93.8437919999999934
 30
0.0
 11
126.5555200000000013
 21
93.9419800000000009
 31
0.0
  0
LINE
  5
2F5
100
AcDbEntity
  8
Layer 1
 62
256
370
-1
 48
1.0
  6
BYLAYER
100
AcDbLine
 10
126.5555200000000013
 20
93.9419800000000009
 30
0.0
 11
126.0698359999999951
 21
93.8437919999999934
 31
0.0
  0
LINE
  5
2F6
100
AcDbEntity
  8
Layer 1
 62
256
370
-1
 48
1.0
  6
BYLAYER
100
AcDbLine
 10
126.0698359999999951
 20
93.8437919999999934
 30
0.0
 11
125.6730869999999953
 21
93.5761049999999983
 31
0.0
  0
LINE
  5
2F7
100
AcDbEntity
  8
Layer 1
 62
256
370
-1
 48
1.0
  6
BYLAYER
100
AcDbLine
 10
125.6730869999999953
 20
93.5761049999999983
 30
0.0
 11
125.4055230000000023
 21
93.1792360000000031
 31
0.0
  0
LINE
  5
2F8
100
AcDbEntity
  8
Layer 1
 62
256
370
-1
 48
1.0
  6
BYLAYER
100
AcDbLine
 10
125.4055230000000023
 20
93.1792360000000031
 30
0.0
 11
125.3073899999999981
 21
92.6935000000000002
 31
0.0
  0
LINE
  5
2F9
100
AcDbEntity
  8
Layer 1
 62
256
370
-1
 48
1.0
  6
BYLAYER
100
AcDbLine
 10
125.3073899999999981
 20
92.6935000000000002
 30
0.0
 11
125.4055230000000023
 21
92.2077639999999974
 31
0.0
  0
LINE
  5
2FA
100
AcDbEntity
  8
Layer 1
 62
256
370
-1
 48
1.0
  6
BYLAYER
100
AcDbLine
 10
125.4055230000000023
 20
92.2077639999999974
 30
0.0
 11
125.6730869999999953
 21
91.8108940000000047
 31
0.0
  0
LINE
  5
2FB
100
AcDbEntity
  8
Layer 1
 62
256
370
-1
 48
1.0
  6
BYLAYER
100
AcDbLine
 10
125.6730869999999953
 20
91.8108940000000047
 30
0.0
 11
126.0698359999999951
 21
91.543208000000007
 31
0.0
  0
LINE
  5
2FC
100
AcDbEntity
  8
Layer 1
 62
256
370
-1
 48
1.0
  6
BYLAYER
100
AcDbLine
 10
126.0698359999999951
 20
91.543208000000007
 30
0.0
 11
126.5555200000000013
 21
91.4450199999999995
 31
0.0
  0
LINE
  5
2FD
100
AcDbEntity
  8
Layer 1
 62
256
370
-1
 48
1.0
  6
BYLAYER
100
AcDbLine
 10
126.5555200000000013
 20
91.4450199999999995
 30
0.0
 11
127.041253999999995
 21
91.543208000000007
 31
0.0
  0
LINE
  5
2FE
100
AcDbEntity
  8
Layer 1
 62
256
370
-1
 48
1.0
  6
BYLAYER
100
AcDbLine
 10
127.041253999999995
 20
91.543208000000007
 30
0.0
 11
127.438124000000002
 21
91.8108940000000047
 31
0.0
  0
LINE
  5
2FF
100
AcDbEntity
  8
Layer 1
 62
256
370
-1
 48
1.0
  6
BYLAYER
100
AcDbLine
 10
127.438124000000002
 20
91.8108940000000047
 30
0.0
 11
127.7058109999999971
 21
92.2077639999999974
 31
0.0
  0
LINE
  5
300
100
AcDbEntity
  8
Layer 1
 62
256
370
-1
 48
1.0
  6
BYLAYER
100
AcDbLine
 10
127.7058109999999971
 20
92.2077639999999974
 30
0.0
 11
127.804000000000002
 21
92.6935000000000002
 31
0.0
  0
LINE
  5
301
100
AcDbEntity
  8
Layer 1
 62
256
370
-1
 48
1.0
  6
BYLAYER
100
AcDbLine
 10
127.804000000000002
 20
92.6935000000000002
 30
0.0
 11
127.804000000000002
 21
92.6935000000000002
 31
0.0
  0
LINE
  5
302
100
AcDbEntity
  8
Layer 1
 62
256
370
-1
 48
1.0
  6
BYLAYER
100
AcDbLine
 10
127.804000000000002
 20
130.992999999999995
 30
0.0
 11
127.7058109999999971
 21
131.4787359999999978
 31
0.0
  0
LINE
  5
303
100
AcDbEntity
  8
Layer 1
 62
256
370
-1
 48
1.0
  6
BYLAYER
100
AcDbLine
 10
127.7058109999999971
 20
131.4787359999999978
 30
0.0
 11
127.438124000000002
 21
131.8756060000000048
 31
0.0
  0
LINE
  5
304
100
AcDbEntity
  8
Layer 1
 62
256
370
-1
 48
1.0
  6
BYLAYER
100
AcDbLine
 10
127.438124000000002
 20
131.8756060000000048
 30
0.0
 11
127.041253999999995
 21
132.1432920000000024
 31
0.0
  0
LINE
  5
305
100
AcDbEntity
  8
Layer 1
 62
256
370
-1
 48
1.0
  6
BYLAYER
100
AcDbLine
 10
127.041253999999995
 20
132.1432920000000024
 30
0.0
 11
126.5555200000000013
 21
132.2414799999999957
 31
0.0
  0
LINE
  5
306
100
AcDbEntity
  8
Layer 1
 62
256
370
-1
 48
1.0
  6
BYLAYER
100
AcDbLine
 10
126.5555200000000013
 20
132.2414799999999957
 30
0.0
 11
126.0698359999999951
 21
132.1432920000000024
 31
0.0
  0
LINE
  5
307
100
AcDbEntity
  8
Layer 1
 62
256
370
-1
 48
1.0
  6
BYLAYER
100
AcDbLine
 10
126.0698359999999951
 20
132.1432920000000024
 30
0.0
 11
125.6730869999999953
 21
131.8756050000000073
 31
0.0
  0
LINE
  5
308
100
AcDbEntity
  8
Layer 1
 62
256
370
-1
 48
1.0
  6
BYLAYER
100
AcDbLine
 10
125.6730869999999953
 20
131.8756050000000073
 30
0.0
 11
125.4055230000000023
 21
131.4787359999999978
 31
0.0
  0
LINE
  5
309
100
AcDbEntity
  8
Layer 1
 62
256
370
-1
 48
1.0
  6
BYLAYER
100
AcDbLine
 10
125.4055230000000023
 20
131.4787359999999978
 30
0.0
 11
125.3073899999999981
 21
130.992999999999995
 31
0.0
  0
LINE
  5
30A
100
AcDbEntity
  8
Layer 1
 62
256
370
-1
 48
1.0
  6
BYLAYER
100
AcDbLine
 10
125.3073899999999981
 20
130.992999999999995
 30
0.0
 11
125.4055230000000023
 21
130.5072639999999922
 31
0.0
  0
LINE
  5
30B
100
AcDbEntity
  8
Layer 1
 62
256
370
-1
 48
1.0
  6
BYLAYER
100
AcDbLine
 10
125.4055230000000023
 20
130.5072639999999922
 30
0.0
 11
125.6730869999999953
 21
130.1103940000000136
 31
0.0
  0
LINE
  5
30C
100
AcDbEntity
  8
Layer 1
 62
256
370
-1
 48
1.0
  6
BYLAYER
100
AcDbLine
 10
125.6730869999999953
 20
130.1103940000000136
 30
0.0
 11
126.0698359999999951
 21
129.8427079999999876
 31
0.0
  0
LINE
  5
30D
100
AcDbEntity
  8
Layer 1
 62
256
370
-1
 48
1.0
  6
BYLAYER
100
AcDbLine
 10
126.0698359999999951
 20
129.8427079999999876
 30
0.0
 11
126.5555200000000013
 21
129.7445199999999943
 31
0.0
  0
LINE
  5
30E
100
AcDbEntity
  8
Layer 1
 62
256
370
-1
 48
1.0
  6
BYLAYER
100
AcDbLine
 10
126.5555200000000013
 20
129.7445199999999943
 30
0.0
 11
127.041253999999995
 21
129.8427079999999876
 31
0.0
  0
LINE
  5
30F
100
AcDbEntity
  8
Layer 1
 62
256
370
-1
 48
1.0
  6
BYLAYER
100
AcDbLine
 10
127.041253999999995
 20
129.8427079999999876
 30
0.0
 11
127.438124000000002
 21
130.1103940000000136
 31
0.0
  0
LINE
  5
310
100
AcDbEntity
  8
Layer 1
 62
256
370
-1
 48
1.0
  6
BYLAYER
100
AcDbLine
 10
127.438124000000002
 20
130.1103940000000136
 30
0.0
 11
127.7058109999999971
 21
130.5072639999999922
 31
0.0
  0
LINE
  5
311
100
AcDbEntity
  8
Layer 1
 62
256
370
-1
 48
1.0
  6
BYLAYER
100
AcDbLine
 10
127.7058109999999971
 20
130.5072639999999922
 30
0.0
 11
127.804000000000002
 21
130.992999999999995
 31
0.0
  0
LINE
  5
312
100
AcDbEntity
  8
Layer 1
 62
256
370
-1
 48
1.0
  6
BYLAYER
100
AcDbLine
 10
127.804000000000002
 20
130.992999999999995
 30
0.0
 11
127.804000000000002
 21
130.992999999999995
 31
0.0
  0
LINE
  5
313
100
AcDbEntity
  8
Layer 1
 62
256
370
-1
 48
1.0
  6
BYLAYER
100
AcDbLine
 10
51.305100000000003
 20
99.6914000000000016
 30
0.0
 11
51.2069120000000026
 21
100.1771379999999994
 31
0.0
  0
LINE
  5
314
100
AcDbEntity
  8
Layer 1
 62
256
370
-1
 48
1.0
  6
BYLAYER
100
AcDbLine
 10
51.2069120000000026
 20
100.1771379999999994
 30
0.0
 11
50.9392250000000004
 21
100.5740069999999946
 31
0.0
  0
LINE
  5
315
100
AcDbEntity
  8
Layer 1
 62
256
370
-1
 48
1.0
  6
BYLAYER
100
AcDbLine
 10
50.9392250000000004
 20
100.5740069999999946
 30
0.0
 11
50.5423559999999981
 21
100.8416930000000065
 31
0.0
  0
LINE
  5
316
100
AcDbEntity
  8
Layer 1
 62
256
370
-1
 48
1.0
  6
BYLAYER
100
AcDbLine
 10
50.5423559999999981
 20
100.8416930000000065
 30
0.0
 11
50.0566200000000023
 21
100.9398800000000023
 31
0.0
  0
LINE
  5
317
100
AcDbEntity
  8
Layer 1
 62
256
370
-1
 48
1.0
  6
BYLAYER
100
AcDbLine
 10
50.0566200000000023
 20
100.9398800000000023
 30
0.0
 11
49.5709379999999982
 21
100.8416930000000065
 31
0.0
  0
LINE
  5
318
100
AcDbEntity
  8
Layer 1
 62
256
370
-1
 48
1.0
  6
BYLAYER
100
AcDbLine
 10
49.5709379999999982
 20
100.8416930000000065
 30
0.0
 11
49.1741889999999984
 21
100.5740069999999946
 31
0.0
  0
LINE
  5
319
100
AcDbEntity
  8
Layer 1
 62
256
370
-1
 48
1.0
  6
BYLAYER
100
AcDbLine
 10
49.1741889999999984
 20
100.5740069999999946
 30
0.0
 11
48.9066230000000033
 21
100.1771379999999994
 31
0.0
  0
LINE
  5
31A
100
AcDbEntity
  8
Layer 1
 62
256
370
-1
 48
1.0
  6
BYLAYER
100
AcDbLine
 10
48.9066230000000033
 20
100.1771379999999994
 30
0.0
 11
48.808489999999999
 21
99.6914000000000016
 31
0.0
  0
LINE
  5
31B
100
AcDbEntity
  8
Layer 1
 62
256
370
-1
 48
1.0
  6
BYLAYER
100
AcDbLine
 10
48.808489999999999
 20
99.6914000000000016
 30
0.0
 11
48.9066230000000033
 21
99.2056659999999937
 31
0.0
  0
LINE
  5
31C
100
AcDbEntity
  8
Layer 1
 62
256
370
-1
 48
1.0
  6
BYLAYER
100
AcDbLine
 10
48.9066230000000033
 20
99.2056659999999937
 30
0.0
 11
49.1741889999999984
 21
98.808796000000001
 31
0.0
  0
LINE
  5
31D
100
AcDbEntity
  8
Layer 1
 62
256
370
-1
 48
1.0
  6
BYLAYER
100
AcDbLine
 10
49.1741889999999984
 20
98.808796000000001
 30
0.0
 11
49.5709379999999982
 21
98.5411090000000058
 31
0.0
  0
LINE
  5
31E
100
AcDbEntity
  8
Layer 1
 62
256
370
-1
 48
1.0
  6
BYLAYER
100
AcDbLine
 10
49.5709379999999982
 20
98.5411090000000058
 30
0.0
 11
50.0566200000000023
 21
98.4429200000000009
 31
0.0
  0
LINE
  5
31F
100
AcDbEntity
  8
Layer 1
 62
256
370
-1
 48
1.0
  6
BYLAYER
100
AcDbLine
 10
50.0566200000000023
 20
98.4429200000000009
 30
0.0
 11
50.5423559999999981
 21
98.5411090000000058
 31
0.0
  0
LINE
  5
320
100
AcDbEntity
  8
Layer 1
 62
256
370
-1
 48
1.0
  6
BYLAYER
100
AcDbLine
 10
50.5423559999999981
 20
98.5411090000000058
 30
0.0
 11
50.9392259999999979
 21
98.808796000000001
 31
0.0
  0
LINE
  5
321
100
AcDbEntity
  8
Layer 1
 62
256
370
-1
 48
1.0
  6
BYLAYER
100
AcDbLine
 10
50.9392259999999979
 20
98.808796000000001
 30
0.0
 11
51.2069120000000026
 21
99.2056659999999937
 31
0.0
  0
LINE
  5
322
100
AcDbEntity
  8
Layer 1
 62
256
370
-1
 48
1.0
  6
BYLAYER
100
AcDbLine
 10
51.2069120000000026
 20
99.2056659999999937
 30
0.0
 11
51.305100000000003
 21
99.6914000000000016
 31
0.0
  0
LINE
  5
323
100
AcDbEntity
  8
Layer 1
 62
256
370
-1
 48
1.0
  6
BYLAYER
100
AcDbLine
 10
51.305100000000003
 20
99.6914000000000016
 30
0.0
 11
51.305100000000003
 21
99.6914000000000016
 31
0.0
  0
LINE
  5
324
100
AcDbEntity
  8
Layer 1
 62
256
370
-1
 48
1.0
  6
BYLAYER
100
AcDbLine
 10
25.5567999999999991
 20
76.2293999999999983
 30
0.0
 11
25.4586119999999987
 21
76.7151400000000052
 31
0.0
  0
LINE
  5
325
100
AcDbEntity
  8
Layer 1
 62
256
370
-1
 48
1.0
  6
BYLAYER
100
AcDbLine
 10
25.4586119999999987
 20
76.7151400000000052
 30
0.0
 11
25.190925
 21
77.1120130000000046
 31
0.0
  0
LINE
  5
326
100
AcDbEntity
  8
Layer 1
 62
256
370
-1
 48
1.0
  6
BYLAYER
100
AcDbLine
 10
25.190925
 20
77.1120130000000046
 30
0.0
 11
24.7940560000000012
 21
77.3797009999999972
 31
0.0
  0
LINE
  5
327
100
AcDbEntity
  8
Layer 1
 62
256
370
-1
 48
1.0
  6
BYLAYER
100
AcDbLine
 10
24.7940560000000012
 20
77.3797009999999972
 30
0.0
 11
24.3083199999999984
 21
77.4778900000000021
 31
0.0
  0
LINE
  5
328
100
AcDbEntity
  8
Layer 1
 62
256
370
-1
 48
1.0
  6
BYLAYER
100
AcDbLine
 10
24.3083199999999984
 20
77.4778900000000021
 30
0.0
 11
23.8226380000000013
 21
77.3797009999999972
 31
0.0
  0
LINE
  5
329
100
AcDbEntity
  8
Layer 1
 62
256
370
-1
 48
1.0
  6
BYLAYER
100
AcDbLine
 10
23.8226380000000013
 20
77.3797009999999972
 30
0.0
 11
23.4258890000000015
 21
77.1120130000000046
 31
0.0
  0
LINE
  5
32A
100
AcDbEntity
  8
Layer 1
 62
256
370
-1
 48
1.0
  6
BYLAYER
100
AcDbLine
 10
23.4258890000000015
 20
77.1120130000000046
 30
0.0
 11
23.1583229999999993
 21
76.7151400000000052
 31
0.0
  0
LINE
  5
32B
100
AcDbEntity
  8
Layer 1
 62
256
370
-1
 48
1.0
  6
BYLAYER
100
AcDbLine
 10
23.1583229999999993
 20
76.7151400000000052
 30
0.0
 11
23.0601899999999986
 21
76.2293999999999983
 31
0.0
  0
LINE
  5
32C
100
AcDbEntity
  8
Layer 1
 62
256
370
-1
 48
1.0
  6
BYLAYER
100
AcDbLine
 10
23.0601899999999986
 20
76.2293999999999983
 30
0.0
 11
23.1583229999999993
 21
75.7436660000000046
 31
0.0
  0
LINE
  5
32D
100
AcDbEntity
  8
Layer 1
 62
256
370
-1
 48
1.0
  6
BYLAYER
100
AcDbLine
 10
23.1583229999999993
 20
75.7436660000000046
 30
0.0
 11
23.4258890000000015
 21
75.3467959999999977
 31
0.0
  0
LINE
  5
32E
100
AcDbEntity
  8
Layer 1
 62
256
370
-1
 48
1.0
  6
BYLAYER
100
AcDbLine
 10
23.4258890000000015
 20
75.3467959999999977
 30
0.0
 11
23.8226380000000013
 21
75.0791090000000025
 31
0.0
  0
LINE
  5
32F
100
AcDbEntity
  8
Layer 1
 62
256
370
-1
 48
1.0
  6
BYLAYER
100
AcDbLine
 10
23.8226380000000013
 20
75.0791090000000025
 30
0.0
 11
24.3083199999999984
 21
74.9809199999999976
 31
0.0
  0
LINE
  5
330
100
AcDbEntity
  8
Layer 1
 62
256
370
-1
 48
1.0
  6
BYLAYER
100
AcDbLine
 10
24.3083199999999984
 20
74.9809199999999976
 30
0.0
 11
24.7940560000000012
 21
75.0791090000000025
 31
0.0
  0
LINE
  5
331
100
AcDbEntity
  8
Layer 1
 62
256
370
-1
 48
1.0
  6
BYLAYER
100
AcDbLine
 10
24.7940560000000012
 20
75.0791090000000025
 30
0.0
 11
25.190926000000001
 21
75.3467959999999977
 31
0.0
  0
LINE
  5
332
100
AcDbEntity
  8
Layer 1
 62
256
370
-1
 48
1.0
  6
BYLAYER
100
AcDbLine
 10
25.190926000000001
 20
75.3467959999999977
 30
0.0
 11
25.4586119999999987
 21
75.7436660000000046
 31
0.0
  0
LINE
  5
333
100
AcDbEntity
  8
Layer 1
 62
256
370
-1
 48
1.0
  6
BYLAYER
100
AcDbLine
 10
25.4586119999999987
 20
75.7436660000000046
 30
0.0
 11
25.5567999999999991
 21
76.2293999999999983
 31
0.0
  0
LINE
  5
334
100
AcDbEntity
  8
Layer 1
 62
256
370
-1
 48
1.0
  6
BYLAYER
100
AcDbLine
 10
25.5567999999999991
 20
76.2293999999999983
 30
0.0
 11
25.5567999999999991
 21
76.2293999999999983
 31
0.0
  0
LINE
  5
335
100
AcDbEntity
  8
Layer 1
 62
256
370
-1
 48
1.0
  6
BYLAYER
100
AcDbLine
 10
51.3038000000000025
 20
137.6030000000000086
 30
0.0
 11
51.2056120000000021
 21
138.0887380000000064
 31
0.0
  0
LINE
  5
336
100
AcDbEntity
  8
Layer 1
 62
256
370
-1
 48
1.0
  6
BYLAYER
100
AcDbLine
 10
51.2056120000000021
 20
138.0887380000000064
 30
0.0
 11
50.9379249999999999
 21
138.4856080000000134
 31
0.0
  0
LINE
  5
337
100
AcDbEntity
  8
Layer 1
 62
256
370
-1
 48
1.0
  6
BYLAYER
100
AcDbLine
 10
50.9379249999999999
 20
138.4856080000000134
 30
0.0
 11
50.5410559999999975
 21
138.7532930000000135
 31
0.0
  0
LINE
  5
338
100
AcDbEntity
  8
Layer 1
 62
256
370
-1
 48
1.0
  6
BYLAYER
100
AcDbLine
 10
50.5410559999999975
 20
138.7532930000000135
 30
0.0
 11
50.0553200000000018
 21
138.8514800000000093
 31
0.0
  0
LINE
  5
339
100
AcDbEntity
  8
Layer 1
 62
256
370
-1
 48
1.0
  6
BYLAYER
100
AcDbLine
 10
50.0553200000000018
 20
138.8514800000000093
 30
0.0
 11
49.5696379999999976
 21
138.7532930000000135
 31
0.0
  0
LINE
  5
33A
100
AcDbEntity
  8
Layer 1
 62
256
370
-1
 48
1.0
  6
BYLAYER
100
AcDbLine
 10
49.5696379999999976
 20
138.7532930000000135
 30
0.0
 11
49.1728889999999978
 21
138.4856080000000134
 31
0.0
  0
LINE
  5
33B
100
AcDbEntity
  8
Layer 1
 62
256
370
-1
 48
1.0
  6
BYLAYER
100
AcDbLine
 10
49.1728889999999978
 20
138.4856080000000134
 30
0.0
 11
48.9053230000000028
 21
138.0887380000000064
 31
0.0
  0
LINE
  5
33C
100
AcDbEntity
  8
Layer 1
 62
256
370
-1
 48
1.0
  6
BYLAYER
100
AcDbLine
 10
48.9053230000000028
 20
138.0887380000000064
 30
0.0
 11
48.8071899999999985
 21
137.6030000000000086
 31
0.0
  0
LINE
  5
33D
100
AcDbEntity
  8
Layer 1
 62
256
370
-1
 48
1.0
  6
BYLAYER
100
AcDbLine
 10
48.8071899999999985
 20
137.6030000000000086
 30
0.0
 11
48.9053230000000028
 21
137.1172660000000008
 31
0.0
  0
LINE
  5
33E
100
AcDbEntity
  8
Layer 1
 62
256
370
-1
 48
1.0
  6
BYLAYER
100
AcDbLine
 10
48.9053230000000028
 20
137.1172660000000008
 30
0.0
 11
49.1728889999999978
 21
136.7203959999999938
 31
0.0
  0
LINE
  5
33F
100
AcDbEntity
  8
Layer 1
 62
256
370
-1
 48
1.0
  6
BYLAYER
100
AcDbLine
 10
49.1728889999999978
 20
136.7203959999999938
 30
0.0
 11
49.5696379999999976
 21
136.4527089999999987
 31
0.0
  0
LINE
  5
340
100
AcDbEntity
  8
Layer 1
 62
256
370
-1
 48
1.0
  6
BYLAYER
100
AcDbLine
 10
49.5696379999999976
 20
136.4527089999999987
 30
0.0
 11
50.0553200000000018
 21
136.3545200000000079
 31
0.0
  0
LINE
  5
341
100
AcDbEntity
  8
Layer 1
 62
256
370
-1
 48
1.0
  6
BYLAYER
100
AcDbLine
 10
50.0553200000000018
 20
136.3545200000000079
 30
0.0
 11
50.5410559999999975
 21
136.4527089999999987
 31
0.0
  0
LINE
  5
342
100
AcDbEntity
  8
Layer 1
 62
256
370
-1
 48
1.0
  6
BYLAYER
100
AcDbLine
 10
50.5410559999999975
 20
136.4527089999999987
 30
0.0
 11
50.9379259999999974
 21
136.7203959999999938
 31
0.0
  0
LINE
  5
343
100
AcDbEntity
  8
Layer 1
 62
256
370
-1
 48
1.0
  6
BYLAYER
100
AcDbLine
 10
50.9379259999999974
 20
136.7203959999999938
 30
0.0
 11
51.2056120000000021
 21
137.1172660000000008
 31
0.0
  0
LINE
  5
344
100
AcDbEntity
  8
Layer 1
 62
256
370
-1
 48
1.0
  6
BYLAYER
100
AcDbLine
 10
51.2056120000000021
 20
137.1172660000000008
 30
0.0
 11
51.3038000000000025
 21
137.6030000000000086
 31
0.0
  0
LINE
  5
345
100
AcDbEntity
  8
Layer 1
 62
256
370
-1
 48
1.0
  6
BYLAYER
100
AcDbLine
 10
51.3038000000000025
 20
137.6030000000000086
 30
0.0
 11
51.3038000000000025
 21
137.6030000000000086
 31
0.0
  0
ENDSEC
  0
SECTION
  2
OBJECTS
  0
DICTIONARY
  5
C
100
AcDbDictionary
280
0
281
1
  3
ACAD_GROUP
350
D
  3
ACAD_LAYOUT
350
1A
  3
ACAD_MLINESTYLE
350
17
  3
ACAD_PLOTSETTINGS
350
19
  3
ACAD_PLOTSTYLENAME
350
E
  3
AcDbVariableDictionary
350
346
  3
QCAD_OBJECTS
350
347
  0
DICTIONARY
  5
D
100
AcDbDictionary
280
0
281
1
  0
ACDBDICTIONARYWDFLT
  5
E
100
AcDbDictionary
281
1
  3
Normal
350
F
100
AcDbDictionaryWithDefault
340
F
  0
ACDBPLACEHOLDER
  5
F
  0
DICTIONARY
  5
17
100
AcDbDictionary
280
0
281
1
  3
Standard
350
18
  0
MLINESTYLE
  5
18
100
AcDbMlineStyle
  2
STANDARD
 70
0
  3

 62
256
 51
90.0
 52
90.0
 71
2
 49
0.5
 62
256
  6
BYLAYER
 49
-0.5
 62
256
  6
BYLAYER
  0
DICTIONARY
  5
19
100
AcDbDictionary
280
0
281
1
  0
DICTIONARY
  5
1A
100
AcDbDictionary
281
1
  3
Layout1
350
1E
  3
Layout2
350
26
  3
Model
350
22
  0
LAYOUT
  5
1E
100
AcDbPlotSettings
  1

  2
none_device
  4

  6

 40
0.0
 41
0.0
 42
0.0
 43
0.0
 44
0.0
 45
0.0
 46
0.0
 47
0.0
 48
0.0
 49
0.0
140
0.0
141
0.0
142
1.0
143
1.0
 70
688
 72
0
 73
0
 74
5
  7

 75
16
147
1.0
148
0.0
149
0.0
100
AcDbLayout
  1
Layout1
 70
1
 71
1
 10
0.0
 20
0.0
 11
420.0
 21
297.0
 12
0.0
 22
0.0
 32
0.0
 14
100000000000000000000.0
 24
100000000000000000000.0
 34
100000000000000000000.0
 15
-100000000000000000000.0
 25
-100000000000000000000.0
 35
-100000000000000000000.0
146
0.0
 13
0.0
 23
0.0
 33
0.0
 16
1.0
 26
0.0
 36
0.0
 17
0.0
 27
1.0
 37
0.0
 76
0
330
1B
  0
LAYOUT
  5
22
100
AcDbPlotSettings
  1

  2
none_device
  4

  6

 40
0.0
 41
0.0
 42
0.0
 43
0.0
 44
0.0
 45
0.0
 46
0.0
 47
0.0
 48
0.0
 49
0.0
140
0.0
141
0.0
142
1.0
143
1.0
 70
1712
 72
0
 73
0
 74
0
  7

 75
0
147
1.0
148
0.0
149
0.0
100
AcDbLayout
  1
Model
 70
1
 71
0
 10
0.0
 20
0.0
 11
12.0
 21
9.0
 12
0.0
 22
0.0
 32
0.0
 14
0.0
 24
0.0
 34
0.0
 15
0.0
 25
0.0
 35
0.0
146
0.0
 13
0.0
 23
0.0
 33
0.0
 16
1.0
 26
0.0
 36
0.0
 17
0.0
 27
1.0
 37
0.0
 76
0
330
1F
  0
LAYOUT
  5
26
100
AcDbPlotSettings
  1

  2
none_device
  4

  6

 40
0.0
 41
0.0
 42
0.0
 43
0.0
 44
0.0
 45
0.0
 46
0.0
 47
0.0
 48
0.0
 49
0.0
140
0.0
141
0.0
142
1.0
143
1.0
 70
688
 72
0
 73
0
 74
5
  7

 75
16
147
1.0
148
0.0
149
0.0
100
AcDbLayout
  1
Layout2
 70
1
 71
2
 10
0.0
 20
0.0
 11
12.0
 21
9.0
 12
0.0
 22
0.0
 32
0.0
 14
0.0
 24
0.0
 34
0.0
 15
0.0
 25
0.0
 35
0.0
146
0.0
 13
0.0
 23
0.0
 33
0.0
 16
1.0
 26
0.0
 36
0.0
 17
0.0
 27
1.0
 37
0.0
 76
0
330
23
  0
DICTIONARY
  5
346
100
AcDbDictionary
281
1
  3
DIMASSOC
350
349
  3
HIDETEXT
350
348
  0
DICTIONARYVAR
  5
348
100
DictionaryVariables
280
0
  1
2
  0
DICTIONARYVAR
  5
349
100
DictionaryVariables
280
0
  1
1
  0
DICTIONARY
  5
347
100
AcDbDictionary
281
1
  3
ColorSettings/BackgroundColor
350
34A
  3
ColorSettings/ColorMode
350
34B
  3
Grid/DisplayGrid00
350
34C
  3
Grid/DisplayGrid01
350
34D
  3
Grid/DisplayGrid02
350
34E
  3
Grid/DisplayGrid03
350
34F
  3
Grid/GridSpacingX00
350
350
  3
Grid/GridSpacingX01
350
351
  3
Grid/GridSpacingX02
350
352
  3
Grid/GridSpacingX03
350
353
  3
Grid/GridSpacingY00
350
354
  3
Grid/GridSpacingY01
350
355
  3
Grid/GridSpacingY02
350
356
  3
Grid/GridSpacingY03
350
357
  3
Grid/IsometricGrid00
350
358
  3
Grid/IsometricGrid01
350
359
  3
Grid/IsometricGrid02
350
35A
  3
Grid/IsometricGrid03
350
35B
  3
Grid/IsometricProjection00
350
35C
  3
Grid/IsometricProjection01
350
35D
  3
Grid/IsometricProjection02
350
35E
  3
Grid/IsometricProjection03
350
35F
  3
Grid/MetaGridSpacingX00
350
360
  3
Grid/MetaGridSpacingX01
350
361
  3
Grid/MetaGridSpacingX02
350
362
  3
Grid/MetaGridSpacingX03
350
363
  3
Grid/MetaGridSpacingY00
350
364
  3
Grid/MetaGridSpacingY01
350
365
  3
Grid/MetaGridSpacingY02
350
366
  3
Grid/MetaGridSpacingY03
350
367
  3
MultiPageSettings/Columns
350
368
  3
MultiPageSettings/GlueMarginsBottom
350
369
  3
MultiPageSettings/GlueMarginsLeft
350
36A
  3
MultiPageSettings/GlueMarginsRight
350
36B
  3
MultiPageSettings/GlueMarginsTop
350
36C
  3
MultiPageSettings/PrintCropMarks
350
36D
  3
MultiPageSettings/Rows
350
36E
  3
PageSettings/OffsetX
350
36F
  3
PageSettings/OffsetY
350
370
  3
PageSettings/PageOrientation
350
371
  3
PageSettings/PaperHeight
350
372
  3
PageSettings/PaperWidth
350
373
  3
PageSettings/Scale
350
374
  3
PageSettings/ShowPaperBorders
350
375
  3
PageTagSettings/EnablePageTags
350
376
  3
PageTagSettings/TagAlignment
350
377
  3
PageTagSettings/TagFont
350
378
  3
PageTagSettings/TagPosition
350
379
  3
QCADVersion
350
37A
  3
UnitSettings/PaperUnit
350
37B
  3
ViewportCenter
350
37C
  3
ViewportHeight
350
37D
  3
ViewportWidth
350
37E
  0
XRECORD
  5
34A
330
347
100
AcDbXrecord
280
1
1000
White
  0
XRECORD
  5
34B
330
347
100
AcDbXrecord
280
1
1000
FullColor
  0
XRECORD
  5
34C
330
347
100
AcDbXrecord
280
1
290
1
  0
XRECORD
  5
34D
330
347
100
AcDbXrecord
280
1
290
1
  0
XRECORD
  5
34E
330
347
100
AcDbXrecord
280
1
290
1
  0
XRECORD
  5
34F
330
347
100
AcDbXrecord
280
1
290
1
  0
XRECORD
  5
350
330
347
100
AcDbXrecord
280
1
1000
auto
  0
XRECORD
  5
351
330
347
100
AcDbXrecord
280
1
1000
auto
  0
XRECORD
  5
352
330
347
100
AcDbXrecord
280
1
1000
auto
  0
XRECORD
  5
353
330
347
100
AcDbXrecord
280
1
1000
auto
  0
XRECORD
  5
354
330
347
100
AcDbXrecord
280
1
1000
auto
  0
XRECORD
  5
355
330
347
100
AcDbXrecord
280
1
1000
auto
  0
XRECORD
  5
356
330
347
100
AcDbXrecord
280
1
1000
auto
  0
XRECORD
  5
357
330
347
100
AcDbXrecord
280
1
1000
auto
  0
XRECORD
  5
358
330
347
100
AcDbXrecord
280
1
290
0
  0
XRECORD
  5
359
330
347
100
AcDbXrecord
280
1
290
0
  0
XRECORD
  5
35A
330
347
100
AcDbXrecord
280
1
290
0
  0
XRECORD
  5
35B
330
347
100
AcDbXrecord
280
1
290
0
  0
XRECORD
  5
35C
330
347
100
AcDbXrecord
280
1
 90
65537
  0
XRECORD
  5
35D
330
347
100
AcDbXrecord
280
1
 90
65537
  0
XRECORD
  5
35E
330
347
100
AcDbXrecord
280
1
 90
65537
  0
XRECORD
  5
35F
330
347
100
AcDbXrecord
280
1
 90
65537
  0
XRECORD
  5
360
330
347
100
AcDbXrecord
280
1
1000
auto
  0
XRECORD
  5
361
330
347
100
AcDbXrecord
280
1
1000
auto
  0
XRECORD
  5
362
330
347
100
AcDbXrecord
280
1
1000
auto
  0
XRECORD
  5
363
330
347
100
AcDbXrecord
280
1
1000
auto
  0
XRECORD
  5
364
330
347
100
AcDbXrecord
280
1
1000
auto
  0
XRECORD
  5
365
330
347
100
AcDbXrecord
280
1
1000
auto
  0
XRECORD
  5
366
330
347
100
AcDbXrecord
280
1
1000
auto
  0
XRECORD
  5
367
330
347
100
AcDbXrecord
280
1
1000
auto
  0
XRECORD
  5
368
330
347
100
AcDbXrecord
280
1
 90
1
  0
XRECORD
  5
369
330
347
100
AcDbXrecord
280
1
 40
0.5
  0
XRECORD
  5
36A
330
347
100
AcDbXrecord
280
1
 40
0.5
  0
XRECORD
  5
36B
330
347
100
AcDbXrecord
280
1
 40
0.5
  0
XRECORD
  5
36C
330
347
100
AcDbXrecord
280
1
 40
0.5
  0
XRECORD
  5
36D
330
347
100
AcDbXrecord
280
1
290
0
  0
XRECORD
  5
36E
330
347
100
AcDbXrecord
280
1
 90
1
  0
XRECORD
  5
36F
330
347
100
AcDbXrecord
280
1
 40
0.0
  0
XRECORD
  5
370
330
347
100
AcDbXrecord
280
1
 40
0.0
  0
XRECORD
  5
371
330
347
100
AcDbXrecord
280
1
1000
Portrait
  0
XRECORD
  5
372
330
347
100
AcDbXrecord
280
1
 40
11.6929133858267722
  0
XRECORD
  5
373
330
347
100
AcDbXrecord
280
1
 40
8.2677165354330704
  0
XRECORD
  5
374
330
347
100
AcDbXrecord
280
1
1000
1:1
  0
XRECORD
  5
375
330
347
100
AcDbXrecord
280
1
290
1
  0
XRECORD
  5
376
330
347
100
AcDbXrecord
280
1
290
0
  0
XRECORD
  5
377
330
347
100
AcDbXrecord
280
1
1000
Inside
  0
XRECORD
  5
378
330
347
100
AcDbXrecord
280
1
1000
Arial,10,-1,5,50,0,0,0,0,0
  0
XRECORD
  5
379
330
347
100
AcDbXrecord
280
1
1000
TopLeft
  0
XRECORD
  5
37A
330
347
100
AcDbXrecord
280
1
1000
3.30.0
  0
XRECORD
  5
37B
330
347
100
AcDbXrecord
280
1
 90
1
  0
XRECORD
  5
37D
330
347
100
AcDbXrecord
280
1
 40
124.3163624652396493
  0
XRECORD
  5
37E
330
347
100
AcDbXrecord
280
1
 40
260.949405491764594
  0
ENDSEC
  0
EOF
