  0
SECTION
  2
HEADER
  9
$ACADVER
  1
AC1009
  9
$INSBASE
  10
6.3931
  20
8.998425
  30
0.0
  9
$EXTMIN
  10
6.3931
  20
8.998425
  30
0.0
  9
$EXTMAX
  10
270.044
  20
124.2006
  30
0.0
  9
$LIMMIN
  10
6.3931
  20
8.998425
  9
$LIMMAX
  10
270.044
  20
124.2006
  9
$ORTHOMODE
 70
     1
  9
$REGENMODE
 70
     1
  9
$FILLMODE
 70
     1
  9
$QTEXTMODE
 70
     0
  9
$MIRRTEXT
 70
     0
  9
$DRAGMODE
 70
     2
  9
$LTSCALE
 40
1.0
  9
$OSMODE
 70
     0
  9
$ATTMODE
 70
     1
  9
$TEXTSIZE
 40
0.2
  9
$TRACEWID
 40
0.05
  9
$TEXTSTYLE
  7
STANDARD
  9
$CLAYER
  8
0
  9
$CELTYPE
  6
BYLAYER
  9
$CECOLOR
 62
   256
  9
$DIMSCALE
 40
1.0
  9
$DIMASZ
 40
0.0
  9
$DIMEXO
 40
0.125
  9
$DIMDLI
 40
0.0
  9
$DIMRND
 40
0.0
  9
$DIMDLE
 40
0.125
  9
$DIMEXE
 40
0.125
  9
$DIMTP
 40
0.0
  9
$DIMTM
 40
0.0
  9
$DIMTXT
 40
0.125
  9
$DIMCEN
 40
0.09
  9
$DIMTSZ
 40
0.05
  9
$DIMTOL
 70
     0
  9
$DIMLIM
 70
     0
  9
$DIMTIH
 70
     0
  9
$DIMTOH
 70
     0
  9
$DIMSE1
 70
     0
  9
$DIMSE2
 70
     0
  9
$DIMTAD
 70
     1
  9
$DIMZIN
 70
     0
  9
$DIMBLK
  1

  9
$DIMASO
 70
     1
  9
$DIMSHO
 70
     1
  9
$DIMPOST
  1

  9
$DIMAPOST
  1

  9
$DIMALT
 70
     0
  9
$DIMALTD
 70
     2
  9
$DIMALTF
 40
25.4
  9
$DIMLFAC
 40
1.0
  9
$DIMTOFL
 70
     0
  9
$DIMTVP
 40
0.0
  9
$DIMTIX
 70
     0
  9
$DIMSOXD
 70
     0
  9
$DIMSAH
 70
     0
  9
$DIMBLK1
  1

  9
$DIMBLK2
  1

  9
$LUNITS
 70
     2
  9
$LUPREC
 70
     4
  9
$AXISMODE
 70
     0
  9
$AXISUNIT
 10
0.0
 20
0.0
  9
$SKETCHINC
 40
0.1
  9
$FILLETRAD
 40
0.0
  9
$AUNITS
 70
     0
  9
$AUPREC
 70
     0
  9
$MENU
  1
acad
  9
$ELEVATION
 40
0.0
  9
$THICKNESS
 40
0.0
  9
$LIMCHECK
 70
     0
  9
$BLIPMODE
 70
     1
  9
$CHAMFERA
 40
0.0
  9
$CHAMFERB
 40
0.0
  9
$SKPOLY
 70
     0
  9
$TDCREATE
 40
2449760.6321530091
  9
$TDUPDATE
 40
2449760.6321530091
  9
$TDINDWG
 40
0.0000000000
  9
$TDUSRTIMER
 40
0.0000000000
  9
$USRTIMER
 70
     1
  9
$ANGBASE
 50
0.0
  9
$ANGDIR
 70
     0
  9
$PDMODE
 70
     0
  9
$PDSIZE
 40
0.0
  9
$PLINEWID
 40
0.0
  9
$COORDS
 70
     2
  9
$SPLFRAME
 70
     0
  9
$SPLINETYPE
 70
     6
  9
$SPLINESEGS
 70
     8
  9
$ATTDIA
 70
     0
  9
$ATTREQ
 70
     1
  9
$HANDLING
 70
     0
  9
$HANDSEED
  5
0
  9
$SURFTAB1
 70
     6
  9
$SURFTAB2
 70
     6
  9
$SURFTYPE
 70
     6
  9
$SURFU
 70
     6
  9
$SURFV
 70
     6
  9
$FLATLAND
 70
     1
  9
$UCSNAME
  2

  9
$UCSORG
 10
0.0
 20
0.0
 30
0.0
  9
$UCSXDIR
 10
1.0
 20
0.0
 30
0.0
  9
$UCSYDIR
 10
0.0
 20
1.0
 30
0.0
  9
$USERI1
 70
     0
  9
$USERI2
 70
     0
  9
$USERI3
 70
     0
  9
$USERI4
 70
     0
  9
$USERI5
 70
     0
  9
$USERR1
 40
0.0
  9
$USERR2
 40
0.0
  9
$USERR3
 40
0.0
  9
$USERR4
 40
0.0
  9
$USERR5
 40
0.0
  9
$WORLDVIEW
 70
     1
  9
$VIEWCTR
 10
2.281323
 20
14.37967
  9
$VIEWSIZE
 40
18.0
  9
$SNAPMODE
 70
     0
  9
$SNAPUNIT
 10
0.05
 20
0.05
  9
$SNAPBASE
 10
0.0
 20
0.0
  9
$SNAPANG
 50
0.0
  9
$SNAPSTYLE
 70
     0
  9
$SNAPISOPAIR
 70
     0
  9
$GRIDMODE
 70
     0
  9
$GRIDUNIT
 10
0.0
 20
0.0
  9
$FASTZOOM
 70
     1
  9
$VIEWDIR
 10
0.0
 20
0.0
 30
1.0
  0
ENDSEC
  0
SECTION
  2
TABLES
  0
TABLE
  2
LTYPE
 70
    25
  0
LTYPE
  2
CONTINUOUS
 70
    0
  3
Solid line
 72
    65
 73
    0
 40
 0.0
  0
LTYPE
  2
DASHED
  70
     0
  3

  72
     65
  73
     2
  40
0.7500000
  49
0.5000000
  49
-0.2500000
  0
LTYPE
  2
HIDDEN
  70
     0
  3

  72
     65
  73
     2
  40
0.3750000
  49
0.2500000
  49
-0.1250000
  0
LTYPE
  2
CENTER
  70
     0
  3

  72
     65
  73
     4
  40
2
  49
1.25
  49
-0.2500000
  49
0.2500000
  49
-0.2500000
  0
LTYPE
  2
PHANTOM
  70
     0
  3

  72
     65
  73
     6
  40
2.5
  49
1.25
  49
-0.2500000
  49
0.2500000
  49
-0.2500000
  49
0.2500000
  49
-0.2500000
  0
LTYPE
  2
DOT
  70
     0
  3

  72
     65
  73
     2
  40
0.2500000
  49
0.0
  49
-0.2500000
  0
LTYPE
  2
DASHDOT
  70
     0
  3

  72
     65
  73
     4
  40
1.0000000
  49
0.5000000
  49
-0.2500000
  49
0.0
  49
-0.2500000
  0
LTYPE
  2
BORDER
  70
     0
  3

  72
     65
  73
     6
  40
1.75
  49
0.5000000
  49
-0.2500000
  49
0.5000000
  49
-0.2500000
  49
0.0
  49
-0.2500000
  0
LTYPE
  2
DIVIDE
  70
     0
  3

  72
     65
  73
     6
  40
1.25
  49
0.5000000
  49
-0.2500000
  49
0.0
  49
-0.2500000
  49
0.0
  49
-0.2500000
  0
ENDTAB
  0
TABLE
  2
STYLE
 70
    2
  0
STYLE
  2
STANDARD
 70
    64
 40
 0.0
 41
 1.0
 50
 0.0
 71
    0
 42
 0.2
  3
Arial
  4

  0
ENDTAB
  0
TABLE
  2
VPORT
 70
     1
  0
VPORT
  2
*ACTIVE
 70
     0
 10
0.0
 20
0.0
 11
1.0
 21
1.0
 12
2.281323
 22
14.37967
 13
0.0
 23
0.0
 14
0.05
 24
0.05
 15
0.0
 25
0.0
 16
0.0
 26
0.0
 36
1.0
 17
18.519313
 27
8.526316
 37
0.0
 40
7.381408
 41
1.380723
 42
50.0
 43
-1.104533
 44
-1.104533
 50
0.0
 51
0.0
 71
     0
 72
   100
 73
     1
 74
     1
 75
     0
 76
     0
 77
     0
 78
     0
  0
ENDTAB
  0
TABLE
  2
LAYER
 70
     3
  0
LAYER
  2
0
 70
    64
 62
     7
  6
CONTINUOUS
  0
ENDTAB
  0
TABLE
  2
VIEW
 70
     0
  0
ENDTAB
  0
TABLE
  2
UCS
 70
     0
  0
ENDTAB
  0
TABLE
  2
DWGMGR
 70
     0
  0
ENDTAB
  0
ENDSEC
  0
SECTION
  2
BLOCKS
  0
ENDSEC
  0
SECTION
  2
ENTITIES
  0
LINE
  8
0
  62
    0
  10
127.456
  20
71.62616
  30
0.0
  11
139.4561
  21
71.62616
  31
0.0
  0
ARC
  8
0
  62
    0
  10
127.456
  20
70.62616
  30
0.0
  40
1.0000000
  50
90
  51
180
  0
LINE
  8
0
  62
    0
  10
126.456
  20
58.62615
  30
0.0
  11
126.456
  21
70.62616
  31
0.0
  0
ARC
  8
0
  62
    0
  10
127.456
  20
58.62615
  30
0.0
  40
1.0000000
  50
180
  51
270
  0
LINE
  8
0
  62
    0
  10
139.4561
  20
57.62615
  30
0.0
  11
127.456
  21
57.62615
  31
0.0
  0
ARC
  8
0
  62
    0
  10
139.4561
  20
58.62615
  30
0.0
  40
1.0000000
  50
270
  51
0.0
  0
LINE
  8
0
  62
    0
  10
140.4561
  20
70.62616
  30
0.0
  11
140.4561
  21
58.62615
  31
0.0
  0
ARC
  8
0
  62
    0
  10
139.4561
  20
70.62616
  30
0.0
  40
1.0000000
  50
0.0
  51
90
  0
LINE
  8
0
  62
    0
  10
216.9436
  20
77.67616
  30
0.0
  11
216.9436
  21
89.67617
  31
0.0
  0
ARC
  8
0
  62
    0
  10
217.9436
  20
77.67616
  30
0.0
  40
1.0000000
  50
180
  51
270
  0
LINE
  8
0
  62
    0
  10
229.9436
  20
76.67616
  30
0.0
  11
217.9436
  21
76.67616
  31
0.0
  0
ARC
  8
0
  62
    0
  10
229.9436
  20
77.67616
  30
0.0
  40
1.0000000
  50
270
  51
0.0
  0
LINE
  8
0
  62
    0
  10
230.9436
  20
89.67617
  30
0.0
  11
230.9436
  21
77.67616
  31
0.0
  0
ARC
  8
0
  62
    0
  10
229.9436
  20
89.67617
  30
0.0
  40
1.0000000
  50
0.0
  51
90
  0
LINE
  8
0
  62
    0
  10
217.9436
  20
90.67617
  30
0.0
  11
229.9436
  21
90.67617
  31
0.0
  0
ARC
  8
0
  62
    0
  10
217.9436
  20
89.67617
  30
0.0
  40
1.0000000
  50
90
  51
180
  0
ARC
  8
0
  62
    0
  10
79.83102
  20
39.57614
  30
0.0
  40
1.0000000
  50
180
  51
270
  0
LINE
  8
0
  62
    0
  10
91.83102
  20
38.57614
  30
0.0
  11
79.83102
  21
38.57614
  31
0.0
  0
ARC
  8
0
  62
    0
  10
91.83102
  20
39.57614
  30
0.0
  40
1.0000000
  50
270
  51
0.0
  0
LINE
  8
0
  62
    0
  10
92.83102
  20
51.57615
  30
0.0
  11
92.83102
  21
39.57614
  31
0.0
  0
ARC
  8
0
  62
    0
  10
91.83102
  20
51.57615
  30
0.0
  40
1.0000000
  50
0.0
  51
90
  0
LINE
  8
0
  62
    0
  10
79.83102
  20
52.57615
  30
0.0
  11
91.83102
  21
52.57615
  31
0.0
  0
ARC
  8
0
  62
    0
  10
79.83102
  20
51.57615
  30
0.0
  40
1.0000000
  50
90
  51
180
  0
LINE
  8
0
  62
    0
  10
78.83102
  20
39.57614
  30
0.0
  11
78.83102
  21
51.57615
  31
0.0
  0
LINE
  8
0
  62
    0
  10
164.5561
  20
58.62615
  30
0.0
  11
164.5561
  21
70.62616
  31
0.0
  0
ARC
  8
0
  62
    0
  10
165.5561
  20
58.62615
  30
0.0
  40
1.0000000
  50
180
  51
270
  0
LINE
  8
0
  62
    0
  10
177.5561
  20
57.62615
  30
0.0
  11
165.5561
  21
57.62615
  31
0.0
  0
ARC
  8
0
  62
    0
  10
177.5561
  20
58.62615
  30
0.0
  40
1.0000000
  50
270
  51
0.0
  0
LINE
  8
0
  62
    0
  10
178.5561
  20
70.62616
  30
0.0
  11
178.5561
  21
58.62615
  31
0.0
  0
ARC
  8
0
  62
    0
  10
177.5561
  20
70.62616
  30
0.0
  40
1.0000000
  50
0.0
  51
90
  0
LINE
  8
0
  62
    0
  10
165.5561
  20
71.62616
  30
0.0
  11
177.5561
  21
71.62616
  31
0.0
  0
ARC
  8
0
  62
    0
  10
165.5561
  20
70.62616
  30
0.0
  40
1.0000000
  50
90
  51
180
  0
LINE
  8
0
  62
    0
  10
116.931
  20
39.57614
  30
0.0
  11
116.931
  21
51.57615
  31
0.0
  0
ARC
  8
0
  62
    0
  10
117.931
  20
39.57614
  30
0.0
  40
1.0000000
  50
180
  51
270
  0
LINE
  8
0
  62
    0
  10
129.931
  20
38.57614
  30
0.0
  11
117.931
  21
38.57614
  31
0.0
  0
ARC
  8
0
  62
    0
  10
129.931
  20
39.57614
  30
0.0
  40
1.0000000
  50
270
  51
0.0
  0
LINE
  8
0
  62
    0
  10
130.931
  20
51.57615
  30
0.0
  11
130.931
  21
39.57614
  31
0.0
  0
ARC
  8
0
  62
    0
  10
129.931
  20
51.57615
  30
0.0
  40
1.0000000
  50
0.0
  51
90
  0
LINE
  8
0
  62
    0
  10
117.931
  20
52.57615
  30
0.0
  11
129.931
  21
52.57615
  31
0.0
  0
ARC
  8
0
  62
    0
  10
117.931
  20
51.57615
  30
0.0
  40
1.0000000
  50
90
  51
180
  0
LINE
  8
0
  62
    0
  10
155.0311
  20
39.57614
  30
0.0
  11
155.0311
  21
51.57615
  31
0.0
  0
ARC
  8
0
  62
    0
  10
156.0311
  20
39.57614
  30
0.0
  40
1.0000000
  50
180
  51
270
  0
LINE
  8
0
  62
    0
  10
168.0311
  20
38.57614
  30
0.0
  11
156.0311
  21
38.57614
  31
0.0
  0
ARC
  8
0
  62
    0
  10
168.0311
  20
39.57614
  30
0.0
  40
1.0000000
  50
270
  51
0.0
  0
LINE
  8
0
  62
    0
  10
169.0311
  20
51.57615
  30
0.0
  11
169.0311
  21
39.57614
  31
0.0
  0
ARC
  8
0
  62
    0
  10
168.0311
  20
51.57615
  30
0.0
  40
1.0000000
  50
0.0
  51
90
  0
LINE
  8
0
  62
    0
  10
156.0311
  20
52.57615
  30
0.0
  11
168.0311
  21
52.57615
  31
0.0
  0
ARC
  8
0
  62
    0
  10
156.0311
  20
51.57615
  30
0.0
  40
1.0000000
  50
90
  51
180
  0
ARC
  8
0
  62
    0
  10
184.6061
  20
58.62615
  30
0.0
  40
1.0000000
  50
180
  51
270
  0
LINE
  8
0
  62
    0
  10
196.6061
  20
57.62615
  30
0.0
  11
184.6061
  21
57.62615
  31
0.0
  0
ARC
  8
0
  62
    0
  10
196.6061
  20
58.62615
  30
0.0
  40
1.0000000
  50
270
  51
0.0
  0
LINE
  8
0
  62
    0
  10
197.6061
  20
70.62616
  30
0.0
  11
197.6061
  21
58.62615
  31
0.0
  0
ARC
  8
0
  62
    0
  10
196.6061
  20
70.62616
  30
0.0
  40
1.0000000
  50
0.0
  51
90
  0
LINE
  8
0
  62
    0
  10
184.6061
  20
71.62616
  30
0.0
  11
196.6061
  21
71.62616
  31
0.0
  0
ARC
  8
0
  62
    0
  10
184.6061
  20
70.62616
  30
0.0
  40
1.0000000
  50
90
  51
180
  0
LINE
  8
0
  62
    0
  10
183.6061
  20
58.62615
  30
0.0
  11
183.6061
  21
70.62616
  31
0.0
  0
LINE
  8
0
  62
    0
  10
202.6561
  20
58.62615
  30
0.0
  11
202.6561
  21
70.62616
  31
0.0
  0
ARC
  8
0
  62
    0
  10
203.6561
  20
58.62615
  30
0.0
  40
1.0000000
  50
180
  51
270
  0
LINE
  8
0
  62
    0
  10
215.6561
  20
57.62615
  30
0.0
  11
203.6561
  21
57.62615
  31
0.0
  0
ARC
  8
0
  62
    0
  10
215.6561
  20
58.62615
  30
0.0
  40
1.0000000
  50
270
  51
0.0
  0
LINE
  8
0
  62
    0
  10
216.6561
  20
70.62616
  30
0.0
  11
216.6561
  21
58.62615
  31
0.0
  0
ARC
  8
0
  62
    0
  10
215.6561
  20
70.62616
  30
0.0
  40
1.0000000
  50
0.0
  51
90
  0
LINE
  8
0
  62
    0
  10
203.6561
  20
71.62616
  30
0.0
  11
215.6561
  21
71.62616
  31
0.0
  0
ARC
  8
0
  62
    0
  10
203.6561
  20
70.62616
  30
0.0
  40
1.0000000
  50
90
  51
180
  0
LINE
  8
0
  62
    0
  10
107.406
  20
58.62615
  30
0.0
  11
107.406
  21
70.62616
  31
0.0
  0
ARC
  8
0
  62
    0
  10
108.406
  20
58.62615
  30
0.0
  40
1.0000000
  50
180
  51
270
  0
LINE
  8
0
  62
    0
  10
120.406
  20
57.62615
  30
0.0
  11
108.406
  21
57.62615
  31
0.0
  0
ARC
  8
0
  62
    0
  10
120.406
  20
58.62615
  30
0.0
  40
1.0000000
  50
270
  51
0.0
  0
LINE
  8
0
  62
    0
  10
121.406
  20
70.62616
  30
0.0
  11
121.406
  21
58.62615
  31
0.0
  0
ARC
  8
0
  62
    0
  10
120.406
  20
70.62616
  30
0.0
  40
1.0000000
  50
0.0
  51
90
  0
LINE
  8
0
  62
    0
  10
108.406
  20
71.62616
  30
0.0
  11
120.406
  21
71.62616
  31
0.0
  0
ARC
  8
0
  62
    0
  10
108.406
  20
70.62616
  30
0.0
  40
1.0000000
  50
90
  51
180
  0
LINE
  8
0
  62
    0
  10
193.1311
  20
39.57614
  30
0.0
  11
193.1311
  21
51.57615
  31
0.0
  0
ARC
  8
0
  62
    0
  10
194.1311
  20
39.57614
  30
0.0
  40
1.0000000
  50
180
  51
270
  0
LINE
  8
0
  62
    0
  10
206.1311
  20
38.57614
  30
0.0
  11
194.1311
  21
38.57614
  31
0.0
  0
ARC
  8
0
  62
    0
  10
206.1311
  20
39.57614
  30
0.0
  40
1.0000000
  50
270
  51
0.0
  0
LINE
  8
0
  62
    0
  10
207.1311
  20
51.57615
  30
0.0
  11
207.1311
  21
39.57614
  31
0.0
  0
ARC
  8
0
  62
    0
  10
206.1311
  20
51.57615
  30
0.0
  40
1.0000000
  50
0.0
  51
90
  0
LINE
  8
0
  62
    0
  10
194.1311
  20
52.57615
  30
0.0
  11
206.1311
  21
52.57615
  31
0.0
  0
ARC
  8
0
  62
    0
  10
194.1311
  20
51.57615
  30
0.0
  40
1.0000000
  50
90
  51
180
  0
LINE
  8
0
  62
    0
  10
98.88103
  20
52.57615
  30
0.0
  11
110.881
  21
52.57615
  31
0.0
  0
ARC
  8
0
  62
    0
  10
98.88103
  20
51.57615
  30
0.0
  40
1.0000000
  50
90
  51
180
  0
LINE
  8
0
  62
    0
  10
97.88103
  20
39.57614
  30
0.0
  11
97.88103
  21
51.57615
  31
0.0
  0
ARC
  8
0
  62
    0
  10
98.88103
  20
39.57614
  30
0.0
  40
1.0000000
  50
180
  51
270
  0
LINE
  8
0
  62
    0
  10
110.881
  20
38.57614
  30
0.0
  11
98.88103
  21
38.57614
  31
0.0
  0
ARC
  8
0
  62
    0
  10
110.881
  20
39.57614
  30
0.0
  40
1.0000000
  50
270
  51
0.0
  0
LINE
  8
0
  62
    0
  10
111.881
  20
51.57615
  30
0.0
  11
111.881
  21
39.57614
  31
0.0
  0
ARC
  8
0
  62
    0
  10
110.881
  20
51.57615
  30
0.0
  40
1.0000000
  50
0.0
  51
90
  0
LINE
  8
0
  62
    0
  10
135.981
  20
39.57614
  30
0.0
  11
135.981
  21
51.57615
  31
0.0
  0
ARC
  8
0
  62
    0
  10
136.981
  20
39.57614
  30
0.0
  40
1.0000000
  50
180
  51
270
  0
LINE
  8
0
  62
    0
  10
148.981
  20
38.57614
  30
0.0
  11
136.981
  21
38.57614
  31
0.0
  0
ARC
  8
0
  62
    0
  10
148.981
  20
39.57614
  30
0.0
  40
1.0000000
  50
270
  51
0.0
  0
LINE
  8
0
  62
    0
  10
149.9811
  20
51.57615
  30
0.0
  11
149.9811
  21
39.57614
  31
0.0
  0
ARC
  8
0
  62
    0
  10
148.981
  20
51.57615
  30
0.0
  40
1.0000000
  50
0.0
  51
90
  0
LINE
  8
0
  62
    0
  10
136.981
  20
52.57615
  30
0.0
  11
148.981
  21
52.57615
  31
0.0
  0
ARC
  8
0
  62
    0
  10
136.981
  20
51.57615
  30
0.0
  40
1.0000000
  50
90
  51
180
  0
LINE
  8
0
  62
    0
  10
174.0811
  20
39.57614
  30
0.0
  11
174.0811
  21
51.57615
  31
0.0
  0
ARC
  8
0
  62
    0
  10
175.0811
  20
39.57614
  30
0.0
  40
1.0000000
  50
180
  51
270
  0
LINE
  8
0
  62
    0
  10
187.0811
  20
38.57614
  30
0.0
  11
175.0811
  21
38.57614
  31
0.0
  0
ARC
  8
0
  62
    0
  10
187.0811
  20
39.57614
  30
0.0
  40
1.0000000
  50
270
  51
0.0
  0
LINE
  8
0
  62
    0
  10
188.0811
  20
51.57615
  30
0.0
  11
188.0811
  21
39.57614
  31
0.0
  0
ARC
  8
0
  62
    0
  10
187.0811
  20
51.57615
  30
0.0
  40
1.0000000
  50
0.0
  51
90
  0
LINE
  8
0
  62
    0
  10
175.0811
  20
52.57615
  30
0.0
  11
187.0811
  21
52.57615
  31
0.0
  0
ARC
  8
0
  62
    0
  10
175.0811
  20
51.57615
  30
0.0
  40
1.0000000
  50
90
  51
180
  0
LINE
  8
0
  62
    0
  10
59.78101
  20
39.57614
  30
0.0
  11
59.78101
  21
51.57615
  31
0.0
  0
ARC
  8
0
  62
    0
  10
60.78101
  20
39.57614
  30
0.0
  40
1.0000000
  50
180
  51
270
  0
LINE
  8
0
  62
    0
  10
72.78101
  20
38.57614
  30
0.0
  11
60.78101
  21
38.57614
  31
0.0
  0
ARC
  8
0
  62
    0
  10
72.78101
  20
39.57614
  30
0.0
  40
1.0000000
  50
270
  51
0.0
  0
LINE
  8
0
  62
    0
  10
73.78101
  20
51.57615
  30
0.0
  11
73.78101
  21
39.57614
  31
0.0
  0
ARC
  8
0
  62
    0
  10
72.78101
  20
51.57615
  30
0.0
  40
1.0000000
  50
0.0
  51
90
  0
LINE
  8
0
  62
    0
  10
60.78101
  20
52.57615
  30
0.0
  11
72.78101
  21
52.57615
  31
0.0
  0
ARC
  8
0
  62
    0
  10
60.78101
  20
51.57615
  30
0.0
  40
1.0000000
  50
90
  51
180
  0
LINE
  8
0
  62
    0
  10
19.29974
  20
20.52613
  30
0.0
  11
19.29974
  21
32.52613
  31
0.0
  0
ARC
  8
0
  62
    0
  10
20.29974
  20
20.52613
  30
0.0
  40
1.0000000
  50
180
  51
270
  0
LINE
  8
0
  62
    0
  10
32.29974
  20
19.52613
  30
0.0
  11
20.29974
  21
19.52613
  31
0.0
  0
ARC
  8
0
  62
    0
  10
32.29974
  20
20.52613
  30
0.0
  40
1.0000000
  50
270
  51
0.0
  0
LINE
  8
0
  62
    0
  10
33.29974
  20
32.52613
  30
0.0
  11
33.29974
  21
20.52613
  31
0.0
  0
ARC
  8
0
  62
    0
  10
32.29974
  20
32.52613
  30
0.0
  40
1.0000000
  50
0.0
  51
90
  0
LINE
  8
0
  62
    0
  10
20.29974
  20
33.52613
  30
0.0
  11
32.29974
  21
33.52613
  31
0.0
  0
ARC
  8
0
  62
    0
  10
20.29974
  20
32.52613
  30
0.0
  40
1.0000000
  50
90
  51
180
  0
ARC
  8
0
  62
    0
  10
146.5061
  20
58.62615
  30
0.0
  40
1.0000000
  50
180
  51
270
  0
LINE
  8
0
  62
    0
  10
158.5061
  20
57.62615
  30
0.0
  11
146.5061
  21
57.62615
  31
0.0
  0
ARC
  8
0
  62
    0
  10
158.5061
  20
58.62615
  30
0.0
  40
1.0000000
  50
270
  51
0.0
  0
LINE
  8
0
  62
    0
  10
159.5061
  20
70.62616
  30
0.0
  11
159.5061
  21
58.62615
  31
0.0
  0
ARC
  8
0
  62
    0
  10
158.5061
  20
70.62616
  30
0.0
  40
1.0000000
  50
0.0
  51
90
  0
LINE
  8
0
  62
    0
  10
146.5061
  20
71.62616
  30
0.0
  11
158.5061
  21
71.62616
  31
0.0
  0
ARC
  8
0
  62
    0
  10
146.5061
  20
70.62616
  30
0.0
  40
1.0000000
  50
90
  51
180
  0
LINE
  8
0
  62
    0
  10
145.5061
  20
58.62615
  30
0.0
  11
145.5061
  21
70.62616
  31
0.0
  0
ARC
  8
0
  62
    0
  10
103.6435
  20
77.67616
  30
0.0
  40
1.0000000
  50
180
  51
270
  0
LINE
  8
0
  62
    0
  10
115.6435
  20
76.67616
  30
0.0
  11
103.6435
  21
76.67616
  31
0.0
  0
ARC
  8
0
  62
    0
  10
115.6435
  20
77.67616
  30
0.0
  40
1.0000000
  50
270
  51
0.0
  0
LINE
  8
0
  62
    0
  10
116.6435
  20
89.67617
  30
0.0
  11
116.6435
  21
77.67616
  31
0.0
  0
ARC
  8
0
  62
    0
  10
115.6435
  20
89.67617
  30
0.0
  40
1.0000000
  50
0.0
  51
90
  0
LINE
  8
0
  62
    0
  10
103.6435
  20
90.67617
  30
0.0
  11
115.6435
  21
90.67617
  31
0.0
  0
ARC
  8
0
  62
    0
  10
103.6435
  20
89.67617
  30
0.0
  40
1.0000000
  50
90
  51
180
  0
LINE
  8
0
  62
    0
  10
102.6435
  20
77.67616
  30
0.0
  11
102.6435
  21
89.67617
  31
0.0
  0
CIRCLE
  8
0
  62
    0
  10
15.01448
  20
120.7005
  30
0.0
  40
1.7
  0
ARC
  8
0
  62
    0
  10
226.1743
  20
56.62615
  30
0.0
  40
1.0000000
  50
180
  51
270
  0
LINE
  8
0
  62
    0
  10
231.1743
  20
55.62615
  30
0.0
  11
226.1743
  21
55.62615
  31
0.0
  0
ARC
  8
0
  62
    0
  10
231.1743
  20
56.62615
  30
0.0
  40
1.0000000
  50
270
  51
0.0
  0
ARC
  8
0
  62
    0
  10
233.1743
  20
56.62615
  30
0.0
  40
1.0000000
  50
90
  51
180
  0
LINE
  8
0
  62
    0
  10
248.0504
  20
57.62615
  30
0.0
  11
233.1743
  21
57.62615
  31
0.0
  0
ARC
  8
0
  62
    0
  10
248.0504
  20
56.62615
  30
0.0
  40
1.0000000
  50
0.0
  51
90
  0
ARC
  8
0
  62
    0
  10
250.0504
  20
56.62615
  30
0.0
  40
1.0000000
  50
180
  51
270
  0
LINE
  8
0
  62
    0
  10
255.0504
  20
55.62615
  30
0.0
  11
250.0504
  21
55.62615
  31
0.0
  0
ARC
  8
0
  62
    0
  10
255.0504
  20
56.62615
  30
0.0
  40
1.0000000
  50
270
  51
0.0
  0
LINE
  8
0
  62
    0
  10
256.0504
  20
69.62615
  30
0.0
  11
256.0504
  21
56.62615
  31
0.0
  0
ARC
  8
0
  62
    0
  10
255.0504
  20
69.62615
  30
0.0
  40
1.000015
  50
0.0
  51
90
  0
LINE
  8
0
  62
    0
  10
248.3444
  20
70.62616
  30
0.0
  11
255.0504
  21
70.62616
  31
0.0
  0
ARC
  8
0
  62
    0
  10
248.3444
  20
71.62616
  30
0.0
  40
1.000002
  50
209.9999
  51
270
  0
ARC
  8
0
  62
    0
  10
246.6124
  20
70.62616
  30
0.0
  40
1.000002
  50
29.99993
  51
90
  0
LINE
  8
0
  62
    0
  10
234.6124
  20
71.62616
  30
0.0
  11
246.6124
  21
71.62616
  31
0.0
  0
ARC
  8
0
  62
    0
  10
234.6124
  20
70.62616
  30
0.0
  40
1.0000000
  50
90
  51
150.0001
  0
ARC
  8
0
  62
    0
  10
232.8803
  20
71.62616
  30
0.0
  40
1.0000000
  50
270
  51
330.0001
  0
LINE
  8
0
  62
    0
  10
226.1743
  20
70.62616
  30
0.0
  11
232.8803
  21
70.62616
  31
0.0
  0
ARC
  8
0
  62
    0
  10
226.1743
  20
69.62615
  30
0.0
  40
1.0000000
  50
90
  51
180
  0
LINE
  8
0
  62
    0
  10
225.1743
  20
56.62615
  30
0.0
  11
225.1743
  21
69.62615
  31
0.0
  0
LINE
  8
0
  62
    0
  10
19.29974
  20
58.62615
  30
0.0
  11
19.29974
  21
70.62616
  31
0.0
  0
ARC
  8
0
  62
    0
  10
20.29974
  20
58.62615
  30
0.0
  40
1.0000000
  50
180
  51
270
  0
LINE
  8
0
  62
    0
  10
37.06224
  20
57.62615
  30
0.0
  11
20.29974
  21
57.62615
  31
0.0
  0
ARC
  8
0
  62
    0
  10
37.06224
  20
58.62615
  30
0.0
  40
1.0000000
  50
270
  51
0.0
  0
LINE
  8
0
  62
    0
  10
38.06224
  20
70.62616
  30
0.0
  11
38.06224
  21
58.62615
  31
0.0
  0
ARC
  8
0
  62
    0
  10
37.06224
  20
70.62616
  30
0.0
  40
1.0000000
  50
0.0
  51
90
  0
LINE
  8
0
  62
    0
  10
20.29974
  20
71.62616
  30
0.0
  11
37.06224
  21
71.62616
  31
0.0
  0
ARC
  8
0
  62
    0
  10
20.29974
  20
70.62616
  30
0.0
  40
1.0000000
  50
90
  51
180
  0
ARC
  8
0
  62
    0
  10
65.54351
  20
77.67616
  30
0.0
  40
1.0000000
  50
180
  51
270
  0
LINE
  8
0
  62
    0
  10
77.54352
  20
76.67616
  30
0.0
  11
65.54351
  21
76.67616
  31
0.0
  0
ARC
  8
0
  62
    0
  10
77.54352
  20
77.67616
  30
0.0
  40
1.0000000
  50
270
  51
0.0
  0
LINE
  8
0
  62
    0
  10
78.54352
  20
89.67617
  30
0.0
  11
78.54352
  21
77.67616
  31
0.0
  0
ARC
  8
0
  62
    0
  10
77.54352
  20
89.67617
  30
0.0
  40
1.0000000
  50
0.0
  51
90
  0
LINE
  8
0
  62
    0
  10
65.54351
  20
90.67617
  30
0.0
  11
77.54352
  21
90.67617
  31
0.0
  0
ARC
  8
0
  62
    0
  10
65.54351
  20
89.67617
  30
0.0
  40
1.0000000
  50
90
  51
180
  0
LINE
  8
0
  62
    0
  10
64.54351
  20
77.67616
  30
0.0
  11
64.54351
  21
89.67617
  31
0.0
  0
LINE
  8
0
  62
    0
  10
54.73101
  20
51.57615
  30
0.0
  11
54.73101
  21
39.57614
  31
0.0
  0
ARC
  8
0
  62
    0
  10
53.731
  20
51.57615
  30
0.0
  40
1.0000000
  50
0.0
  51
90
  0
LINE
  8
0
  62
    0
  10
20.29974
  20
52.57615
  30
0.0
  11
53.731
  21
52.57615
  31
0.0
  0
ARC
  8
0
  62
    0
  10
20.29974
  20
51.57615
  30
0.0
  40
1.0000000
  50
90
  51
180
  0
LINE
  8
0
  62
    0
  10
19.29974
  20
39.57614
  30
0.0
  11
19.29974
  21
51.57615
  31
0.0
  0
ARC
  8
0
  62
    0
  10
20.29974
  20
39.57614
  30
0.0
  40
1.0000000
  50
180
  51
242.8385
  0
ARC
  8
0
  62
    0
  10
19.38674
  20
37.79669
  30
0.0
  40
1.0000000
  50
0.0
  51
62.83849
  0
LINE
  8
0
  62
    0
  10
20.38674
  20
37.57614
  30
0.0
  11
20.38674
  21
37.79669
  31
0.0
  0
ARC
  8
0
  62
    0
  10
21.38674
  20
37.57614
  30
0.0
  40
1.0000000
  50
180
  51
270
  0
LINE
  8
0
  62
    0
  10
26.38674
  20
36.57614
  30
0.0
  11
21.38674
  21
36.57614
  31
0.0
  0
ARC
  8
0
  62
    0
  10
26.38674
  20
37.57614
  30
0.0
  40
1.0000000
  50
270
  51
0.0
  0
ARC
  8
0
  62
    0
  10
28.38674
  20
37.57614
  30
0.0
  40
1.0000000
  50
90
  51
180
  0
LINE
  8
0
  62
    0
  10
43.26275
  20
38.57614
  30
0.0
  11
28.38674
  21
38.57614
  31
0.0
  0
ARC
  8
0
  62
    0
  10
43.26275
  20
37.57614
  30
0.0
  40
1.0000000
  50
0.0
  51
90
  0
ARC
  8
0
  62
    0
  10
45.26275
  20
37.57614
  30
0.0
  40
1.0000000
  50
180
  51
270
  0
LINE
  8
0
  62
    0
  10
50.26275
  20
36.57614
  30
0.0
  11
45.26275
  21
36.57614
  31
0.0
  0
ARC
  8
0
  62
    0
  10
50.26275
  20
37.57614
  30
0.0
  40
1.0000000
  50
270
  51
0.0
  0
ARC
  8
0
  62
    0
  10
52.26275
  20
37.57614
  30
0.0
  40
1.0000000
  50
90
  51
180
  0
LINE
  8
0
  62
    0
  10
53.731
  20
38.57614
  30
0.0
  11
52.26275
  21
38.57614
  31
0.0
  0
ARC
  8
0
  62
    0
  10
53.731
  20
39.57614
  30
0.0
  40
1.0000000
  50
270
  51
0.0
  0
LINE
  8
0
  62
    0
  10
159.7936
  20
77.67616
  30
0.0
  11
159.7936
  21
89.67617
  31
0.0
  0
ARC
  8
0
  62
    0
  10
160.7936
  20
77.67616
  30
0.0
  40
1.0000000
  50
180
  51
270
  0
LINE
  8
0
  62
    0
  10
172.7936
  20
76.67616
  30
0.0
  11
160.7936
  21
76.67616
  31
0.0
  0
ARC
  8
0
  62
    0
  10
172.7936
  20
77.67616
  30
0.0
  40
1.0000000
  50
270
  51
0.0
  0
LINE
  8
0
  62
    0
  10
173.7936
  20
89.67617
  30
0.0
  11
173.7936
  21
77.67616
  31
0.0
  0
ARC
  8
0
  62
    0
  10
172.7936
  20
89.67617
  30
0.0
  40
1.0000000
  50
0.0
  51
90
  0
LINE
  8
0
  62
    0
  10
160.7936
  20
90.67617
  30
0.0
  11
172.7936
  21
90.67617
  31
0.0
  0
ARC
  8
0
  62
    0
  10
160.7936
  20
89.67617
  30
0.0
  40
1.0000000
  50
90
  51
180
  0
LINE
  8
0
  62
    0
  10
154.7368
  20
35.52614
  30
0.0
  11
159.7368
  21
35.52614
  31
0.0
  0
ARC
  8
0
  62
    0
  10
154.7368
  20
34.52614
  30
0.0
  40
1.0000000
  50
90
  51
180
  0
LINE
  8
0
  62
    0
  10
153.7368
  20
21.52613
  30
0.0
  11
153.7368
  21
34.52614
  31
0.0
  0
ARC
  8
0
  62
    0
  10
154.7368
  20
21.52613
  30
0.0
  40
1.0000000
  50
180
  51
270
  0
LINE
  8
0
  62
    0
  10
161.4428
  20
20.52613
  30
0.0
  11
154.7368
  21
20.52613
  31
0.0
  0
ARC
  8
0
  62
    0
  10
161.4428
  20
19.52613
  30
0.0
  40
1.000002
  50
29.99993
  51
90
  0
ARC
  8
0
  62
    0
  10
163.1748
  20
20.52613
  30
0.0
  40
1.000002
  50
209.9999
  51
270
  0
LINE
  8
0
  62
    0
  10
175.1748
  20
19.52613
  30
0.0
  11
163.1748
  21
19.52613
  31
0.0
  0
ARC
  8
0
  62
    0
  10
175.1748
  20
20.52613
  30
0.0
  40
1.0000000
  50
270
  51
330.0001
  0
ARC
  8
0
  62
    0
  10
176.9069
  20
19.52613
  30
0.0
  40
1.0000000
  50
90
  51
150.0001
  0
LINE
  8
0
  62
    0
  10
188.3373
  20
20.52613
  30
0.0
  11
176.9069
  21
20.52613
  31
0.0
  0
ARC
  8
0
  62
    0
  10
188.3373
  20
21.52613
  30
0.0
  40
1.0000000
  50
270
  51
0.0
  0
LINE
  8
0
  62
    0
  10
189.3373
  20
34.52614
  30
0.0
  11
189.3373
  21
21.52613
  31
0.0
  0
ARC
  8
0
  62
    0
  10
188.3373
  20
34.52614
  30
0.0
  40
1.0000000
  50
0.0
  51
90
  0
LINE
  8
0
  62
    0
  10
178.6128
  20
35.52614
  30
0.0
  11
188.3373
  21
35.52614
  31
0.0
  0
ARC
  8
0
  62
    0
  10
178.6128
  20
34.52614
  30
0.0
  40
1.0000000
  50
90
  51
180
  0
ARC
  8
0
  62
    0
  10
176.6128
  20
34.52614
  30
0.0
  40
1.0000000
  50
270
  51
0.0
  0
LINE
  8
0
  62
    0
  10
161.7368
  20
33.52613
  30
0.0
  11
176.6128
  21
33.52613
  31
0.0
  0
ARC
  8
0
  62
    0
  10
161.7368
  20
34.52614
  30
0.0
  40
1.0000000
  50
180
  51
270
  0
ARC
  8
0
  62
    0
  10
159.7368
  20
34.52614
  30
0.0
  40
1.0000000
  50
0.0
  51
90
  0
LINE
  8
0
  62
    0
  10
121.6935
  20
77.67616
  30
0.0
  11
121.6935
  21
89.67617
  31
0.0
  0
ARC
  8
0
  62
    0
  10
122.6935
  20
77.67616
  30
0.0
  40
1.0000000
  50
180
  51
270
  0
LINE
  8
0
  62
    0
  10
134.6935
  20
76.67616
  30
0.0
  11
122.6935
  21
76.67616
  31
0.0
  0
ARC
  8
0
  62
    0
  10
134.6935
  20
77.67616
  30
0.0
  40
1.0000000
  50
270
  51
0.0
  0
LINE
  8
0
  62
    0
  10
135.6935
  20
89.67617
  30
0.0
  11
135.6935
  21
77.67616
  31
0.0
  0
ARC
  8
0
  62
    0
  10
134.6935
  20
89.67617
  30
0.0
  40
1.0000000
  50
0.0
  51
90
  0
LINE
  8
0
  62
    0
  10
122.6935
  20
90.67617
  30
0.0
  11
134.6935
  21
90.67617
  31
0.0
  0
ARC
  8
0
  62
    0
  10
122.6935
  20
89.67617
  30
0.0
  40
1.0000000
  50
90
  51
180
  0
LINE
  8
0
  62
    0
  10
221.7061
  20
20.52613
  30
0.0
  11
221.7061
  21
32.52613
  31
0.0
  0
ARC
  8
0
  62
    0
  10
222.7061
  20
20.52613
  30
0.0
  40
1.0000000
  50
180
  51
270
  0
LINE
  8
0
  62
    0
  10
234.7061
  20
19.52613
  30
0.0
  11
222.7061
  21
19.52613
  31
0.0
  0
ARC
  8
0
  62
    0
  10
234.7061
  20
20.52613
  30
0.0
  40
1.0000000
  50
270
  51
0.0
  0
LINE
  8
0
  62
    0
  10
235.7061
  20
32.52613
  30
0.0
  11
235.7061
  21
20.52613
  31
0.0
  0
ARC
  8
0
  62
    0
  10
234.7061
  20
32.52613
  30
0.0
  40
1.0000000
  50
0.0
  51
90
  0
LINE
  8
0
  62
    0
  10
222.7061
  20
33.52613
  30
0.0
  11
234.7061
  21
33.52613
  31
0.0
  0
ARC
  8
0
  62
    0
  10
222.7061
  20
32.52613
  30
0.0
  40
1.0000000
  50
90
  51
180
  0
LINE
  8
0
  62
    0
  10
83.59352
  20
77.67616
  30
0.0
  11
83.59352
  21
89.67617
  31
0.0
  0
ARC
  8
0
  62
    0
  10
84.59352
  20
77.67616
  30
0.0
  40
1.0000000
  50
180
  51
270
  0
LINE
  8
0
  62
    0
  10
96.59353
  20
76.67616
  30
0.0
  11
84.59352
  21
76.67616
  31
0.0
  0
ARC
  8
0
  62
    0
  10
96.59353
  20
77.67616
  30
0.0
  40
1.0000000
  50
270
  51
0.0
  0
LINE
  8
0
  62
    0
  10
97.59353
  20
89.67617
  30
0.0
  11
97.59353
  21
77.67616
  31
0.0
  0
ARC
  8
0
  62
    0
  10
96.59353
  20
89.67617
  30
0.0
  40
1.0000000
  50
0.0
  51
90
  0
LINE
  8
0
  62
    0
  10
84.59352
  20
90.67617
  30
0.0
  11
96.59353
  21
90.67617
  31
0.0
  0
ARC
  8
0
  62
    0
  10
84.59352
  20
89.67617
  30
0.0
  40
1.0000000
  50
90
  51
180
  0
LINE
  8
0
  62
    0
  10
45.4935
  20
77.67616
  30
0.0
  11
45.4935
  21
89.67617
  31
0.0
  0
ARC
  8
0
  62
    0
  10
46.4935
  20
77.67616
  30
0.0
  40
1.0000000
  50
180
  51
270
  0
LINE
  8
0
  62
    0
  10
58.49351
  20
76.67616
  30
0.0
  11
46.4935
  21
76.67616
  31
0.0
  0
ARC
  8
0
  62
    0
  10
58.49351
  20
77.67616
  30
0.0
  40
1.0000000
  50
270
  51
0.0
  0
LINE
  8
0
  62
    0
  10
59.49351
  20
89.67617
  30
0.0
  11
59.49351
  21
77.67616
  31
0.0
  0
ARC
  8
0
  62
    0
  10
58.49351
  20
89.67617
  30
0.0
  40
1.0000000
  50
0.0
  51
90
  0
LINE
  8
0
  62
    0
  10
46.4935
  20
90.67617
  30
0.0
  11
58.49351
  21
90.67617
  31
0.0
  0
ARC
  8
0
  62
    0
  10
46.4935
  20
89.67617
  30
0.0
  40
1.0000000
  50
90
  51
180
  0
LINE
  8
0
  62
    0
  10
140.7435
  20
77.67616
  30
0.0
  11
140.7435
  21
89.67617
  31
0.0
  0
ARC
  8
0
  62
    0
  10
141.7435
  20
77.67616
  30
0.0
  40
1.0000000
  50
180
  51
270
  0
LINE
  8
0
  62
    0
  10
153.7436
  20
76.67616
  30
0.0
  11
141.7435
  21
76.67616
  31
0.0
  0
ARC
  8
0
  62
    0
  10
153.7436
  20
77.67616
  30
0.0
  40
1.0000000
  50
270
  51
0.0
  0
LINE
  8
0
  62
    0
  10
154.7436
  20
89.67617
  30
0.0
  11
154.7436
  21
77.67616
  31
0.0
  0
ARC
  8
0
  62
    0
  10
153.7436
  20
89.67617
  30
0.0
  40
1.0000000
  50
0.0
  51
90
  0
LINE
  8
0
  62
    0
  10
141.7435
  20
90.67617
  30
0.0
  11
153.7436
  21
90.67617
  31
0.0
  0
ARC
  8
0
  62
    0
  10
141.7435
  20
89.67617
  30
0.0
  40
1.0000000
  50
90
  51
180
  0
ARC
  8
0
  62
    0
  10
70.30602
  20
58.62615
  30
0.0
  40
1.0000000
  50
180
  51
270
  0
LINE
  8
0
  62
    0
  10
82.30602
  20
57.62615
  30
0.0
  11
70.30602
  21
57.62615
  31
0.0
  0
ARC
  8
0
  62
    0
  10
82.30602
  20
58.62615
  30
0.0
  40
1.0000000
  50
270
  51
0.0
  0
LINE
  8
0
  62
    0
  10
83.30602
  20
70.62616
  30
0.0
  11
83.30602
  21
58.62615
  31
0.0
  0
ARC
  8
0
  62
    0
  10
82.30602
  20
70.62616
  30
0.0
  40
1.0000000
  50
0.0
  51
90
  0
LINE
  8
0
  62
    0
  10
70.30602
  20
71.62616
  30
0.0
  11
82.30602
  21
71.62616
  31
0.0
  0
ARC
  8
0
  62
    0
  10
70.30602
  20
70.62616
  30
0.0
  40
1.0000000
  50
90
  51
180
  0
LINE
  8
0
  62
    0
  10
69.30602
  20
58.62615
  30
0.0
  11
69.30602
  21
70.62616
  31
0.0
  0
LINE
  8
0
  62
    0
  10
178.8436
  20
77.67616
  30
0.0
  11
178.8436
  21
89.67617
  31
0.0
  0
ARC
  8
0
  62
    0
  10
179.8436
  20
77.67616
  30
0.0
  40
1.0000000
  50
180
  51
270
  0
LINE
  8
0
  62
    0
  10
191.8436
  20
76.67616
  30
0.0
  11
179.8436
  21
76.67616
  31
0.0
  0
ARC
  8
0
  62
    0
  10
191.8436
  20
77.67616
  30
0.0
  40
1.0000000
  50
270
  51
0.0
  0
LINE
  8
0
  62
    0
  10
192.8436
  20
89.67617
  30
0.0
  11
192.8436
  21
77.67616
  31
0.0
  0
ARC
  8
0
  62
    0
  10
191.8436
  20
89.67617
  30
0.0
  40
1.0000000
  50
0.0
  51
90
  0
LINE
  8
0
  62
    0
  10
179.8436
  20
90.67617
  30
0.0
  11
191.8436
  21
90.67617
  31
0.0
  0
ARC
  8
0
  62
    0
  10
179.8436
  20
89.67617
  30
0.0
  40
1.0000000
  50
90
  51
180
  0
LINE
  8
0
  62
    0
  10
200.2748
  20
20.52613
  30
0.0
  11
200.2748
  21
32.52613
  31
0.0
  0
ARC
  8
0
  62
    0
  10
201.2748
  20
20.52613
  30
0.0
  40
1.0000000
  50
180
  51
270
  0
LINE
  8
0
  62
    0
  10
213.2748
  20
19.52613
  30
0.0
  11
201.2748
  21
19.52613
  31
0.0
  0
ARC
  8
0
  62
    0
  10
213.2748
  20
20.52613
  30
0.0
  40
1.0000000
  50
270
  51
0.0
  0
LINE
  8
0
  62
    0
  10
214.2748
  20
32.52613
  30
0.0
  11
214.2748
  21
20.52613
  31
0.0
  0
ARC
  8
0
  62
    0
  10
213.2748
  20
32.52613
  30
0.0
  40
1.0000000
  50
0.0
  51
90
  0
LINE
  8
0
  62
    0
  10
201.2748
  20
33.52613
  30
0.0
  11
213.2748
  21
33.52613
  31
0.0
  0
ARC
  8
0
  62
    0
  10
201.2748
  20
32.52613
  30
0.0
  40
1.0000000
  50
90
  51
180
  0
LINE
  8
0
  62
    0
  10
117.9378
  20
34.52614
  30
0.0
  11
117.9378
  21
21.52613
  31
0.0
  0
ARC
  8
0
  62
    0
  10
116.9378
  20
34.52614
  30
0.0
  40
1.0000000
  50
0.0
  51
90
  0
LINE
  8
0
  62
    0
  10
111.9378
  20
35.52614
  30
0.0
  11
116.9378
  21
35.52614
  31
0.0
  0
ARC
  8
0
  62
    0
  10
111.9378
  20
34.52614
  30
0.0
  40
1.0000000
  50
90
  51
180
  0
ARC
  8
0
  62
    0
  10
109.9378
  20
34.52614
  30
0.0
  40
1.0000000
  50
270
  51
0.0
  0
LINE
  8
0
  62
    0
  10
95.06178
  20
33.52613
  30
0.0
  11
109.9378
  21
33.52613
  31
0.0
  0
ARC
  8
0
  62
    0
  10
95.06178
  20
34.52614
  30
0.0
  40
1.0000000
  50
180
  51
270
  0
ARC
  8
0
  62
    0
  10
93.06178
  20
34.52614
  30
0.0
  40
1.0000000
  50
0.0
  51
90
  0
LINE
  8
0
  62
    0
  10
83.33727
  20
35.52614
  30
0.0
  11
93.06178
  21
35.52614
  31
0.0
  0
ARC
  8
0
  62
    0
  10
83.33727
  20
34.52614
  30
0.0
  40
1.0000000
  50
90
  51
180
  0
LINE
  8
0
  62
    0
  10
82.33727
  20
21.52613
  30
0.0
  11
82.33727
  21
34.52614
  31
0.0
  0
ARC
  8
0
  62
    0
  10
83.33727
  20
21.52613
  30
0.0
  40
1.0000000
  50
180
  51
270
  0
LINE
  8
0
  62
    0
  10
94.76772
  20
20.52613
  30
0.0
  11
83.33727
  21
20.52613
  31
0.0
  0
ARC
  8
0
  62
    0
  10
94.76772
  20
19.52613
  30
0.0
  40
1.000002
  50
29.99993
  51
90
  0
ARC
  8
0
  62
    0
  10
96.49978
  20
20.52613
  30
0.0
  40
1.000002
  50
209.9999
  51
270
  0
LINE
  8
0
  62
    0
  10
108.4998
  20
19.52613
  30
0.0
  11
96.49978
  21
19.52613
  31
0.0
  0
ARC
  8
0
  62
    0
  10
108.4998
  20
20.52613
  30
0.0
  40
1.0000000
  50
270
  51
330.0001
  0
ARC
  8
0
  62
    0
  10
110.2318
  20
19.52613
  30
0.0
  40
1.0000000
  50
90
  51
150.0001
  0
LINE
  8
0
  62
    0
  10
116.9378
  20
20.52613
  30
0.0
  11
110.2318
  21
20.52613
  31
0.0
  0
ARC
  8
0
  62
    0
  10
116.9378
  20
21.52613
  30
0.0
  40
1.0000000
  50
270
  51
0.0
  0
ARC
  8
0
  62
    0
  10
213.1811
  20
39.57614
  30
0.0
  40
1.0000000
  50
180
  51
270
  0
LINE
  8
0
  62
    0
  10
225.1811
  20
38.57614
  30
0.0
  11
213.1811
  21
38.57614
  31
0.0
  0
ARC
  8
0
  62
    0
  10
225.1811
  20
39.57614
  30
0.0
  40
1.0000000
  50
270
  51
0.0
  0
LINE
  8
0
  62
    0
  10
226.1811
  20
51.57615
  30
0.0
  11
226.1811
  21
39.57614
  31
0.0
  0
ARC
  8
0
  62
    0
  10
225.1811
  20
51.57615
  30
0.0
  40
1.0000000
  50
0.0
  51
90
  0
LINE
  8
0
  62
    0
  10
213.1811
  20
52.57615
  30
0.0
  11
225.1811
  21
52.57615
  31
0.0
  0
ARC
  8
0
  62
    0
  10
213.1811
  20
51.57615
  30
0.0
  40
1.0000000
  50
90
  51
180
  0
LINE
  8
0
  62
    0
  10
212.1811
  20
39.57614
  30
0.0
  11
212.1811
  21
51.57615
  31
0.0
  0
ARC
  8
0
  62
    0
  10
60.78101
  20
20.52613
  30
0.0
  40
1.0000000
  50
180
  51
270
  0
LINE
  8
0
  62
    0
  10
75.16227
  20
19.52613
  30
0.0
  11
60.78101
  21
19.52613
  31
0.0
  0
ARC
  8
0
  62
    0
  10
75.16227
  20
20.52613
  30
0.0
  40
1.0000000
  50
270
  51
0.0
  0
LINE
  8
0
  62
    0
  10
76.16227
  20
32.52613
  30
0.0
  11
76.16227
  21
20.52613
  31
0.0
  0
ARC
  8
0
  62
    0
  10
75.16227
  20
32.52613
  30
0.0
  40
1.0000000
  50
0.0
  51
90
  0
LINE
  8
0
  62
    0
  10
60.78101
  20
33.52613
  30
0.0
  11
75.16227
  21
33.52613
  31
0.0
  0
ARC
  8
0
  62
    0
  10
60.78101
  20
32.52613
  30
0.0
  40
1.0000000
  50
90
  51
180
  0
LINE
  8
0
  62
    0
  10
59.78101
  20
20.52613
  30
0.0
  11
59.78101
  21
32.52613
  31
0.0
  0
LINE
  8
0
  62
    0
  10
40.731
  20
20.52613
  30
0.0
  11
40.731
  21
32.52613
  31
0.0
  0
ARC
  8
0
  62
    0
  10
41.731
  20
20.52613
  30
0.0
  40
1.0000000
  50
180
  51
270
  0
LINE
  8
0
  62
    0
  10
53.731
  20
19.52613
  30
0.0
  11
41.731
  21
19.52613
  31
0.0
  0
ARC
  8
0
  62
    0
  10
53.731
  20
20.52613
  30
0.0
  40
1.0000000
  50
270
  51
0.0
  0
LINE
  8
0
  62
    0
  10
54.73101
  20
32.52613
  30
0.0
  11
54.73101
  21
20.52613
  31
0.0
  0
ARC
  8
0
  62
    0
  10
53.731
  20
32.52613
  30
0.0
  40
1.0000000
  50
0.0
  51
90
  0
LINE
  8
0
  62
    0
  10
41.731
  20
33.52613
  30
0.0
  11
53.731
  21
33.52613
  31
0.0
  0
ARC
  8
0
  62
    0
  10
41.731
  20
32.52613
  30
0.0
  40
1.0000000
  50
90
  51
180
  0
ARC
  8
0
  62
    0
  10
127.456
  20
20.52613
  30
0.0
  40
1.0000000
  50
180
  51
270
  0
LINE
  8
0
  62
    0
  10
141.8373
  20
19.52613
  30
0.0
  11
127.456
  21
19.52613
  31
0.0
  0
ARC
  8
0
  62
    0
  10
141.8373
  20
20.52613
  30
0.0
  40
1.0000000
  50
270
  51
0.0
  0
LINE
  8
0
  62
    0
  10
142.8373
  20
32.52613
  30
0.0
  11
142.8373
  21
20.52613
  31
0.0
  0
ARC
  8
0
  62
    0
  10
141.8373
  20
32.52613
  30
0.0
  40
1.0000000
  50
0.0
  51
90
  0
LINE
  8
0
  62
    0
  10
127.456
  20
33.52613
  30
0.0
  11
141.8373
  21
33.52613
  31
0.0
  0
ARC
  8
0
  62
    0
  10
127.456
  20
32.52613
  30
0.0
  40
1.0000000
  50
90
  51
180
  0
LINE
  8
0
  62
    0
  10
126.456
  20
20.52613
  30
0.0
  11
126.456
  21
32.52613
  31
0.0
  0
LINE
  8
0
  62
    0
  10
239.3748
  20
52.57615
  30
0.0
  11
251.3749
  21
52.57615
  31
0.0
  0
ARC
  8
0
  62
    0
  10
239.3748
  20
51.57615
  30
0.0
  40
1.0000000
  50
90
  51
180
  0
LINE
  8
0
  62
    0
  10
238.3748
  20
39.57614
  30
0.0
  11
238.3748
  21
51.57615
  31
0.0
  0
ARC
  8
0
  62
    0
  10
239.3748
  20
39.57614
  30
0.0
  40
1.0000000
  50
180
  51
270
  0
LINE
  8
0
  62
    0
  10
251.3749
  20
38.57614
  30
0.0
  11
239.3748
  21
38.57614
  31
0.0
  0
ARC
  8
0
  62
    0
  10
251.3749
  20
39.57614
  30
0.0
  40
1.0000000
  50
270
  51
0.0
  0
LINE
  8
0
  62
    0
  10
252.3749
  20
51.57615
  30
0.0
  11
252.3749
  21
39.57614
  31
0.0
  0
ARC
  8
0
  62
    0
  10
251.3749
  20
51.57615
  30
0.0
  40
1.0000000
  50
0.0
  51
90
  0
LINE
  8
0
  62
    0
  10
21.68099
  20
77.67616
  30
0.0
  11
21.68099
  21
89.67617
  31
0.0
  0
ARC
  8
0
  62
    0
  10
22.68099
  20
77.67616
  30
0.0
  40
1.0000000
  50
180
  51
270
  0
LINE
  8
0
  62
    0
  10
34.681
  20
76.67616
  30
0.0
  11
22.68099
  21
76.67616
  31
0.0
  0
ARC
  8
0
  62
    0
  10
34.681
  20
77.67616
  30
0.0
  40
1.0000000
  50
270
  51
0.0
  0
LINE
  8
0
  62
    0
  10
35.681
  20
89.67617
  30
0.0
  11
35.681
  21
77.67616
  31
0.0
  0
ARC
  8
0
  62
    0
  10
34.681
  20
89.67617
  30
0.0
  40
1.0000000
  50
0.0
  51
90
  0
LINE
  8
0
  62
    0
  10
22.68099
  20
90.67617
  30
0.0
  11
34.681
  21
90.67617
  31
0.0
  0
ARC
  8
0
  62
    0
  10
22.68099
  20
89.67617
  30
0.0
  40
1.0000000
  50
90
  51
180
  0
LINE
  8
0
  62
    0
  10
243.1374
  20
20.52613
  30
0.0
  11
243.1374
  21
32.52613
  31
0.0
  0
ARC
  8
0
  62
    0
  10
244.1374
  20
20.52613
  30
0.0
  40
1.0000000
  50
180
  51
270
  0
LINE
  8
0
  62
    0
  10
256.1374
  20
19.52613
  30
0.0
  11
244.1374
  21
19.52613
  31
0.0
  0
ARC
  8
0
  62
    0
  10
256.1374
  20
20.52613
  30
0.0
  40
1.0000000
  50
270
  51
0.0
  0
LINE
  8
0
  62
    0
  10
257.1374
  20
32.52613
  30
0.0
  11
257.1374
  21
20.52613
  31
0.0
  0
ARC
  8
0
  62
    0
  10
256.1374
  20
32.52613
  30
0.0
  40
1.0000000
  50
0.0
  51
90
  0
LINE
  8
0
  62
    0
  10
244.1374
  20
33.52613
  30
0.0
  11
256.1374
  21
33.52613
  31
0.0
  0
ARC
  8
0
  62
    0
  10
244.1374
  20
32.52613
  30
0.0
  40
1.0000000
  50
90
  51
180
  0
LINE
  8
0
  62
    0
  10
88.35603
  20
58.62615
  30
0.0
  11
88.35603
  21
70.62616
  31
0.0
  0
ARC
  8
0
  62
    0
  10
89.35603
  20
58.62615
  30
0.0
  40
1.0000000
  50
180
  51
270
  0
LINE
  8
0
  62
    0
  10
101.356
  20
57.62615
  30
0.0
  11
89.35603
  21
57.62615
  31
0.0
  0
ARC
  8
0
  62
    0
  10
101.356
  20
58.62615
  30
0.0
  40
1.0000000
  50
270
  51
0.0
  0
LINE
  8
0
  62
    0
  10
102.356
  20
70.62616
  30
0.0
  11
102.356
  21
58.62615
  31
0.0
  0
ARC
  8
0
  62
    0
  10
101.356
  20
70.62616
  30
0.0
  40
1.0000000
  50
0.0
  51
90
  0
LINE
  8
0
  62
    0
  10
89.35603
  20
71.62616
  30
0.0
  11
101.356
  21
71.62616
  31
0.0
  0
ARC
  8
0
  62
    0
  10
89.35603
  20
70.62616
  30
0.0
  40
1.0000000
  50
90
  51
180
  0
ARC
  8
0
  62
    0
  10
51.256
  20
58.62615
  30
0.0
  40
1.0000000
  50
180
  51
270
  0
LINE
  8
0
  62
    0
  10
63.25601
  20
57.62615
  30
0.0
  11
51.256
  21
57.62615
  31
0.0
  0
ARC
  8
0
  62
    0
  10
63.25601
  20
58.62615
  30
0.0
  40
1.0000000
  50
270
  51
0.0
  0
LINE
  8
0
  62
    0
  10
64.25601
  20
70.62616
  30
0.0
  11
64.25601
  21
58.62615
  31
0.0
  0
ARC
  8
0
  62
    0
  10
63.25601
  20
70.62616
  30
0.0
  40
1.000004
  50
0.0
  51
90
  0
LINE
  8
0
  62
    0
  10
51.256
  20
71.62616
  30
0.0
  11
63.25601
  21
71.62616
  31
0.0
  0
ARC
  8
0
  62
    0
  10
51.256
  20
70.62616
  30
0.0
  40
1.0000000
  50
90
  51
180
  0
LINE
  8
0
  62
    0
  10
50.256
  20
58.62615
  30
0.0
  11
50.256
  21
70.62616
  31
0.0
  0
ARC
  8
0
  62
    0
  10
241.7561
  20
77.67616
  30
0.0
  40
1.0000000
  50
180
  51
270
  0
LINE
  8
0
  62
    0
  10
253.7561
  20
76.67616
  30
0.0
  11
241.7561
  21
76.67616
  31
0.0
  0
ARC
  8
0
  62
    0
  10
253.7561
  20
77.67616
  30
0.0
  40
1.0000000
  50
270
  51
0.0
  0
LINE
  8
0
  62
    0
  10
254.7561
  20
89.67617
  30
0.0
  11
254.7561
  21
77.67616
  31
0.0
  0
ARC
  8
0
  62
    0
  10
253.7561
  20
89.67617
  30
0.0
  40
1.0000000
  50
0.0
  51
90
  0
LINE
  8
0
  62
    0
  10
241.7561
  20
90.67617
  30
0.0
  11
253.7561
  21
90.67617
  31
0.0
  0
ARC
  8
0
  62
    0
  10
241.7561
  20
89.67617
  30
0.0
  40
1.0000000
  50
90
  51
180
  0
LINE
  8
0
  62
    0
  10
240.7561
  20
77.67616
  30
0.0
  11
240.7561
  21
89.67617
  31
0.0
  0
LINE
  8
0
  62
    0
  10
197.8936
  20
77.67616
  30
0.0
  11
197.8936
  21
89.67617
  31
0.0
  0
ARC
  8
0
  62
    0
  10
198.8936
  20
77.67616
  30
0.0
  40
1.0000000
  50
180
  51
270
  0
LINE
  8
0
  62
    0
  10
210.8936
  20
76.67616
  30
0.0
  11
198.8936
  21
76.67616
  31
0.0
  0
ARC
  8
0
  62
    0
  10
210.8936
  20
77.67616
  30
0.0
  40
1.0000000
  50
270
  51
0.0
  0
LINE
  8
0
  62
    0
  10
211.8936
  20
89.67617
  30
0.0
  11
211.8936
  21
77.67616
  31
0.0
  0
ARC
  8
0
  62
    0
  10
210.8936
  20
89.67617
  30
0.0
  40
1.0000000
  50
0.0
  51
90
  0
LINE
  8
0
  62
    0
  10
198.8936
  20
90.67617
  30
0.0
  11
210.8936
  21
90.67617
  31
0.0
  0
ARC
  8
0
  62
    0
  10
198.8936
  20
89.67617
  30
0.0
  40
1.0000000
  50
90
  51
180
  0
LINE
  8
0
  62
    0
  10
258.7339
  20
124.1985
  30
0.0
  11
146.6771
  21
124.1994
  31
0.0
  0
ARC
  8
0
  62
    0
  10
258.737
  20
112.8914
  30
0.0
  40
11.30707
  50
0.0157347
  51
90.01577
  0
LINE
  8
0
  62
    0
  10
270.0432
  20
20.30219
  30
0.0
  11
270.044
  21
112.8945
  31
0.0
  0
ARC
  8
0
  62
    0
  10
258.7362
  20
20.30549
  30
0.0
  40
11.30707
  50
269.9839
  51
359.9833
  0
LINE
  8
0
  62
    0
  10
17.69699
  20
8.998425
  30
0.0
  11
258.733
  21
8.998425
  31
0.0
  0
ARC
  8
0
  62
    0
  10
17.70017
  20
20.30549
  30
0.0
  40
11.30707
  50
179.9833
  51
269.9839
  0
LINE
  8
0
  62
    0
  10
6.393893
  20
112.8968
  30
0.0
  11
6.393101
  21
20.30879
  31
0.0
  0
ARC
  8
0
  62
    0
  10
17.70096
  20
112.8935
  30
0.0
  40
11.30707
  50
90.01573
  51
179.9833
  0
LINE
  8
0
  62
    0
  10
129.6771
  20
124.1996
  30
0.0
  11
17.69785
  21
124.2005
  31
0.0
  0
ARC
  8
0
  62
    0
  10
129.677
  20
122.1996
  30
0.0
  40
2
  50
0.0
  51
90
  0
LINE
  8
0
  62
    0
  10
131.677
  20
118.6746
  30
0.0
  11
131.677
  21
122.1996
  31
0.0
  0
ARC
  8
0
  62
    0
  10
129.677
  20
118.6746
  30
0.0
  40
2
  50
270
  51
0.0
  0
LINE
  8
0
  62
    0
  10
17.70284
  20
116.6755
  30
0.0
  11
129.677
  21
116.6746
  31
0.0
  0
ARC
  8
0
  62
    0
  10
17.70096
  20
112.8935
  30
0.0
  40
3.782059
  50
89.97145
  51
179.9715
  0
LINE
  8
0
  62
    0
  10
13.91877
  20
97.45821
  30
0.0
  11
13.9189
  21
112.8954
  31
0.0
  0
ARC
  8
0
  62
    0
  10
17.70077
  20
97.45817
  30
0.0
  40
3.782001
  50
180
  51
270
  0
LINE
  8
0
  62
    0
  10
258.7369
  20
93.67411
  30
0.0
  11
17.70074
  21
93.67617
  31
0.0
  0
ARC
  8
0
  62
    0
  10
258.7369
  20
97.45611
  30
0.0
  40
3.782005
  50
270
  51
0.0
  0
LINE
  8
0
  62
    0
  10
262.519
  20
112.8932
  30
0.0
  11
262.5189
  21
97.45608
  31
0.0
  0
ARC
  8
0
  62
    0
  10
258.737
  20
112.8914
  30
0.0
  40
3.782074
  50
0.0276236
  51
89.97134
  0
LINE
  8
0
  62
    0
  10
146.677
  20
116.6744
  30
0.0
  11
258.7389
  21
116.6735
  31
0.0
  0
ARC
  8
0
  62
    0
  10
146.677
  20
118.6744
  30
0.0
  40
2
  50
180
  51
270
  0
LINE
  8
0
  62
    0
  10
144.677
  20
122.1995
  30
0.0
  11
144.677
  21
118.6745
  31
0.0
  0
ARC
  8
0
  62
    0
  10
146.677
  20
122.1994
  30
0.0
  40
2
  50
90
  51
180
  0
CIRCLE
  8
0
  62
    7
  10
15.01366
  20
12.49843
  30
0.0
  40
1.7
  0
CIRCLE
  8
0
  62
    7
  10
261.4215
  20
120.7005
  30
0.0
  40
1.700008
  0
CIRCLE
  8
0
  62
    7
  10
261.4227
  20
12.49843
  30
0.0
  40
1.70001
  0
CIRCLE
  8
0
  62
    7
  10
97.15015
  20
120.7005
  30
0.0
  40
1.700008
  0
CIRCLE
  8
0
  62
    7
  10
179.2858
  20
120.7005
  30
0.0
  40
1.699992
  0
CIRCLE
  8
0
  62
    7
  10
97.14934
  20
12.49843
  30
0.0
  40
1.700006
  0
CIRCLE
  8
0
  62
    7
  10
179.285
  20
12.49843
  30
0.0
  40
1.699992
  0
ENDSEC
  0
EOF
